G04 #@! TF.GenerationSoftware,KiCad,Pcbnew,(5.1.5)-3*
G04 #@! TF.CreationDate,2021-02-24T13:15:57+01:00*
G04 #@! TF.ProjectId,Projekt,50726f6a-656b-4742-9e6b-696361645f70,rev?*
G04 #@! TF.SameCoordinates,PX3778af0PY9765530*
G04 #@! TF.FileFunction,Copper,L2,Bot*
G04 #@! TF.FilePolarity,Positive*
%FSLAX46Y46*%
G04 Gerber Fmt 4.6, Leading zero omitted, Abs format (unit mm)*
G04 Created by KiCad (PCBNEW (5.1.5)-3) date 2021-02-24 13:15:57*
%MOMM*%
%LPD*%
G04 APERTURE LIST*
%ADD10R,1.500000X3.000000*%
%ADD11R,1.500000X5.000000*%
%ADD12C,1.524000*%
%ADD13O,2.100000X2.100000*%
%ADD14R,2.100000X2.100000*%
%ADD15C,1.600000*%
%ADD16O,1.600000X1.600000*%
%ADD17C,2.000000*%
%ADD18C,1.800000*%
%ADD19C,1.000000*%
%ADD20C,0.254000*%
G04 APERTURE END LIST*
D10*
X51562000Y15748000D03*
X91440000Y16002000D03*
X66548000Y16002000D03*
X56642000Y15748000D03*
D11*
X3810000Y5334000D03*
X6350000Y5334000D03*
X19050000Y5334000D03*
X16510000Y5334000D03*
X13970000Y5334000D03*
X11430000Y5334000D03*
X8890000Y5334000D03*
D10*
X96520000Y16002000D03*
X86614000Y16002000D03*
X76454000Y16002000D03*
X71628000Y16002000D03*
X81534000Y16002000D03*
X61468000Y15748000D03*
X46736000Y15748000D03*
D12*
X51562000Y8660000D03*
X51562000Y11660000D03*
X111506000Y8636000D03*
X111506000Y11636000D03*
X121412000Y8636000D03*
X121412000Y11636000D03*
D13*
X8890000Y10414000D03*
X8890000Y12954000D03*
X11430000Y10414000D03*
X11430000Y12954000D03*
X13970000Y10414000D03*
X13970000Y12954000D03*
X16510000Y10414000D03*
X16510000Y12954000D03*
X19050000Y10414000D03*
X19050000Y12954000D03*
X21590000Y10414000D03*
X21590000Y12954000D03*
X24130000Y10414000D03*
D14*
X24130000Y12954000D03*
D12*
X116586000Y8636000D03*
X116586000Y11636000D03*
D15*
X68834000Y5334000D03*
D16*
X81534000Y5334000D03*
D12*
X101600000Y8684000D03*
X101600000Y11684000D03*
X91440000Y8684000D03*
X91440000Y11684000D03*
X96520000Y8684000D03*
X96520000Y11684000D03*
X106426000Y8636000D03*
X106426000Y11636000D03*
D15*
X99314000Y5334000D03*
D16*
X86614000Y5334000D03*
D12*
X56642000Y8636000D03*
X56642000Y11636000D03*
D17*
X126056000Y13716000D03*
X130556000Y13716000D03*
X126056000Y7216000D03*
X130556000Y7216000D03*
D12*
X46736000Y8684000D03*
X46736000Y11684000D03*
X66548000Y8660000D03*
X66548000Y11660000D03*
X71628000Y8636000D03*
X71628000Y11636000D03*
X76454000Y8660000D03*
X76454000Y11660000D03*
X86614000Y8636000D03*
X86614000Y11636000D03*
X81534000Y8636000D03*
X81534000Y11636000D03*
X61468000Y8684000D03*
X61468000Y11684000D03*
D11*
X21590000Y5334000D03*
X41656000Y11176000D03*
D13*
X8890000Y20574000D03*
X8890000Y23114000D03*
X11430000Y20574000D03*
X11430000Y23114000D03*
X13970000Y20574000D03*
X13970000Y23114000D03*
X16510000Y20574000D03*
X16510000Y23114000D03*
X19050000Y20574000D03*
X19050000Y23114000D03*
X21590000Y20574000D03*
X21590000Y23114000D03*
X24130000Y20574000D03*
D14*
X24130000Y23114000D03*
D10*
X121412000Y16002000D03*
X116586000Y16002000D03*
X106426000Y16002000D03*
X101600000Y16002000D03*
X111506000Y16002000D03*
D18*
X33782000Y13462000D03*
X34412001Y3846000D03*
X84074000Y7112000D03*
X38608000Y6350000D03*
X28956000Y22860000D03*
X26924000Y12446000D03*
X30988000Y10414000D03*
X29605990Y18533037D03*
X9144000Y16764000D03*
X6096000Y8890000D03*
D19*
X46736000Y11684000D02*
X46736000Y15240000D01*
X51562000Y11660000D02*
X51562000Y15240000D01*
X56642000Y11636000D02*
X56642000Y15240000D01*
X61468000Y11684000D02*
X61468000Y15240000D01*
X66548000Y11660000D02*
X66548000Y15240000D01*
X71628000Y11636000D02*
X71628000Y15240000D01*
X76454000Y11660000D02*
X76454000Y15240000D01*
X81534000Y11636000D02*
X81534000Y15240000D01*
X86614000Y11636000D02*
X86614000Y15240000D01*
X96520000Y11684000D02*
X96520000Y15240000D01*
X91440000Y11684000D02*
X91440000Y15240000D01*
X101600000Y11684000D02*
X101600000Y15240000D01*
X130556000Y7216000D02*
X130556000Y13716000D01*
X128200223Y3446010D02*
X124337999Y3446010D01*
X21590000Y10414000D02*
X21590000Y6350000D01*
X32882001Y14361999D02*
X29667999Y14361999D01*
X25741998Y18288000D02*
X22391076Y18288000D01*
X33782000Y13462000D02*
X32882001Y14361999D01*
X130556000Y5801787D02*
X128200223Y3446010D01*
X21590000Y10414000D02*
X21590000Y8929076D01*
X22391076Y18288000D02*
X21590000Y19089076D01*
X21590000Y6350000D02*
X21590000Y5289340D01*
X23445341Y3433999D02*
X124337999Y3433999D01*
X29667999Y14361999D02*
X25741998Y18288000D01*
X21590000Y5289340D02*
X23445341Y3433999D01*
X130556000Y7216000D02*
X130556000Y5801787D01*
X21590000Y19089076D02*
X21590000Y20574000D01*
X19050000Y10414000D02*
X19050000Y6350000D01*
X19050000Y20574000D02*
X19050000Y23114000D01*
X19050000Y12954000D02*
X19050000Y20574000D01*
X19050000Y10414000D02*
X19050000Y12954000D01*
X16510000Y10414000D02*
X16510000Y6350000D01*
X16510000Y23114000D02*
X16510000Y10414000D01*
X11430000Y10414000D02*
X11430000Y6350000D01*
X11430000Y23114000D02*
X11430000Y10414000D01*
X6840000Y10414000D02*
X6739999Y10514001D01*
X8890000Y10414000D02*
X6840000Y10414000D01*
X6739999Y18423999D02*
X7840001Y19524001D01*
X7840001Y19524001D02*
X8890000Y20574000D01*
X6739999Y10514001D02*
X6739999Y18423999D01*
X8890000Y10414000D02*
X8890000Y6350000D01*
X106426000Y11636000D02*
X106426000Y15240000D01*
X111506000Y11636000D02*
X111506000Y15240000D01*
X116586000Y11636000D02*
X116586000Y15240000D01*
X121412000Y11636000D02*
X121412000Y15240000D01*
X46736000Y8684000D02*
X81486000Y8684000D01*
X66548000Y7620000D02*
X68834000Y5334000D01*
X66548000Y8660000D02*
X66548000Y7620000D01*
X81486000Y8684000D02*
X81534000Y8636000D01*
X86614000Y8636000D02*
X121412000Y8636000D01*
X101600000Y7620000D02*
X99314000Y5334000D01*
X101600000Y8684000D02*
X101600000Y7620000D01*
X13970000Y10414000D02*
X13970000Y6350000D01*
X13970000Y10414000D02*
X13970000Y23114000D01*
X81534000Y5334000D02*
X86614000Y5334000D01*
X126056000Y13716000D02*
X126056000Y7216000D01*
X21590000Y16764000D02*
X21652321Y16764000D01*
X29353242Y12414001D02*
X31948001Y12414001D01*
X3539979Y21511658D02*
X3539979Y7890021D01*
X21728331Y16687990D02*
X25079253Y16687990D01*
X31605990Y25264001D02*
X22255077Y25264001D01*
X36974010Y16873990D02*
X32285509Y16873990D01*
X31948001Y12414001D02*
X33440002Y10922000D01*
X21590000Y24598924D02*
X21590000Y23114000D01*
X33440002Y10922000D02*
X35306000Y10922000D01*
X22255077Y25264001D02*
X21590000Y24598924D01*
X25079253Y16687990D02*
X29353242Y12414001D01*
X36974010Y12590010D02*
X36974010Y16873990D01*
X21590000Y12954000D02*
X21590000Y16764000D01*
X21590000Y23756002D02*
X20082001Y25264001D01*
X20082001Y25264001D02*
X7292322Y25264001D01*
X21652321Y16764000D02*
X21728331Y16687990D01*
X32285509Y16873990D02*
X31605990Y17553509D01*
X31605990Y17553509D02*
X31605990Y25264001D01*
X35306000Y10922000D02*
X36974010Y12590010D01*
X7292322Y25264001D02*
X3539979Y21511658D01*
X21590000Y23114000D02*
X21590000Y23756002D01*
X27565027Y20574000D02*
X29605990Y18533037D01*
X24130000Y20574000D02*
X27565027Y20574000D01*
X30988000Y10414000D02*
X24130000Y10414000D01*
X5139989Y12386011D02*
X5139989Y9846011D01*
X5139989Y9846011D02*
X6096000Y8890000D01*
X6096000Y8890000D02*
X6096000Y7874000D01*
X8890000Y23114000D02*
X7405076Y23114000D01*
X5139989Y20848913D02*
X5139989Y12386011D01*
X8890000Y16510000D02*
X9144000Y16764000D01*
X7405076Y23114000D02*
X5139989Y20848913D01*
X8890000Y12954000D02*
X8890000Y16510000D01*
D20*
G36*
X22860000Y9170943D02*
G01*
X22997229Y9033714D01*
X23288275Y8839243D01*
X23611668Y8705289D01*
X23954981Y8637000D01*
X24305019Y8637000D01*
X24648332Y8705289D01*
X24971725Y8839243D01*
X25262771Y9033714D01*
X25416058Y9187001D01*
X29914075Y9187000D01*
X29950848Y9150227D01*
X30217327Y8972172D01*
X30513422Y8849525D01*
X30827755Y8787000D01*
X31148245Y8787000D01*
X31462578Y8849525D01*
X31758673Y8972172D01*
X32025152Y9150227D01*
X32251773Y9376848D01*
X32429828Y9643327D01*
X32552475Y9939422D01*
X32573620Y10045723D01*
X32755020Y9896851D01*
X32968179Y9782916D01*
X33199469Y9712755D01*
X33379735Y9695000D01*
X33379742Y9695000D01*
X33440002Y9689065D01*
X33500263Y9695000D01*
X35245730Y9695001D01*
X35306000Y9689065D01*
X35546533Y9712755D01*
X35675774Y9751960D01*
X35777824Y9782917D01*
X35990983Y9896852D01*
X36177817Y10050184D01*
X36216234Y10096995D01*
X37799015Y11679775D01*
X37845827Y11718193D01*
X37999159Y11905027D01*
X38113094Y12118186D01*
X38183255Y12349476D01*
X38201010Y12529742D01*
X38201010Y12529749D01*
X38206945Y12590009D01*
X38201010Y12650269D01*
X38201010Y16813722D01*
X38206946Y16873990D01*
X38201010Y16934258D01*
X38183255Y17114524D01*
X38115161Y17339000D01*
X45264446Y17339000D01*
X45255483Y17248000D01*
X45255483Y14248000D01*
X45269520Y14105483D01*
X45311090Y13968443D01*
X45378597Y13842147D01*
X45469446Y13731446D01*
X45509000Y13698985D01*
X45509000Y12527794D01*
X45416465Y12389306D01*
X45304221Y12118325D01*
X45247000Y11830654D01*
X45247000Y11537346D01*
X45304221Y11249675D01*
X45416465Y10978694D01*
X45579418Y10734818D01*
X45786818Y10527418D01*
X46030694Y10364465D01*
X46301675Y10252221D01*
X46589346Y10195000D01*
X46882654Y10195000D01*
X47170325Y10252221D01*
X47441306Y10364465D01*
X47685182Y10527418D01*
X47892582Y10734818D01*
X48055535Y10978694D01*
X48167779Y11249675D01*
X48225000Y11537346D01*
X48225000Y11830654D01*
X48167779Y12118325D01*
X48055535Y12389306D01*
X47963000Y12527794D01*
X47963000Y13698985D01*
X48002554Y13731446D01*
X48093403Y13842147D01*
X48160910Y13968443D01*
X48202480Y14105483D01*
X48216517Y14248000D01*
X48216517Y17248000D01*
X48207554Y17339000D01*
X50090446Y17339000D01*
X50081483Y17248000D01*
X50081483Y14248000D01*
X50095520Y14105483D01*
X50137090Y13968443D01*
X50204597Y13842147D01*
X50295446Y13731446D01*
X50335000Y13698985D01*
X50335000Y12503794D01*
X50242465Y12365306D01*
X50130221Y12094325D01*
X50073000Y11806654D01*
X50073000Y11513346D01*
X50130221Y11225675D01*
X50242465Y10954694D01*
X50405418Y10710818D01*
X50612818Y10503418D01*
X50856694Y10340465D01*
X51127675Y10228221D01*
X51415346Y10171000D01*
X51708654Y10171000D01*
X51996325Y10228221D01*
X52267306Y10340465D01*
X52511182Y10503418D01*
X52718582Y10710818D01*
X52881535Y10954694D01*
X52993779Y11225675D01*
X53051000Y11513346D01*
X53051000Y11806654D01*
X52993779Y12094325D01*
X52881535Y12365306D01*
X52789000Y12503794D01*
X52789000Y13698985D01*
X52828554Y13731446D01*
X52919403Y13842147D01*
X52986910Y13968443D01*
X53028480Y14105483D01*
X53042517Y14248000D01*
X53042517Y17248000D01*
X53033554Y17339000D01*
X55170446Y17339000D01*
X55161483Y17248000D01*
X55161483Y14248000D01*
X55175520Y14105483D01*
X55217090Y13968443D01*
X55284597Y13842147D01*
X55375446Y13731446D01*
X55415000Y13698985D01*
X55415000Y12479794D01*
X55322465Y12341306D01*
X55210221Y12070325D01*
X55153000Y11782654D01*
X55153000Y11489346D01*
X55210221Y11201675D01*
X55322465Y10930694D01*
X55485418Y10686818D01*
X55692818Y10479418D01*
X55936694Y10316465D01*
X56207675Y10204221D01*
X56495346Y10147000D01*
X56788654Y10147000D01*
X57076325Y10204221D01*
X57347306Y10316465D01*
X57591182Y10479418D01*
X57798582Y10686818D01*
X57961535Y10930694D01*
X58073779Y11201675D01*
X58131000Y11489346D01*
X58131000Y11782654D01*
X58073779Y12070325D01*
X57961535Y12341306D01*
X57869000Y12479794D01*
X57869000Y13698985D01*
X57908554Y13731446D01*
X57999403Y13842147D01*
X58066910Y13968443D01*
X58108480Y14105483D01*
X58122517Y14248000D01*
X58122517Y17248000D01*
X58113554Y17339000D01*
X59996446Y17339000D01*
X59987483Y17248000D01*
X59987483Y14248000D01*
X60001520Y14105483D01*
X60043090Y13968443D01*
X60110597Y13842147D01*
X60201446Y13731446D01*
X60241000Y13698985D01*
X60241000Y12527794D01*
X60148465Y12389306D01*
X60036221Y12118325D01*
X59979000Y11830654D01*
X59979000Y11537346D01*
X60036221Y11249675D01*
X60148465Y10978694D01*
X60311418Y10734818D01*
X60518818Y10527418D01*
X60762694Y10364465D01*
X61033675Y10252221D01*
X61321346Y10195000D01*
X61614654Y10195000D01*
X61902325Y10252221D01*
X62173306Y10364465D01*
X62417182Y10527418D01*
X62624582Y10734818D01*
X62787535Y10978694D01*
X62899779Y11249675D01*
X62957000Y11537346D01*
X62957000Y11830654D01*
X62899779Y12118325D01*
X62787535Y12389306D01*
X62695000Y12527794D01*
X62695000Y13698985D01*
X62734554Y13731446D01*
X62825403Y13842147D01*
X62892910Y13968443D01*
X62934480Y14105483D01*
X62948517Y14248000D01*
X62948517Y17248000D01*
X62939554Y17339000D01*
X65067483Y17339000D01*
X65067483Y14502000D01*
X65081520Y14359483D01*
X65123090Y14222443D01*
X65190597Y14096147D01*
X65281446Y13985446D01*
X65321000Y13952985D01*
X65321000Y12503794D01*
X65228465Y12365306D01*
X65116221Y12094325D01*
X65059000Y11806654D01*
X65059000Y11513346D01*
X65116221Y11225675D01*
X65228465Y10954694D01*
X65391418Y10710818D01*
X65598818Y10503418D01*
X65842694Y10340465D01*
X66113675Y10228221D01*
X66401346Y10171000D01*
X66694654Y10171000D01*
X66982325Y10228221D01*
X67253306Y10340465D01*
X67497182Y10503418D01*
X67704582Y10710818D01*
X67867535Y10954694D01*
X67979779Y11225675D01*
X68037000Y11513346D01*
X68037000Y11806654D01*
X67979779Y12094325D01*
X67867535Y12365306D01*
X67775000Y12503794D01*
X67775000Y13952985D01*
X67814554Y13985446D01*
X67905403Y14096147D01*
X67972910Y14222443D01*
X68014480Y14359483D01*
X68028517Y14502000D01*
X68028517Y17339000D01*
X70147483Y17339000D01*
X70147483Y14502000D01*
X70161520Y14359483D01*
X70203090Y14222443D01*
X70270597Y14096147D01*
X70361446Y13985446D01*
X70401000Y13952985D01*
X70401000Y12479794D01*
X70308465Y12341306D01*
X70196221Y12070325D01*
X70139000Y11782654D01*
X70139000Y11489346D01*
X70196221Y11201675D01*
X70308465Y10930694D01*
X70471418Y10686818D01*
X70678818Y10479418D01*
X70922694Y10316465D01*
X71193675Y10204221D01*
X71481346Y10147000D01*
X71774654Y10147000D01*
X72062325Y10204221D01*
X72333306Y10316465D01*
X72577182Y10479418D01*
X72784582Y10686818D01*
X72947535Y10930694D01*
X73059779Y11201675D01*
X73117000Y11489346D01*
X73117000Y11782654D01*
X73059779Y12070325D01*
X72947535Y12341306D01*
X72855000Y12479794D01*
X72855000Y13952985D01*
X72894554Y13985446D01*
X72985403Y14096147D01*
X73052910Y14222443D01*
X73094480Y14359483D01*
X73108517Y14502000D01*
X73108517Y17339000D01*
X74973483Y17339000D01*
X74973483Y14502000D01*
X74987520Y14359483D01*
X75029090Y14222443D01*
X75096597Y14096147D01*
X75187446Y13985446D01*
X75227000Y13952985D01*
X75227000Y12503794D01*
X75134465Y12365306D01*
X75022221Y12094325D01*
X74965000Y11806654D01*
X74965000Y11513346D01*
X75022221Y11225675D01*
X75134465Y10954694D01*
X75297418Y10710818D01*
X75504818Y10503418D01*
X75748694Y10340465D01*
X76019675Y10228221D01*
X76307346Y10171000D01*
X76600654Y10171000D01*
X76888325Y10228221D01*
X77159306Y10340465D01*
X77403182Y10503418D01*
X77610582Y10710818D01*
X77773535Y10954694D01*
X77885779Y11225675D01*
X77943000Y11513346D01*
X77943000Y11806654D01*
X77885779Y12094325D01*
X77773535Y12365306D01*
X77681000Y12503794D01*
X77681000Y13952985D01*
X77720554Y13985446D01*
X77811403Y14096147D01*
X77878910Y14222443D01*
X77920480Y14359483D01*
X77934517Y14502000D01*
X77934517Y17339000D01*
X80053483Y17339000D01*
X80053483Y14502000D01*
X80067520Y14359483D01*
X80109090Y14222443D01*
X80176597Y14096147D01*
X80267446Y13985446D01*
X80307000Y13952985D01*
X80307000Y12479794D01*
X80214465Y12341306D01*
X80102221Y12070325D01*
X80045000Y11782654D01*
X80045000Y11489346D01*
X80102221Y11201675D01*
X80214465Y10930694D01*
X80377418Y10686818D01*
X80584818Y10479418D01*
X80828694Y10316465D01*
X81099675Y10204221D01*
X81387346Y10147000D01*
X81680654Y10147000D01*
X81968325Y10204221D01*
X82239306Y10316465D01*
X82483182Y10479418D01*
X82690582Y10686818D01*
X82853535Y10930694D01*
X82965779Y11201675D01*
X83023000Y11489346D01*
X83023000Y11782654D01*
X82965779Y12070325D01*
X82853535Y12341306D01*
X82761000Y12479794D01*
X82761000Y13952985D01*
X82800554Y13985446D01*
X82891403Y14096147D01*
X82958910Y14222443D01*
X83000480Y14359483D01*
X83014517Y14502000D01*
X83014517Y17339000D01*
X85133483Y17339001D01*
X85133483Y14502000D01*
X85147520Y14359483D01*
X85189090Y14222443D01*
X85256597Y14096147D01*
X85347446Y13985446D01*
X85387000Y13952985D01*
X85387000Y12479794D01*
X85294465Y12341306D01*
X85182221Y12070325D01*
X85125000Y11782654D01*
X85125000Y11489346D01*
X85182221Y11201675D01*
X85294465Y10930694D01*
X85457418Y10686818D01*
X85664818Y10479418D01*
X85908694Y10316465D01*
X86179675Y10204221D01*
X86467346Y10147000D01*
X86760654Y10147000D01*
X87048325Y10204221D01*
X87319306Y10316465D01*
X87563182Y10479418D01*
X87770582Y10686818D01*
X87933535Y10930694D01*
X88045779Y11201675D01*
X88103000Y11489346D01*
X88103000Y11782654D01*
X88045779Y12070325D01*
X87933535Y12341306D01*
X87841000Y12479794D01*
X87841000Y13952985D01*
X87880554Y13985446D01*
X87971403Y14096147D01*
X88038910Y14222443D01*
X88080480Y14359483D01*
X88094517Y14502000D01*
X88094517Y17339001D01*
X89959483Y17339001D01*
X89959483Y14502000D01*
X89973520Y14359483D01*
X90015090Y14222443D01*
X90082597Y14096147D01*
X90173446Y13985446D01*
X90213000Y13952985D01*
X90213000Y12527794D01*
X90120465Y12389306D01*
X90008221Y12118325D01*
X89951000Y11830654D01*
X89951000Y11537346D01*
X90008221Y11249675D01*
X90120465Y10978694D01*
X90283418Y10734818D01*
X90490818Y10527418D01*
X90734694Y10364465D01*
X91005675Y10252221D01*
X91293346Y10195000D01*
X91586654Y10195000D01*
X91874325Y10252221D01*
X92145306Y10364465D01*
X92389182Y10527418D01*
X92596582Y10734818D01*
X92759535Y10978694D01*
X92871779Y11249675D01*
X92929000Y11537346D01*
X92929000Y11830654D01*
X92871779Y12118325D01*
X92759535Y12389306D01*
X92667000Y12527794D01*
X92667000Y13952985D01*
X92706554Y13985446D01*
X92797403Y14096147D01*
X92864910Y14222443D01*
X92906480Y14359483D01*
X92920517Y14502000D01*
X92920517Y17339001D01*
X95039483Y17339001D01*
X95039483Y14502000D01*
X95053520Y14359483D01*
X95095090Y14222443D01*
X95162597Y14096147D01*
X95253446Y13985446D01*
X95293000Y13952985D01*
X95293000Y12527794D01*
X95200465Y12389306D01*
X95088221Y12118325D01*
X95031000Y11830654D01*
X95031000Y11537346D01*
X95088221Y11249675D01*
X95200465Y10978694D01*
X95363418Y10734818D01*
X95570818Y10527418D01*
X95814694Y10364465D01*
X96085675Y10252221D01*
X96373346Y10195000D01*
X96666654Y10195000D01*
X96954325Y10252221D01*
X97225306Y10364465D01*
X97469182Y10527418D01*
X97676582Y10734818D01*
X97839535Y10978694D01*
X97951779Y11249675D01*
X98009000Y11537346D01*
X98009000Y11830654D01*
X97951779Y12118325D01*
X97839535Y12389306D01*
X97747000Y12527794D01*
X97747000Y13952985D01*
X97786554Y13985446D01*
X97877403Y14096147D01*
X97944910Y14222443D01*
X97986480Y14359483D01*
X98000517Y14502000D01*
X98000517Y17339001D01*
X100119483Y17339001D01*
X100119483Y14502000D01*
X100133520Y14359483D01*
X100175090Y14222443D01*
X100242597Y14096147D01*
X100333446Y13985446D01*
X100373000Y13952985D01*
X100373000Y12527794D01*
X100280465Y12389306D01*
X100168221Y12118325D01*
X100111000Y11830654D01*
X100111000Y11537346D01*
X100168221Y11249675D01*
X100280465Y10978694D01*
X100443418Y10734818D01*
X100650818Y10527418D01*
X100894694Y10364465D01*
X101165675Y10252221D01*
X101453346Y10195000D01*
X101746654Y10195000D01*
X102034325Y10252221D01*
X102305306Y10364465D01*
X102549182Y10527418D01*
X102756582Y10734818D01*
X102919535Y10978694D01*
X103031779Y11249675D01*
X103089000Y11537346D01*
X103089000Y11830654D01*
X103031779Y12118325D01*
X102919535Y12389306D01*
X102827000Y12527794D01*
X102827000Y13952985D01*
X102866554Y13985446D01*
X102957403Y14096147D01*
X103024910Y14222443D01*
X103066480Y14359483D01*
X103080517Y14502000D01*
X103080517Y17339001D01*
X104945483Y17339001D01*
X104945483Y14502000D01*
X104959520Y14359483D01*
X105001090Y14222443D01*
X105068597Y14096147D01*
X105159446Y13985446D01*
X105199000Y13952985D01*
X105199000Y12479794D01*
X105106465Y12341306D01*
X104994221Y12070325D01*
X104937000Y11782654D01*
X104937000Y11489346D01*
X104994221Y11201675D01*
X105106465Y10930694D01*
X105269418Y10686818D01*
X105476818Y10479418D01*
X105720694Y10316465D01*
X105991675Y10204221D01*
X106279346Y10147000D01*
X106572654Y10147000D01*
X106860325Y10204221D01*
X107131306Y10316465D01*
X107375182Y10479418D01*
X107582582Y10686818D01*
X107745535Y10930694D01*
X107857779Y11201675D01*
X107915000Y11489346D01*
X107915000Y11782654D01*
X107857779Y12070325D01*
X107745535Y12341306D01*
X107653000Y12479794D01*
X107653000Y13952985D01*
X107692554Y13985446D01*
X107783403Y14096147D01*
X107850910Y14222443D01*
X107892480Y14359483D01*
X107906517Y14502000D01*
X107906517Y17339001D01*
X110025483Y17339001D01*
X110025483Y14502000D01*
X110039520Y14359483D01*
X110081090Y14222443D01*
X110148597Y14096147D01*
X110239446Y13985446D01*
X110279000Y13952985D01*
X110279000Y12479794D01*
X110186465Y12341306D01*
X110074221Y12070325D01*
X110017000Y11782654D01*
X110017000Y11489346D01*
X110074221Y11201675D01*
X110186465Y10930694D01*
X110349418Y10686818D01*
X110556818Y10479418D01*
X110800694Y10316465D01*
X111071675Y10204221D01*
X111359346Y10147000D01*
X111652654Y10147000D01*
X111940325Y10204221D01*
X112211306Y10316465D01*
X112455182Y10479418D01*
X112662582Y10686818D01*
X112825535Y10930694D01*
X112937779Y11201675D01*
X112995000Y11489346D01*
X112995000Y11782654D01*
X112937779Y12070325D01*
X112825535Y12341306D01*
X112733000Y12479794D01*
X112733000Y13952985D01*
X112772554Y13985446D01*
X112863403Y14096147D01*
X112930910Y14222443D01*
X112972480Y14359483D01*
X112986517Y14502000D01*
X112986517Y17339001D01*
X115105483Y17339001D01*
X115105483Y14502000D01*
X115119520Y14359483D01*
X115161090Y14222443D01*
X115228597Y14096147D01*
X115319446Y13985446D01*
X115359000Y13952985D01*
X115359000Y12479794D01*
X115266465Y12341306D01*
X115154221Y12070325D01*
X115097000Y11782654D01*
X115097000Y11489346D01*
X115154221Y11201675D01*
X115266465Y10930694D01*
X115429418Y10686818D01*
X115636818Y10479418D01*
X115880694Y10316465D01*
X116151675Y10204221D01*
X116439346Y10147000D01*
X116732654Y10147000D01*
X117020325Y10204221D01*
X117291306Y10316465D01*
X117535182Y10479418D01*
X117742582Y10686818D01*
X117905535Y10930694D01*
X118017779Y11201675D01*
X118075000Y11489346D01*
X118075000Y11782654D01*
X118017779Y12070325D01*
X117905535Y12341306D01*
X117813000Y12479794D01*
X117813000Y13952985D01*
X117852554Y13985446D01*
X117943403Y14096147D01*
X118010910Y14222443D01*
X118052480Y14359483D01*
X118066517Y14502000D01*
X118066517Y17339001D01*
X119931483Y17339001D01*
X119931483Y14502000D01*
X119945520Y14359483D01*
X119987090Y14222443D01*
X120054597Y14096147D01*
X120145446Y13985446D01*
X120185000Y13952985D01*
X120185000Y12479794D01*
X120092465Y12341306D01*
X119980221Y12070325D01*
X119923000Y11782654D01*
X119923000Y11489346D01*
X119980221Y11201675D01*
X120092465Y10930694D01*
X120255418Y10686818D01*
X120462818Y10479418D01*
X120706694Y10316465D01*
X120977675Y10204221D01*
X121265346Y10147000D01*
X121558654Y10147000D01*
X121846325Y10204221D01*
X122117306Y10316465D01*
X122361182Y10479418D01*
X122568582Y10686818D01*
X122731535Y10930694D01*
X122843779Y11201675D01*
X122901000Y11489346D01*
X122901000Y11782654D01*
X122843779Y12070325D01*
X122731535Y12341306D01*
X122639000Y12479794D01*
X122639000Y13952985D01*
X122678554Y13985446D01*
X122769403Y14096147D01*
X122836910Y14222443D01*
X122878480Y14359483D01*
X122892517Y14502000D01*
X122892517Y17339001D01*
X133163000Y17339001D01*
X133163000Y2981000D01*
X129470452Y2981000D01*
X131381005Y4891552D01*
X131427817Y4929970D01*
X131581149Y5116804D01*
X131695084Y5329963D01*
X131765246Y5561253D01*
X131777111Y5681733D01*
X131783000Y5741519D01*
X131783000Y5741524D01*
X131788935Y5801787D01*
X131783000Y5862050D01*
X131783000Y6000654D01*
X131897448Y6115102D01*
X132086447Y6397959D01*
X132216632Y6712253D01*
X132283000Y7045905D01*
X132283000Y7386095D01*
X132216632Y7719747D01*
X132086447Y8034041D01*
X131897448Y8316898D01*
X131783000Y8431346D01*
X131783000Y12500654D01*
X131897448Y12615102D01*
X132086447Y12897959D01*
X132216632Y13212253D01*
X132283000Y13545905D01*
X132283000Y13886095D01*
X132216632Y14219747D01*
X132086447Y14534041D01*
X131897448Y14816898D01*
X131656898Y15057448D01*
X131374041Y15246447D01*
X131059747Y15376632D01*
X130726095Y15443000D01*
X130385905Y15443000D01*
X130052253Y15376632D01*
X129737959Y15246447D01*
X129455102Y15057448D01*
X129214552Y14816898D01*
X129025553Y14534041D01*
X128895368Y14219747D01*
X128829000Y13886095D01*
X128829000Y13545905D01*
X128895368Y13212253D01*
X129025553Y12897959D01*
X129214552Y12615102D01*
X129329000Y12500654D01*
X129329000Y8431346D01*
X129214552Y8316898D01*
X129025553Y8034041D01*
X128895368Y7719747D01*
X128829000Y7386095D01*
X128829000Y7045905D01*
X128895368Y6712253D01*
X129025553Y6397959D01*
X129182318Y6163344D01*
X127691984Y4673010D01*
X127191413Y4673010D01*
X127191413Y6260192D01*
X127455814Y6355956D01*
X127596704Y6645571D01*
X127678384Y6957108D01*
X127697718Y7278595D01*
X127653961Y7597675D01*
X127548795Y7902088D01*
X127455814Y8076044D01*
X127191413Y8171808D01*
X127191413Y12760192D01*
X127455814Y12855956D01*
X127596704Y13145571D01*
X127678384Y13457108D01*
X127697718Y13778595D01*
X127653961Y14097675D01*
X127548795Y14402088D01*
X127455814Y14576044D01*
X127191413Y14671808D01*
X126235605Y13716000D01*
X127191413Y12760192D01*
X127191413Y8171808D01*
X126235605Y7216000D01*
X127191413Y6260192D01*
X127191413Y4673010D01*
X126118595Y4673010D01*
X126118595Y5574282D01*
X126437675Y5618039D01*
X126742088Y5723205D01*
X126916044Y5816186D01*
X127011808Y6080587D01*
X126056000Y7036395D01*
X126056000Y7395605D01*
X127011808Y8351413D01*
X126916044Y8615814D01*
X126626429Y8756704D01*
X126314892Y8838384D01*
X126118595Y8850189D01*
X126118595Y12074282D01*
X126437675Y12118039D01*
X126742088Y12223205D01*
X126916044Y12316186D01*
X127011808Y12580587D01*
X126056000Y13536395D01*
X126056000Y13895605D01*
X127011808Y14851413D01*
X126916044Y15115814D01*
X126626429Y15256704D01*
X126314892Y15338384D01*
X125993405Y15357718D01*
X125674325Y15313961D01*
X125369912Y15208795D01*
X125195956Y15115814D01*
X125100192Y14851413D01*
X126056000Y13895605D01*
X126056000Y13536395D01*
X125100192Y12580587D01*
X125195956Y12316186D01*
X125485571Y12175296D01*
X125797108Y12093616D01*
X126118595Y12074282D01*
X126118595Y8850189D01*
X125993405Y8857718D01*
X125674325Y8813961D01*
X125369912Y8708795D01*
X125195956Y8615814D01*
X125100192Y8351413D01*
X126056000Y7395605D01*
X126056000Y7036395D01*
X125100192Y6080587D01*
X125195956Y5816186D01*
X125485571Y5675296D01*
X125797108Y5593616D01*
X126118595Y5574282D01*
X126118595Y4673010D01*
X124920587Y4673010D01*
X124920587Y6260192D01*
X125876395Y7216000D01*
X124920587Y8171808D01*
X124920587Y12760192D01*
X125876395Y13716000D01*
X124920587Y14671808D01*
X124656186Y14576044D01*
X124515296Y14286429D01*
X124433616Y13974892D01*
X124414282Y13653405D01*
X124458039Y13334325D01*
X124563205Y13029912D01*
X124656186Y12855956D01*
X124920587Y12760192D01*
X124920587Y8171808D01*
X124656186Y8076044D01*
X124515296Y7786429D01*
X124433616Y7474892D01*
X124414282Y7153405D01*
X124458039Y6834325D01*
X124563205Y6529912D01*
X124656186Y6355956D01*
X124920587Y6260192D01*
X124920587Y4673010D01*
X124277731Y4673010D01*
X124155784Y4660999D01*
X100688047Y4660999D01*
X100782319Y4888590D01*
X100826638Y5111398D01*
X102425005Y6709765D01*
X102471817Y6748183D01*
X102625149Y6935017D01*
X102739084Y7148176D01*
X102809245Y7379466D01*
X102812154Y7409000D01*
X105582205Y7409001D01*
X105720694Y7316465D01*
X105991675Y7204221D01*
X106279346Y7147000D01*
X106572654Y7147000D01*
X106860325Y7204221D01*
X107131306Y7316465D01*
X107269795Y7409001D01*
X110662205Y7409001D01*
X110800694Y7316465D01*
X111071675Y7204221D01*
X111359346Y7147000D01*
X111652654Y7147000D01*
X111940325Y7204221D01*
X112211306Y7316465D01*
X112349795Y7409001D01*
X115742205Y7409001D01*
X115880694Y7316465D01*
X116151675Y7204221D01*
X116439346Y7147000D01*
X116732654Y7147000D01*
X117020325Y7204221D01*
X117291306Y7316465D01*
X117429796Y7409001D01*
X120568204Y7409001D01*
X120706694Y7316465D01*
X120977675Y7204221D01*
X121265346Y7147000D01*
X121558654Y7147000D01*
X121846325Y7204221D01*
X122117306Y7316465D01*
X122361182Y7479418D01*
X122568582Y7686818D01*
X122731535Y7930694D01*
X122843779Y8201675D01*
X122901000Y8489346D01*
X122901000Y8782654D01*
X122843779Y9070325D01*
X122731535Y9341306D01*
X122568582Y9585182D01*
X122361182Y9792582D01*
X122117306Y9955535D01*
X121846325Y10067779D01*
X121558654Y10125000D01*
X121265346Y10125000D01*
X120977675Y10067779D01*
X120706694Y9955535D01*
X120568206Y9863000D01*
X117429794Y9863000D01*
X117291306Y9955535D01*
X117020325Y10067779D01*
X116732654Y10125000D01*
X116439346Y10125000D01*
X116151675Y10067779D01*
X115880694Y9955535D01*
X115742206Y9863000D01*
X112349794Y9863000D01*
X112211306Y9955535D01*
X111940325Y10067779D01*
X111652654Y10125000D01*
X111359346Y10125000D01*
X111071675Y10067779D01*
X110800694Y9955535D01*
X110662206Y9863000D01*
X107269794Y9863000D01*
X107131306Y9955535D01*
X106860325Y10067779D01*
X106572654Y10125000D01*
X106279346Y10125000D01*
X105991675Y10067779D01*
X105720694Y9955535D01*
X105582206Y9863000D01*
X102515631Y9863000D01*
X102305306Y10003535D01*
X102034325Y10115779D01*
X101746654Y10173000D01*
X101453346Y10173000D01*
X101165675Y10115779D01*
X100894694Y10003535D01*
X100684369Y9863000D01*
X97435631Y9863000D01*
X97225306Y10003535D01*
X96954325Y10115779D01*
X96666654Y10173000D01*
X96373346Y10173000D01*
X96085675Y10115779D01*
X95814694Y10003535D01*
X95604369Y9863000D01*
X92355631Y9863000D01*
X92145306Y10003535D01*
X91874325Y10115779D01*
X91586654Y10173000D01*
X91293346Y10173000D01*
X91005675Y10115779D01*
X90734694Y10003535D01*
X90524369Y9863000D01*
X87457794Y9863000D01*
X87319306Y9955535D01*
X87048325Y10067779D01*
X86760654Y10125000D01*
X86467346Y10125000D01*
X86179675Y10067779D01*
X85908694Y9955535D01*
X85664818Y9792582D01*
X85457418Y9585182D01*
X85294465Y9341306D01*
X85182221Y9070325D01*
X85125000Y8782654D01*
X85125000Y8489346D01*
X85182221Y8201675D01*
X85294465Y7930694D01*
X85457418Y7686818D01*
X85664818Y7479418D01*
X85908694Y7316465D01*
X86179675Y7204221D01*
X86467346Y7147000D01*
X86760654Y7147000D01*
X87048325Y7204221D01*
X87319306Y7316465D01*
X87457794Y7409000D01*
X90668043Y7409000D01*
X90734694Y7364465D01*
X91005675Y7252221D01*
X91293346Y7195000D01*
X91586654Y7195000D01*
X91874325Y7252221D01*
X92145306Y7364465D01*
X92211957Y7409000D01*
X95748042Y7409000D01*
X95814694Y7364465D01*
X96085675Y7252221D01*
X96373346Y7195000D01*
X96666654Y7195000D01*
X96954325Y7252221D01*
X97225306Y7364465D01*
X97291958Y7409000D01*
X99653761Y7409000D01*
X99091398Y6846638D01*
X98868590Y6802319D01*
X98590694Y6687210D01*
X98340594Y6520099D01*
X98127901Y6307406D01*
X97960790Y6057306D01*
X97845681Y5779410D01*
X97787000Y5484396D01*
X97787000Y5183604D01*
X97845681Y4888590D01*
X97939953Y4660999D01*
X87875484Y4660999D01*
X87965246Y4850913D01*
X88005904Y4984961D01*
X87883915Y5207000D01*
X86741000Y5207000D01*
X86741000Y5461000D01*
X87883915Y5461000D01*
X88005904Y5683039D01*
X87965246Y5817087D01*
X87845037Y6071420D01*
X87677519Y6297414D01*
X87469131Y6486385D01*
X87227881Y6631070D01*
X86963040Y6725909D01*
X86741000Y6604624D01*
X86741000Y5461000D01*
X86741000Y5207000D01*
X86741000Y5187000D01*
X86487000Y5187000D01*
X86487000Y5207000D01*
X85344085Y5207000D01*
X85344085Y5461000D01*
X86487000Y5461000D01*
X86487000Y6604624D01*
X86264960Y6725909D01*
X86000119Y6631070D01*
X85758869Y6486385D01*
X85550481Y6297414D01*
X85382963Y6071420D01*
X85262754Y5817087D01*
X85222096Y5683039D01*
X85344085Y5461000D01*
X85344085Y5207000D01*
X85222096Y4984961D01*
X85262754Y4850913D01*
X85352516Y4660999D01*
X82795484Y4660999D01*
X82885246Y4850913D01*
X82925904Y4984961D01*
X82803915Y5207000D01*
X81661000Y5207000D01*
X81661000Y5461000D01*
X82803915Y5461000D01*
X82925904Y5683039D01*
X82885246Y5817087D01*
X82765037Y6071420D01*
X82597519Y6297414D01*
X82389131Y6486385D01*
X82147881Y6631070D01*
X81883040Y6725909D01*
X81661000Y6604624D01*
X81661000Y5461000D01*
X81661000Y5207000D01*
X81661000Y5187000D01*
X81407000Y5187000D01*
X81407000Y5207000D01*
X80264085Y5207000D01*
X80264085Y5461000D01*
X81407000Y5461000D01*
X81407000Y6604624D01*
X81184960Y6725909D01*
X80920119Y6631070D01*
X80678869Y6486385D01*
X80470481Y6297414D01*
X80302963Y6071420D01*
X80182754Y5817087D01*
X80142096Y5683039D01*
X80264085Y5461000D01*
X80264085Y5207000D01*
X80142096Y4984961D01*
X80182754Y4850913D01*
X80272516Y4660999D01*
X70208047Y4660999D01*
X70302319Y4888590D01*
X70361000Y5183604D01*
X70361000Y5484396D01*
X70302319Y5779410D01*
X70187210Y6057306D01*
X70020099Y6307406D01*
X69807406Y6520099D01*
X69557306Y6687210D01*
X69279410Y6802319D01*
X69056602Y6846638D01*
X68446239Y7457001D01*
X70712368Y7457001D01*
X70922694Y7316465D01*
X71193675Y7204221D01*
X71481346Y7147000D01*
X71774654Y7147000D01*
X72062325Y7204221D01*
X72333306Y7316465D01*
X72543632Y7457001D01*
X75574286Y7457001D01*
X75748694Y7340465D01*
X76019675Y7228221D01*
X76307346Y7171000D01*
X76600654Y7171000D01*
X76888325Y7228221D01*
X77159306Y7340465D01*
X77333714Y7457001D01*
X80618367Y7457001D01*
X80828694Y7316465D01*
X81099675Y7204221D01*
X81387346Y7147000D01*
X81680654Y7147000D01*
X81968325Y7204221D01*
X82239306Y7316465D01*
X82483182Y7479418D01*
X82690582Y7686818D01*
X82853535Y7930694D01*
X82965779Y8201675D01*
X83023000Y8489346D01*
X83023000Y8782654D01*
X82965779Y9070325D01*
X82853535Y9341306D01*
X82690582Y9585182D01*
X82483182Y9792582D01*
X82239306Y9955535D01*
X81968325Y10067779D01*
X81680654Y10125000D01*
X81387346Y10125000D01*
X81099675Y10067779D01*
X80828694Y9955535D01*
X80762043Y9911000D01*
X77261876Y9911000D01*
X77159306Y9979535D01*
X76888325Y10091779D01*
X76600654Y10149000D01*
X76307346Y10149000D01*
X76019675Y10091779D01*
X75748694Y9979535D01*
X75646124Y9911000D01*
X72399957Y9911000D01*
X72333306Y9955535D01*
X72062325Y10067779D01*
X71774654Y10125000D01*
X71481346Y10125000D01*
X71193675Y10067779D01*
X70922694Y9955535D01*
X70856043Y9911000D01*
X67355876Y9911000D01*
X67253306Y9979535D01*
X66982325Y10091779D01*
X66694654Y10149000D01*
X66401346Y10149000D01*
X66113675Y10091779D01*
X65842694Y9979535D01*
X65740124Y9911000D01*
X62311794Y9911000D01*
X62173306Y10003535D01*
X61902325Y10115779D01*
X61614654Y10173000D01*
X61321346Y10173000D01*
X61033675Y10115779D01*
X60762694Y10003535D01*
X60624206Y9911000D01*
X57413957Y9911000D01*
X57347306Y9955535D01*
X57076325Y10067779D01*
X56788654Y10125000D01*
X56495346Y10125000D01*
X56207675Y10067779D01*
X55936694Y9955535D01*
X55870043Y9911000D01*
X52369876Y9911000D01*
X52267306Y9979535D01*
X51996325Y10091779D01*
X51708654Y10149000D01*
X51415346Y10149000D01*
X51127675Y10091779D01*
X50856694Y9979535D01*
X50754124Y9911000D01*
X47579794Y9911000D01*
X47441306Y10003535D01*
X47170325Y10115779D01*
X46882654Y10173000D01*
X46589346Y10173000D01*
X46301675Y10115779D01*
X46030694Y10003535D01*
X45786818Y9840582D01*
X45579418Y9633182D01*
X45416465Y9389306D01*
X45304221Y9118325D01*
X45247000Y8830654D01*
X45247000Y8537346D01*
X45304221Y8249675D01*
X45416465Y7978694D01*
X45579418Y7734818D01*
X45786818Y7527418D01*
X46030694Y7364465D01*
X46301675Y7252221D01*
X46589346Y7195000D01*
X46882654Y7195000D01*
X47170325Y7252221D01*
X47441306Y7364465D01*
X47579794Y7457000D01*
X50682287Y7457000D01*
X50856694Y7340465D01*
X51127675Y7228221D01*
X51415346Y7171000D01*
X51708654Y7171000D01*
X51996325Y7228221D01*
X52267306Y7340465D01*
X52441713Y7457000D01*
X55726368Y7457000D01*
X55936694Y7316465D01*
X56207675Y7204221D01*
X56495346Y7147000D01*
X56788654Y7147000D01*
X57076325Y7204221D01*
X57347306Y7316465D01*
X57557632Y7457000D01*
X60624205Y7457000D01*
X60762694Y7364465D01*
X61033675Y7252221D01*
X61321346Y7195000D01*
X61614654Y7195000D01*
X61902325Y7252221D01*
X62173306Y7364465D01*
X62311795Y7457000D01*
X65331118Y7457001D01*
X65338755Y7379466D01*
X65408916Y7148176D01*
X65522851Y6935017D01*
X65676183Y6748183D01*
X65722995Y6709765D01*
X67321362Y5111398D01*
X67365681Y4888590D01*
X67459953Y4660999D01*
X42406000Y4660999D01*
X42406000Y8037928D01*
X42530482Y8050188D01*
X42650180Y8086498D01*
X42760494Y8145463D01*
X42857185Y8224815D01*
X42936537Y8321506D01*
X42995502Y8431820D01*
X43031812Y8551518D01*
X43044072Y8676000D01*
X43041000Y10890250D01*
X42882250Y11049000D01*
X41783000Y11049000D01*
X41783000Y11303000D01*
X42882250Y11303000D01*
X43041000Y11461750D01*
X43044072Y13676000D01*
X43031812Y13800482D01*
X42995502Y13920180D01*
X42936537Y14030494D01*
X42857185Y14127185D01*
X42760494Y14206537D01*
X42650180Y14265502D01*
X42530482Y14301812D01*
X42406000Y14314072D01*
X41941750Y14311000D01*
X41783000Y14152250D01*
X41783000Y11303000D01*
X41783000Y11049000D01*
X41783000Y8199750D01*
X41941750Y8041000D01*
X42406000Y8037928D01*
X42406000Y4660999D01*
X40906000Y4660999D01*
X40906000Y8037928D01*
X41370250Y8041000D01*
X41529000Y8199750D01*
X41529000Y11049000D01*
X40429750Y11049000D01*
X40429750Y11303000D01*
X41529000Y11303000D01*
X41529000Y14152250D01*
X41370250Y14311000D01*
X40906000Y14314072D01*
X40781518Y14301812D01*
X40661820Y14265502D01*
X40551506Y14206537D01*
X40454815Y14127185D01*
X40375463Y14030494D01*
X40316498Y13920180D01*
X40280188Y13800482D01*
X40267928Y13676000D01*
X40271000Y11461750D01*
X40429750Y11303000D01*
X40429750Y11049000D01*
X40271000Y10890250D01*
X40267928Y8676000D01*
X40280188Y8551518D01*
X40316498Y8431820D01*
X40375463Y8321506D01*
X40454815Y8224815D01*
X40551506Y8145463D01*
X40661820Y8086498D01*
X40781518Y8050188D01*
X40906000Y8037928D01*
X40906000Y4660999D01*
X35824211Y4660999D01*
X35675774Y4883152D01*
X35449153Y5109773D01*
X35182674Y5287828D01*
X34886579Y5410475D01*
X34572246Y5473000D01*
X34251756Y5473000D01*
X33937423Y5410475D01*
X33641328Y5287828D01*
X33374849Y5109773D01*
X33148228Y4883152D01*
X32999791Y4660999D01*
X23953580Y4660999D01*
X23070517Y5544063D01*
X23070517Y7834000D01*
X23056480Y7976517D01*
X23014910Y8113557D01*
X22947403Y8239853D01*
X22856554Y8350554D01*
X22817000Y8383015D01*
X22817000Y9127943D01*
X22860000Y9170943D01*
G37*
X22860000Y9170943D02*
X22997229Y9033714D01*
X23288275Y8839243D01*
X23611668Y8705289D01*
X23954981Y8637000D01*
X24305019Y8637000D01*
X24648332Y8705289D01*
X24971725Y8839243D01*
X25262771Y9033714D01*
X25416058Y9187001D01*
X29914075Y9187000D01*
X29950848Y9150227D01*
X30217327Y8972172D01*
X30513422Y8849525D01*
X30827755Y8787000D01*
X31148245Y8787000D01*
X31462578Y8849525D01*
X31758673Y8972172D01*
X32025152Y9150227D01*
X32251773Y9376848D01*
X32429828Y9643327D01*
X32552475Y9939422D01*
X32573620Y10045723D01*
X32755020Y9896851D01*
X32968179Y9782916D01*
X33199469Y9712755D01*
X33379735Y9695000D01*
X33379742Y9695000D01*
X33440002Y9689065D01*
X33500263Y9695000D01*
X35245730Y9695001D01*
X35306000Y9689065D01*
X35546533Y9712755D01*
X35675774Y9751960D01*
X35777824Y9782917D01*
X35990983Y9896852D01*
X36177817Y10050184D01*
X36216234Y10096995D01*
X37799015Y11679775D01*
X37845827Y11718193D01*
X37999159Y11905027D01*
X38113094Y12118186D01*
X38183255Y12349476D01*
X38201010Y12529742D01*
X38201010Y12529749D01*
X38206945Y12590009D01*
X38201010Y12650269D01*
X38201010Y16813722D01*
X38206946Y16873990D01*
X38201010Y16934258D01*
X38183255Y17114524D01*
X38115161Y17339000D01*
X45264446Y17339000D01*
X45255483Y17248000D01*
X45255483Y14248000D01*
X45269520Y14105483D01*
X45311090Y13968443D01*
X45378597Y13842147D01*
X45469446Y13731446D01*
X45509000Y13698985D01*
X45509000Y12527794D01*
X45416465Y12389306D01*
X45304221Y12118325D01*
X45247000Y11830654D01*
X45247000Y11537346D01*
X45304221Y11249675D01*
X45416465Y10978694D01*
X45579418Y10734818D01*
X45786818Y10527418D01*
X46030694Y10364465D01*
X46301675Y10252221D01*
X46589346Y10195000D01*
X46882654Y10195000D01*
X47170325Y10252221D01*
X47441306Y10364465D01*
X47685182Y10527418D01*
X47892582Y10734818D01*
X48055535Y10978694D01*
X48167779Y11249675D01*
X48225000Y11537346D01*
X48225000Y11830654D01*
X48167779Y12118325D01*
X48055535Y12389306D01*
X47963000Y12527794D01*
X47963000Y13698985D01*
X48002554Y13731446D01*
X48093403Y13842147D01*
X48160910Y13968443D01*
X48202480Y14105483D01*
X48216517Y14248000D01*
X48216517Y17248000D01*
X48207554Y17339000D01*
X50090446Y17339000D01*
X50081483Y17248000D01*
X50081483Y14248000D01*
X50095520Y14105483D01*
X50137090Y13968443D01*
X50204597Y13842147D01*
X50295446Y13731446D01*
X50335000Y13698985D01*
X50335000Y12503794D01*
X50242465Y12365306D01*
X50130221Y12094325D01*
X50073000Y11806654D01*
X50073000Y11513346D01*
X50130221Y11225675D01*
X50242465Y10954694D01*
X50405418Y10710818D01*
X50612818Y10503418D01*
X50856694Y10340465D01*
X51127675Y10228221D01*
X51415346Y10171000D01*
X51708654Y10171000D01*
X51996325Y10228221D01*
X52267306Y10340465D01*
X52511182Y10503418D01*
X52718582Y10710818D01*
X52881535Y10954694D01*
X52993779Y11225675D01*
X53051000Y11513346D01*
X53051000Y11806654D01*
X52993779Y12094325D01*
X52881535Y12365306D01*
X52789000Y12503794D01*
X52789000Y13698985D01*
X52828554Y13731446D01*
X52919403Y13842147D01*
X52986910Y13968443D01*
X53028480Y14105483D01*
X53042517Y14248000D01*
X53042517Y17248000D01*
X53033554Y17339000D01*
X55170446Y17339000D01*
X55161483Y17248000D01*
X55161483Y14248000D01*
X55175520Y14105483D01*
X55217090Y13968443D01*
X55284597Y13842147D01*
X55375446Y13731446D01*
X55415000Y13698985D01*
X55415000Y12479794D01*
X55322465Y12341306D01*
X55210221Y12070325D01*
X55153000Y11782654D01*
X55153000Y11489346D01*
X55210221Y11201675D01*
X55322465Y10930694D01*
X55485418Y10686818D01*
X55692818Y10479418D01*
X55936694Y10316465D01*
X56207675Y10204221D01*
X56495346Y10147000D01*
X56788654Y10147000D01*
X57076325Y10204221D01*
X57347306Y10316465D01*
X57591182Y10479418D01*
X57798582Y10686818D01*
X57961535Y10930694D01*
X58073779Y11201675D01*
X58131000Y11489346D01*
X58131000Y11782654D01*
X58073779Y12070325D01*
X57961535Y12341306D01*
X57869000Y12479794D01*
X57869000Y13698985D01*
X57908554Y13731446D01*
X57999403Y13842147D01*
X58066910Y13968443D01*
X58108480Y14105483D01*
X58122517Y14248000D01*
X58122517Y17248000D01*
X58113554Y17339000D01*
X59996446Y17339000D01*
X59987483Y17248000D01*
X59987483Y14248000D01*
X60001520Y14105483D01*
X60043090Y13968443D01*
X60110597Y13842147D01*
X60201446Y13731446D01*
X60241000Y13698985D01*
X60241000Y12527794D01*
X60148465Y12389306D01*
X60036221Y12118325D01*
X59979000Y11830654D01*
X59979000Y11537346D01*
X60036221Y11249675D01*
X60148465Y10978694D01*
X60311418Y10734818D01*
X60518818Y10527418D01*
X60762694Y10364465D01*
X61033675Y10252221D01*
X61321346Y10195000D01*
X61614654Y10195000D01*
X61902325Y10252221D01*
X62173306Y10364465D01*
X62417182Y10527418D01*
X62624582Y10734818D01*
X62787535Y10978694D01*
X62899779Y11249675D01*
X62957000Y11537346D01*
X62957000Y11830654D01*
X62899779Y12118325D01*
X62787535Y12389306D01*
X62695000Y12527794D01*
X62695000Y13698985D01*
X62734554Y13731446D01*
X62825403Y13842147D01*
X62892910Y13968443D01*
X62934480Y14105483D01*
X62948517Y14248000D01*
X62948517Y17248000D01*
X62939554Y17339000D01*
X65067483Y17339000D01*
X65067483Y14502000D01*
X65081520Y14359483D01*
X65123090Y14222443D01*
X65190597Y14096147D01*
X65281446Y13985446D01*
X65321000Y13952985D01*
X65321000Y12503794D01*
X65228465Y12365306D01*
X65116221Y12094325D01*
X65059000Y11806654D01*
X65059000Y11513346D01*
X65116221Y11225675D01*
X65228465Y10954694D01*
X65391418Y10710818D01*
X65598818Y10503418D01*
X65842694Y10340465D01*
X66113675Y10228221D01*
X66401346Y10171000D01*
X66694654Y10171000D01*
X66982325Y10228221D01*
X67253306Y10340465D01*
X67497182Y10503418D01*
X67704582Y10710818D01*
X67867535Y10954694D01*
X67979779Y11225675D01*
X68037000Y11513346D01*
X68037000Y11806654D01*
X67979779Y12094325D01*
X67867535Y12365306D01*
X67775000Y12503794D01*
X67775000Y13952985D01*
X67814554Y13985446D01*
X67905403Y14096147D01*
X67972910Y14222443D01*
X68014480Y14359483D01*
X68028517Y14502000D01*
X68028517Y17339000D01*
X70147483Y17339000D01*
X70147483Y14502000D01*
X70161520Y14359483D01*
X70203090Y14222443D01*
X70270597Y14096147D01*
X70361446Y13985446D01*
X70401000Y13952985D01*
X70401000Y12479794D01*
X70308465Y12341306D01*
X70196221Y12070325D01*
X70139000Y11782654D01*
X70139000Y11489346D01*
X70196221Y11201675D01*
X70308465Y10930694D01*
X70471418Y10686818D01*
X70678818Y10479418D01*
X70922694Y10316465D01*
X71193675Y10204221D01*
X71481346Y10147000D01*
X71774654Y10147000D01*
X72062325Y10204221D01*
X72333306Y10316465D01*
X72577182Y10479418D01*
X72784582Y10686818D01*
X72947535Y10930694D01*
X73059779Y11201675D01*
X73117000Y11489346D01*
X73117000Y11782654D01*
X73059779Y12070325D01*
X72947535Y12341306D01*
X72855000Y12479794D01*
X72855000Y13952985D01*
X72894554Y13985446D01*
X72985403Y14096147D01*
X73052910Y14222443D01*
X73094480Y14359483D01*
X73108517Y14502000D01*
X73108517Y17339000D01*
X74973483Y17339000D01*
X74973483Y14502000D01*
X74987520Y14359483D01*
X75029090Y14222443D01*
X75096597Y14096147D01*
X75187446Y13985446D01*
X75227000Y13952985D01*
X75227000Y12503794D01*
X75134465Y12365306D01*
X75022221Y12094325D01*
X74965000Y11806654D01*
X74965000Y11513346D01*
X75022221Y11225675D01*
X75134465Y10954694D01*
X75297418Y10710818D01*
X75504818Y10503418D01*
X75748694Y10340465D01*
X76019675Y10228221D01*
X76307346Y10171000D01*
X76600654Y10171000D01*
X76888325Y10228221D01*
X77159306Y10340465D01*
X77403182Y10503418D01*
X77610582Y10710818D01*
X77773535Y10954694D01*
X77885779Y11225675D01*
X77943000Y11513346D01*
X77943000Y11806654D01*
X77885779Y12094325D01*
X77773535Y12365306D01*
X77681000Y12503794D01*
X77681000Y13952985D01*
X77720554Y13985446D01*
X77811403Y14096147D01*
X77878910Y14222443D01*
X77920480Y14359483D01*
X77934517Y14502000D01*
X77934517Y17339000D01*
X80053483Y17339000D01*
X80053483Y14502000D01*
X80067520Y14359483D01*
X80109090Y14222443D01*
X80176597Y14096147D01*
X80267446Y13985446D01*
X80307000Y13952985D01*
X80307000Y12479794D01*
X80214465Y12341306D01*
X80102221Y12070325D01*
X80045000Y11782654D01*
X80045000Y11489346D01*
X80102221Y11201675D01*
X80214465Y10930694D01*
X80377418Y10686818D01*
X80584818Y10479418D01*
X80828694Y10316465D01*
X81099675Y10204221D01*
X81387346Y10147000D01*
X81680654Y10147000D01*
X81968325Y10204221D01*
X82239306Y10316465D01*
X82483182Y10479418D01*
X82690582Y10686818D01*
X82853535Y10930694D01*
X82965779Y11201675D01*
X83023000Y11489346D01*
X83023000Y11782654D01*
X82965779Y12070325D01*
X82853535Y12341306D01*
X82761000Y12479794D01*
X82761000Y13952985D01*
X82800554Y13985446D01*
X82891403Y14096147D01*
X82958910Y14222443D01*
X83000480Y14359483D01*
X83014517Y14502000D01*
X83014517Y17339000D01*
X85133483Y17339001D01*
X85133483Y14502000D01*
X85147520Y14359483D01*
X85189090Y14222443D01*
X85256597Y14096147D01*
X85347446Y13985446D01*
X85387000Y13952985D01*
X85387000Y12479794D01*
X85294465Y12341306D01*
X85182221Y12070325D01*
X85125000Y11782654D01*
X85125000Y11489346D01*
X85182221Y11201675D01*
X85294465Y10930694D01*
X85457418Y10686818D01*
X85664818Y10479418D01*
X85908694Y10316465D01*
X86179675Y10204221D01*
X86467346Y10147000D01*
X86760654Y10147000D01*
X87048325Y10204221D01*
X87319306Y10316465D01*
X87563182Y10479418D01*
X87770582Y10686818D01*
X87933535Y10930694D01*
X88045779Y11201675D01*
X88103000Y11489346D01*
X88103000Y11782654D01*
X88045779Y12070325D01*
X87933535Y12341306D01*
X87841000Y12479794D01*
X87841000Y13952985D01*
X87880554Y13985446D01*
X87971403Y14096147D01*
X88038910Y14222443D01*
X88080480Y14359483D01*
X88094517Y14502000D01*
X88094517Y17339001D01*
X89959483Y17339001D01*
X89959483Y14502000D01*
X89973520Y14359483D01*
X90015090Y14222443D01*
X90082597Y14096147D01*
X90173446Y13985446D01*
X90213000Y13952985D01*
X90213000Y12527794D01*
X90120465Y12389306D01*
X90008221Y12118325D01*
X89951000Y11830654D01*
X89951000Y11537346D01*
X90008221Y11249675D01*
X90120465Y10978694D01*
X90283418Y10734818D01*
X90490818Y10527418D01*
X90734694Y10364465D01*
X91005675Y10252221D01*
X91293346Y10195000D01*
X91586654Y10195000D01*
X91874325Y10252221D01*
X92145306Y10364465D01*
X92389182Y10527418D01*
X92596582Y10734818D01*
X92759535Y10978694D01*
X92871779Y11249675D01*
X92929000Y11537346D01*
X92929000Y11830654D01*
X92871779Y12118325D01*
X92759535Y12389306D01*
X92667000Y12527794D01*
X92667000Y13952985D01*
X92706554Y13985446D01*
X92797403Y14096147D01*
X92864910Y14222443D01*
X92906480Y14359483D01*
X92920517Y14502000D01*
X92920517Y17339001D01*
X95039483Y17339001D01*
X95039483Y14502000D01*
X95053520Y14359483D01*
X95095090Y14222443D01*
X95162597Y14096147D01*
X95253446Y13985446D01*
X95293000Y13952985D01*
X95293000Y12527794D01*
X95200465Y12389306D01*
X95088221Y12118325D01*
X95031000Y11830654D01*
X95031000Y11537346D01*
X95088221Y11249675D01*
X95200465Y10978694D01*
X95363418Y10734818D01*
X95570818Y10527418D01*
X95814694Y10364465D01*
X96085675Y10252221D01*
X96373346Y10195000D01*
X96666654Y10195000D01*
X96954325Y10252221D01*
X97225306Y10364465D01*
X97469182Y10527418D01*
X97676582Y10734818D01*
X97839535Y10978694D01*
X97951779Y11249675D01*
X98009000Y11537346D01*
X98009000Y11830654D01*
X97951779Y12118325D01*
X97839535Y12389306D01*
X97747000Y12527794D01*
X97747000Y13952985D01*
X97786554Y13985446D01*
X97877403Y14096147D01*
X97944910Y14222443D01*
X97986480Y14359483D01*
X98000517Y14502000D01*
X98000517Y17339001D01*
X100119483Y17339001D01*
X100119483Y14502000D01*
X100133520Y14359483D01*
X100175090Y14222443D01*
X100242597Y14096147D01*
X100333446Y13985446D01*
X100373000Y13952985D01*
X100373000Y12527794D01*
X100280465Y12389306D01*
X100168221Y12118325D01*
X100111000Y11830654D01*
X100111000Y11537346D01*
X100168221Y11249675D01*
X100280465Y10978694D01*
X100443418Y10734818D01*
X100650818Y10527418D01*
X100894694Y10364465D01*
X101165675Y10252221D01*
X101453346Y10195000D01*
X101746654Y10195000D01*
X102034325Y10252221D01*
X102305306Y10364465D01*
X102549182Y10527418D01*
X102756582Y10734818D01*
X102919535Y10978694D01*
X103031779Y11249675D01*
X103089000Y11537346D01*
X103089000Y11830654D01*
X103031779Y12118325D01*
X102919535Y12389306D01*
X102827000Y12527794D01*
X102827000Y13952985D01*
X102866554Y13985446D01*
X102957403Y14096147D01*
X103024910Y14222443D01*
X103066480Y14359483D01*
X103080517Y14502000D01*
X103080517Y17339001D01*
X104945483Y17339001D01*
X104945483Y14502000D01*
X104959520Y14359483D01*
X105001090Y14222443D01*
X105068597Y14096147D01*
X105159446Y13985446D01*
X105199000Y13952985D01*
X105199000Y12479794D01*
X105106465Y12341306D01*
X104994221Y12070325D01*
X104937000Y11782654D01*
X104937000Y11489346D01*
X104994221Y11201675D01*
X105106465Y10930694D01*
X105269418Y10686818D01*
X105476818Y10479418D01*
X105720694Y10316465D01*
X105991675Y10204221D01*
X106279346Y10147000D01*
X106572654Y10147000D01*
X106860325Y10204221D01*
X107131306Y10316465D01*
X107375182Y10479418D01*
X107582582Y10686818D01*
X107745535Y10930694D01*
X107857779Y11201675D01*
X107915000Y11489346D01*
X107915000Y11782654D01*
X107857779Y12070325D01*
X107745535Y12341306D01*
X107653000Y12479794D01*
X107653000Y13952985D01*
X107692554Y13985446D01*
X107783403Y14096147D01*
X107850910Y14222443D01*
X107892480Y14359483D01*
X107906517Y14502000D01*
X107906517Y17339001D01*
X110025483Y17339001D01*
X110025483Y14502000D01*
X110039520Y14359483D01*
X110081090Y14222443D01*
X110148597Y14096147D01*
X110239446Y13985446D01*
X110279000Y13952985D01*
X110279000Y12479794D01*
X110186465Y12341306D01*
X110074221Y12070325D01*
X110017000Y11782654D01*
X110017000Y11489346D01*
X110074221Y11201675D01*
X110186465Y10930694D01*
X110349418Y10686818D01*
X110556818Y10479418D01*
X110800694Y10316465D01*
X111071675Y10204221D01*
X111359346Y10147000D01*
X111652654Y10147000D01*
X111940325Y10204221D01*
X112211306Y10316465D01*
X112455182Y10479418D01*
X112662582Y10686818D01*
X112825535Y10930694D01*
X112937779Y11201675D01*
X112995000Y11489346D01*
X112995000Y11782654D01*
X112937779Y12070325D01*
X112825535Y12341306D01*
X112733000Y12479794D01*
X112733000Y13952985D01*
X112772554Y13985446D01*
X112863403Y14096147D01*
X112930910Y14222443D01*
X112972480Y14359483D01*
X112986517Y14502000D01*
X112986517Y17339001D01*
X115105483Y17339001D01*
X115105483Y14502000D01*
X115119520Y14359483D01*
X115161090Y14222443D01*
X115228597Y14096147D01*
X115319446Y13985446D01*
X115359000Y13952985D01*
X115359000Y12479794D01*
X115266465Y12341306D01*
X115154221Y12070325D01*
X115097000Y11782654D01*
X115097000Y11489346D01*
X115154221Y11201675D01*
X115266465Y10930694D01*
X115429418Y10686818D01*
X115636818Y10479418D01*
X115880694Y10316465D01*
X116151675Y10204221D01*
X116439346Y10147000D01*
X116732654Y10147000D01*
X117020325Y10204221D01*
X117291306Y10316465D01*
X117535182Y10479418D01*
X117742582Y10686818D01*
X117905535Y10930694D01*
X118017779Y11201675D01*
X118075000Y11489346D01*
X118075000Y11782654D01*
X118017779Y12070325D01*
X117905535Y12341306D01*
X117813000Y12479794D01*
X117813000Y13952985D01*
X117852554Y13985446D01*
X117943403Y14096147D01*
X118010910Y14222443D01*
X118052480Y14359483D01*
X118066517Y14502000D01*
X118066517Y17339001D01*
X119931483Y17339001D01*
X119931483Y14502000D01*
X119945520Y14359483D01*
X119987090Y14222443D01*
X120054597Y14096147D01*
X120145446Y13985446D01*
X120185000Y13952985D01*
X120185000Y12479794D01*
X120092465Y12341306D01*
X119980221Y12070325D01*
X119923000Y11782654D01*
X119923000Y11489346D01*
X119980221Y11201675D01*
X120092465Y10930694D01*
X120255418Y10686818D01*
X120462818Y10479418D01*
X120706694Y10316465D01*
X120977675Y10204221D01*
X121265346Y10147000D01*
X121558654Y10147000D01*
X121846325Y10204221D01*
X122117306Y10316465D01*
X122361182Y10479418D01*
X122568582Y10686818D01*
X122731535Y10930694D01*
X122843779Y11201675D01*
X122901000Y11489346D01*
X122901000Y11782654D01*
X122843779Y12070325D01*
X122731535Y12341306D01*
X122639000Y12479794D01*
X122639000Y13952985D01*
X122678554Y13985446D01*
X122769403Y14096147D01*
X122836910Y14222443D01*
X122878480Y14359483D01*
X122892517Y14502000D01*
X122892517Y17339001D01*
X133163000Y17339001D01*
X133163000Y2981000D01*
X129470452Y2981000D01*
X131381005Y4891552D01*
X131427817Y4929970D01*
X131581149Y5116804D01*
X131695084Y5329963D01*
X131765246Y5561253D01*
X131777111Y5681733D01*
X131783000Y5741519D01*
X131783000Y5741524D01*
X131788935Y5801787D01*
X131783000Y5862050D01*
X131783000Y6000654D01*
X131897448Y6115102D01*
X132086447Y6397959D01*
X132216632Y6712253D01*
X132283000Y7045905D01*
X132283000Y7386095D01*
X132216632Y7719747D01*
X132086447Y8034041D01*
X131897448Y8316898D01*
X131783000Y8431346D01*
X131783000Y12500654D01*
X131897448Y12615102D01*
X132086447Y12897959D01*
X132216632Y13212253D01*
X132283000Y13545905D01*
X132283000Y13886095D01*
X132216632Y14219747D01*
X132086447Y14534041D01*
X131897448Y14816898D01*
X131656898Y15057448D01*
X131374041Y15246447D01*
X131059747Y15376632D01*
X130726095Y15443000D01*
X130385905Y15443000D01*
X130052253Y15376632D01*
X129737959Y15246447D01*
X129455102Y15057448D01*
X129214552Y14816898D01*
X129025553Y14534041D01*
X128895368Y14219747D01*
X128829000Y13886095D01*
X128829000Y13545905D01*
X128895368Y13212253D01*
X129025553Y12897959D01*
X129214552Y12615102D01*
X129329000Y12500654D01*
X129329000Y8431346D01*
X129214552Y8316898D01*
X129025553Y8034041D01*
X128895368Y7719747D01*
X128829000Y7386095D01*
X128829000Y7045905D01*
X128895368Y6712253D01*
X129025553Y6397959D01*
X129182318Y6163344D01*
X127691984Y4673010D01*
X127191413Y4673010D01*
X127191413Y6260192D01*
X127455814Y6355956D01*
X127596704Y6645571D01*
X127678384Y6957108D01*
X127697718Y7278595D01*
X127653961Y7597675D01*
X127548795Y7902088D01*
X127455814Y8076044D01*
X127191413Y8171808D01*
X127191413Y12760192D01*
X127455814Y12855956D01*
X127596704Y13145571D01*
X127678384Y13457108D01*
X127697718Y13778595D01*
X127653961Y14097675D01*
X127548795Y14402088D01*
X127455814Y14576044D01*
X127191413Y14671808D01*
X126235605Y13716000D01*
X127191413Y12760192D01*
X127191413Y8171808D01*
X126235605Y7216000D01*
X127191413Y6260192D01*
X127191413Y4673010D01*
X126118595Y4673010D01*
X126118595Y5574282D01*
X126437675Y5618039D01*
X126742088Y5723205D01*
X126916044Y5816186D01*
X127011808Y6080587D01*
X126056000Y7036395D01*
X126056000Y7395605D01*
X127011808Y8351413D01*
X126916044Y8615814D01*
X126626429Y8756704D01*
X126314892Y8838384D01*
X126118595Y8850189D01*
X126118595Y12074282D01*
X126437675Y12118039D01*
X126742088Y12223205D01*
X126916044Y12316186D01*
X127011808Y12580587D01*
X126056000Y13536395D01*
X126056000Y13895605D01*
X127011808Y14851413D01*
X126916044Y15115814D01*
X126626429Y15256704D01*
X126314892Y15338384D01*
X125993405Y15357718D01*
X125674325Y15313961D01*
X125369912Y15208795D01*
X125195956Y15115814D01*
X125100192Y14851413D01*
X126056000Y13895605D01*
X126056000Y13536395D01*
X125100192Y12580587D01*
X125195956Y12316186D01*
X125485571Y12175296D01*
X125797108Y12093616D01*
X126118595Y12074282D01*
X126118595Y8850189D01*
X125993405Y8857718D01*
X125674325Y8813961D01*
X125369912Y8708795D01*
X125195956Y8615814D01*
X125100192Y8351413D01*
X126056000Y7395605D01*
X126056000Y7036395D01*
X125100192Y6080587D01*
X125195956Y5816186D01*
X125485571Y5675296D01*
X125797108Y5593616D01*
X126118595Y5574282D01*
X126118595Y4673010D01*
X124920587Y4673010D01*
X124920587Y6260192D01*
X125876395Y7216000D01*
X124920587Y8171808D01*
X124920587Y12760192D01*
X125876395Y13716000D01*
X124920587Y14671808D01*
X124656186Y14576044D01*
X124515296Y14286429D01*
X124433616Y13974892D01*
X124414282Y13653405D01*
X124458039Y13334325D01*
X124563205Y13029912D01*
X124656186Y12855956D01*
X124920587Y12760192D01*
X124920587Y8171808D01*
X124656186Y8076044D01*
X124515296Y7786429D01*
X124433616Y7474892D01*
X124414282Y7153405D01*
X124458039Y6834325D01*
X124563205Y6529912D01*
X124656186Y6355956D01*
X124920587Y6260192D01*
X124920587Y4673010D01*
X124277731Y4673010D01*
X124155784Y4660999D01*
X100688047Y4660999D01*
X100782319Y4888590D01*
X100826638Y5111398D01*
X102425005Y6709765D01*
X102471817Y6748183D01*
X102625149Y6935017D01*
X102739084Y7148176D01*
X102809245Y7379466D01*
X102812154Y7409000D01*
X105582205Y7409001D01*
X105720694Y7316465D01*
X105991675Y7204221D01*
X106279346Y7147000D01*
X106572654Y7147000D01*
X106860325Y7204221D01*
X107131306Y7316465D01*
X107269795Y7409001D01*
X110662205Y7409001D01*
X110800694Y7316465D01*
X111071675Y7204221D01*
X111359346Y7147000D01*
X111652654Y7147000D01*
X111940325Y7204221D01*
X112211306Y7316465D01*
X112349795Y7409001D01*
X115742205Y7409001D01*
X115880694Y7316465D01*
X116151675Y7204221D01*
X116439346Y7147000D01*
X116732654Y7147000D01*
X117020325Y7204221D01*
X117291306Y7316465D01*
X117429796Y7409001D01*
X120568204Y7409001D01*
X120706694Y7316465D01*
X120977675Y7204221D01*
X121265346Y7147000D01*
X121558654Y7147000D01*
X121846325Y7204221D01*
X122117306Y7316465D01*
X122361182Y7479418D01*
X122568582Y7686818D01*
X122731535Y7930694D01*
X122843779Y8201675D01*
X122901000Y8489346D01*
X122901000Y8782654D01*
X122843779Y9070325D01*
X122731535Y9341306D01*
X122568582Y9585182D01*
X122361182Y9792582D01*
X122117306Y9955535D01*
X121846325Y10067779D01*
X121558654Y10125000D01*
X121265346Y10125000D01*
X120977675Y10067779D01*
X120706694Y9955535D01*
X120568206Y9863000D01*
X117429794Y9863000D01*
X117291306Y9955535D01*
X117020325Y10067779D01*
X116732654Y10125000D01*
X116439346Y10125000D01*
X116151675Y10067779D01*
X115880694Y9955535D01*
X115742206Y9863000D01*
X112349794Y9863000D01*
X112211306Y9955535D01*
X111940325Y10067779D01*
X111652654Y10125000D01*
X111359346Y10125000D01*
X111071675Y10067779D01*
X110800694Y9955535D01*
X110662206Y9863000D01*
X107269794Y9863000D01*
X107131306Y9955535D01*
X106860325Y10067779D01*
X106572654Y10125000D01*
X106279346Y10125000D01*
X105991675Y10067779D01*
X105720694Y9955535D01*
X105582206Y9863000D01*
X102515631Y9863000D01*
X102305306Y10003535D01*
X102034325Y10115779D01*
X101746654Y10173000D01*
X101453346Y10173000D01*
X101165675Y10115779D01*
X100894694Y10003535D01*
X100684369Y9863000D01*
X97435631Y9863000D01*
X97225306Y10003535D01*
X96954325Y10115779D01*
X96666654Y10173000D01*
X96373346Y10173000D01*
X96085675Y10115779D01*
X95814694Y10003535D01*
X95604369Y9863000D01*
X92355631Y9863000D01*
X92145306Y10003535D01*
X91874325Y10115779D01*
X91586654Y10173000D01*
X91293346Y10173000D01*
X91005675Y10115779D01*
X90734694Y10003535D01*
X90524369Y9863000D01*
X87457794Y9863000D01*
X87319306Y9955535D01*
X87048325Y10067779D01*
X86760654Y10125000D01*
X86467346Y10125000D01*
X86179675Y10067779D01*
X85908694Y9955535D01*
X85664818Y9792582D01*
X85457418Y9585182D01*
X85294465Y9341306D01*
X85182221Y9070325D01*
X85125000Y8782654D01*
X85125000Y8489346D01*
X85182221Y8201675D01*
X85294465Y7930694D01*
X85457418Y7686818D01*
X85664818Y7479418D01*
X85908694Y7316465D01*
X86179675Y7204221D01*
X86467346Y7147000D01*
X86760654Y7147000D01*
X87048325Y7204221D01*
X87319306Y7316465D01*
X87457794Y7409000D01*
X90668043Y7409000D01*
X90734694Y7364465D01*
X91005675Y7252221D01*
X91293346Y7195000D01*
X91586654Y7195000D01*
X91874325Y7252221D01*
X92145306Y7364465D01*
X92211957Y7409000D01*
X95748042Y7409000D01*
X95814694Y7364465D01*
X96085675Y7252221D01*
X96373346Y7195000D01*
X96666654Y7195000D01*
X96954325Y7252221D01*
X97225306Y7364465D01*
X97291958Y7409000D01*
X99653761Y7409000D01*
X99091398Y6846638D01*
X98868590Y6802319D01*
X98590694Y6687210D01*
X98340594Y6520099D01*
X98127901Y6307406D01*
X97960790Y6057306D01*
X97845681Y5779410D01*
X97787000Y5484396D01*
X97787000Y5183604D01*
X97845681Y4888590D01*
X97939953Y4660999D01*
X87875484Y4660999D01*
X87965246Y4850913D01*
X88005904Y4984961D01*
X87883915Y5207000D01*
X86741000Y5207000D01*
X86741000Y5461000D01*
X87883915Y5461000D01*
X88005904Y5683039D01*
X87965246Y5817087D01*
X87845037Y6071420D01*
X87677519Y6297414D01*
X87469131Y6486385D01*
X87227881Y6631070D01*
X86963040Y6725909D01*
X86741000Y6604624D01*
X86741000Y5461000D01*
X86741000Y5207000D01*
X86741000Y5187000D01*
X86487000Y5187000D01*
X86487000Y5207000D01*
X85344085Y5207000D01*
X85344085Y5461000D01*
X86487000Y5461000D01*
X86487000Y6604624D01*
X86264960Y6725909D01*
X86000119Y6631070D01*
X85758869Y6486385D01*
X85550481Y6297414D01*
X85382963Y6071420D01*
X85262754Y5817087D01*
X85222096Y5683039D01*
X85344085Y5461000D01*
X85344085Y5207000D01*
X85222096Y4984961D01*
X85262754Y4850913D01*
X85352516Y4660999D01*
X82795484Y4660999D01*
X82885246Y4850913D01*
X82925904Y4984961D01*
X82803915Y5207000D01*
X81661000Y5207000D01*
X81661000Y5461000D01*
X82803915Y5461000D01*
X82925904Y5683039D01*
X82885246Y5817087D01*
X82765037Y6071420D01*
X82597519Y6297414D01*
X82389131Y6486385D01*
X82147881Y6631070D01*
X81883040Y6725909D01*
X81661000Y6604624D01*
X81661000Y5461000D01*
X81661000Y5207000D01*
X81661000Y5187000D01*
X81407000Y5187000D01*
X81407000Y5207000D01*
X80264085Y5207000D01*
X80264085Y5461000D01*
X81407000Y5461000D01*
X81407000Y6604624D01*
X81184960Y6725909D01*
X80920119Y6631070D01*
X80678869Y6486385D01*
X80470481Y6297414D01*
X80302963Y6071420D01*
X80182754Y5817087D01*
X80142096Y5683039D01*
X80264085Y5461000D01*
X80264085Y5207000D01*
X80142096Y4984961D01*
X80182754Y4850913D01*
X80272516Y4660999D01*
X70208047Y4660999D01*
X70302319Y4888590D01*
X70361000Y5183604D01*
X70361000Y5484396D01*
X70302319Y5779410D01*
X70187210Y6057306D01*
X70020099Y6307406D01*
X69807406Y6520099D01*
X69557306Y6687210D01*
X69279410Y6802319D01*
X69056602Y6846638D01*
X68446239Y7457001D01*
X70712368Y7457001D01*
X70922694Y7316465D01*
X71193675Y7204221D01*
X71481346Y7147000D01*
X71774654Y7147000D01*
X72062325Y7204221D01*
X72333306Y7316465D01*
X72543632Y7457001D01*
X75574286Y7457001D01*
X75748694Y7340465D01*
X76019675Y7228221D01*
X76307346Y7171000D01*
X76600654Y7171000D01*
X76888325Y7228221D01*
X77159306Y7340465D01*
X77333714Y7457001D01*
X80618367Y7457001D01*
X80828694Y7316465D01*
X81099675Y7204221D01*
X81387346Y7147000D01*
X81680654Y7147000D01*
X81968325Y7204221D01*
X82239306Y7316465D01*
X82483182Y7479418D01*
X82690582Y7686818D01*
X82853535Y7930694D01*
X82965779Y8201675D01*
X83023000Y8489346D01*
X83023000Y8782654D01*
X82965779Y9070325D01*
X82853535Y9341306D01*
X82690582Y9585182D01*
X82483182Y9792582D01*
X82239306Y9955535D01*
X81968325Y10067779D01*
X81680654Y10125000D01*
X81387346Y10125000D01*
X81099675Y10067779D01*
X80828694Y9955535D01*
X80762043Y9911000D01*
X77261876Y9911000D01*
X77159306Y9979535D01*
X76888325Y10091779D01*
X76600654Y10149000D01*
X76307346Y10149000D01*
X76019675Y10091779D01*
X75748694Y9979535D01*
X75646124Y9911000D01*
X72399957Y9911000D01*
X72333306Y9955535D01*
X72062325Y10067779D01*
X71774654Y10125000D01*
X71481346Y10125000D01*
X71193675Y10067779D01*
X70922694Y9955535D01*
X70856043Y9911000D01*
X67355876Y9911000D01*
X67253306Y9979535D01*
X66982325Y10091779D01*
X66694654Y10149000D01*
X66401346Y10149000D01*
X66113675Y10091779D01*
X65842694Y9979535D01*
X65740124Y9911000D01*
X62311794Y9911000D01*
X62173306Y10003535D01*
X61902325Y10115779D01*
X61614654Y10173000D01*
X61321346Y10173000D01*
X61033675Y10115779D01*
X60762694Y10003535D01*
X60624206Y9911000D01*
X57413957Y9911000D01*
X57347306Y9955535D01*
X57076325Y10067779D01*
X56788654Y10125000D01*
X56495346Y10125000D01*
X56207675Y10067779D01*
X55936694Y9955535D01*
X55870043Y9911000D01*
X52369876Y9911000D01*
X52267306Y9979535D01*
X51996325Y10091779D01*
X51708654Y10149000D01*
X51415346Y10149000D01*
X51127675Y10091779D01*
X50856694Y9979535D01*
X50754124Y9911000D01*
X47579794Y9911000D01*
X47441306Y10003535D01*
X47170325Y10115779D01*
X46882654Y10173000D01*
X46589346Y10173000D01*
X46301675Y10115779D01*
X46030694Y10003535D01*
X45786818Y9840582D01*
X45579418Y9633182D01*
X45416465Y9389306D01*
X45304221Y9118325D01*
X45247000Y8830654D01*
X45247000Y8537346D01*
X45304221Y8249675D01*
X45416465Y7978694D01*
X45579418Y7734818D01*
X45786818Y7527418D01*
X46030694Y7364465D01*
X46301675Y7252221D01*
X46589346Y7195000D01*
X46882654Y7195000D01*
X47170325Y7252221D01*
X47441306Y7364465D01*
X47579794Y7457000D01*
X50682287Y7457000D01*
X50856694Y7340465D01*
X51127675Y7228221D01*
X51415346Y7171000D01*
X51708654Y7171000D01*
X51996325Y7228221D01*
X52267306Y7340465D01*
X52441713Y7457000D01*
X55726368Y7457000D01*
X55936694Y7316465D01*
X56207675Y7204221D01*
X56495346Y7147000D01*
X56788654Y7147000D01*
X57076325Y7204221D01*
X57347306Y7316465D01*
X57557632Y7457000D01*
X60624205Y7457000D01*
X60762694Y7364465D01*
X61033675Y7252221D01*
X61321346Y7195000D01*
X61614654Y7195000D01*
X61902325Y7252221D01*
X62173306Y7364465D01*
X62311795Y7457000D01*
X65331118Y7457001D01*
X65338755Y7379466D01*
X65408916Y7148176D01*
X65522851Y6935017D01*
X65676183Y6748183D01*
X65722995Y6709765D01*
X67321362Y5111398D01*
X67365681Y4888590D01*
X67459953Y4660999D01*
X42406000Y4660999D01*
X42406000Y8037928D01*
X42530482Y8050188D01*
X42650180Y8086498D01*
X42760494Y8145463D01*
X42857185Y8224815D01*
X42936537Y8321506D01*
X42995502Y8431820D01*
X43031812Y8551518D01*
X43044072Y8676000D01*
X43041000Y10890250D01*
X42882250Y11049000D01*
X41783000Y11049000D01*
X41783000Y11303000D01*
X42882250Y11303000D01*
X43041000Y11461750D01*
X43044072Y13676000D01*
X43031812Y13800482D01*
X42995502Y13920180D01*
X42936537Y14030494D01*
X42857185Y14127185D01*
X42760494Y14206537D01*
X42650180Y14265502D01*
X42530482Y14301812D01*
X42406000Y14314072D01*
X41941750Y14311000D01*
X41783000Y14152250D01*
X41783000Y11303000D01*
X41783000Y11049000D01*
X41783000Y8199750D01*
X41941750Y8041000D01*
X42406000Y8037928D01*
X42406000Y4660999D01*
X40906000Y4660999D01*
X40906000Y8037928D01*
X41370250Y8041000D01*
X41529000Y8199750D01*
X41529000Y11049000D01*
X40429750Y11049000D01*
X40429750Y11303000D01*
X41529000Y11303000D01*
X41529000Y14152250D01*
X41370250Y14311000D01*
X40906000Y14314072D01*
X40781518Y14301812D01*
X40661820Y14265502D01*
X40551506Y14206537D01*
X40454815Y14127185D01*
X40375463Y14030494D01*
X40316498Y13920180D01*
X40280188Y13800482D01*
X40267928Y13676000D01*
X40271000Y11461750D01*
X40429750Y11303000D01*
X40429750Y11049000D01*
X40271000Y10890250D01*
X40267928Y8676000D01*
X40280188Y8551518D01*
X40316498Y8431820D01*
X40375463Y8321506D01*
X40454815Y8224815D01*
X40551506Y8145463D01*
X40661820Y8086498D01*
X40781518Y8050188D01*
X40906000Y8037928D01*
X40906000Y4660999D01*
X35824211Y4660999D01*
X35675774Y4883152D01*
X35449153Y5109773D01*
X35182674Y5287828D01*
X34886579Y5410475D01*
X34572246Y5473000D01*
X34251756Y5473000D01*
X33937423Y5410475D01*
X33641328Y5287828D01*
X33374849Y5109773D01*
X33148228Y4883152D01*
X32999791Y4660999D01*
X23953580Y4660999D01*
X23070517Y5544063D01*
X23070517Y7834000D01*
X23056480Y7976517D01*
X23014910Y8113557D01*
X22947403Y8239853D01*
X22856554Y8350554D01*
X22817000Y8383015D01*
X22817000Y9127943D01*
X22860000Y9170943D01*
G36*
X24003000Y23241000D02*
G01*
X24003000Y23261000D01*
X24257000Y23261000D01*
X24257000Y23241000D01*
X25656250Y23241000D01*
X25815000Y23399750D01*
X25817562Y24037002D01*
X30378990Y24037001D01*
X30378990Y19973310D01*
X30376663Y19974865D01*
X30080568Y20097512D01*
X29766235Y20160037D01*
X29714229Y20160037D01*
X28475262Y21399005D01*
X28436844Y21445817D01*
X28250010Y21599149D01*
X28036851Y21713084D01*
X27978990Y21730636D01*
X27805561Y21783246D01*
X27565027Y21806935D01*
X27504764Y21801000D01*
X25759442Y21801000D01*
X25769502Y21819820D01*
X25805812Y21939518D01*
X25818072Y22064000D01*
X25815000Y22828250D01*
X25656250Y22987000D01*
X24257000Y22987000D01*
X24257000Y22967000D01*
X24003000Y22967000D01*
X24003000Y22987000D01*
X23983000Y22987000D01*
X23983000Y23241000D01*
X24003000Y23241000D01*
G37*
X24003000Y23241000D02*
X24003000Y23261000D01*
X24257000Y23261000D01*
X24257000Y23241000D01*
X25656250Y23241000D01*
X25815000Y23399750D01*
X25817562Y24037002D01*
X30378990Y24037001D01*
X30378990Y19973310D01*
X30376663Y19974865D01*
X30080568Y20097512D01*
X29766235Y20160037D01*
X29714229Y20160037D01*
X28475262Y21399005D01*
X28436844Y21445817D01*
X28250010Y21599149D01*
X28036851Y21713084D01*
X27978990Y21730636D01*
X27805561Y21783246D01*
X27565027Y21806935D01*
X27504764Y21801000D01*
X25759442Y21801000D01*
X25769502Y21819820D01*
X25805812Y21939518D01*
X25818072Y22064000D01*
X25815000Y22828250D01*
X25656250Y22987000D01*
X24257000Y22987000D01*
X24257000Y22967000D01*
X24003000Y22967000D01*
X24003000Y22987000D01*
X23983000Y22987000D01*
X23983000Y23241000D01*
X24003000Y23241000D01*
G36*
X24571012Y15460991D02*
G01*
X25454947Y14577057D01*
X25424180Y14593502D01*
X25304482Y14629812D01*
X25180000Y14642072D01*
X24415750Y14639000D01*
X24257000Y14480250D01*
X24257000Y13081000D01*
X25656250Y13081000D01*
X25815000Y13239750D01*
X25818072Y14004000D01*
X25805812Y14128482D01*
X25769502Y14248180D01*
X25753057Y14278947D01*
X28391004Y11641000D01*
X25759442Y11641000D01*
X25769502Y11659820D01*
X25805812Y11779518D01*
X25818072Y11904000D01*
X25815000Y12668250D01*
X25656250Y12827000D01*
X24257000Y12827000D01*
X24257000Y12807000D01*
X24003000Y12807000D01*
X24003000Y12827000D01*
X23983000Y12827000D01*
X23983000Y13081000D01*
X24003000Y13081000D01*
X24003000Y14480250D01*
X23844250Y14639000D01*
X23080000Y14642072D01*
X22955518Y14629812D01*
X22835820Y14593502D01*
X22817000Y14583442D01*
X22817000Y15460990D01*
X24571012Y15460991D01*
G37*
X24571012Y15460991D02*
X25454947Y14577057D01*
X25424180Y14593502D01*
X25304482Y14629812D01*
X25180000Y14642072D01*
X24415750Y14639000D01*
X24257000Y14480250D01*
X24257000Y13081000D01*
X25656250Y13081000D01*
X25815000Y13239750D01*
X25818072Y14004000D01*
X25805812Y14128482D01*
X25769502Y14248180D01*
X25753057Y14278947D01*
X28391004Y11641000D01*
X25759442Y11641000D01*
X25769502Y11659820D01*
X25805812Y11779518D01*
X25818072Y11904000D01*
X25815000Y12668250D01*
X25656250Y12827000D01*
X24257000Y12827000D01*
X24257000Y12807000D01*
X24003000Y12807000D01*
X24003000Y12827000D01*
X23983000Y12827000D01*
X23983000Y13081000D01*
X24003000Y13081000D01*
X24003000Y14480250D01*
X23844250Y14639000D01*
X23080000Y14642072D01*
X22955518Y14629812D01*
X22835820Y14593502D01*
X22817000Y14583442D01*
X22817000Y15460990D01*
X24571012Y15460991D01*
M02*
