G04 #@! TF.GenerationSoftware,KiCad,Pcbnew,(5.1.5)-3*
G04 #@! TF.CreationDate,2021-02-24T13:15:57+01:00*
G04 #@! TF.ProjectId,Projekt,50726f6a-656b-4742-9e6b-696361645f70,rev?*
G04 #@! TF.SameCoordinates,PX3778af0PY9765530*
G04 #@! TF.FileFunction,Copper,L1,Top*
G04 #@! TF.FilePolarity,Positive*
%FSLAX46Y46*%
G04 Gerber Fmt 4.6, Leading zero omitted, Abs format (unit mm)*
G04 Created by KiCad (PCBNEW (5.1.5)-3) date 2021-02-24 13:15:57*
%MOMM*%
%LPD*%
G04 APERTURE LIST*
%ADD10C,1.524000*%
%ADD11O,2.100000X2.100000*%
%ADD12R,2.100000X2.100000*%
%ADD13C,1.600000*%
%ADD14O,1.600000X1.600000*%
%ADD15C,2.000000*%
%ADD16C,1.800000*%
%ADD17C,1.000000*%
%ADD18C,0.254000*%
G04 APERTURE END LIST*
D10*
X51562000Y8660000D03*
X51562000Y11660000D03*
X111506000Y8636000D03*
X111506000Y11636000D03*
X121412000Y8636000D03*
X121412000Y11636000D03*
D11*
X8890000Y10414000D03*
X8890000Y12954000D03*
X11430000Y10414000D03*
X11430000Y12954000D03*
X13970000Y10414000D03*
X13970000Y12954000D03*
X16510000Y10414000D03*
X16510000Y12954000D03*
X19050000Y10414000D03*
X19050000Y12954000D03*
X21590000Y10414000D03*
X21590000Y12954000D03*
X24130000Y10414000D03*
D12*
X24130000Y12954000D03*
D10*
X116586000Y8636000D03*
X116586000Y11636000D03*
D13*
X68834000Y5334000D03*
D14*
X81534000Y5334000D03*
D10*
X101600000Y8684000D03*
X101600000Y11684000D03*
X91440000Y8684000D03*
X91440000Y11684000D03*
X96520000Y8684000D03*
X96520000Y11684000D03*
X106426000Y8636000D03*
X106426000Y11636000D03*
D13*
X99314000Y5334000D03*
D14*
X86614000Y5334000D03*
D10*
X56642000Y8636000D03*
X56642000Y11636000D03*
D15*
X126056000Y13716000D03*
X130556000Y13716000D03*
X126056000Y7216000D03*
X130556000Y7216000D03*
D10*
X46736000Y8684000D03*
X46736000Y11684000D03*
X66548000Y8660000D03*
X66548000Y11660000D03*
X71628000Y8636000D03*
X71628000Y11636000D03*
X76454000Y8660000D03*
X76454000Y11660000D03*
X86614000Y8636000D03*
X86614000Y11636000D03*
X81534000Y8636000D03*
X81534000Y11636000D03*
X61468000Y8684000D03*
X61468000Y11684000D03*
D11*
X8890000Y20574000D03*
X8890000Y23114000D03*
X11430000Y20574000D03*
X11430000Y23114000D03*
X13970000Y20574000D03*
X13970000Y23114000D03*
X16510000Y20574000D03*
X16510000Y23114000D03*
X19050000Y20574000D03*
X19050000Y23114000D03*
X21590000Y20574000D03*
X21590000Y23114000D03*
X24130000Y20574000D03*
D12*
X24130000Y23114000D03*
D16*
X33782000Y13462000D03*
X34412001Y3846000D03*
X84074000Y7112000D03*
X38608000Y6350000D03*
X28956000Y22860000D03*
X26924000Y12446000D03*
X30988000Y10414000D03*
X29605990Y18533037D03*
X9144000Y16764000D03*
X6096000Y8890000D03*
D17*
X33782000Y13462000D02*
X33782000Y4476001D01*
X33782000Y4476001D02*
X34412001Y3846000D01*
X29605990Y18533037D02*
X29605990Y11796010D01*
X29605990Y11796010D02*
X30988000Y10414000D01*
X9144000Y16764000D02*
X6096000Y13716000D01*
X6096000Y13716000D02*
X6096000Y8890000D01*
D18*
G36*
X32071000Y27499001D02*
G01*
X32071000Y18068134D01*
X32067638Y18034000D01*
X32071000Y17999865D01*
X32081057Y17897756D01*
X32120798Y17766748D01*
X32185333Y17646011D01*
X32272183Y17540183D01*
X32378011Y17453333D01*
X32498748Y17388798D01*
X32629756Y17349057D01*
X32766000Y17335638D01*
X32800135Y17339000D01*
X133163000Y17339001D01*
X133163000Y2981000D01*
X130385905Y2981000D01*
X130385905Y5489000D01*
X130726095Y5489000D01*
X131059747Y5555368D01*
X131374041Y5685553D01*
X131656898Y5874552D01*
X131897448Y6115102D01*
X132086447Y6397959D01*
X132216632Y6712253D01*
X132283000Y7045905D01*
X132283000Y7386095D01*
X132216632Y7719747D01*
X132086447Y8034041D01*
X131897448Y8316898D01*
X131656898Y8557448D01*
X131374041Y8746447D01*
X131059747Y8876632D01*
X130726095Y8943000D01*
X130385905Y8943000D01*
X130385905Y11989000D01*
X130726095Y11989000D01*
X131059747Y12055368D01*
X131374041Y12185553D01*
X131656898Y12374552D01*
X131897448Y12615102D01*
X132086447Y12897959D01*
X132216632Y13212253D01*
X132283000Y13545905D01*
X132283000Y13886095D01*
X132216632Y14219747D01*
X132086447Y14534041D01*
X131897448Y14816898D01*
X131656898Y15057448D01*
X131374041Y15246447D01*
X131059747Y15376632D01*
X130726095Y15443000D01*
X130385905Y15443000D01*
X130052253Y15376632D01*
X129737959Y15246447D01*
X129455102Y15057448D01*
X129214552Y14816898D01*
X129025553Y14534041D01*
X128895368Y14219747D01*
X128829000Y13886095D01*
X128829000Y13545905D01*
X128895368Y13212253D01*
X129025553Y12897959D01*
X129214552Y12615102D01*
X129455102Y12374552D01*
X129737959Y12185553D01*
X130052253Y12055368D01*
X130385905Y11989000D01*
X130385905Y8943000D01*
X130052253Y8876632D01*
X129737959Y8746447D01*
X129455102Y8557448D01*
X129214552Y8316898D01*
X129025553Y8034041D01*
X128895368Y7719747D01*
X128829000Y7386095D01*
X128829000Y7045905D01*
X128895368Y6712253D01*
X129025553Y6397959D01*
X129214552Y6115102D01*
X129455102Y5874552D01*
X129737959Y5685553D01*
X130052253Y5555368D01*
X130385905Y5489000D01*
X130385905Y2981000D01*
X127191413Y2981000D01*
X127191413Y6260192D01*
X127455814Y6355956D01*
X127596704Y6645571D01*
X127678384Y6957108D01*
X127697718Y7278595D01*
X127653961Y7597675D01*
X127548795Y7902088D01*
X127455814Y8076044D01*
X127191413Y8171808D01*
X127191413Y12760192D01*
X127455814Y12855956D01*
X127596704Y13145571D01*
X127678384Y13457108D01*
X127697718Y13778595D01*
X127653961Y14097675D01*
X127548795Y14402088D01*
X127455814Y14576044D01*
X127191413Y14671808D01*
X126235605Y13716000D01*
X127191413Y12760192D01*
X127191413Y8171808D01*
X126235605Y7216000D01*
X127191413Y6260192D01*
X127191413Y2981000D01*
X126118595Y2981000D01*
X126118595Y5574282D01*
X126437675Y5618039D01*
X126742088Y5723205D01*
X126916044Y5816186D01*
X127011808Y6080587D01*
X126056000Y7036395D01*
X126056000Y7395605D01*
X127011808Y8351413D01*
X126916044Y8615814D01*
X126626429Y8756704D01*
X126314892Y8838384D01*
X126118595Y8850189D01*
X126118595Y12074282D01*
X126437675Y12118039D01*
X126742088Y12223205D01*
X126916044Y12316186D01*
X127011808Y12580587D01*
X126056000Y13536395D01*
X126056000Y13895605D01*
X127011808Y14851413D01*
X126916044Y15115814D01*
X126626429Y15256704D01*
X126314892Y15338384D01*
X125993405Y15357718D01*
X125674325Y15313961D01*
X125369912Y15208795D01*
X125195956Y15115814D01*
X125100192Y14851413D01*
X126056000Y13895605D01*
X126056000Y13536395D01*
X125100192Y12580587D01*
X125195956Y12316186D01*
X125485571Y12175296D01*
X125797108Y12093616D01*
X126118595Y12074282D01*
X126118595Y8850189D01*
X125993405Y8857718D01*
X125674325Y8813961D01*
X125369912Y8708795D01*
X125195956Y8615814D01*
X125100192Y8351413D01*
X126056000Y7395605D01*
X126056000Y7036395D01*
X125100192Y6080587D01*
X125195956Y5816186D01*
X125485571Y5675296D01*
X125797108Y5593616D01*
X126118595Y5574282D01*
X126118595Y2981000D01*
X124920587Y2981000D01*
X124920587Y6260192D01*
X125876395Y7216000D01*
X124920587Y8171808D01*
X124920587Y12760192D01*
X125876395Y13716000D01*
X124920587Y14671808D01*
X124656186Y14576044D01*
X124515296Y14286429D01*
X124433616Y13974892D01*
X124414282Y13653405D01*
X124458039Y13334325D01*
X124563205Y13029912D01*
X124656186Y12855956D01*
X124920587Y12760192D01*
X124920587Y8171808D01*
X124656186Y8076044D01*
X124515296Y7786429D01*
X124433616Y7474892D01*
X124414282Y7153405D01*
X124458039Y6834325D01*
X124563205Y6529912D01*
X124656186Y6355956D01*
X124920587Y6260192D01*
X124920587Y2981000D01*
X121265346Y2981000D01*
X121265346Y7147000D01*
X121558654Y7147000D01*
X121846325Y7204221D01*
X122117306Y7316465D01*
X122361182Y7479418D01*
X122568582Y7686818D01*
X122731535Y7930694D01*
X122843779Y8201675D01*
X122901000Y8489346D01*
X122901000Y8782654D01*
X122843779Y9070325D01*
X122731535Y9341306D01*
X122568582Y9585182D01*
X122361182Y9792582D01*
X122117306Y9955535D01*
X121846325Y10067779D01*
X121558654Y10125000D01*
X121265346Y10125000D01*
X121265346Y10147000D01*
X121558654Y10147000D01*
X121846325Y10204221D01*
X122117306Y10316465D01*
X122361182Y10479418D01*
X122568582Y10686818D01*
X122731535Y10930694D01*
X122843779Y11201675D01*
X122901000Y11489346D01*
X122901000Y11782654D01*
X122843779Y12070325D01*
X122731535Y12341306D01*
X122568582Y12585182D01*
X122361182Y12792582D01*
X122117306Y12955535D01*
X121846325Y13067779D01*
X121558654Y13125000D01*
X121265346Y13125000D01*
X120977675Y13067779D01*
X120706694Y12955535D01*
X120462818Y12792582D01*
X120255418Y12585182D01*
X120092465Y12341306D01*
X119980221Y12070325D01*
X119923000Y11782654D01*
X119923000Y11489346D01*
X119980221Y11201675D01*
X120092465Y10930694D01*
X120255418Y10686818D01*
X120462818Y10479418D01*
X120706694Y10316465D01*
X120977675Y10204221D01*
X121265346Y10147000D01*
X121265346Y10125000D01*
X120977675Y10067779D01*
X120706694Y9955535D01*
X120462818Y9792582D01*
X120255418Y9585182D01*
X120092465Y9341306D01*
X119980221Y9070325D01*
X119923000Y8782654D01*
X119923000Y8489346D01*
X119980221Y8201675D01*
X120092465Y7930694D01*
X120255418Y7686818D01*
X120462818Y7479418D01*
X120706694Y7316465D01*
X120977675Y7204221D01*
X121265346Y7147000D01*
X121265346Y2981000D01*
X116439346Y2981000D01*
X116439346Y7147000D01*
X116732654Y7147000D01*
X117020325Y7204221D01*
X117291306Y7316465D01*
X117535182Y7479418D01*
X117742582Y7686818D01*
X117905535Y7930694D01*
X118017779Y8201675D01*
X118075000Y8489346D01*
X118075000Y8782654D01*
X118017779Y9070325D01*
X117905535Y9341306D01*
X117742582Y9585182D01*
X117535182Y9792582D01*
X117291306Y9955535D01*
X117020325Y10067779D01*
X116732654Y10125000D01*
X116439346Y10125000D01*
X116439346Y10147000D01*
X116732654Y10147000D01*
X117020325Y10204221D01*
X117291306Y10316465D01*
X117535182Y10479418D01*
X117742582Y10686818D01*
X117905535Y10930694D01*
X118017779Y11201675D01*
X118075000Y11489346D01*
X118075000Y11782654D01*
X118017779Y12070325D01*
X117905535Y12341306D01*
X117742582Y12585182D01*
X117535182Y12792582D01*
X117291306Y12955535D01*
X117020325Y13067779D01*
X116732654Y13125000D01*
X116439346Y13125000D01*
X116151675Y13067779D01*
X115880694Y12955535D01*
X115636818Y12792582D01*
X115429418Y12585182D01*
X115266465Y12341306D01*
X115154221Y12070325D01*
X115097000Y11782654D01*
X115097000Y11489346D01*
X115154221Y11201675D01*
X115266465Y10930694D01*
X115429418Y10686818D01*
X115636818Y10479418D01*
X115880694Y10316465D01*
X116151675Y10204221D01*
X116439346Y10147000D01*
X116439346Y10125000D01*
X116151675Y10067779D01*
X115880694Y9955535D01*
X115636818Y9792582D01*
X115429418Y9585182D01*
X115266465Y9341306D01*
X115154221Y9070325D01*
X115097000Y8782654D01*
X115097000Y8489346D01*
X115154221Y8201675D01*
X115266465Y7930694D01*
X115429418Y7686818D01*
X115636818Y7479418D01*
X115880694Y7316465D01*
X116151675Y7204221D01*
X116439346Y7147000D01*
X116439346Y2981000D01*
X111359346Y2981000D01*
X111359346Y7147000D01*
X111652654Y7147000D01*
X111940325Y7204221D01*
X112211306Y7316465D01*
X112455182Y7479418D01*
X112662582Y7686818D01*
X112825535Y7930694D01*
X112937779Y8201675D01*
X112995000Y8489346D01*
X112995000Y8782654D01*
X112937779Y9070325D01*
X112825535Y9341306D01*
X112662582Y9585182D01*
X112455182Y9792582D01*
X112211306Y9955535D01*
X111940325Y10067779D01*
X111652654Y10125000D01*
X111359346Y10125000D01*
X111359346Y10147000D01*
X111652654Y10147000D01*
X111940325Y10204221D01*
X112211306Y10316465D01*
X112455182Y10479418D01*
X112662582Y10686818D01*
X112825535Y10930694D01*
X112937779Y11201675D01*
X112995000Y11489346D01*
X112995000Y11782654D01*
X112937779Y12070325D01*
X112825535Y12341306D01*
X112662582Y12585182D01*
X112455182Y12792582D01*
X112211306Y12955535D01*
X111940325Y13067779D01*
X111652654Y13125000D01*
X111359346Y13125000D01*
X111071675Y13067779D01*
X110800694Y12955535D01*
X110556818Y12792582D01*
X110349418Y12585182D01*
X110186465Y12341306D01*
X110074221Y12070325D01*
X110017000Y11782654D01*
X110017000Y11489346D01*
X110074221Y11201675D01*
X110186465Y10930694D01*
X110349418Y10686818D01*
X110556818Y10479418D01*
X110800694Y10316465D01*
X111071675Y10204221D01*
X111359346Y10147000D01*
X111359346Y10125000D01*
X111071675Y10067779D01*
X110800694Y9955535D01*
X110556818Y9792582D01*
X110349418Y9585182D01*
X110186465Y9341306D01*
X110074221Y9070325D01*
X110017000Y8782654D01*
X110017000Y8489346D01*
X110074221Y8201675D01*
X110186465Y7930694D01*
X110349418Y7686818D01*
X110556818Y7479418D01*
X110800694Y7316465D01*
X111071675Y7204221D01*
X111359346Y7147000D01*
X111359346Y2981000D01*
X106279346Y2981000D01*
X106279346Y7147000D01*
X106572654Y7147000D01*
X106860325Y7204221D01*
X107131306Y7316465D01*
X107375182Y7479418D01*
X107582582Y7686818D01*
X107745535Y7930694D01*
X107857779Y8201675D01*
X107915000Y8489346D01*
X107915000Y8782654D01*
X107857779Y9070325D01*
X107745535Y9341306D01*
X107582582Y9585182D01*
X107375182Y9792582D01*
X107131306Y9955535D01*
X106860325Y10067779D01*
X106572654Y10125000D01*
X106279346Y10125000D01*
X106279346Y10147000D01*
X106572654Y10147000D01*
X106860325Y10204221D01*
X107131306Y10316465D01*
X107375182Y10479418D01*
X107582582Y10686818D01*
X107745535Y10930694D01*
X107857779Y11201675D01*
X107915000Y11489346D01*
X107915000Y11782654D01*
X107857779Y12070325D01*
X107745535Y12341306D01*
X107582582Y12585182D01*
X107375182Y12792582D01*
X107131306Y12955535D01*
X106860325Y13067779D01*
X106572654Y13125000D01*
X106279346Y13125000D01*
X105991675Y13067779D01*
X105720694Y12955535D01*
X105476818Y12792582D01*
X105269418Y12585182D01*
X105106465Y12341306D01*
X104994221Y12070325D01*
X104937000Y11782654D01*
X104937000Y11489346D01*
X104994221Y11201675D01*
X105106465Y10930694D01*
X105269418Y10686818D01*
X105476818Y10479418D01*
X105720694Y10316465D01*
X105991675Y10204221D01*
X106279346Y10147000D01*
X106279346Y10125000D01*
X105991675Y10067779D01*
X105720694Y9955535D01*
X105476818Y9792582D01*
X105269418Y9585182D01*
X105106465Y9341306D01*
X104994221Y9070325D01*
X104937000Y8782654D01*
X104937000Y8489346D01*
X104994221Y8201675D01*
X105106465Y7930694D01*
X105269418Y7686818D01*
X105476818Y7479418D01*
X105720694Y7316465D01*
X105991675Y7204221D01*
X106279346Y7147000D01*
X106279346Y2981000D01*
X101453346Y2981000D01*
X101453346Y7195000D01*
X101746654Y7195000D01*
X102034325Y7252221D01*
X102305306Y7364465D01*
X102549182Y7527418D01*
X102756582Y7734818D01*
X102919535Y7978694D01*
X103031779Y8249675D01*
X103089000Y8537346D01*
X103089000Y8830654D01*
X103031779Y9118325D01*
X102919535Y9389306D01*
X102756582Y9633182D01*
X102549182Y9840582D01*
X102305306Y10003535D01*
X102034325Y10115779D01*
X101746654Y10173000D01*
X101453346Y10173000D01*
X101453346Y10195000D01*
X101746654Y10195000D01*
X102034325Y10252221D01*
X102305306Y10364465D01*
X102549182Y10527418D01*
X102756582Y10734818D01*
X102919535Y10978694D01*
X103031779Y11249675D01*
X103089000Y11537346D01*
X103089000Y11830654D01*
X103031779Y12118325D01*
X102919535Y12389306D01*
X102756582Y12633182D01*
X102549182Y12840582D01*
X102305306Y13003535D01*
X102034325Y13115779D01*
X101746654Y13173000D01*
X101453346Y13173000D01*
X101165675Y13115779D01*
X100894694Y13003535D01*
X100650818Y12840582D01*
X100443418Y12633182D01*
X100280465Y12389306D01*
X100168221Y12118325D01*
X100111000Y11830654D01*
X100111000Y11537346D01*
X100168221Y11249675D01*
X100280465Y10978694D01*
X100443418Y10734818D01*
X100650818Y10527418D01*
X100894694Y10364465D01*
X101165675Y10252221D01*
X101453346Y10195000D01*
X101453346Y10173000D01*
X101165675Y10115779D01*
X100894694Y10003535D01*
X100650818Y9840582D01*
X100443418Y9633182D01*
X100280465Y9389306D01*
X100168221Y9118325D01*
X100111000Y8830654D01*
X100111000Y8537346D01*
X100168221Y8249675D01*
X100280465Y7978694D01*
X100443418Y7734818D01*
X100650818Y7527418D01*
X100894694Y7364465D01*
X101165675Y7252221D01*
X101453346Y7195000D01*
X101453346Y2981000D01*
X99163604Y2981000D01*
X99163604Y3807000D01*
X99464396Y3807000D01*
X99759410Y3865681D01*
X100037306Y3980790D01*
X100287406Y4147901D01*
X100500099Y4360594D01*
X100667210Y4610694D01*
X100782319Y4888590D01*
X100841000Y5183604D01*
X100841000Y5484396D01*
X100782319Y5779410D01*
X100667210Y6057306D01*
X100500099Y6307406D01*
X100287406Y6520099D01*
X100037306Y6687210D01*
X99759410Y6802319D01*
X99464396Y6861000D01*
X99163604Y6861000D01*
X98868590Y6802319D01*
X98590694Y6687210D01*
X98340594Y6520099D01*
X98127901Y6307406D01*
X97960790Y6057306D01*
X97845681Y5779410D01*
X97787000Y5484396D01*
X97787000Y5183604D01*
X97845681Y4888590D01*
X97960790Y4610694D01*
X98127901Y4360594D01*
X98340594Y4147901D01*
X98590694Y3980790D01*
X98868590Y3865681D01*
X99163604Y3807000D01*
X99163604Y2981000D01*
X96373346Y2981000D01*
X96373346Y7195000D01*
X96666654Y7195000D01*
X96954325Y7252221D01*
X97225306Y7364465D01*
X97469182Y7527418D01*
X97676582Y7734818D01*
X97839535Y7978694D01*
X97951779Y8249675D01*
X98009000Y8537346D01*
X98009000Y8830654D01*
X97951779Y9118325D01*
X97839535Y9389306D01*
X97676582Y9633182D01*
X97469182Y9840582D01*
X97225306Y10003535D01*
X96954325Y10115779D01*
X96666654Y10173000D01*
X96373346Y10173000D01*
X96373346Y10195000D01*
X96666654Y10195000D01*
X96954325Y10252221D01*
X97225306Y10364465D01*
X97469182Y10527418D01*
X97676582Y10734818D01*
X97839535Y10978694D01*
X97951779Y11249675D01*
X98009000Y11537346D01*
X98009000Y11830654D01*
X97951779Y12118325D01*
X97839535Y12389306D01*
X97676582Y12633182D01*
X97469182Y12840582D01*
X97225306Y13003535D01*
X96954325Y13115779D01*
X96666654Y13173000D01*
X96373346Y13173000D01*
X96085675Y13115779D01*
X95814694Y13003535D01*
X95570818Y12840582D01*
X95363418Y12633182D01*
X95200465Y12389306D01*
X95088221Y12118325D01*
X95031000Y11830654D01*
X95031000Y11537346D01*
X95088221Y11249675D01*
X95200465Y10978694D01*
X95363418Y10734818D01*
X95570818Y10527418D01*
X95814694Y10364465D01*
X96085675Y10252221D01*
X96373346Y10195000D01*
X96373346Y10173000D01*
X96085675Y10115779D01*
X95814694Y10003535D01*
X95570818Y9840582D01*
X95363418Y9633182D01*
X95200465Y9389306D01*
X95088221Y9118325D01*
X95031000Y8830654D01*
X95031000Y8537346D01*
X95088221Y8249675D01*
X95200465Y7978694D01*
X95363418Y7734818D01*
X95570818Y7527418D01*
X95814694Y7364465D01*
X96085675Y7252221D01*
X96373346Y7195000D01*
X96373346Y2981000D01*
X91293346Y2981000D01*
X91293346Y7195000D01*
X91586654Y7195000D01*
X91874325Y7252221D01*
X92145306Y7364465D01*
X92389182Y7527418D01*
X92596582Y7734818D01*
X92759535Y7978694D01*
X92871779Y8249675D01*
X92929000Y8537346D01*
X92929000Y8830654D01*
X92871779Y9118325D01*
X92759535Y9389306D01*
X92596582Y9633182D01*
X92389182Y9840582D01*
X92145306Y10003535D01*
X91874325Y10115779D01*
X91586654Y10173000D01*
X91293346Y10173000D01*
X91293346Y10195000D01*
X91586654Y10195000D01*
X91874325Y10252221D01*
X92145306Y10364465D01*
X92389182Y10527418D01*
X92596582Y10734818D01*
X92759535Y10978694D01*
X92871779Y11249675D01*
X92929000Y11537346D01*
X92929000Y11830654D01*
X92871779Y12118325D01*
X92759535Y12389306D01*
X92596582Y12633182D01*
X92389182Y12840582D01*
X92145306Y13003535D01*
X91874325Y13115779D01*
X91586654Y13173000D01*
X91293346Y13173000D01*
X91005675Y13115779D01*
X90734694Y13003535D01*
X90490818Y12840582D01*
X90283418Y12633182D01*
X90120465Y12389306D01*
X90008221Y12118325D01*
X89951000Y11830654D01*
X89951000Y11537346D01*
X90008221Y11249675D01*
X90120465Y10978694D01*
X90283418Y10734818D01*
X90490818Y10527418D01*
X90734694Y10364465D01*
X91005675Y10252221D01*
X91293346Y10195000D01*
X91293346Y10173000D01*
X91005675Y10115779D01*
X90734694Y10003535D01*
X90490818Y9840582D01*
X90283418Y9633182D01*
X90120465Y9389306D01*
X90008221Y9118325D01*
X89951000Y8830654D01*
X89951000Y8537346D01*
X90008221Y8249675D01*
X90120465Y7978694D01*
X90283418Y7734818D01*
X90490818Y7527418D01*
X90734694Y7364465D01*
X91005675Y7252221D01*
X91293346Y7195000D01*
X91293346Y2981000D01*
X86963040Y2981000D01*
X86963040Y3942091D01*
X87227881Y4036930D01*
X87469131Y4181615D01*
X87677519Y4370586D01*
X87845037Y4596580D01*
X87965246Y4850913D01*
X88005904Y4984961D01*
X87883915Y5207000D01*
X86741000Y5207000D01*
X86741000Y5461000D01*
X87883915Y5461000D01*
X88005904Y5683039D01*
X87965246Y5817087D01*
X87845037Y6071420D01*
X87677519Y6297414D01*
X87469131Y6486385D01*
X87227881Y6631070D01*
X86963040Y6725909D01*
X86741000Y6604624D01*
X86741000Y5461000D01*
X86741000Y5207000D01*
X86741000Y4063376D01*
X86963040Y3942091D01*
X86963040Y2981000D01*
X86264960Y2981000D01*
X86264960Y3942091D01*
X86487000Y4063376D01*
X86487000Y5207000D01*
X85344085Y5207000D01*
X85344085Y5461000D01*
X86487000Y5461000D01*
X86487000Y6604624D01*
X86467346Y6615359D01*
X86467346Y7147000D01*
X86760654Y7147000D01*
X87048325Y7204221D01*
X87319306Y7316465D01*
X87563182Y7479418D01*
X87770582Y7686818D01*
X87933535Y7930694D01*
X88045779Y8201675D01*
X88103000Y8489346D01*
X88103000Y8782654D01*
X88045779Y9070325D01*
X87933535Y9341306D01*
X87770582Y9585182D01*
X87563182Y9792582D01*
X87319306Y9955535D01*
X87048325Y10067779D01*
X86760654Y10125000D01*
X86467346Y10125000D01*
X86467346Y10147000D01*
X86760654Y10147000D01*
X87048325Y10204221D01*
X87319306Y10316465D01*
X87563182Y10479418D01*
X87770582Y10686818D01*
X87933535Y10930694D01*
X88045779Y11201675D01*
X88103000Y11489346D01*
X88103000Y11782654D01*
X88045779Y12070325D01*
X87933535Y12341306D01*
X87770582Y12585182D01*
X87563182Y12792582D01*
X87319306Y12955535D01*
X87048325Y13067779D01*
X86760654Y13125000D01*
X86467346Y13125000D01*
X86179675Y13067779D01*
X85908694Y12955535D01*
X85664818Y12792582D01*
X85457418Y12585182D01*
X85294465Y12341306D01*
X85182221Y12070325D01*
X85125000Y11782654D01*
X85125000Y11489346D01*
X85182221Y11201675D01*
X85294465Y10930694D01*
X85457418Y10686818D01*
X85664818Y10479418D01*
X85908694Y10316465D01*
X86179675Y10204221D01*
X86467346Y10147000D01*
X86467346Y10125000D01*
X86179675Y10067779D01*
X85908694Y9955535D01*
X85664818Y9792582D01*
X85457418Y9585182D01*
X85294465Y9341306D01*
X85182221Y9070325D01*
X85125000Y8782654D01*
X85125000Y8489346D01*
X85182221Y8201675D01*
X85294465Y7930694D01*
X85457418Y7686818D01*
X85664818Y7479418D01*
X85908694Y7316465D01*
X86179675Y7204221D01*
X86467346Y7147000D01*
X86467346Y6615359D01*
X86264960Y6725909D01*
X86000119Y6631070D01*
X85758869Y6486385D01*
X85550481Y6297414D01*
X85382963Y6071420D01*
X85262754Y5817087D01*
X85222096Y5683039D01*
X85344085Y5461000D01*
X85344085Y5207000D01*
X85222096Y4984961D01*
X85262754Y4850913D01*
X85382963Y4596580D01*
X85550481Y4370586D01*
X85758869Y4181615D01*
X86000119Y4036930D01*
X86264960Y3942091D01*
X86264960Y2981000D01*
X81883040Y2981000D01*
X81883040Y3942091D01*
X82147881Y4036930D01*
X82389131Y4181615D01*
X82597519Y4370586D01*
X82765037Y4596580D01*
X82885246Y4850913D01*
X82925904Y4984961D01*
X82803915Y5207000D01*
X81661000Y5207000D01*
X81661000Y5461000D01*
X82803915Y5461000D01*
X82925904Y5683039D01*
X82885246Y5817087D01*
X82765037Y6071420D01*
X82597519Y6297414D01*
X82389131Y6486385D01*
X82147881Y6631070D01*
X81883040Y6725909D01*
X81661000Y6604624D01*
X81661000Y5461000D01*
X81661000Y5207000D01*
X81661000Y4063376D01*
X81883040Y3942091D01*
X81883040Y2981000D01*
X81184960Y2981000D01*
X81184960Y3942091D01*
X81407000Y4063376D01*
X81407000Y5207000D01*
X80264085Y5207000D01*
X80264085Y5461000D01*
X81407000Y5461000D01*
X81407000Y6604624D01*
X81387346Y6615359D01*
X81387346Y7147000D01*
X81680654Y7147000D01*
X81968325Y7204221D01*
X82239306Y7316465D01*
X82483182Y7479418D01*
X82690582Y7686818D01*
X82853535Y7930694D01*
X82965779Y8201675D01*
X83023000Y8489346D01*
X83023000Y8782654D01*
X82965779Y9070325D01*
X82853535Y9341306D01*
X82690582Y9585182D01*
X82483182Y9792582D01*
X82239306Y9955535D01*
X81968325Y10067779D01*
X81680654Y10125000D01*
X81387346Y10125000D01*
X81387346Y10147000D01*
X81680654Y10147000D01*
X81968325Y10204221D01*
X82239306Y10316465D01*
X82483182Y10479418D01*
X82690582Y10686818D01*
X82853535Y10930694D01*
X82965779Y11201675D01*
X83023000Y11489346D01*
X83023000Y11782654D01*
X82965779Y12070325D01*
X82853535Y12341306D01*
X82690582Y12585182D01*
X82483182Y12792582D01*
X82239306Y12955535D01*
X81968325Y13067779D01*
X81680654Y13125000D01*
X81387346Y13125000D01*
X81099675Y13067779D01*
X80828694Y12955535D01*
X80584818Y12792582D01*
X80377418Y12585182D01*
X80214465Y12341306D01*
X80102221Y12070325D01*
X80045000Y11782654D01*
X80045000Y11489346D01*
X80102221Y11201675D01*
X80214465Y10930694D01*
X80377418Y10686818D01*
X80584818Y10479418D01*
X80828694Y10316465D01*
X81099675Y10204221D01*
X81387346Y10147000D01*
X81387346Y10125000D01*
X81099675Y10067779D01*
X80828694Y9955535D01*
X80584818Y9792582D01*
X80377418Y9585182D01*
X80214465Y9341306D01*
X80102221Y9070325D01*
X80045000Y8782654D01*
X80045000Y8489346D01*
X80102221Y8201675D01*
X80214465Y7930694D01*
X80377418Y7686818D01*
X80584818Y7479418D01*
X80828694Y7316465D01*
X81099675Y7204221D01*
X81387346Y7147000D01*
X81387346Y6615359D01*
X81184960Y6725909D01*
X80920119Y6631070D01*
X80678869Y6486385D01*
X80470481Y6297414D01*
X80302963Y6071420D01*
X80182754Y5817087D01*
X80142096Y5683039D01*
X80264085Y5461000D01*
X80264085Y5207000D01*
X80142096Y4984961D01*
X80182754Y4850913D01*
X80302963Y4596580D01*
X80470481Y4370586D01*
X80678869Y4181615D01*
X80920119Y4036930D01*
X81184960Y3942091D01*
X81184960Y2981000D01*
X76307346Y2981000D01*
X76307346Y7171000D01*
X76600654Y7171000D01*
X76888325Y7228221D01*
X77159306Y7340465D01*
X77403182Y7503418D01*
X77610582Y7710818D01*
X77773535Y7954694D01*
X77885779Y8225675D01*
X77943000Y8513346D01*
X77943000Y8806654D01*
X77885779Y9094325D01*
X77773535Y9365306D01*
X77610582Y9609182D01*
X77403182Y9816582D01*
X77159306Y9979535D01*
X76888325Y10091779D01*
X76600654Y10149000D01*
X76307346Y10149000D01*
X76307346Y10171000D01*
X76600654Y10171000D01*
X76888325Y10228221D01*
X77159306Y10340465D01*
X77403182Y10503418D01*
X77610582Y10710818D01*
X77773535Y10954694D01*
X77885779Y11225675D01*
X77943000Y11513346D01*
X77943000Y11806654D01*
X77885779Y12094325D01*
X77773535Y12365306D01*
X77610582Y12609182D01*
X77403182Y12816582D01*
X77159306Y12979535D01*
X76888325Y13091779D01*
X76600654Y13149000D01*
X76307346Y13149000D01*
X76019675Y13091779D01*
X75748694Y12979535D01*
X75504818Y12816582D01*
X75297418Y12609182D01*
X75134465Y12365306D01*
X75022221Y12094325D01*
X74965000Y11806654D01*
X74965000Y11513346D01*
X75022221Y11225675D01*
X75134465Y10954694D01*
X75297418Y10710818D01*
X75504818Y10503418D01*
X75748694Y10340465D01*
X76019675Y10228221D01*
X76307346Y10171000D01*
X76307346Y10149000D01*
X76019675Y10091779D01*
X75748694Y9979535D01*
X75504818Y9816582D01*
X75297418Y9609182D01*
X75134465Y9365306D01*
X75022221Y9094325D01*
X74965000Y8806654D01*
X74965000Y8513346D01*
X75022221Y8225675D01*
X75134465Y7954694D01*
X75297418Y7710818D01*
X75504818Y7503418D01*
X75748694Y7340465D01*
X76019675Y7228221D01*
X76307346Y7171000D01*
X76307346Y2981000D01*
X71481346Y2981000D01*
X71481346Y7147000D01*
X71774654Y7147000D01*
X72062325Y7204221D01*
X72333306Y7316465D01*
X72577182Y7479418D01*
X72784582Y7686818D01*
X72947535Y7930694D01*
X73059779Y8201675D01*
X73117000Y8489346D01*
X73117000Y8782654D01*
X73059779Y9070325D01*
X72947535Y9341306D01*
X72784582Y9585182D01*
X72577182Y9792582D01*
X72333306Y9955535D01*
X72062325Y10067779D01*
X71774654Y10125000D01*
X71481346Y10125000D01*
X71481346Y10147000D01*
X71774654Y10147000D01*
X72062325Y10204221D01*
X72333306Y10316465D01*
X72577182Y10479418D01*
X72784582Y10686818D01*
X72947535Y10930694D01*
X73059779Y11201675D01*
X73117000Y11489346D01*
X73117000Y11782654D01*
X73059779Y12070325D01*
X72947535Y12341306D01*
X72784582Y12585182D01*
X72577182Y12792582D01*
X72333306Y12955535D01*
X72062325Y13067779D01*
X71774654Y13125000D01*
X71481346Y13125000D01*
X71193675Y13067779D01*
X70922694Y12955535D01*
X70678818Y12792582D01*
X70471418Y12585182D01*
X70308465Y12341306D01*
X70196221Y12070325D01*
X70139000Y11782654D01*
X70139000Y11489346D01*
X70196221Y11201675D01*
X70308465Y10930694D01*
X70471418Y10686818D01*
X70678818Y10479418D01*
X70922694Y10316465D01*
X71193675Y10204221D01*
X71481346Y10147000D01*
X71481346Y10125000D01*
X71193675Y10067779D01*
X70922694Y9955535D01*
X70678818Y9792582D01*
X70471418Y9585182D01*
X70308465Y9341306D01*
X70196221Y9070325D01*
X70139000Y8782654D01*
X70139000Y8489346D01*
X70196221Y8201675D01*
X70308465Y7930694D01*
X70471418Y7686818D01*
X70678818Y7479418D01*
X70922694Y7316465D01*
X71193675Y7204221D01*
X71481346Y7147000D01*
X71481346Y2981000D01*
X68683604Y2981000D01*
X68683604Y3807000D01*
X68984396Y3807000D01*
X69279410Y3865681D01*
X69557306Y3980790D01*
X69807406Y4147901D01*
X70020099Y4360594D01*
X70187210Y4610694D01*
X70302319Y4888590D01*
X70361000Y5183604D01*
X70361000Y5484396D01*
X70302319Y5779410D01*
X70187210Y6057306D01*
X70020099Y6307406D01*
X69807406Y6520099D01*
X69557306Y6687210D01*
X69279410Y6802319D01*
X68984396Y6861000D01*
X68683604Y6861000D01*
X68388590Y6802319D01*
X68110694Y6687210D01*
X67860594Y6520099D01*
X67647901Y6307406D01*
X67480790Y6057306D01*
X67365681Y5779410D01*
X67307000Y5484396D01*
X67307000Y5183604D01*
X67365681Y4888590D01*
X67480790Y4610694D01*
X67647901Y4360594D01*
X67860594Y4147901D01*
X68110694Y3980790D01*
X68388590Y3865681D01*
X68683604Y3807000D01*
X68683604Y2981000D01*
X66401346Y2981000D01*
X66401346Y7171000D01*
X66694654Y7171000D01*
X66982325Y7228221D01*
X67253306Y7340465D01*
X67497182Y7503418D01*
X67704582Y7710818D01*
X67867535Y7954694D01*
X67979779Y8225675D01*
X68037000Y8513346D01*
X68037000Y8806654D01*
X67979779Y9094325D01*
X67867535Y9365306D01*
X67704582Y9609182D01*
X67497182Y9816582D01*
X67253306Y9979535D01*
X66982325Y10091779D01*
X66694654Y10149000D01*
X66401346Y10149000D01*
X66401346Y10171000D01*
X66694654Y10171000D01*
X66982325Y10228221D01*
X67253306Y10340465D01*
X67497182Y10503418D01*
X67704582Y10710818D01*
X67867535Y10954694D01*
X67979779Y11225675D01*
X68037000Y11513346D01*
X68037000Y11806654D01*
X67979779Y12094325D01*
X67867535Y12365306D01*
X67704582Y12609182D01*
X67497182Y12816582D01*
X67253306Y12979535D01*
X66982325Y13091779D01*
X66694654Y13149000D01*
X66401346Y13149000D01*
X66113675Y13091779D01*
X65842694Y12979535D01*
X65598818Y12816582D01*
X65391418Y12609182D01*
X65228465Y12365306D01*
X65116221Y12094325D01*
X65059000Y11806654D01*
X65059000Y11513346D01*
X65116221Y11225675D01*
X65228465Y10954694D01*
X65391418Y10710818D01*
X65598818Y10503418D01*
X65842694Y10340465D01*
X66113675Y10228221D01*
X66401346Y10171000D01*
X66401346Y10149000D01*
X66113675Y10091779D01*
X65842694Y9979535D01*
X65598818Y9816582D01*
X65391418Y9609182D01*
X65228465Y9365306D01*
X65116221Y9094325D01*
X65059000Y8806654D01*
X65059000Y8513346D01*
X65116221Y8225675D01*
X65228465Y7954694D01*
X65391418Y7710818D01*
X65598818Y7503418D01*
X65842694Y7340465D01*
X66113675Y7228221D01*
X66401346Y7171000D01*
X66401346Y2981000D01*
X61321346Y2981000D01*
X61321346Y7195000D01*
X61614654Y7195000D01*
X61902325Y7252221D01*
X62173306Y7364465D01*
X62417182Y7527418D01*
X62624582Y7734818D01*
X62787535Y7978694D01*
X62899779Y8249675D01*
X62957000Y8537346D01*
X62957000Y8830654D01*
X62899779Y9118325D01*
X62787535Y9389306D01*
X62624582Y9633182D01*
X62417182Y9840582D01*
X62173306Y10003535D01*
X61902325Y10115779D01*
X61614654Y10173000D01*
X61321346Y10173000D01*
X61321346Y10195000D01*
X61614654Y10195000D01*
X61902325Y10252221D01*
X62173306Y10364465D01*
X62417182Y10527418D01*
X62624582Y10734818D01*
X62787535Y10978694D01*
X62899779Y11249675D01*
X62957000Y11537346D01*
X62957000Y11830654D01*
X62899779Y12118325D01*
X62787535Y12389306D01*
X62624582Y12633182D01*
X62417182Y12840582D01*
X62173306Y13003535D01*
X61902325Y13115779D01*
X61614654Y13173000D01*
X61321346Y13173000D01*
X61033675Y13115779D01*
X60762694Y13003535D01*
X60518818Y12840582D01*
X60311418Y12633182D01*
X60148465Y12389306D01*
X60036221Y12118325D01*
X59979000Y11830654D01*
X59979000Y11537346D01*
X60036221Y11249675D01*
X60148465Y10978694D01*
X60311418Y10734818D01*
X60518818Y10527418D01*
X60762694Y10364465D01*
X61033675Y10252221D01*
X61321346Y10195000D01*
X61321346Y10173000D01*
X61033675Y10115779D01*
X60762694Y10003535D01*
X60518818Y9840582D01*
X60311418Y9633182D01*
X60148465Y9389306D01*
X60036221Y9118325D01*
X59979000Y8830654D01*
X59979000Y8537346D01*
X60036221Y8249675D01*
X60148465Y7978694D01*
X60311418Y7734818D01*
X60518818Y7527418D01*
X60762694Y7364465D01*
X61033675Y7252221D01*
X61321346Y7195000D01*
X61321346Y2981000D01*
X56495346Y2981000D01*
X56495346Y7147000D01*
X56788654Y7147000D01*
X57076325Y7204221D01*
X57347306Y7316465D01*
X57591182Y7479418D01*
X57798582Y7686818D01*
X57961535Y7930694D01*
X58073779Y8201675D01*
X58131000Y8489346D01*
X58131000Y8782654D01*
X58073779Y9070325D01*
X57961535Y9341306D01*
X57798582Y9585182D01*
X57591182Y9792582D01*
X57347306Y9955535D01*
X57076325Y10067779D01*
X56788654Y10125000D01*
X56495346Y10125000D01*
X56495346Y10147000D01*
X56788654Y10147000D01*
X57076325Y10204221D01*
X57347306Y10316465D01*
X57591182Y10479418D01*
X57798582Y10686818D01*
X57961535Y10930694D01*
X58073779Y11201675D01*
X58131000Y11489346D01*
X58131000Y11782654D01*
X58073779Y12070325D01*
X57961535Y12341306D01*
X57798582Y12585182D01*
X57591182Y12792582D01*
X57347306Y12955535D01*
X57076325Y13067779D01*
X56788654Y13125000D01*
X56495346Y13125000D01*
X56207675Y13067779D01*
X55936694Y12955535D01*
X55692818Y12792582D01*
X55485418Y12585182D01*
X55322465Y12341306D01*
X55210221Y12070325D01*
X55153000Y11782654D01*
X55153000Y11489346D01*
X55210221Y11201675D01*
X55322465Y10930694D01*
X55485418Y10686818D01*
X55692818Y10479418D01*
X55936694Y10316465D01*
X56207675Y10204221D01*
X56495346Y10147000D01*
X56495346Y10125000D01*
X56207675Y10067779D01*
X55936694Y9955535D01*
X55692818Y9792582D01*
X55485418Y9585182D01*
X55322465Y9341306D01*
X55210221Y9070325D01*
X55153000Y8782654D01*
X55153000Y8489346D01*
X55210221Y8201675D01*
X55322465Y7930694D01*
X55485418Y7686818D01*
X55692818Y7479418D01*
X55936694Y7316465D01*
X56207675Y7204221D01*
X56495346Y7147000D01*
X56495346Y2981000D01*
X51415346Y2981000D01*
X51415346Y7171000D01*
X51708654Y7171000D01*
X51996325Y7228221D01*
X52267306Y7340465D01*
X52511182Y7503418D01*
X52718582Y7710818D01*
X52881535Y7954694D01*
X52993779Y8225675D01*
X53051000Y8513346D01*
X53051000Y8806654D01*
X52993779Y9094325D01*
X52881535Y9365306D01*
X52718582Y9609182D01*
X52511182Y9816582D01*
X52267306Y9979535D01*
X51996325Y10091779D01*
X51708654Y10149000D01*
X51415346Y10149000D01*
X51415346Y10171000D01*
X51708654Y10171000D01*
X51996325Y10228221D01*
X52267306Y10340465D01*
X52511182Y10503418D01*
X52718582Y10710818D01*
X52881535Y10954694D01*
X52993779Y11225675D01*
X53051000Y11513346D01*
X53051000Y11806654D01*
X52993779Y12094325D01*
X52881535Y12365306D01*
X52718582Y12609182D01*
X52511182Y12816582D01*
X52267306Y12979535D01*
X51996325Y13091779D01*
X51708654Y13149000D01*
X51415346Y13149000D01*
X51127675Y13091779D01*
X50856694Y12979535D01*
X50612818Y12816582D01*
X50405418Y12609182D01*
X50242465Y12365306D01*
X50130221Y12094325D01*
X50073000Y11806654D01*
X50073000Y11513346D01*
X50130221Y11225675D01*
X50242465Y10954694D01*
X50405418Y10710818D01*
X50612818Y10503418D01*
X50856694Y10340465D01*
X51127675Y10228221D01*
X51415346Y10171000D01*
X51415346Y10149000D01*
X51127675Y10091779D01*
X50856694Y9979535D01*
X50612818Y9816582D01*
X50405418Y9609182D01*
X50242465Y9365306D01*
X50130221Y9094325D01*
X50073000Y8806654D01*
X50073000Y8513346D01*
X50130221Y8225675D01*
X50242465Y7954694D01*
X50405418Y7710818D01*
X50612818Y7503418D01*
X50856694Y7340465D01*
X51127675Y7228221D01*
X51415346Y7171000D01*
X51415346Y2981000D01*
X46589346Y2981000D01*
X46589346Y7195000D01*
X46882654Y7195000D01*
X47170325Y7252221D01*
X47441306Y7364465D01*
X47685182Y7527418D01*
X47892582Y7734818D01*
X48055535Y7978694D01*
X48167779Y8249675D01*
X48225000Y8537346D01*
X48225000Y8830654D01*
X48167779Y9118325D01*
X48055535Y9389306D01*
X47892582Y9633182D01*
X47685182Y9840582D01*
X47441306Y10003535D01*
X47170325Y10115779D01*
X46882654Y10173000D01*
X46589346Y10173000D01*
X46589346Y10195000D01*
X46882654Y10195000D01*
X47170325Y10252221D01*
X47441306Y10364465D01*
X47685182Y10527418D01*
X47892582Y10734818D01*
X48055535Y10978694D01*
X48167779Y11249675D01*
X48225000Y11537346D01*
X48225000Y11830654D01*
X48167779Y12118325D01*
X48055535Y12389306D01*
X47892582Y12633182D01*
X47685182Y12840582D01*
X47441306Y13003535D01*
X47170325Y13115779D01*
X46882654Y13173000D01*
X46589346Y13173000D01*
X46301675Y13115779D01*
X46030694Y13003535D01*
X45786818Y12840582D01*
X45579418Y12633182D01*
X45416465Y12389306D01*
X45304221Y12118325D01*
X45247000Y11830654D01*
X45247000Y11537346D01*
X45304221Y11249675D01*
X45416465Y10978694D01*
X45579418Y10734818D01*
X45786818Y10527418D01*
X46030694Y10364465D01*
X46301675Y10252221D01*
X46589346Y10195000D01*
X46589346Y10173000D01*
X46301675Y10115779D01*
X46030694Y10003535D01*
X45786818Y9840582D01*
X45579418Y9633182D01*
X45416465Y9389306D01*
X45304221Y9118325D01*
X45247000Y8830654D01*
X45247000Y8537346D01*
X45304221Y8249675D01*
X45416465Y7978694D01*
X45579418Y7734818D01*
X45786818Y7527418D01*
X46030694Y7364465D01*
X46301675Y7252221D01*
X46589346Y7195000D01*
X46589346Y2981000D01*
X35790802Y2981000D01*
X35853829Y3075327D01*
X35976476Y3371422D01*
X36039001Y3685755D01*
X36039001Y4006245D01*
X35976476Y4320578D01*
X35853829Y4616673D01*
X35675774Y4883152D01*
X35449153Y5109773D01*
X35182674Y5287828D01*
X35009000Y5359766D01*
X35009000Y12388075D01*
X35045773Y12424848D01*
X35223828Y12691327D01*
X35346475Y12987422D01*
X35409000Y13301755D01*
X35409000Y13622245D01*
X35346475Y13936578D01*
X35223828Y14232673D01*
X35045773Y14499152D01*
X34819152Y14725773D01*
X34552673Y14903828D01*
X34256578Y15026475D01*
X33942245Y15089000D01*
X33621755Y15089000D01*
X33307422Y15026475D01*
X33011327Y14903828D01*
X32744848Y14725773D01*
X32518227Y14499152D01*
X32340172Y14232673D01*
X32217525Y13936578D01*
X32155000Y13622245D01*
X32155000Y13301755D01*
X32217525Y12987422D01*
X32340172Y12691327D01*
X32518227Y12424848D01*
X32555000Y12388075D01*
X32555000Y10875884D01*
X32552475Y10888578D01*
X32429828Y11184673D01*
X32251773Y11451152D01*
X32025152Y11677773D01*
X31758673Y11855828D01*
X31462578Y11978475D01*
X31148245Y12041000D01*
X31096240Y12041000D01*
X30832990Y12304250D01*
X30832990Y17459112D01*
X30869763Y17495885D01*
X31047818Y17762364D01*
X31170465Y18058459D01*
X31232990Y18372792D01*
X31232990Y18693282D01*
X31170465Y19007615D01*
X31047818Y19303710D01*
X30869763Y19570189D01*
X30643142Y19796810D01*
X30376663Y19974865D01*
X30080568Y20097512D01*
X29766235Y20160037D01*
X29445745Y20160037D01*
X29131412Y20097512D01*
X28835317Y19974865D01*
X28568838Y19796810D01*
X28342217Y19570189D01*
X28164162Y19303710D01*
X28041515Y19007615D01*
X27978990Y18693282D01*
X27978990Y18372792D01*
X28041515Y18058459D01*
X28164162Y17762364D01*
X28342217Y17495885D01*
X28378990Y17459112D01*
X28378990Y11856269D01*
X28373055Y11796009D01*
X28378990Y11735749D01*
X28378990Y11735742D01*
X28396745Y11555476D01*
X28466906Y11324186D01*
X28580841Y11111027D01*
X28734173Y10924193D01*
X28780985Y10885775D01*
X29361000Y10305760D01*
X29361000Y10253755D01*
X29423525Y9939422D01*
X29546172Y9643327D01*
X29724227Y9376848D01*
X29950848Y9150227D01*
X30217327Y8972172D01*
X30513422Y8849525D01*
X30827755Y8787000D01*
X31148245Y8787000D01*
X31462578Y8849525D01*
X31758673Y8972172D01*
X32025152Y9150227D01*
X32251773Y9376848D01*
X32429828Y9643327D01*
X32552475Y9939422D01*
X32555000Y9952116D01*
X32555000Y4536261D01*
X32549065Y4476001D01*
X32555000Y4415741D01*
X32555000Y4415733D01*
X32572755Y4235467D01*
X32642916Y4004176D01*
X32672350Y3949109D01*
X32756851Y3791018D01*
X32785001Y3756717D01*
X32785001Y3685755D01*
X32847526Y3371422D01*
X32970173Y3075327D01*
X33033200Y2981000D01*
X5935755Y2981000D01*
X5935755Y7263000D01*
X6256245Y7263000D01*
X6570578Y7325525D01*
X6866673Y7448172D01*
X7133152Y7626227D01*
X7359773Y7852848D01*
X7537828Y8119327D01*
X7660475Y8415422D01*
X7723000Y8729755D01*
X7723000Y9050245D01*
X7718606Y9072337D01*
X7757229Y9033714D01*
X8048275Y8839243D01*
X8371668Y8705289D01*
X8714981Y8637000D01*
X9065019Y8637000D01*
X9408332Y8705289D01*
X9731725Y8839243D01*
X10022771Y9033714D01*
X10160000Y9170943D01*
X10297229Y9033714D01*
X10588275Y8839243D01*
X10911668Y8705289D01*
X11254981Y8637000D01*
X11605019Y8637000D01*
X11948332Y8705289D01*
X12271725Y8839243D01*
X12562771Y9033714D01*
X12700000Y9170943D01*
X12837229Y9033714D01*
X13128275Y8839243D01*
X13451668Y8705289D01*
X13794981Y8637000D01*
X14145019Y8637000D01*
X14488332Y8705289D01*
X14811725Y8839243D01*
X15102771Y9033714D01*
X15240000Y9170943D01*
X15377229Y9033714D01*
X15668275Y8839243D01*
X15991668Y8705289D01*
X16334981Y8637000D01*
X16685019Y8637000D01*
X17028332Y8705289D01*
X17351725Y8839243D01*
X17642771Y9033714D01*
X17780000Y9170943D01*
X17917229Y9033714D01*
X18208275Y8839243D01*
X18531668Y8705289D01*
X18874981Y8637000D01*
X19225019Y8637000D01*
X19568332Y8705289D01*
X19891725Y8839243D01*
X20182771Y9033714D01*
X20320000Y9170943D01*
X20457229Y9033714D01*
X20748275Y8839243D01*
X21071668Y8705289D01*
X21414981Y8637000D01*
X21765019Y8637000D01*
X22108332Y8705289D01*
X22431725Y8839243D01*
X22722771Y9033714D01*
X22860000Y9170943D01*
X22997229Y9033714D01*
X23288275Y8839243D01*
X23611668Y8705289D01*
X23954981Y8637000D01*
X24305019Y8637000D01*
X24648332Y8705289D01*
X24971725Y8839243D01*
X25262771Y9033714D01*
X25510286Y9281229D01*
X25704757Y9572275D01*
X25838711Y9895668D01*
X25907000Y10238981D01*
X25907000Y10589019D01*
X25838711Y10932332D01*
X25704757Y11255725D01*
X25593649Y11422010D01*
X25631185Y11452815D01*
X25710537Y11549506D01*
X25769502Y11659820D01*
X25805812Y11779518D01*
X25818072Y11904000D01*
X25815000Y12668250D01*
X25656250Y12827000D01*
X24257000Y12827000D01*
X24257000Y13081000D01*
X25656250Y13081000D01*
X25815000Y13239750D01*
X25818072Y14004000D01*
X25805812Y14128482D01*
X25769502Y14248180D01*
X25710537Y14358494D01*
X25631185Y14455185D01*
X25534494Y14534537D01*
X25424180Y14593502D01*
X25304482Y14629812D01*
X25180000Y14642072D01*
X24415750Y14639000D01*
X24257000Y14480250D01*
X24257000Y13081000D01*
X24257000Y12827000D01*
X24257000Y12807000D01*
X24003000Y12807000D01*
X24003000Y12827000D01*
X23983000Y12827000D01*
X23983000Y13081000D01*
X24003000Y13081000D01*
X24003000Y14480250D01*
X23844250Y14639000D01*
X23080000Y14642072D01*
X22955518Y14629812D01*
X22835820Y14593502D01*
X22725506Y14534537D01*
X22628815Y14455185D01*
X22598010Y14417649D01*
X22431725Y14528757D01*
X22108332Y14662711D01*
X21765019Y14731000D01*
X21414981Y14731000D01*
X21071668Y14662711D01*
X20748275Y14528757D01*
X20457229Y14334286D01*
X20320000Y14197057D01*
X20182771Y14334286D01*
X19891725Y14528757D01*
X19568332Y14662711D01*
X19225019Y14731000D01*
X18874981Y14731000D01*
X18531668Y14662711D01*
X18208275Y14528757D01*
X17917229Y14334286D01*
X17780000Y14197057D01*
X17642771Y14334286D01*
X17351725Y14528757D01*
X17028332Y14662711D01*
X16685019Y14731000D01*
X16334981Y14731000D01*
X15991668Y14662711D01*
X15668275Y14528757D01*
X15377229Y14334286D01*
X15240000Y14197057D01*
X15102771Y14334286D01*
X14811725Y14528757D01*
X14488332Y14662711D01*
X14145019Y14731000D01*
X13794981Y14731000D01*
X13451668Y14662711D01*
X13128275Y14528757D01*
X12837229Y14334286D01*
X12700000Y14197057D01*
X12562771Y14334286D01*
X12271725Y14528757D01*
X11948332Y14662711D01*
X11605019Y14731000D01*
X11254981Y14731000D01*
X10911668Y14662711D01*
X10588275Y14528757D01*
X10297229Y14334286D01*
X10160000Y14197057D01*
X10022771Y14334286D01*
X9731725Y14528757D01*
X9408332Y14662711D01*
X9065019Y14731000D01*
X8846240Y14731000D01*
X9252240Y15137000D01*
X9304245Y15137000D01*
X9618578Y15199525D01*
X9914673Y15322172D01*
X10181152Y15500227D01*
X10407773Y15726848D01*
X10585828Y15993327D01*
X10708475Y16289422D01*
X10771000Y16603755D01*
X10771000Y16924245D01*
X10708475Y17238578D01*
X10585828Y17534673D01*
X10407773Y17801152D01*
X10181152Y18027773D01*
X9914673Y18205828D01*
X9618578Y18328475D01*
X9304245Y18391000D01*
X8983755Y18391000D01*
X8714981Y18337538D01*
X8714981Y18797000D01*
X9065019Y18797000D01*
X9408332Y18865289D01*
X9731725Y18999243D01*
X10022771Y19193714D01*
X10160000Y19330943D01*
X10297229Y19193714D01*
X10588275Y18999243D01*
X10911668Y18865289D01*
X11254981Y18797000D01*
X11605019Y18797000D01*
X11948332Y18865289D01*
X12271725Y18999243D01*
X12562771Y19193714D01*
X12700000Y19330943D01*
X12837229Y19193714D01*
X13128275Y18999243D01*
X13451668Y18865289D01*
X13794981Y18797000D01*
X14145019Y18797000D01*
X14488332Y18865289D01*
X14811725Y18999243D01*
X15102771Y19193714D01*
X15240000Y19330943D01*
X15377229Y19193714D01*
X15668275Y18999243D01*
X15991668Y18865289D01*
X16334981Y18797000D01*
X16685019Y18797000D01*
X17028332Y18865289D01*
X17351725Y18999243D01*
X17642771Y19193714D01*
X17780000Y19330943D01*
X17917229Y19193714D01*
X18208275Y18999243D01*
X18531668Y18865289D01*
X18874981Y18797000D01*
X19225019Y18797000D01*
X19568332Y18865289D01*
X19891725Y18999243D01*
X20182771Y19193714D01*
X20320000Y19330943D01*
X20457229Y19193714D01*
X20748275Y18999243D01*
X21071668Y18865289D01*
X21414981Y18797000D01*
X21765019Y18797000D01*
X22108332Y18865289D01*
X22431725Y18999243D01*
X22722771Y19193714D01*
X22860000Y19330943D01*
X22997229Y19193714D01*
X23288275Y18999243D01*
X23611668Y18865289D01*
X23954981Y18797000D01*
X24305019Y18797000D01*
X24648332Y18865289D01*
X24971725Y18999243D01*
X25262771Y19193714D01*
X25510286Y19441229D01*
X25704757Y19732275D01*
X25838711Y20055668D01*
X25907000Y20398981D01*
X25907000Y20749019D01*
X25838711Y21092332D01*
X25704757Y21415725D01*
X25593649Y21582010D01*
X25631185Y21612815D01*
X25710537Y21709506D01*
X25769502Y21819820D01*
X25805812Y21939518D01*
X25818072Y22064000D01*
X25815000Y22828250D01*
X25656250Y22987000D01*
X24257000Y22987000D01*
X24257000Y23241000D01*
X25656250Y23241000D01*
X25815000Y23399750D01*
X25818072Y24164000D01*
X25805812Y24288482D01*
X25769502Y24408180D01*
X25710537Y24518494D01*
X25631185Y24615185D01*
X25534494Y24694537D01*
X25424180Y24753502D01*
X25304482Y24789812D01*
X25180000Y24802072D01*
X24415750Y24799000D01*
X24257000Y24640250D01*
X24257000Y23241000D01*
X24257000Y22987000D01*
X24257000Y22967000D01*
X24003000Y22967000D01*
X24003000Y22987000D01*
X23983000Y22987000D01*
X23983000Y23241000D01*
X24003000Y23241000D01*
X24003000Y24640250D01*
X23844250Y24799000D01*
X23080000Y24802072D01*
X22955518Y24789812D01*
X22835820Y24753502D01*
X22725506Y24694537D01*
X22628815Y24615185D01*
X22598010Y24577649D01*
X22431725Y24688757D01*
X22108332Y24822711D01*
X21765019Y24891000D01*
X21414981Y24891000D01*
X21071668Y24822711D01*
X20748275Y24688757D01*
X20457229Y24494286D01*
X20320000Y24357057D01*
X20182771Y24494286D01*
X19891725Y24688757D01*
X19568332Y24822711D01*
X19225019Y24891000D01*
X18874981Y24891000D01*
X18531668Y24822711D01*
X18208275Y24688757D01*
X17917229Y24494286D01*
X17780000Y24357057D01*
X17642771Y24494286D01*
X17351725Y24688757D01*
X17028332Y24822711D01*
X16685019Y24891000D01*
X16334981Y24891000D01*
X15991668Y24822711D01*
X15668275Y24688757D01*
X15377229Y24494286D01*
X15240000Y24357057D01*
X15102771Y24494286D01*
X14811725Y24688757D01*
X14488332Y24822711D01*
X14145019Y24891000D01*
X13794981Y24891000D01*
X13451668Y24822711D01*
X13128275Y24688757D01*
X12837229Y24494286D01*
X12700000Y24357057D01*
X12562771Y24494286D01*
X12271725Y24688757D01*
X11948332Y24822711D01*
X11605019Y24891000D01*
X11254981Y24891000D01*
X10911668Y24822711D01*
X10588275Y24688757D01*
X10297229Y24494286D01*
X10160000Y24357057D01*
X10022771Y24494286D01*
X9731725Y24688757D01*
X9408332Y24822711D01*
X9065019Y24891000D01*
X8714981Y24891000D01*
X8371668Y24822711D01*
X8048275Y24688757D01*
X7757229Y24494286D01*
X7509714Y24246771D01*
X7315243Y23955725D01*
X7181289Y23632332D01*
X7113000Y23289019D01*
X7113000Y22938981D01*
X7181289Y22595668D01*
X7315243Y22272275D01*
X7509714Y21981229D01*
X7646943Y21844000D01*
X7509714Y21706771D01*
X7315243Y21415725D01*
X7181289Y21092332D01*
X7113000Y20749019D01*
X7113000Y20398981D01*
X7181289Y20055668D01*
X7315243Y19732275D01*
X7509714Y19441229D01*
X7757229Y19193714D01*
X8048275Y18999243D01*
X8371668Y18865289D01*
X8714981Y18797000D01*
X8714981Y18337538D01*
X8669422Y18328475D01*
X8373327Y18205828D01*
X8106848Y18027773D01*
X7880227Y17801152D01*
X7702172Y17534673D01*
X7579525Y17238578D01*
X7517000Y16924245D01*
X7517000Y16872240D01*
X5271000Y14626239D01*
X5224183Y14587817D01*
X5070851Y14400983D01*
X4956916Y14187824D01*
X4886755Y13956534D01*
X4869000Y13776268D01*
X4869000Y13776260D01*
X4863065Y13716000D01*
X4869000Y13655740D01*
X4869000Y9963925D01*
X4832227Y9927152D01*
X4654172Y9660673D01*
X4531525Y9364578D01*
X4469000Y9050245D01*
X4469000Y8729755D01*
X4531525Y8415422D01*
X4654172Y8119327D01*
X4832227Y7852848D01*
X5058848Y7626227D01*
X5325327Y7448172D01*
X5621422Y7325525D01*
X5935755Y7263000D01*
X5935755Y2981000D01*
X2981000Y2981000D01*
X2981000Y27499000D01*
X32071000Y27499001D01*
G37*
X32071000Y27499001D02*
X32071000Y18068134D01*
X32067638Y18034000D01*
X32071000Y17999865D01*
X32081057Y17897756D01*
X32120798Y17766748D01*
X32185333Y17646011D01*
X32272183Y17540183D01*
X32378011Y17453333D01*
X32498748Y17388798D01*
X32629756Y17349057D01*
X32766000Y17335638D01*
X32800135Y17339000D01*
X133163000Y17339001D01*
X133163000Y2981000D01*
X130385905Y2981000D01*
X130385905Y5489000D01*
X130726095Y5489000D01*
X131059747Y5555368D01*
X131374041Y5685553D01*
X131656898Y5874552D01*
X131897448Y6115102D01*
X132086447Y6397959D01*
X132216632Y6712253D01*
X132283000Y7045905D01*
X132283000Y7386095D01*
X132216632Y7719747D01*
X132086447Y8034041D01*
X131897448Y8316898D01*
X131656898Y8557448D01*
X131374041Y8746447D01*
X131059747Y8876632D01*
X130726095Y8943000D01*
X130385905Y8943000D01*
X130385905Y11989000D01*
X130726095Y11989000D01*
X131059747Y12055368D01*
X131374041Y12185553D01*
X131656898Y12374552D01*
X131897448Y12615102D01*
X132086447Y12897959D01*
X132216632Y13212253D01*
X132283000Y13545905D01*
X132283000Y13886095D01*
X132216632Y14219747D01*
X132086447Y14534041D01*
X131897448Y14816898D01*
X131656898Y15057448D01*
X131374041Y15246447D01*
X131059747Y15376632D01*
X130726095Y15443000D01*
X130385905Y15443000D01*
X130052253Y15376632D01*
X129737959Y15246447D01*
X129455102Y15057448D01*
X129214552Y14816898D01*
X129025553Y14534041D01*
X128895368Y14219747D01*
X128829000Y13886095D01*
X128829000Y13545905D01*
X128895368Y13212253D01*
X129025553Y12897959D01*
X129214552Y12615102D01*
X129455102Y12374552D01*
X129737959Y12185553D01*
X130052253Y12055368D01*
X130385905Y11989000D01*
X130385905Y8943000D01*
X130052253Y8876632D01*
X129737959Y8746447D01*
X129455102Y8557448D01*
X129214552Y8316898D01*
X129025553Y8034041D01*
X128895368Y7719747D01*
X128829000Y7386095D01*
X128829000Y7045905D01*
X128895368Y6712253D01*
X129025553Y6397959D01*
X129214552Y6115102D01*
X129455102Y5874552D01*
X129737959Y5685553D01*
X130052253Y5555368D01*
X130385905Y5489000D01*
X130385905Y2981000D01*
X127191413Y2981000D01*
X127191413Y6260192D01*
X127455814Y6355956D01*
X127596704Y6645571D01*
X127678384Y6957108D01*
X127697718Y7278595D01*
X127653961Y7597675D01*
X127548795Y7902088D01*
X127455814Y8076044D01*
X127191413Y8171808D01*
X127191413Y12760192D01*
X127455814Y12855956D01*
X127596704Y13145571D01*
X127678384Y13457108D01*
X127697718Y13778595D01*
X127653961Y14097675D01*
X127548795Y14402088D01*
X127455814Y14576044D01*
X127191413Y14671808D01*
X126235605Y13716000D01*
X127191413Y12760192D01*
X127191413Y8171808D01*
X126235605Y7216000D01*
X127191413Y6260192D01*
X127191413Y2981000D01*
X126118595Y2981000D01*
X126118595Y5574282D01*
X126437675Y5618039D01*
X126742088Y5723205D01*
X126916044Y5816186D01*
X127011808Y6080587D01*
X126056000Y7036395D01*
X126056000Y7395605D01*
X127011808Y8351413D01*
X126916044Y8615814D01*
X126626429Y8756704D01*
X126314892Y8838384D01*
X126118595Y8850189D01*
X126118595Y12074282D01*
X126437675Y12118039D01*
X126742088Y12223205D01*
X126916044Y12316186D01*
X127011808Y12580587D01*
X126056000Y13536395D01*
X126056000Y13895605D01*
X127011808Y14851413D01*
X126916044Y15115814D01*
X126626429Y15256704D01*
X126314892Y15338384D01*
X125993405Y15357718D01*
X125674325Y15313961D01*
X125369912Y15208795D01*
X125195956Y15115814D01*
X125100192Y14851413D01*
X126056000Y13895605D01*
X126056000Y13536395D01*
X125100192Y12580587D01*
X125195956Y12316186D01*
X125485571Y12175296D01*
X125797108Y12093616D01*
X126118595Y12074282D01*
X126118595Y8850189D01*
X125993405Y8857718D01*
X125674325Y8813961D01*
X125369912Y8708795D01*
X125195956Y8615814D01*
X125100192Y8351413D01*
X126056000Y7395605D01*
X126056000Y7036395D01*
X125100192Y6080587D01*
X125195956Y5816186D01*
X125485571Y5675296D01*
X125797108Y5593616D01*
X126118595Y5574282D01*
X126118595Y2981000D01*
X124920587Y2981000D01*
X124920587Y6260192D01*
X125876395Y7216000D01*
X124920587Y8171808D01*
X124920587Y12760192D01*
X125876395Y13716000D01*
X124920587Y14671808D01*
X124656186Y14576044D01*
X124515296Y14286429D01*
X124433616Y13974892D01*
X124414282Y13653405D01*
X124458039Y13334325D01*
X124563205Y13029912D01*
X124656186Y12855956D01*
X124920587Y12760192D01*
X124920587Y8171808D01*
X124656186Y8076044D01*
X124515296Y7786429D01*
X124433616Y7474892D01*
X124414282Y7153405D01*
X124458039Y6834325D01*
X124563205Y6529912D01*
X124656186Y6355956D01*
X124920587Y6260192D01*
X124920587Y2981000D01*
X121265346Y2981000D01*
X121265346Y7147000D01*
X121558654Y7147000D01*
X121846325Y7204221D01*
X122117306Y7316465D01*
X122361182Y7479418D01*
X122568582Y7686818D01*
X122731535Y7930694D01*
X122843779Y8201675D01*
X122901000Y8489346D01*
X122901000Y8782654D01*
X122843779Y9070325D01*
X122731535Y9341306D01*
X122568582Y9585182D01*
X122361182Y9792582D01*
X122117306Y9955535D01*
X121846325Y10067779D01*
X121558654Y10125000D01*
X121265346Y10125000D01*
X121265346Y10147000D01*
X121558654Y10147000D01*
X121846325Y10204221D01*
X122117306Y10316465D01*
X122361182Y10479418D01*
X122568582Y10686818D01*
X122731535Y10930694D01*
X122843779Y11201675D01*
X122901000Y11489346D01*
X122901000Y11782654D01*
X122843779Y12070325D01*
X122731535Y12341306D01*
X122568582Y12585182D01*
X122361182Y12792582D01*
X122117306Y12955535D01*
X121846325Y13067779D01*
X121558654Y13125000D01*
X121265346Y13125000D01*
X120977675Y13067779D01*
X120706694Y12955535D01*
X120462818Y12792582D01*
X120255418Y12585182D01*
X120092465Y12341306D01*
X119980221Y12070325D01*
X119923000Y11782654D01*
X119923000Y11489346D01*
X119980221Y11201675D01*
X120092465Y10930694D01*
X120255418Y10686818D01*
X120462818Y10479418D01*
X120706694Y10316465D01*
X120977675Y10204221D01*
X121265346Y10147000D01*
X121265346Y10125000D01*
X120977675Y10067779D01*
X120706694Y9955535D01*
X120462818Y9792582D01*
X120255418Y9585182D01*
X120092465Y9341306D01*
X119980221Y9070325D01*
X119923000Y8782654D01*
X119923000Y8489346D01*
X119980221Y8201675D01*
X120092465Y7930694D01*
X120255418Y7686818D01*
X120462818Y7479418D01*
X120706694Y7316465D01*
X120977675Y7204221D01*
X121265346Y7147000D01*
X121265346Y2981000D01*
X116439346Y2981000D01*
X116439346Y7147000D01*
X116732654Y7147000D01*
X117020325Y7204221D01*
X117291306Y7316465D01*
X117535182Y7479418D01*
X117742582Y7686818D01*
X117905535Y7930694D01*
X118017779Y8201675D01*
X118075000Y8489346D01*
X118075000Y8782654D01*
X118017779Y9070325D01*
X117905535Y9341306D01*
X117742582Y9585182D01*
X117535182Y9792582D01*
X117291306Y9955535D01*
X117020325Y10067779D01*
X116732654Y10125000D01*
X116439346Y10125000D01*
X116439346Y10147000D01*
X116732654Y10147000D01*
X117020325Y10204221D01*
X117291306Y10316465D01*
X117535182Y10479418D01*
X117742582Y10686818D01*
X117905535Y10930694D01*
X118017779Y11201675D01*
X118075000Y11489346D01*
X118075000Y11782654D01*
X118017779Y12070325D01*
X117905535Y12341306D01*
X117742582Y12585182D01*
X117535182Y12792582D01*
X117291306Y12955535D01*
X117020325Y13067779D01*
X116732654Y13125000D01*
X116439346Y13125000D01*
X116151675Y13067779D01*
X115880694Y12955535D01*
X115636818Y12792582D01*
X115429418Y12585182D01*
X115266465Y12341306D01*
X115154221Y12070325D01*
X115097000Y11782654D01*
X115097000Y11489346D01*
X115154221Y11201675D01*
X115266465Y10930694D01*
X115429418Y10686818D01*
X115636818Y10479418D01*
X115880694Y10316465D01*
X116151675Y10204221D01*
X116439346Y10147000D01*
X116439346Y10125000D01*
X116151675Y10067779D01*
X115880694Y9955535D01*
X115636818Y9792582D01*
X115429418Y9585182D01*
X115266465Y9341306D01*
X115154221Y9070325D01*
X115097000Y8782654D01*
X115097000Y8489346D01*
X115154221Y8201675D01*
X115266465Y7930694D01*
X115429418Y7686818D01*
X115636818Y7479418D01*
X115880694Y7316465D01*
X116151675Y7204221D01*
X116439346Y7147000D01*
X116439346Y2981000D01*
X111359346Y2981000D01*
X111359346Y7147000D01*
X111652654Y7147000D01*
X111940325Y7204221D01*
X112211306Y7316465D01*
X112455182Y7479418D01*
X112662582Y7686818D01*
X112825535Y7930694D01*
X112937779Y8201675D01*
X112995000Y8489346D01*
X112995000Y8782654D01*
X112937779Y9070325D01*
X112825535Y9341306D01*
X112662582Y9585182D01*
X112455182Y9792582D01*
X112211306Y9955535D01*
X111940325Y10067779D01*
X111652654Y10125000D01*
X111359346Y10125000D01*
X111359346Y10147000D01*
X111652654Y10147000D01*
X111940325Y10204221D01*
X112211306Y10316465D01*
X112455182Y10479418D01*
X112662582Y10686818D01*
X112825535Y10930694D01*
X112937779Y11201675D01*
X112995000Y11489346D01*
X112995000Y11782654D01*
X112937779Y12070325D01*
X112825535Y12341306D01*
X112662582Y12585182D01*
X112455182Y12792582D01*
X112211306Y12955535D01*
X111940325Y13067779D01*
X111652654Y13125000D01*
X111359346Y13125000D01*
X111071675Y13067779D01*
X110800694Y12955535D01*
X110556818Y12792582D01*
X110349418Y12585182D01*
X110186465Y12341306D01*
X110074221Y12070325D01*
X110017000Y11782654D01*
X110017000Y11489346D01*
X110074221Y11201675D01*
X110186465Y10930694D01*
X110349418Y10686818D01*
X110556818Y10479418D01*
X110800694Y10316465D01*
X111071675Y10204221D01*
X111359346Y10147000D01*
X111359346Y10125000D01*
X111071675Y10067779D01*
X110800694Y9955535D01*
X110556818Y9792582D01*
X110349418Y9585182D01*
X110186465Y9341306D01*
X110074221Y9070325D01*
X110017000Y8782654D01*
X110017000Y8489346D01*
X110074221Y8201675D01*
X110186465Y7930694D01*
X110349418Y7686818D01*
X110556818Y7479418D01*
X110800694Y7316465D01*
X111071675Y7204221D01*
X111359346Y7147000D01*
X111359346Y2981000D01*
X106279346Y2981000D01*
X106279346Y7147000D01*
X106572654Y7147000D01*
X106860325Y7204221D01*
X107131306Y7316465D01*
X107375182Y7479418D01*
X107582582Y7686818D01*
X107745535Y7930694D01*
X107857779Y8201675D01*
X107915000Y8489346D01*
X107915000Y8782654D01*
X107857779Y9070325D01*
X107745535Y9341306D01*
X107582582Y9585182D01*
X107375182Y9792582D01*
X107131306Y9955535D01*
X106860325Y10067779D01*
X106572654Y10125000D01*
X106279346Y10125000D01*
X106279346Y10147000D01*
X106572654Y10147000D01*
X106860325Y10204221D01*
X107131306Y10316465D01*
X107375182Y10479418D01*
X107582582Y10686818D01*
X107745535Y10930694D01*
X107857779Y11201675D01*
X107915000Y11489346D01*
X107915000Y11782654D01*
X107857779Y12070325D01*
X107745535Y12341306D01*
X107582582Y12585182D01*
X107375182Y12792582D01*
X107131306Y12955535D01*
X106860325Y13067779D01*
X106572654Y13125000D01*
X106279346Y13125000D01*
X105991675Y13067779D01*
X105720694Y12955535D01*
X105476818Y12792582D01*
X105269418Y12585182D01*
X105106465Y12341306D01*
X104994221Y12070325D01*
X104937000Y11782654D01*
X104937000Y11489346D01*
X104994221Y11201675D01*
X105106465Y10930694D01*
X105269418Y10686818D01*
X105476818Y10479418D01*
X105720694Y10316465D01*
X105991675Y10204221D01*
X106279346Y10147000D01*
X106279346Y10125000D01*
X105991675Y10067779D01*
X105720694Y9955535D01*
X105476818Y9792582D01*
X105269418Y9585182D01*
X105106465Y9341306D01*
X104994221Y9070325D01*
X104937000Y8782654D01*
X104937000Y8489346D01*
X104994221Y8201675D01*
X105106465Y7930694D01*
X105269418Y7686818D01*
X105476818Y7479418D01*
X105720694Y7316465D01*
X105991675Y7204221D01*
X106279346Y7147000D01*
X106279346Y2981000D01*
X101453346Y2981000D01*
X101453346Y7195000D01*
X101746654Y7195000D01*
X102034325Y7252221D01*
X102305306Y7364465D01*
X102549182Y7527418D01*
X102756582Y7734818D01*
X102919535Y7978694D01*
X103031779Y8249675D01*
X103089000Y8537346D01*
X103089000Y8830654D01*
X103031779Y9118325D01*
X102919535Y9389306D01*
X102756582Y9633182D01*
X102549182Y9840582D01*
X102305306Y10003535D01*
X102034325Y10115779D01*
X101746654Y10173000D01*
X101453346Y10173000D01*
X101453346Y10195000D01*
X101746654Y10195000D01*
X102034325Y10252221D01*
X102305306Y10364465D01*
X102549182Y10527418D01*
X102756582Y10734818D01*
X102919535Y10978694D01*
X103031779Y11249675D01*
X103089000Y11537346D01*
X103089000Y11830654D01*
X103031779Y12118325D01*
X102919535Y12389306D01*
X102756582Y12633182D01*
X102549182Y12840582D01*
X102305306Y13003535D01*
X102034325Y13115779D01*
X101746654Y13173000D01*
X101453346Y13173000D01*
X101165675Y13115779D01*
X100894694Y13003535D01*
X100650818Y12840582D01*
X100443418Y12633182D01*
X100280465Y12389306D01*
X100168221Y12118325D01*
X100111000Y11830654D01*
X100111000Y11537346D01*
X100168221Y11249675D01*
X100280465Y10978694D01*
X100443418Y10734818D01*
X100650818Y10527418D01*
X100894694Y10364465D01*
X101165675Y10252221D01*
X101453346Y10195000D01*
X101453346Y10173000D01*
X101165675Y10115779D01*
X100894694Y10003535D01*
X100650818Y9840582D01*
X100443418Y9633182D01*
X100280465Y9389306D01*
X100168221Y9118325D01*
X100111000Y8830654D01*
X100111000Y8537346D01*
X100168221Y8249675D01*
X100280465Y7978694D01*
X100443418Y7734818D01*
X100650818Y7527418D01*
X100894694Y7364465D01*
X101165675Y7252221D01*
X101453346Y7195000D01*
X101453346Y2981000D01*
X99163604Y2981000D01*
X99163604Y3807000D01*
X99464396Y3807000D01*
X99759410Y3865681D01*
X100037306Y3980790D01*
X100287406Y4147901D01*
X100500099Y4360594D01*
X100667210Y4610694D01*
X100782319Y4888590D01*
X100841000Y5183604D01*
X100841000Y5484396D01*
X100782319Y5779410D01*
X100667210Y6057306D01*
X100500099Y6307406D01*
X100287406Y6520099D01*
X100037306Y6687210D01*
X99759410Y6802319D01*
X99464396Y6861000D01*
X99163604Y6861000D01*
X98868590Y6802319D01*
X98590694Y6687210D01*
X98340594Y6520099D01*
X98127901Y6307406D01*
X97960790Y6057306D01*
X97845681Y5779410D01*
X97787000Y5484396D01*
X97787000Y5183604D01*
X97845681Y4888590D01*
X97960790Y4610694D01*
X98127901Y4360594D01*
X98340594Y4147901D01*
X98590694Y3980790D01*
X98868590Y3865681D01*
X99163604Y3807000D01*
X99163604Y2981000D01*
X96373346Y2981000D01*
X96373346Y7195000D01*
X96666654Y7195000D01*
X96954325Y7252221D01*
X97225306Y7364465D01*
X97469182Y7527418D01*
X97676582Y7734818D01*
X97839535Y7978694D01*
X97951779Y8249675D01*
X98009000Y8537346D01*
X98009000Y8830654D01*
X97951779Y9118325D01*
X97839535Y9389306D01*
X97676582Y9633182D01*
X97469182Y9840582D01*
X97225306Y10003535D01*
X96954325Y10115779D01*
X96666654Y10173000D01*
X96373346Y10173000D01*
X96373346Y10195000D01*
X96666654Y10195000D01*
X96954325Y10252221D01*
X97225306Y10364465D01*
X97469182Y10527418D01*
X97676582Y10734818D01*
X97839535Y10978694D01*
X97951779Y11249675D01*
X98009000Y11537346D01*
X98009000Y11830654D01*
X97951779Y12118325D01*
X97839535Y12389306D01*
X97676582Y12633182D01*
X97469182Y12840582D01*
X97225306Y13003535D01*
X96954325Y13115779D01*
X96666654Y13173000D01*
X96373346Y13173000D01*
X96085675Y13115779D01*
X95814694Y13003535D01*
X95570818Y12840582D01*
X95363418Y12633182D01*
X95200465Y12389306D01*
X95088221Y12118325D01*
X95031000Y11830654D01*
X95031000Y11537346D01*
X95088221Y11249675D01*
X95200465Y10978694D01*
X95363418Y10734818D01*
X95570818Y10527418D01*
X95814694Y10364465D01*
X96085675Y10252221D01*
X96373346Y10195000D01*
X96373346Y10173000D01*
X96085675Y10115779D01*
X95814694Y10003535D01*
X95570818Y9840582D01*
X95363418Y9633182D01*
X95200465Y9389306D01*
X95088221Y9118325D01*
X95031000Y8830654D01*
X95031000Y8537346D01*
X95088221Y8249675D01*
X95200465Y7978694D01*
X95363418Y7734818D01*
X95570818Y7527418D01*
X95814694Y7364465D01*
X96085675Y7252221D01*
X96373346Y7195000D01*
X96373346Y2981000D01*
X91293346Y2981000D01*
X91293346Y7195000D01*
X91586654Y7195000D01*
X91874325Y7252221D01*
X92145306Y7364465D01*
X92389182Y7527418D01*
X92596582Y7734818D01*
X92759535Y7978694D01*
X92871779Y8249675D01*
X92929000Y8537346D01*
X92929000Y8830654D01*
X92871779Y9118325D01*
X92759535Y9389306D01*
X92596582Y9633182D01*
X92389182Y9840582D01*
X92145306Y10003535D01*
X91874325Y10115779D01*
X91586654Y10173000D01*
X91293346Y10173000D01*
X91293346Y10195000D01*
X91586654Y10195000D01*
X91874325Y10252221D01*
X92145306Y10364465D01*
X92389182Y10527418D01*
X92596582Y10734818D01*
X92759535Y10978694D01*
X92871779Y11249675D01*
X92929000Y11537346D01*
X92929000Y11830654D01*
X92871779Y12118325D01*
X92759535Y12389306D01*
X92596582Y12633182D01*
X92389182Y12840582D01*
X92145306Y13003535D01*
X91874325Y13115779D01*
X91586654Y13173000D01*
X91293346Y13173000D01*
X91005675Y13115779D01*
X90734694Y13003535D01*
X90490818Y12840582D01*
X90283418Y12633182D01*
X90120465Y12389306D01*
X90008221Y12118325D01*
X89951000Y11830654D01*
X89951000Y11537346D01*
X90008221Y11249675D01*
X90120465Y10978694D01*
X90283418Y10734818D01*
X90490818Y10527418D01*
X90734694Y10364465D01*
X91005675Y10252221D01*
X91293346Y10195000D01*
X91293346Y10173000D01*
X91005675Y10115779D01*
X90734694Y10003535D01*
X90490818Y9840582D01*
X90283418Y9633182D01*
X90120465Y9389306D01*
X90008221Y9118325D01*
X89951000Y8830654D01*
X89951000Y8537346D01*
X90008221Y8249675D01*
X90120465Y7978694D01*
X90283418Y7734818D01*
X90490818Y7527418D01*
X90734694Y7364465D01*
X91005675Y7252221D01*
X91293346Y7195000D01*
X91293346Y2981000D01*
X86963040Y2981000D01*
X86963040Y3942091D01*
X87227881Y4036930D01*
X87469131Y4181615D01*
X87677519Y4370586D01*
X87845037Y4596580D01*
X87965246Y4850913D01*
X88005904Y4984961D01*
X87883915Y5207000D01*
X86741000Y5207000D01*
X86741000Y5461000D01*
X87883915Y5461000D01*
X88005904Y5683039D01*
X87965246Y5817087D01*
X87845037Y6071420D01*
X87677519Y6297414D01*
X87469131Y6486385D01*
X87227881Y6631070D01*
X86963040Y6725909D01*
X86741000Y6604624D01*
X86741000Y5461000D01*
X86741000Y5207000D01*
X86741000Y4063376D01*
X86963040Y3942091D01*
X86963040Y2981000D01*
X86264960Y2981000D01*
X86264960Y3942091D01*
X86487000Y4063376D01*
X86487000Y5207000D01*
X85344085Y5207000D01*
X85344085Y5461000D01*
X86487000Y5461000D01*
X86487000Y6604624D01*
X86467346Y6615359D01*
X86467346Y7147000D01*
X86760654Y7147000D01*
X87048325Y7204221D01*
X87319306Y7316465D01*
X87563182Y7479418D01*
X87770582Y7686818D01*
X87933535Y7930694D01*
X88045779Y8201675D01*
X88103000Y8489346D01*
X88103000Y8782654D01*
X88045779Y9070325D01*
X87933535Y9341306D01*
X87770582Y9585182D01*
X87563182Y9792582D01*
X87319306Y9955535D01*
X87048325Y10067779D01*
X86760654Y10125000D01*
X86467346Y10125000D01*
X86467346Y10147000D01*
X86760654Y10147000D01*
X87048325Y10204221D01*
X87319306Y10316465D01*
X87563182Y10479418D01*
X87770582Y10686818D01*
X87933535Y10930694D01*
X88045779Y11201675D01*
X88103000Y11489346D01*
X88103000Y11782654D01*
X88045779Y12070325D01*
X87933535Y12341306D01*
X87770582Y12585182D01*
X87563182Y12792582D01*
X87319306Y12955535D01*
X87048325Y13067779D01*
X86760654Y13125000D01*
X86467346Y13125000D01*
X86179675Y13067779D01*
X85908694Y12955535D01*
X85664818Y12792582D01*
X85457418Y12585182D01*
X85294465Y12341306D01*
X85182221Y12070325D01*
X85125000Y11782654D01*
X85125000Y11489346D01*
X85182221Y11201675D01*
X85294465Y10930694D01*
X85457418Y10686818D01*
X85664818Y10479418D01*
X85908694Y10316465D01*
X86179675Y10204221D01*
X86467346Y10147000D01*
X86467346Y10125000D01*
X86179675Y10067779D01*
X85908694Y9955535D01*
X85664818Y9792582D01*
X85457418Y9585182D01*
X85294465Y9341306D01*
X85182221Y9070325D01*
X85125000Y8782654D01*
X85125000Y8489346D01*
X85182221Y8201675D01*
X85294465Y7930694D01*
X85457418Y7686818D01*
X85664818Y7479418D01*
X85908694Y7316465D01*
X86179675Y7204221D01*
X86467346Y7147000D01*
X86467346Y6615359D01*
X86264960Y6725909D01*
X86000119Y6631070D01*
X85758869Y6486385D01*
X85550481Y6297414D01*
X85382963Y6071420D01*
X85262754Y5817087D01*
X85222096Y5683039D01*
X85344085Y5461000D01*
X85344085Y5207000D01*
X85222096Y4984961D01*
X85262754Y4850913D01*
X85382963Y4596580D01*
X85550481Y4370586D01*
X85758869Y4181615D01*
X86000119Y4036930D01*
X86264960Y3942091D01*
X86264960Y2981000D01*
X81883040Y2981000D01*
X81883040Y3942091D01*
X82147881Y4036930D01*
X82389131Y4181615D01*
X82597519Y4370586D01*
X82765037Y4596580D01*
X82885246Y4850913D01*
X82925904Y4984961D01*
X82803915Y5207000D01*
X81661000Y5207000D01*
X81661000Y5461000D01*
X82803915Y5461000D01*
X82925904Y5683039D01*
X82885246Y5817087D01*
X82765037Y6071420D01*
X82597519Y6297414D01*
X82389131Y6486385D01*
X82147881Y6631070D01*
X81883040Y6725909D01*
X81661000Y6604624D01*
X81661000Y5461000D01*
X81661000Y5207000D01*
X81661000Y4063376D01*
X81883040Y3942091D01*
X81883040Y2981000D01*
X81184960Y2981000D01*
X81184960Y3942091D01*
X81407000Y4063376D01*
X81407000Y5207000D01*
X80264085Y5207000D01*
X80264085Y5461000D01*
X81407000Y5461000D01*
X81407000Y6604624D01*
X81387346Y6615359D01*
X81387346Y7147000D01*
X81680654Y7147000D01*
X81968325Y7204221D01*
X82239306Y7316465D01*
X82483182Y7479418D01*
X82690582Y7686818D01*
X82853535Y7930694D01*
X82965779Y8201675D01*
X83023000Y8489346D01*
X83023000Y8782654D01*
X82965779Y9070325D01*
X82853535Y9341306D01*
X82690582Y9585182D01*
X82483182Y9792582D01*
X82239306Y9955535D01*
X81968325Y10067779D01*
X81680654Y10125000D01*
X81387346Y10125000D01*
X81387346Y10147000D01*
X81680654Y10147000D01*
X81968325Y10204221D01*
X82239306Y10316465D01*
X82483182Y10479418D01*
X82690582Y10686818D01*
X82853535Y10930694D01*
X82965779Y11201675D01*
X83023000Y11489346D01*
X83023000Y11782654D01*
X82965779Y12070325D01*
X82853535Y12341306D01*
X82690582Y12585182D01*
X82483182Y12792582D01*
X82239306Y12955535D01*
X81968325Y13067779D01*
X81680654Y13125000D01*
X81387346Y13125000D01*
X81099675Y13067779D01*
X80828694Y12955535D01*
X80584818Y12792582D01*
X80377418Y12585182D01*
X80214465Y12341306D01*
X80102221Y12070325D01*
X80045000Y11782654D01*
X80045000Y11489346D01*
X80102221Y11201675D01*
X80214465Y10930694D01*
X80377418Y10686818D01*
X80584818Y10479418D01*
X80828694Y10316465D01*
X81099675Y10204221D01*
X81387346Y10147000D01*
X81387346Y10125000D01*
X81099675Y10067779D01*
X80828694Y9955535D01*
X80584818Y9792582D01*
X80377418Y9585182D01*
X80214465Y9341306D01*
X80102221Y9070325D01*
X80045000Y8782654D01*
X80045000Y8489346D01*
X80102221Y8201675D01*
X80214465Y7930694D01*
X80377418Y7686818D01*
X80584818Y7479418D01*
X80828694Y7316465D01*
X81099675Y7204221D01*
X81387346Y7147000D01*
X81387346Y6615359D01*
X81184960Y6725909D01*
X80920119Y6631070D01*
X80678869Y6486385D01*
X80470481Y6297414D01*
X80302963Y6071420D01*
X80182754Y5817087D01*
X80142096Y5683039D01*
X80264085Y5461000D01*
X80264085Y5207000D01*
X80142096Y4984961D01*
X80182754Y4850913D01*
X80302963Y4596580D01*
X80470481Y4370586D01*
X80678869Y4181615D01*
X80920119Y4036930D01*
X81184960Y3942091D01*
X81184960Y2981000D01*
X76307346Y2981000D01*
X76307346Y7171000D01*
X76600654Y7171000D01*
X76888325Y7228221D01*
X77159306Y7340465D01*
X77403182Y7503418D01*
X77610582Y7710818D01*
X77773535Y7954694D01*
X77885779Y8225675D01*
X77943000Y8513346D01*
X77943000Y8806654D01*
X77885779Y9094325D01*
X77773535Y9365306D01*
X77610582Y9609182D01*
X77403182Y9816582D01*
X77159306Y9979535D01*
X76888325Y10091779D01*
X76600654Y10149000D01*
X76307346Y10149000D01*
X76307346Y10171000D01*
X76600654Y10171000D01*
X76888325Y10228221D01*
X77159306Y10340465D01*
X77403182Y10503418D01*
X77610582Y10710818D01*
X77773535Y10954694D01*
X77885779Y11225675D01*
X77943000Y11513346D01*
X77943000Y11806654D01*
X77885779Y12094325D01*
X77773535Y12365306D01*
X77610582Y12609182D01*
X77403182Y12816582D01*
X77159306Y12979535D01*
X76888325Y13091779D01*
X76600654Y13149000D01*
X76307346Y13149000D01*
X76019675Y13091779D01*
X75748694Y12979535D01*
X75504818Y12816582D01*
X75297418Y12609182D01*
X75134465Y12365306D01*
X75022221Y12094325D01*
X74965000Y11806654D01*
X74965000Y11513346D01*
X75022221Y11225675D01*
X75134465Y10954694D01*
X75297418Y10710818D01*
X75504818Y10503418D01*
X75748694Y10340465D01*
X76019675Y10228221D01*
X76307346Y10171000D01*
X76307346Y10149000D01*
X76019675Y10091779D01*
X75748694Y9979535D01*
X75504818Y9816582D01*
X75297418Y9609182D01*
X75134465Y9365306D01*
X75022221Y9094325D01*
X74965000Y8806654D01*
X74965000Y8513346D01*
X75022221Y8225675D01*
X75134465Y7954694D01*
X75297418Y7710818D01*
X75504818Y7503418D01*
X75748694Y7340465D01*
X76019675Y7228221D01*
X76307346Y7171000D01*
X76307346Y2981000D01*
X71481346Y2981000D01*
X71481346Y7147000D01*
X71774654Y7147000D01*
X72062325Y7204221D01*
X72333306Y7316465D01*
X72577182Y7479418D01*
X72784582Y7686818D01*
X72947535Y7930694D01*
X73059779Y8201675D01*
X73117000Y8489346D01*
X73117000Y8782654D01*
X73059779Y9070325D01*
X72947535Y9341306D01*
X72784582Y9585182D01*
X72577182Y9792582D01*
X72333306Y9955535D01*
X72062325Y10067779D01*
X71774654Y10125000D01*
X71481346Y10125000D01*
X71481346Y10147000D01*
X71774654Y10147000D01*
X72062325Y10204221D01*
X72333306Y10316465D01*
X72577182Y10479418D01*
X72784582Y10686818D01*
X72947535Y10930694D01*
X73059779Y11201675D01*
X73117000Y11489346D01*
X73117000Y11782654D01*
X73059779Y12070325D01*
X72947535Y12341306D01*
X72784582Y12585182D01*
X72577182Y12792582D01*
X72333306Y12955535D01*
X72062325Y13067779D01*
X71774654Y13125000D01*
X71481346Y13125000D01*
X71193675Y13067779D01*
X70922694Y12955535D01*
X70678818Y12792582D01*
X70471418Y12585182D01*
X70308465Y12341306D01*
X70196221Y12070325D01*
X70139000Y11782654D01*
X70139000Y11489346D01*
X70196221Y11201675D01*
X70308465Y10930694D01*
X70471418Y10686818D01*
X70678818Y10479418D01*
X70922694Y10316465D01*
X71193675Y10204221D01*
X71481346Y10147000D01*
X71481346Y10125000D01*
X71193675Y10067779D01*
X70922694Y9955535D01*
X70678818Y9792582D01*
X70471418Y9585182D01*
X70308465Y9341306D01*
X70196221Y9070325D01*
X70139000Y8782654D01*
X70139000Y8489346D01*
X70196221Y8201675D01*
X70308465Y7930694D01*
X70471418Y7686818D01*
X70678818Y7479418D01*
X70922694Y7316465D01*
X71193675Y7204221D01*
X71481346Y7147000D01*
X71481346Y2981000D01*
X68683604Y2981000D01*
X68683604Y3807000D01*
X68984396Y3807000D01*
X69279410Y3865681D01*
X69557306Y3980790D01*
X69807406Y4147901D01*
X70020099Y4360594D01*
X70187210Y4610694D01*
X70302319Y4888590D01*
X70361000Y5183604D01*
X70361000Y5484396D01*
X70302319Y5779410D01*
X70187210Y6057306D01*
X70020099Y6307406D01*
X69807406Y6520099D01*
X69557306Y6687210D01*
X69279410Y6802319D01*
X68984396Y6861000D01*
X68683604Y6861000D01*
X68388590Y6802319D01*
X68110694Y6687210D01*
X67860594Y6520099D01*
X67647901Y6307406D01*
X67480790Y6057306D01*
X67365681Y5779410D01*
X67307000Y5484396D01*
X67307000Y5183604D01*
X67365681Y4888590D01*
X67480790Y4610694D01*
X67647901Y4360594D01*
X67860594Y4147901D01*
X68110694Y3980790D01*
X68388590Y3865681D01*
X68683604Y3807000D01*
X68683604Y2981000D01*
X66401346Y2981000D01*
X66401346Y7171000D01*
X66694654Y7171000D01*
X66982325Y7228221D01*
X67253306Y7340465D01*
X67497182Y7503418D01*
X67704582Y7710818D01*
X67867535Y7954694D01*
X67979779Y8225675D01*
X68037000Y8513346D01*
X68037000Y8806654D01*
X67979779Y9094325D01*
X67867535Y9365306D01*
X67704582Y9609182D01*
X67497182Y9816582D01*
X67253306Y9979535D01*
X66982325Y10091779D01*
X66694654Y10149000D01*
X66401346Y10149000D01*
X66401346Y10171000D01*
X66694654Y10171000D01*
X66982325Y10228221D01*
X67253306Y10340465D01*
X67497182Y10503418D01*
X67704582Y10710818D01*
X67867535Y10954694D01*
X67979779Y11225675D01*
X68037000Y11513346D01*
X68037000Y11806654D01*
X67979779Y12094325D01*
X67867535Y12365306D01*
X67704582Y12609182D01*
X67497182Y12816582D01*
X67253306Y12979535D01*
X66982325Y13091779D01*
X66694654Y13149000D01*
X66401346Y13149000D01*
X66113675Y13091779D01*
X65842694Y12979535D01*
X65598818Y12816582D01*
X65391418Y12609182D01*
X65228465Y12365306D01*
X65116221Y12094325D01*
X65059000Y11806654D01*
X65059000Y11513346D01*
X65116221Y11225675D01*
X65228465Y10954694D01*
X65391418Y10710818D01*
X65598818Y10503418D01*
X65842694Y10340465D01*
X66113675Y10228221D01*
X66401346Y10171000D01*
X66401346Y10149000D01*
X66113675Y10091779D01*
X65842694Y9979535D01*
X65598818Y9816582D01*
X65391418Y9609182D01*
X65228465Y9365306D01*
X65116221Y9094325D01*
X65059000Y8806654D01*
X65059000Y8513346D01*
X65116221Y8225675D01*
X65228465Y7954694D01*
X65391418Y7710818D01*
X65598818Y7503418D01*
X65842694Y7340465D01*
X66113675Y7228221D01*
X66401346Y7171000D01*
X66401346Y2981000D01*
X61321346Y2981000D01*
X61321346Y7195000D01*
X61614654Y7195000D01*
X61902325Y7252221D01*
X62173306Y7364465D01*
X62417182Y7527418D01*
X62624582Y7734818D01*
X62787535Y7978694D01*
X62899779Y8249675D01*
X62957000Y8537346D01*
X62957000Y8830654D01*
X62899779Y9118325D01*
X62787535Y9389306D01*
X62624582Y9633182D01*
X62417182Y9840582D01*
X62173306Y10003535D01*
X61902325Y10115779D01*
X61614654Y10173000D01*
X61321346Y10173000D01*
X61321346Y10195000D01*
X61614654Y10195000D01*
X61902325Y10252221D01*
X62173306Y10364465D01*
X62417182Y10527418D01*
X62624582Y10734818D01*
X62787535Y10978694D01*
X62899779Y11249675D01*
X62957000Y11537346D01*
X62957000Y11830654D01*
X62899779Y12118325D01*
X62787535Y12389306D01*
X62624582Y12633182D01*
X62417182Y12840582D01*
X62173306Y13003535D01*
X61902325Y13115779D01*
X61614654Y13173000D01*
X61321346Y13173000D01*
X61033675Y13115779D01*
X60762694Y13003535D01*
X60518818Y12840582D01*
X60311418Y12633182D01*
X60148465Y12389306D01*
X60036221Y12118325D01*
X59979000Y11830654D01*
X59979000Y11537346D01*
X60036221Y11249675D01*
X60148465Y10978694D01*
X60311418Y10734818D01*
X60518818Y10527418D01*
X60762694Y10364465D01*
X61033675Y10252221D01*
X61321346Y10195000D01*
X61321346Y10173000D01*
X61033675Y10115779D01*
X60762694Y10003535D01*
X60518818Y9840582D01*
X60311418Y9633182D01*
X60148465Y9389306D01*
X60036221Y9118325D01*
X59979000Y8830654D01*
X59979000Y8537346D01*
X60036221Y8249675D01*
X60148465Y7978694D01*
X60311418Y7734818D01*
X60518818Y7527418D01*
X60762694Y7364465D01*
X61033675Y7252221D01*
X61321346Y7195000D01*
X61321346Y2981000D01*
X56495346Y2981000D01*
X56495346Y7147000D01*
X56788654Y7147000D01*
X57076325Y7204221D01*
X57347306Y7316465D01*
X57591182Y7479418D01*
X57798582Y7686818D01*
X57961535Y7930694D01*
X58073779Y8201675D01*
X58131000Y8489346D01*
X58131000Y8782654D01*
X58073779Y9070325D01*
X57961535Y9341306D01*
X57798582Y9585182D01*
X57591182Y9792582D01*
X57347306Y9955535D01*
X57076325Y10067779D01*
X56788654Y10125000D01*
X56495346Y10125000D01*
X56495346Y10147000D01*
X56788654Y10147000D01*
X57076325Y10204221D01*
X57347306Y10316465D01*
X57591182Y10479418D01*
X57798582Y10686818D01*
X57961535Y10930694D01*
X58073779Y11201675D01*
X58131000Y11489346D01*
X58131000Y11782654D01*
X58073779Y12070325D01*
X57961535Y12341306D01*
X57798582Y12585182D01*
X57591182Y12792582D01*
X57347306Y12955535D01*
X57076325Y13067779D01*
X56788654Y13125000D01*
X56495346Y13125000D01*
X56207675Y13067779D01*
X55936694Y12955535D01*
X55692818Y12792582D01*
X55485418Y12585182D01*
X55322465Y12341306D01*
X55210221Y12070325D01*
X55153000Y11782654D01*
X55153000Y11489346D01*
X55210221Y11201675D01*
X55322465Y10930694D01*
X55485418Y10686818D01*
X55692818Y10479418D01*
X55936694Y10316465D01*
X56207675Y10204221D01*
X56495346Y10147000D01*
X56495346Y10125000D01*
X56207675Y10067779D01*
X55936694Y9955535D01*
X55692818Y9792582D01*
X55485418Y9585182D01*
X55322465Y9341306D01*
X55210221Y9070325D01*
X55153000Y8782654D01*
X55153000Y8489346D01*
X55210221Y8201675D01*
X55322465Y7930694D01*
X55485418Y7686818D01*
X55692818Y7479418D01*
X55936694Y7316465D01*
X56207675Y7204221D01*
X56495346Y7147000D01*
X56495346Y2981000D01*
X51415346Y2981000D01*
X51415346Y7171000D01*
X51708654Y7171000D01*
X51996325Y7228221D01*
X52267306Y7340465D01*
X52511182Y7503418D01*
X52718582Y7710818D01*
X52881535Y7954694D01*
X52993779Y8225675D01*
X53051000Y8513346D01*
X53051000Y8806654D01*
X52993779Y9094325D01*
X52881535Y9365306D01*
X52718582Y9609182D01*
X52511182Y9816582D01*
X52267306Y9979535D01*
X51996325Y10091779D01*
X51708654Y10149000D01*
X51415346Y10149000D01*
X51415346Y10171000D01*
X51708654Y10171000D01*
X51996325Y10228221D01*
X52267306Y10340465D01*
X52511182Y10503418D01*
X52718582Y10710818D01*
X52881535Y10954694D01*
X52993779Y11225675D01*
X53051000Y11513346D01*
X53051000Y11806654D01*
X52993779Y12094325D01*
X52881535Y12365306D01*
X52718582Y12609182D01*
X52511182Y12816582D01*
X52267306Y12979535D01*
X51996325Y13091779D01*
X51708654Y13149000D01*
X51415346Y13149000D01*
X51127675Y13091779D01*
X50856694Y12979535D01*
X50612818Y12816582D01*
X50405418Y12609182D01*
X50242465Y12365306D01*
X50130221Y12094325D01*
X50073000Y11806654D01*
X50073000Y11513346D01*
X50130221Y11225675D01*
X50242465Y10954694D01*
X50405418Y10710818D01*
X50612818Y10503418D01*
X50856694Y10340465D01*
X51127675Y10228221D01*
X51415346Y10171000D01*
X51415346Y10149000D01*
X51127675Y10091779D01*
X50856694Y9979535D01*
X50612818Y9816582D01*
X50405418Y9609182D01*
X50242465Y9365306D01*
X50130221Y9094325D01*
X50073000Y8806654D01*
X50073000Y8513346D01*
X50130221Y8225675D01*
X50242465Y7954694D01*
X50405418Y7710818D01*
X50612818Y7503418D01*
X50856694Y7340465D01*
X51127675Y7228221D01*
X51415346Y7171000D01*
X51415346Y2981000D01*
X46589346Y2981000D01*
X46589346Y7195000D01*
X46882654Y7195000D01*
X47170325Y7252221D01*
X47441306Y7364465D01*
X47685182Y7527418D01*
X47892582Y7734818D01*
X48055535Y7978694D01*
X48167779Y8249675D01*
X48225000Y8537346D01*
X48225000Y8830654D01*
X48167779Y9118325D01*
X48055535Y9389306D01*
X47892582Y9633182D01*
X47685182Y9840582D01*
X47441306Y10003535D01*
X47170325Y10115779D01*
X46882654Y10173000D01*
X46589346Y10173000D01*
X46589346Y10195000D01*
X46882654Y10195000D01*
X47170325Y10252221D01*
X47441306Y10364465D01*
X47685182Y10527418D01*
X47892582Y10734818D01*
X48055535Y10978694D01*
X48167779Y11249675D01*
X48225000Y11537346D01*
X48225000Y11830654D01*
X48167779Y12118325D01*
X48055535Y12389306D01*
X47892582Y12633182D01*
X47685182Y12840582D01*
X47441306Y13003535D01*
X47170325Y13115779D01*
X46882654Y13173000D01*
X46589346Y13173000D01*
X46301675Y13115779D01*
X46030694Y13003535D01*
X45786818Y12840582D01*
X45579418Y12633182D01*
X45416465Y12389306D01*
X45304221Y12118325D01*
X45247000Y11830654D01*
X45247000Y11537346D01*
X45304221Y11249675D01*
X45416465Y10978694D01*
X45579418Y10734818D01*
X45786818Y10527418D01*
X46030694Y10364465D01*
X46301675Y10252221D01*
X46589346Y10195000D01*
X46589346Y10173000D01*
X46301675Y10115779D01*
X46030694Y10003535D01*
X45786818Y9840582D01*
X45579418Y9633182D01*
X45416465Y9389306D01*
X45304221Y9118325D01*
X45247000Y8830654D01*
X45247000Y8537346D01*
X45304221Y8249675D01*
X45416465Y7978694D01*
X45579418Y7734818D01*
X45786818Y7527418D01*
X46030694Y7364465D01*
X46301675Y7252221D01*
X46589346Y7195000D01*
X46589346Y2981000D01*
X35790802Y2981000D01*
X35853829Y3075327D01*
X35976476Y3371422D01*
X36039001Y3685755D01*
X36039001Y4006245D01*
X35976476Y4320578D01*
X35853829Y4616673D01*
X35675774Y4883152D01*
X35449153Y5109773D01*
X35182674Y5287828D01*
X35009000Y5359766D01*
X35009000Y12388075D01*
X35045773Y12424848D01*
X35223828Y12691327D01*
X35346475Y12987422D01*
X35409000Y13301755D01*
X35409000Y13622245D01*
X35346475Y13936578D01*
X35223828Y14232673D01*
X35045773Y14499152D01*
X34819152Y14725773D01*
X34552673Y14903828D01*
X34256578Y15026475D01*
X33942245Y15089000D01*
X33621755Y15089000D01*
X33307422Y15026475D01*
X33011327Y14903828D01*
X32744848Y14725773D01*
X32518227Y14499152D01*
X32340172Y14232673D01*
X32217525Y13936578D01*
X32155000Y13622245D01*
X32155000Y13301755D01*
X32217525Y12987422D01*
X32340172Y12691327D01*
X32518227Y12424848D01*
X32555000Y12388075D01*
X32555000Y10875884D01*
X32552475Y10888578D01*
X32429828Y11184673D01*
X32251773Y11451152D01*
X32025152Y11677773D01*
X31758673Y11855828D01*
X31462578Y11978475D01*
X31148245Y12041000D01*
X31096240Y12041000D01*
X30832990Y12304250D01*
X30832990Y17459112D01*
X30869763Y17495885D01*
X31047818Y17762364D01*
X31170465Y18058459D01*
X31232990Y18372792D01*
X31232990Y18693282D01*
X31170465Y19007615D01*
X31047818Y19303710D01*
X30869763Y19570189D01*
X30643142Y19796810D01*
X30376663Y19974865D01*
X30080568Y20097512D01*
X29766235Y20160037D01*
X29445745Y20160037D01*
X29131412Y20097512D01*
X28835317Y19974865D01*
X28568838Y19796810D01*
X28342217Y19570189D01*
X28164162Y19303710D01*
X28041515Y19007615D01*
X27978990Y18693282D01*
X27978990Y18372792D01*
X28041515Y18058459D01*
X28164162Y17762364D01*
X28342217Y17495885D01*
X28378990Y17459112D01*
X28378990Y11856269D01*
X28373055Y11796009D01*
X28378990Y11735749D01*
X28378990Y11735742D01*
X28396745Y11555476D01*
X28466906Y11324186D01*
X28580841Y11111027D01*
X28734173Y10924193D01*
X28780985Y10885775D01*
X29361000Y10305760D01*
X29361000Y10253755D01*
X29423525Y9939422D01*
X29546172Y9643327D01*
X29724227Y9376848D01*
X29950848Y9150227D01*
X30217327Y8972172D01*
X30513422Y8849525D01*
X30827755Y8787000D01*
X31148245Y8787000D01*
X31462578Y8849525D01*
X31758673Y8972172D01*
X32025152Y9150227D01*
X32251773Y9376848D01*
X32429828Y9643327D01*
X32552475Y9939422D01*
X32555000Y9952116D01*
X32555000Y4536261D01*
X32549065Y4476001D01*
X32555000Y4415741D01*
X32555000Y4415733D01*
X32572755Y4235467D01*
X32642916Y4004176D01*
X32672350Y3949109D01*
X32756851Y3791018D01*
X32785001Y3756717D01*
X32785001Y3685755D01*
X32847526Y3371422D01*
X32970173Y3075327D01*
X33033200Y2981000D01*
X5935755Y2981000D01*
X5935755Y7263000D01*
X6256245Y7263000D01*
X6570578Y7325525D01*
X6866673Y7448172D01*
X7133152Y7626227D01*
X7359773Y7852848D01*
X7537828Y8119327D01*
X7660475Y8415422D01*
X7723000Y8729755D01*
X7723000Y9050245D01*
X7718606Y9072337D01*
X7757229Y9033714D01*
X8048275Y8839243D01*
X8371668Y8705289D01*
X8714981Y8637000D01*
X9065019Y8637000D01*
X9408332Y8705289D01*
X9731725Y8839243D01*
X10022771Y9033714D01*
X10160000Y9170943D01*
X10297229Y9033714D01*
X10588275Y8839243D01*
X10911668Y8705289D01*
X11254981Y8637000D01*
X11605019Y8637000D01*
X11948332Y8705289D01*
X12271725Y8839243D01*
X12562771Y9033714D01*
X12700000Y9170943D01*
X12837229Y9033714D01*
X13128275Y8839243D01*
X13451668Y8705289D01*
X13794981Y8637000D01*
X14145019Y8637000D01*
X14488332Y8705289D01*
X14811725Y8839243D01*
X15102771Y9033714D01*
X15240000Y9170943D01*
X15377229Y9033714D01*
X15668275Y8839243D01*
X15991668Y8705289D01*
X16334981Y8637000D01*
X16685019Y8637000D01*
X17028332Y8705289D01*
X17351725Y8839243D01*
X17642771Y9033714D01*
X17780000Y9170943D01*
X17917229Y9033714D01*
X18208275Y8839243D01*
X18531668Y8705289D01*
X18874981Y8637000D01*
X19225019Y8637000D01*
X19568332Y8705289D01*
X19891725Y8839243D01*
X20182771Y9033714D01*
X20320000Y9170943D01*
X20457229Y9033714D01*
X20748275Y8839243D01*
X21071668Y8705289D01*
X21414981Y8637000D01*
X21765019Y8637000D01*
X22108332Y8705289D01*
X22431725Y8839243D01*
X22722771Y9033714D01*
X22860000Y9170943D01*
X22997229Y9033714D01*
X23288275Y8839243D01*
X23611668Y8705289D01*
X23954981Y8637000D01*
X24305019Y8637000D01*
X24648332Y8705289D01*
X24971725Y8839243D01*
X25262771Y9033714D01*
X25510286Y9281229D01*
X25704757Y9572275D01*
X25838711Y9895668D01*
X25907000Y10238981D01*
X25907000Y10589019D01*
X25838711Y10932332D01*
X25704757Y11255725D01*
X25593649Y11422010D01*
X25631185Y11452815D01*
X25710537Y11549506D01*
X25769502Y11659820D01*
X25805812Y11779518D01*
X25818072Y11904000D01*
X25815000Y12668250D01*
X25656250Y12827000D01*
X24257000Y12827000D01*
X24257000Y13081000D01*
X25656250Y13081000D01*
X25815000Y13239750D01*
X25818072Y14004000D01*
X25805812Y14128482D01*
X25769502Y14248180D01*
X25710537Y14358494D01*
X25631185Y14455185D01*
X25534494Y14534537D01*
X25424180Y14593502D01*
X25304482Y14629812D01*
X25180000Y14642072D01*
X24415750Y14639000D01*
X24257000Y14480250D01*
X24257000Y13081000D01*
X24257000Y12827000D01*
X24257000Y12807000D01*
X24003000Y12807000D01*
X24003000Y12827000D01*
X23983000Y12827000D01*
X23983000Y13081000D01*
X24003000Y13081000D01*
X24003000Y14480250D01*
X23844250Y14639000D01*
X23080000Y14642072D01*
X22955518Y14629812D01*
X22835820Y14593502D01*
X22725506Y14534537D01*
X22628815Y14455185D01*
X22598010Y14417649D01*
X22431725Y14528757D01*
X22108332Y14662711D01*
X21765019Y14731000D01*
X21414981Y14731000D01*
X21071668Y14662711D01*
X20748275Y14528757D01*
X20457229Y14334286D01*
X20320000Y14197057D01*
X20182771Y14334286D01*
X19891725Y14528757D01*
X19568332Y14662711D01*
X19225019Y14731000D01*
X18874981Y14731000D01*
X18531668Y14662711D01*
X18208275Y14528757D01*
X17917229Y14334286D01*
X17780000Y14197057D01*
X17642771Y14334286D01*
X17351725Y14528757D01*
X17028332Y14662711D01*
X16685019Y14731000D01*
X16334981Y14731000D01*
X15991668Y14662711D01*
X15668275Y14528757D01*
X15377229Y14334286D01*
X15240000Y14197057D01*
X15102771Y14334286D01*
X14811725Y14528757D01*
X14488332Y14662711D01*
X14145019Y14731000D01*
X13794981Y14731000D01*
X13451668Y14662711D01*
X13128275Y14528757D01*
X12837229Y14334286D01*
X12700000Y14197057D01*
X12562771Y14334286D01*
X12271725Y14528757D01*
X11948332Y14662711D01*
X11605019Y14731000D01*
X11254981Y14731000D01*
X10911668Y14662711D01*
X10588275Y14528757D01*
X10297229Y14334286D01*
X10160000Y14197057D01*
X10022771Y14334286D01*
X9731725Y14528757D01*
X9408332Y14662711D01*
X9065019Y14731000D01*
X8846240Y14731000D01*
X9252240Y15137000D01*
X9304245Y15137000D01*
X9618578Y15199525D01*
X9914673Y15322172D01*
X10181152Y15500227D01*
X10407773Y15726848D01*
X10585828Y15993327D01*
X10708475Y16289422D01*
X10771000Y16603755D01*
X10771000Y16924245D01*
X10708475Y17238578D01*
X10585828Y17534673D01*
X10407773Y17801152D01*
X10181152Y18027773D01*
X9914673Y18205828D01*
X9618578Y18328475D01*
X9304245Y18391000D01*
X8983755Y18391000D01*
X8714981Y18337538D01*
X8714981Y18797000D01*
X9065019Y18797000D01*
X9408332Y18865289D01*
X9731725Y18999243D01*
X10022771Y19193714D01*
X10160000Y19330943D01*
X10297229Y19193714D01*
X10588275Y18999243D01*
X10911668Y18865289D01*
X11254981Y18797000D01*
X11605019Y18797000D01*
X11948332Y18865289D01*
X12271725Y18999243D01*
X12562771Y19193714D01*
X12700000Y19330943D01*
X12837229Y19193714D01*
X13128275Y18999243D01*
X13451668Y18865289D01*
X13794981Y18797000D01*
X14145019Y18797000D01*
X14488332Y18865289D01*
X14811725Y18999243D01*
X15102771Y19193714D01*
X15240000Y19330943D01*
X15377229Y19193714D01*
X15668275Y18999243D01*
X15991668Y18865289D01*
X16334981Y18797000D01*
X16685019Y18797000D01*
X17028332Y18865289D01*
X17351725Y18999243D01*
X17642771Y19193714D01*
X17780000Y19330943D01*
X17917229Y19193714D01*
X18208275Y18999243D01*
X18531668Y18865289D01*
X18874981Y18797000D01*
X19225019Y18797000D01*
X19568332Y18865289D01*
X19891725Y18999243D01*
X20182771Y19193714D01*
X20320000Y19330943D01*
X20457229Y19193714D01*
X20748275Y18999243D01*
X21071668Y18865289D01*
X21414981Y18797000D01*
X21765019Y18797000D01*
X22108332Y18865289D01*
X22431725Y18999243D01*
X22722771Y19193714D01*
X22860000Y19330943D01*
X22997229Y19193714D01*
X23288275Y18999243D01*
X23611668Y18865289D01*
X23954981Y18797000D01*
X24305019Y18797000D01*
X24648332Y18865289D01*
X24971725Y18999243D01*
X25262771Y19193714D01*
X25510286Y19441229D01*
X25704757Y19732275D01*
X25838711Y20055668D01*
X25907000Y20398981D01*
X25907000Y20749019D01*
X25838711Y21092332D01*
X25704757Y21415725D01*
X25593649Y21582010D01*
X25631185Y21612815D01*
X25710537Y21709506D01*
X25769502Y21819820D01*
X25805812Y21939518D01*
X25818072Y22064000D01*
X25815000Y22828250D01*
X25656250Y22987000D01*
X24257000Y22987000D01*
X24257000Y23241000D01*
X25656250Y23241000D01*
X25815000Y23399750D01*
X25818072Y24164000D01*
X25805812Y24288482D01*
X25769502Y24408180D01*
X25710537Y24518494D01*
X25631185Y24615185D01*
X25534494Y24694537D01*
X25424180Y24753502D01*
X25304482Y24789812D01*
X25180000Y24802072D01*
X24415750Y24799000D01*
X24257000Y24640250D01*
X24257000Y23241000D01*
X24257000Y22987000D01*
X24257000Y22967000D01*
X24003000Y22967000D01*
X24003000Y22987000D01*
X23983000Y22987000D01*
X23983000Y23241000D01*
X24003000Y23241000D01*
X24003000Y24640250D01*
X23844250Y24799000D01*
X23080000Y24802072D01*
X22955518Y24789812D01*
X22835820Y24753502D01*
X22725506Y24694537D01*
X22628815Y24615185D01*
X22598010Y24577649D01*
X22431725Y24688757D01*
X22108332Y24822711D01*
X21765019Y24891000D01*
X21414981Y24891000D01*
X21071668Y24822711D01*
X20748275Y24688757D01*
X20457229Y24494286D01*
X20320000Y24357057D01*
X20182771Y24494286D01*
X19891725Y24688757D01*
X19568332Y24822711D01*
X19225019Y24891000D01*
X18874981Y24891000D01*
X18531668Y24822711D01*
X18208275Y24688757D01*
X17917229Y24494286D01*
X17780000Y24357057D01*
X17642771Y24494286D01*
X17351725Y24688757D01*
X17028332Y24822711D01*
X16685019Y24891000D01*
X16334981Y24891000D01*
X15991668Y24822711D01*
X15668275Y24688757D01*
X15377229Y24494286D01*
X15240000Y24357057D01*
X15102771Y24494286D01*
X14811725Y24688757D01*
X14488332Y24822711D01*
X14145019Y24891000D01*
X13794981Y24891000D01*
X13451668Y24822711D01*
X13128275Y24688757D01*
X12837229Y24494286D01*
X12700000Y24357057D01*
X12562771Y24494286D01*
X12271725Y24688757D01*
X11948332Y24822711D01*
X11605019Y24891000D01*
X11254981Y24891000D01*
X10911668Y24822711D01*
X10588275Y24688757D01*
X10297229Y24494286D01*
X10160000Y24357057D01*
X10022771Y24494286D01*
X9731725Y24688757D01*
X9408332Y24822711D01*
X9065019Y24891000D01*
X8714981Y24891000D01*
X8371668Y24822711D01*
X8048275Y24688757D01*
X7757229Y24494286D01*
X7509714Y24246771D01*
X7315243Y23955725D01*
X7181289Y23632332D01*
X7113000Y23289019D01*
X7113000Y22938981D01*
X7181289Y22595668D01*
X7315243Y22272275D01*
X7509714Y21981229D01*
X7646943Y21844000D01*
X7509714Y21706771D01*
X7315243Y21415725D01*
X7181289Y21092332D01*
X7113000Y20749019D01*
X7113000Y20398981D01*
X7181289Y20055668D01*
X7315243Y19732275D01*
X7509714Y19441229D01*
X7757229Y19193714D01*
X8048275Y18999243D01*
X8371668Y18865289D01*
X8714981Y18797000D01*
X8714981Y18337538D01*
X8669422Y18328475D01*
X8373327Y18205828D01*
X8106848Y18027773D01*
X7880227Y17801152D01*
X7702172Y17534673D01*
X7579525Y17238578D01*
X7517000Y16924245D01*
X7517000Y16872240D01*
X5271000Y14626239D01*
X5224183Y14587817D01*
X5070851Y14400983D01*
X4956916Y14187824D01*
X4886755Y13956534D01*
X4869000Y13776268D01*
X4869000Y13776260D01*
X4863065Y13716000D01*
X4869000Y13655740D01*
X4869000Y9963925D01*
X4832227Y9927152D01*
X4654172Y9660673D01*
X4531525Y9364578D01*
X4469000Y9050245D01*
X4469000Y8729755D01*
X4531525Y8415422D01*
X4654172Y8119327D01*
X4832227Y7852848D01*
X5058848Y7626227D01*
X5325327Y7448172D01*
X5621422Y7325525D01*
X5935755Y7263000D01*
X5935755Y2981000D01*
X2981000Y2981000D01*
X2981000Y27499000D01*
X32071000Y27499001D01*
M02*
