M48
; DRILL file {KiCad (5.1.5)-3} date 24.02.2021 13:16:00
; FORMAT={-:-/ absolute / metric / decimal}
; #@! TF.CreationDate,2021-02-24T13:16:00+01:00
; #@! TF.GenerationSoftware,Kicad,Pcbnew,(5.1.5)-3
FMAT,2
METRIC
T1C0.650
T2C0.800
T3C1.016
%
G90
G05
T1
X121.412Y11.636
X121.412Y8.636
X96.52Y11.684
X96.52Y8.684
X111.506Y11.636
X111.506Y8.636
X81.534Y11.636
X81.534Y8.636
X56.642Y11.636
X56.642Y8.636
X91.44Y11.684
X91.44Y8.684
X86.614Y11.636
X86.614Y8.636
X101.6Y11.684
X101.6Y8.684
X51.562Y11.66
X51.562Y8.66
X76.454Y11.66
X76.454Y8.66
X61.468Y11.684
X61.468Y8.684
X71.628Y11.636
X71.628Y8.636
X116.586Y11.636
X116.586Y8.636
X66.548Y11.66
X66.548Y8.66
X106.426Y11.636
X106.426Y8.636
X46.736Y11.684
X46.736Y8.684
T2
X6.096Y8.89
X9.144Y16.764
X26.924Y12.446
X28.956Y22.86
X29.606Y18.533
X30.988Y10.414
X33.782Y13.462
X34.412Y3.846
X38.608Y6.35
X84.074Y7.112
X86.614Y5.334
X99.314Y5.334
X68.834Y5.334
X81.534Y5.334
X126.056Y13.716
X126.056Y7.216
X130.556Y13.716
X130.556Y7.216
T3
X8.89Y23.114
X8.89Y20.574
X11.43Y23.114
X11.43Y20.574
X13.97Y23.114
X13.97Y20.574
X16.51Y23.114
X16.51Y20.574
X19.05Y23.114
X19.05Y20.574
X21.59Y23.114
X21.59Y20.574
X24.13Y23.114
X24.13Y20.574
X8.89Y12.954
X8.89Y10.414
X11.43Y12.954
X11.43Y10.414
X13.97Y12.954
X13.97Y10.414
X16.51Y12.954
X16.51Y10.414
X19.05Y12.954
X19.05Y10.414
X21.59Y12.954
X21.59Y10.414
X24.13Y12.954
X24.13Y10.414
T0
M30
