M48
; DRILL file {KiCad (5.1.5)-3} date 26.12.2020 15:06:46
; FORMAT={-:-/ absolute / metric / decimal}
; #@! TF.CreationDate,2020-12-26T15:06:46+01:00
; #@! TF.GenerationSoftware,Kicad,Pcbnew,(5.1.5)-3
FMAT,2
METRIC
T1C0.400
T2C0.500
T3C0.600
T4C0.650
T5C0.800
T6C1.016
T7C1.100
T8C1.200
%
G90
G05
T1
X82.042Y108.204
T2
X25.146Y123.698
X26.239Y114.577
X28.089Y112.553
X36.322Y107.696
X97.028Y23.876
X41.422Y66.354
X49.022Y68.854
X49.022Y61.254
X29.738Y66.354
X37.338Y68.854
X37.338Y61.254
X4.084Y66.354
X11.684Y68.854
X11.684Y61.254
X18.054Y66.354
X25.654Y68.854
X25.654Y61.254
X4.084Y44.51
X11.684Y47.01
X11.684Y39.41
X41.422Y44.49
X49.022Y46.99
X49.022Y39.39
X57.424Y66.354
X65.024Y68.854
X65.024Y61.254
X80.792Y66.354
X88.392Y68.854
X88.392Y61.254
X69.108Y66.354
X76.708Y68.854
X76.708Y61.254
X92.476Y66.354
X100.076Y68.854
X100.076Y61.254
X29.738Y44.49
X37.338Y46.99
X37.338Y39.39
X80.792Y44.51
X88.392Y47.01
X88.392Y39.41
X69.108Y44.49
X76.708Y46.99
X76.708Y39.39
X18.054Y44.51
X25.654Y47.01
X25.654Y39.41
X57.424Y44.49
X65.024Y46.99
X65.024Y39.39
X92.476Y44.51
X100.076Y47.01
X100.076Y39.41
T3
X18.054Y51.054
X25.654Y51.054
X4.084Y29.21
X11.684Y29.21
X41.422Y29.19
X49.022Y29.19
X57.424Y51.054
X65.024Y51.054
X80.792Y51.054
X88.392Y51.054
X69.108Y51.054
X76.708Y51.054
X92.476Y51.054
X100.076Y51.054
X29.738Y29.19
X37.338Y29.19
X80.792Y29.21
X88.392Y29.21
X69.108Y29.19
X76.708Y29.19
X18.054Y29.21
X25.654Y29.21
X57.424Y29.19
X65.024Y29.19
X92.476Y29.21
X100.076Y29.21
X41.422Y51.054
X49.022Y51.054
X29.738Y51.054
X37.338Y51.054
X4.084Y51.054
X11.684Y51.054
T4
X109.474Y112.728
X109.474Y109.728
X49.53Y112.752
X49.53Y109.752
X89.408Y112.776
X89.408Y109.776
X74.422Y112.752
X74.422Y109.752
X99.568Y112.776
X99.568Y109.776
X79.502Y112.728
X79.502Y109.728
X59.436Y112.776
X59.436Y109.776
X104.394Y112.728
X104.394Y109.728
X114.554Y112.728
X114.554Y109.728
X44.704Y112.776
X44.704Y109.776
X84.582Y112.728
X84.582Y109.728
X64.516Y112.752
X64.516Y109.752
X54.61Y112.728
X54.61Y109.728
X69.596Y112.728
X69.596Y109.728
X119.38Y112.728
X119.38Y109.728
X94.488Y112.776
X94.488Y109.776
T5
X1.688Y107.212
X4.064Y107.442
X6.604Y23.622
X6.858Y107.442
X9.398Y107.442
X11.684Y23.622
X11.938Y107.442
X14.478Y107.442
X16.51Y23.622
X17.018Y107.442
X19.558Y107.442
X21.59Y23.622
X26.67Y23.622
X31.75Y23.622
X36.83Y23.622
X41.91Y23.622
X44.704Y116.332
X46.99Y23.622
X49.53Y116.332
X52.07Y23.622
X54.61Y116.332
X57.15Y23.622
X59.436Y116.332
X62.23Y23.622
X64.516Y116.332
X67.31Y23.622
X69.596Y116.332
X72.39Y23.622
X74.422Y116.332
X77.645Y23.447
X79.502Y116.332
X82.55Y23.622
X84.582Y116.332
X89.408Y116.332
X92.71Y21.082
X92.748Y18.504
X92.786Y15.926
X92.824Y13.348
X92.863Y10.769
X92.901Y8.191
X92.939Y5.613
X92.977Y3.035
X94.488Y116.332
X99.568Y116.332
X104.394Y116.332
X109.474Y116.332
X114.554Y116.332
X119.38Y116.332
X84.582Y106.426
X97.282Y106.426
X86.614Y20.574
X89.114Y20.574
X36.576Y115.824
X36.576Y113.324
X66.802Y106.426
X79.502Y106.426
X40.132Y13.208
X40.132Y5.588
X42.672Y13.208
X42.672Y5.588
X45.212Y13.208
X45.212Y5.588
X47.752Y13.208
X47.752Y5.588
X50.292Y13.208
X50.292Y5.588
X52.832Y13.208
X52.832Y5.588
X55.372Y13.208
X55.372Y5.588
X57.912Y13.208
X57.912Y5.588
X60.452Y13.208
X60.452Y5.588
X62.992Y13.208
X62.992Y5.588
X65.532Y13.208
X65.532Y5.588
X68.072Y13.208
X68.072Y5.588
X70.612Y13.208
X70.612Y5.588
X73.152Y13.208
X73.152Y5.588
T6
X6.858Y114.046
X6.858Y111.506
X9.398Y114.046
X9.398Y111.506
X11.938Y114.046
X11.938Y111.506
X14.478Y114.046
X14.478Y111.506
X17.018Y114.046
X17.018Y111.506
X19.558Y114.046
X19.558Y111.506
X22.098Y114.046
X22.098Y111.506
X6.858Y124.206
X6.858Y121.666
X9.398Y124.206
X9.398Y121.666
X11.938Y124.206
X11.938Y121.666
X14.478Y124.206
X14.478Y121.666
X17.018Y124.206
X17.018Y121.666
X19.558Y124.206
X19.558Y121.666
X22.098Y124.206
X22.098Y121.666
T7
X10.922Y86.868
X16.002Y86.868
X65.786Y86.868
X70.866Y86.868
X75.946Y86.868
X81.026Y86.868
X86.106Y86.868
X91.186Y86.868
X96.266Y86.868
X101.346Y86.868
X23.114Y86.868
X28.194Y86.868
X33.274Y86.868
X38.354Y86.868
X43.434Y86.868
X48.514Y86.868
X53.594Y86.868
X58.674Y86.868
X124.024Y114.808
X124.024Y108.308
X128.524Y114.808
X128.524Y108.308
T8
X6.604Y20.828
X11.684Y20.828
X16.51Y20.828
X21.59Y20.828
X26.67Y20.828
X31.75Y20.828
X36.83Y20.828
X41.91Y21.082
X46.99Y21.082
X52.07Y21.082
X57.15Y21.082
X62.23Y21.082
X67.31Y21.082
X72.39Y21.082
X77.47Y21.082
X82.55Y21.082
T0
M30
