G04 #@! TF.GenerationSoftware,KiCad,Pcbnew,(5.1.5)-3*
G04 #@! TF.CreationDate,2021-02-24T13:15:57+01:00*
G04 #@! TF.ProjectId,Projekt,50726f6a-656b-4742-9e6b-696361645f70,rev?*
G04 #@! TF.SameCoordinates,PX3778af0PY9765530*
G04 #@! TF.FileFunction,Soldermask,Top*
G04 #@! TF.FilePolarity,Negative*
%FSLAX46Y46*%
G04 Gerber Fmt 4.6, Leading zero omitted, Abs format (unit mm)*
G04 Created by KiCad (PCBNEW (5.1.5)-3) date 2021-02-24 13:15:57*
%MOMM*%
%LPD*%
G04 APERTURE LIST*
%ADD10C,0.100000*%
G04 APERTURE END LIST*
D10*
G36*
X99528599Y6412864D02*
G01*
X99634860Y6391727D01*
X99835047Y6308807D01*
X100015209Y6188426D01*
X100168426Y6035209D01*
X100288807Y5855047D01*
X100371727Y5654860D01*
X100414000Y5442339D01*
X100414000Y5225661D01*
X100371727Y5013140D01*
X100288807Y4812953D01*
X100168426Y4632791D01*
X100015209Y4479574D01*
X99835047Y4359193D01*
X99634860Y4276273D01*
X99528600Y4255137D01*
X99422341Y4234000D01*
X99205659Y4234000D01*
X99099400Y4255137D01*
X98993140Y4276273D01*
X98792953Y4359193D01*
X98612791Y4479574D01*
X98459574Y4632791D01*
X98339193Y4812953D01*
X98256273Y5013140D01*
X98214000Y5225661D01*
X98214000Y5442339D01*
X98256273Y5654860D01*
X98339193Y5855047D01*
X98459574Y6035209D01*
X98612791Y6188426D01*
X98792953Y6308807D01*
X98993140Y6391727D01*
X99099401Y6412864D01*
X99205659Y6434000D01*
X99422341Y6434000D01*
X99528599Y6412864D01*
G37*
G36*
X69048599Y6412864D02*
G01*
X69154860Y6391727D01*
X69355047Y6308807D01*
X69535209Y6188426D01*
X69688426Y6035209D01*
X69808807Y5855047D01*
X69891727Y5654860D01*
X69934000Y5442339D01*
X69934000Y5225661D01*
X69891727Y5013140D01*
X69808807Y4812953D01*
X69688426Y4632791D01*
X69535209Y4479574D01*
X69355047Y4359193D01*
X69154860Y4276273D01*
X69048600Y4255137D01*
X68942341Y4234000D01*
X68725659Y4234000D01*
X68619400Y4255137D01*
X68513140Y4276273D01*
X68312953Y4359193D01*
X68132791Y4479574D01*
X67979574Y4632791D01*
X67859193Y4812953D01*
X67776273Y5013140D01*
X67734000Y5225661D01*
X67734000Y5442339D01*
X67776273Y5654860D01*
X67859193Y5855047D01*
X67979574Y6035209D01*
X68132791Y6188426D01*
X68312953Y6308807D01*
X68513140Y6391727D01*
X68619401Y6412864D01*
X68725659Y6434000D01*
X68942341Y6434000D01*
X69048599Y6412864D01*
G37*
G36*
X81748599Y6412864D02*
G01*
X81854860Y6391727D01*
X82055047Y6308807D01*
X82235209Y6188426D01*
X82388426Y6035209D01*
X82508807Y5855047D01*
X82591727Y5654860D01*
X82634000Y5442339D01*
X82634000Y5225661D01*
X82591727Y5013140D01*
X82508807Y4812953D01*
X82388426Y4632791D01*
X82235209Y4479574D01*
X82055047Y4359193D01*
X81854860Y4276273D01*
X81748600Y4255137D01*
X81642341Y4234000D01*
X81425659Y4234000D01*
X81319400Y4255137D01*
X81213140Y4276273D01*
X81012953Y4359193D01*
X80832791Y4479574D01*
X80679574Y4632791D01*
X80559193Y4812953D01*
X80476273Y5013140D01*
X80434000Y5225661D01*
X80434000Y5442339D01*
X80476273Y5654860D01*
X80559193Y5855047D01*
X80679574Y6035209D01*
X80832791Y6188426D01*
X81012953Y6308807D01*
X81213140Y6391727D01*
X81319401Y6412864D01*
X81425659Y6434000D01*
X81642341Y6434000D01*
X81748599Y6412864D01*
G37*
G36*
X86828599Y6412864D02*
G01*
X86934860Y6391727D01*
X87135047Y6308807D01*
X87315209Y6188426D01*
X87468426Y6035209D01*
X87588807Y5855047D01*
X87671727Y5654860D01*
X87714000Y5442339D01*
X87714000Y5225661D01*
X87671727Y5013140D01*
X87588807Y4812953D01*
X87468426Y4632791D01*
X87315209Y4479574D01*
X87135047Y4359193D01*
X86934860Y4276273D01*
X86828600Y4255137D01*
X86722341Y4234000D01*
X86505659Y4234000D01*
X86399400Y4255137D01*
X86293140Y4276273D01*
X86092953Y4359193D01*
X85912791Y4479574D01*
X85759574Y4632791D01*
X85639193Y4812953D01*
X85556273Y5013140D01*
X85514000Y5225661D01*
X85514000Y5442339D01*
X85556273Y5654860D01*
X85639193Y5855047D01*
X85759574Y6035209D01*
X85912791Y6188426D01*
X86092953Y6308807D01*
X86293140Y6391727D01*
X86399401Y6412864D01*
X86505659Y6434000D01*
X86722341Y6434000D01*
X86828599Y6412864D01*
G37*
G36*
X130935196Y8466042D02*
G01*
X131171781Y8368045D01*
X131381874Y8227666D01*
X131384705Y8225774D01*
X131565774Y8044705D01*
X131565776Y8044702D01*
X131708045Y7831781D01*
X131806042Y7595196D01*
X131856000Y7344039D01*
X131856000Y7087961D01*
X131806042Y6836804D01*
X131730246Y6653816D01*
X131708046Y6600221D01*
X131565774Y6387295D01*
X131384705Y6206226D01*
X131384702Y6206224D01*
X131171781Y6063955D01*
X130935196Y5965958D01*
X130684039Y5916000D01*
X130427961Y5916000D01*
X130176804Y5965958D01*
X129940219Y6063955D01*
X129727298Y6206224D01*
X129727295Y6206226D01*
X129546226Y6387295D01*
X129403954Y6600221D01*
X129381754Y6653816D01*
X129305958Y6836804D01*
X129256000Y7087961D01*
X129256000Y7344039D01*
X129305958Y7595196D01*
X129403955Y7831781D01*
X129546224Y8044702D01*
X129546226Y8044705D01*
X129727295Y8225774D01*
X129730126Y8227666D01*
X129940219Y8368045D01*
X130176804Y8466042D01*
X130427961Y8516000D01*
X130684039Y8516000D01*
X130935196Y8466042D01*
G37*
G36*
X126435196Y8466042D02*
G01*
X126671781Y8368045D01*
X126881874Y8227666D01*
X126884705Y8225774D01*
X127065774Y8044705D01*
X127065776Y8044702D01*
X127208045Y7831781D01*
X127306042Y7595196D01*
X127356000Y7344039D01*
X127356000Y7087961D01*
X127306042Y6836804D01*
X127230246Y6653816D01*
X127208046Y6600221D01*
X127065774Y6387295D01*
X126884705Y6206226D01*
X126884702Y6206224D01*
X126671781Y6063955D01*
X126435196Y5965958D01*
X126184039Y5916000D01*
X125927961Y5916000D01*
X125676804Y5965958D01*
X125440219Y6063955D01*
X125227298Y6206224D01*
X125227295Y6206226D01*
X125046226Y6387295D01*
X124903954Y6600221D01*
X124881754Y6653816D01*
X124805958Y6836804D01*
X124756000Y7087961D01*
X124756000Y7344039D01*
X124805958Y7595196D01*
X124903955Y7831781D01*
X125046224Y8044702D01*
X125046226Y8044705D01*
X125227295Y8225774D01*
X125230126Y8227666D01*
X125440219Y8368045D01*
X125676804Y8466042D01*
X125927961Y8516000D01*
X126184039Y8516000D01*
X126435196Y8466042D01*
G37*
G36*
X86923774Y9657188D02*
G01*
X87117046Y9577133D01*
X87290986Y9460910D01*
X87438910Y9312986D01*
X87555133Y9139046D01*
X87635188Y8945774D01*
X87676000Y8740598D01*
X87676000Y8531402D01*
X87635188Y8326226D01*
X87555133Y8132954D01*
X87438910Y7959014D01*
X87290986Y7811090D01*
X87117046Y7694867D01*
X86923774Y7614812D01*
X86718598Y7574000D01*
X86509402Y7574000D01*
X86304226Y7614812D01*
X86110954Y7694867D01*
X85937014Y7811090D01*
X85789090Y7959014D01*
X85672867Y8132954D01*
X85592812Y8326226D01*
X85552000Y8531402D01*
X85552000Y8740598D01*
X85592812Y8945774D01*
X85672867Y9139046D01*
X85789090Y9312986D01*
X85937014Y9460910D01*
X86110954Y9577133D01*
X86304226Y9657188D01*
X86509402Y9698000D01*
X86718598Y9698000D01*
X86923774Y9657188D01*
G37*
G36*
X71937774Y9657188D02*
G01*
X72131046Y9577133D01*
X72304986Y9460910D01*
X72452910Y9312986D01*
X72569133Y9139046D01*
X72649188Y8945774D01*
X72690000Y8740598D01*
X72690000Y8531402D01*
X72649188Y8326226D01*
X72569133Y8132954D01*
X72452910Y7959014D01*
X72304986Y7811090D01*
X72131046Y7694867D01*
X71937774Y7614812D01*
X71732598Y7574000D01*
X71523402Y7574000D01*
X71318226Y7614812D01*
X71124954Y7694867D01*
X70951014Y7811090D01*
X70803090Y7959014D01*
X70686867Y8132954D01*
X70606812Y8326226D01*
X70566000Y8531402D01*
X70566000Y8740598D01*
X70606812Y8945774D01*
X70686867Y9139046D01*
X70803090Y9312986D01*
X70951014Y9460910D01*
X71124954Y9577133D01*
X71318226Y9657188D01*
X71523402Y9698000D01*
X71732598Y9698000D01*
X71937774Y9657188D01*
G37*
G36*
X56951774Y9657188D02*
G01*
X57145046Y9577133D01*
X57318986Y9460910D01*
X57466910Y9312986D01*
X57583133Y9139046D01*
X57663188Y8945774D01*
X57704000Y8740598D01*
X57704000Y8531402D01*
X57663188Y8326226D01*
X57583133Y8132954D01*
X57466910Y7959014D01*
X57318986Y7811090D01*
X57145046Y7694867D01*
X56951774Y7614812D01*
X56746598Y7574000D01*
X56537402Y7574000D01*
X56332226Y7614812D01*
X56138954Y7694867D01*
X55965014Y7811090D01*
X55817090Y7959014D01*
X55700867Y8132954D01*
X55620812Y8326226D01*
X55580000Y8531402D01*
X55580000Y8740598D01*
X55620812Y8945774D01*
X55700867Y9139046D01*
X55817090Y9312986D01*
X55965014Y9460910D01*
X56138954Y9577133D01*
X56332226Y9657188D01*
X56537402Y9698000D01*
X56746598Y9698000D01*
X56951774Y9657188D01*
G37*
G36*
X106735774Y9657188D02*
G01*
X106929046Y9577133D01*
X107102986Y9460910D01*
X107250910Y9312986D01*
X107367133Y9139046D01*
X107447188Y8945774D01*
X107488000Y8740598D01*
X107488000Y8531402D01*
X107447188Y8326226D01*
X107367133Y8132954D01*
X107250910Y7959014D01*
X107102986Y7811090D01*
X106929046Y7694867D01*
X106735774Y7614812D01*
X106530598Y7574000D01*
X106321402Y7574000D01*
X106116226Y7614812D01*
X105922954Y7694867D01*
X105749014Y7811090D01*
X105601090Y7959014D01*
X105484867Y8132954D01*
X105404812Y8326226D01*
X105364000Y8531402D01*
X105364000Y8740598D01*
X105404812Y8945774D01*
X105484867Y9139046D01*
X105601090Y9312986D01*
X105749014Y9460910D01*
X105922954Y9577133D01*
X106116226Y9657188D01*
X106321402Y9698000D01*
X106530598Y9698000D01*
X106735774Y9657188D01*
G37*
G36*
X121721774Y9657188D02*
G01*
X121915046Y9577133D01*
X122088986Y9460910D01*
X122236910Y9312986D01*
X122353133Y9139046D01*
X122433188Y8945774D01*
X122474000Y8740598D01*
X122474000Y8531402D01*
X122433188Y8326226D01*
X122353133Y8132954D01*
X122236910Y7959014D01*
X122088986Y7811090D01*
X121915046Y7694867D01*
X121721774Y7614812D01*
X121516598Y7574000D01*
X121307402Y7574000D01*
X121102226Y7614812D01*
X120908954Y7694867D01*
X120735014Y7811090D01*
X120587090Y7959014D01*
X120470867Y8132954D01*
X120390812Y8326226D01*
X120350000Y8531402D01*
X120350000Y8740598D01*
X120390812Y8945774D01*
X120470867Y9139046D01*
X120587090Y9312986D01*
X120735014Y9460910D01*
X120908954Y9577133D01*
X121102226Y9657188D01*
X121307402Y9698000D01*
X121516598Y9698000D01*
X121721774Y9657188D01*
G37*
G36*
X111815774Y9657188D02*
G01*
X112009046Y9577133D01*
X112182986Y9460910D01*
X112330910Y9312986D01*
X112447133Y9139046D01*
X112527188Y8945774D01*
X112568000Y8740598D01*
X112568000Y8531402D01*
X112527188Y8326226D01*
X112447133Y8132954D01*
X112330910Y7959014D01*
X112182986Y7811090D01*
X112009046Y7694867D01*
X111815774Y7614812D01*
X111610598Y7574000D01*
X111401402Y7574000D01*
X111196226Y7614812D01*
X111002954Y7694867D01*
X110829014Y7811090D01*
X110681090Y7959014D01*
X110564867Y8132954D01*
X110484812Y8326226D01*
X110444000Y8531402D01*
X110444000Y8740598D01*
X110484812Y8945774D01*
X110564867Y9139046D01*
X110681090Y9312986D01*
X110829014Y9460910D01*
X111002954Y9577133D01*
X111196226Y9657188D01*
X111401402Y9698000D01*
X111610598Y9698000D01*
X111815774Y9657188D01*
G37*
G36*
X81843774Y9657188D02*
G01*
X82037046Y9577133D01*
X82210986Y9460910D01*
X82358910Y9312986D01*
X82475133Y9139046D01*
X82555188Y8945774D01*
X82596000Y8740598D01*
X82596000Y8531402D01*
X82555188Y8326226D01*
X82475133Y8132954D01*
X82358910Y7959014D01*
X82210986Y7811090D01*
X82037046Y7694867D01*
X81843774Y7614812D01*
X81638598Y7574000D01*
X81429402Y7574000D01*
X81224226Y7614812D01*
X81030954Y7694867D01*
X80857014Y7811090D01*
X80709090Y7959014D01*
X80592867Y8132954D01*
X80512812Y8326226D01*
X80472000Y8531402D01*
X80472000Y8740598D01*
X80512812Y8945774D01*
X80592867Y9139046D01*
X80709090Y9312986D01*
X80857014Y9460910D01*
X81030954Y9577133D01*
X81224226Y9657188D01*
X81429402Y9698000D01*
X81638598Y9698000D01*
X81843774Y9657188D01*
G37*
G36*
X116895774Y9657188D02*
G01*
X117089046Y9577133D01*
X117262986Y9460910D01*
X117410910Y9312986D01*
X117527133Y9139046D01*
X117607188Y8945774D01*
X117648000Y8740598D01*
X117648000Y8531402D01*
X117607188Y8326226D01*
X117527133Y8132954D01*
X117410910Y7959014D01*
X117262986Y7811090D01*
X117089046Y7694867D01*
X116895774Y7614812D01*
X116690598Y7574000D01*
X116481402Y7574000D01*
X116276226Y7614812D01*
X116082954Y7694867D01*
X115909014Y7811090D01*
X115761090Y7959014D01*
X115644867Y8132954D01*
X115564812Y8326226D01*
X115524000Y8531402D01*
X115524000Y8740598D01*
X115564812Y8945774D01*
X115644867Y9139046D01*
X115761090Y9312986D01*
X115909014Y9460910D01*
X116082954Y9577133D01*
X116276226Y9657188D01*
X116481402Y9698000D01*
X116690598Y9698000D01*
X116895774Y9657188D01*
G37*
G36*
X76763774Y9681188D02*
G01*
X76957046Y9601133D01*
X77130986Y9484910D01*
X77278910Y9336986D01*
X77395133Y9163046D01*
X77475188Y8969774D01*
X77516000Y8764598D01*
X77516000Y8555402D01*
X77475188Y8350226D01*
X77395133Y8156954D01*
X77278910Y7983014D01*
X77130986Y7835090D01*
X76957046Y7718867D01*
X76763774Y7638812D01*
X76558598Y7598000D01*
X76349402Y7598000D01*
X76144226Y7638812D01*
X75950954Y7718867D01*
X75777014Y7835090D01*
X75629090Y7983014D01*
X75512867Y8156954D01*
X75432812Y8350226D01*
X75392000Y8555402D01*
X75392000Y8764598D01*
X75432812Y8969774D01*
X75512867Y9163046D01*
X75629090Y9336986D01*
X75777014Y9484910D01*
X75950954Y9601133D01*
X76144226Y9681188D01*
X76349402Y9722000D01*
X76558598Y9722000D01*
X76763774Y9681188D01*
G37*
G36*
X51871774Y9681188D02*
G01*
X52065046Y9601133D01*
X52238986Y9484910D01*
X52386910Y9336986D01*
X52503133Y9163046D01*
X52583188Y8969774D01*
X52624000Y8764598D01*
X52624000Y8555402D01*
X52583188Y8350226D01*
X52503133Y8156954D01*
X52386910Y7983014D01*
X52238986Y7835090D01*
X52065046Y7718867D01*
X51871774Y7638812D01*
X51666598Y7598000D01*
X51457402Y7598000D01*
X51252226Y7638812D01*
X51058954Y7718867D01*
X50885014Y7835090D01*
X50737090Y7983014D01*
X50620867Y8156954D01*
X50540812Y8350226D01*
X50500000Y8555402D01*
X50500000Y8764598D01*
X50540812Y8969774D01*
X50620867Y9163046D01*
X50737090Y9336986D01*
X50885014Y9484910D01*
X51058954Y9601133D01*
X51252226Y9681188D01*
X51457402Y9722000D01*
X51666598Y9722000D01*
X51871774Y9681188D01*
G37*
G36*
X66857774Y9681188D02*
G01*
X67051046Y9601133D01*
X67224986Y9484910D01*
X67372910Y9336986D01*
X67489133Y9163046D01*
X67569188Y8969774D01*
X67610000Y8764598D01*
X67610000Y8555402D01*
X67569188Y8350226D01*
X67489133Y8156954D01*
X67372910Y7983014D01*
X67224986Y7835090D01*
X67051046Y7718867D01*
X66857774Y7638812D01*
X66652598Y7598000D01*
X66443402Y7598000D01*
X66238226Y7638812D01*
X66044954Y7718867D01*
X65871014Y7835090D01*
X65723090Y7983014D01*
X65606867Y8156954D01*
X65526812Y8350226D01*
X65486000Y8555402D01*
X65486000Y8764598D01*
X65526812Y8969774D01*
X65606867Y9163046D01*
X65723090Y9336986D01*
X65871014Y9484910D01*
X66044954Y9601133D01*
X66238226Y9681188D01*
X66443402Y9722000D01*
X66652598Y9722000D01*
X66857774Y9681188D01*
G37*
G36*
X91749774Y9705188D02*
G01*
X91943046Y9625133D01*
X92116986Y9508910D01*
X92264910Y9360986D01*
X92381133Y9187046D01*
X92461188Y8993774D01*
X92502000Y8788598D01*
X92502000Y8579402D01*
X92461188Y8374226D01*
X92381133Y8180954D01*
X92264910Y8007014D01*
X92116986Y7859090D01*
X91943046Y7742867D01*
X91749774Y7662812D01*
X91544598Y7622000D01*
X91335402Y7622000D01*
X91130226Y7662812D01*
X90936954Y7742867D01*
X90763014Y7859090D01*
X90615090Y8007014D01*
X90498867Y8180954D01*
X90418812Y8374226D01*
X90378000Y8579402D01*
X90378000Y8788598D01*
X90418812Y8993774D01*
X90498867Y9187046D01*
X90615090Y9360986D01*
X90763014Y9508910D01*
X90936954Y9625133D01*
X91130226Y9705188D01*
X91335402Y9746000D01*
X91544598Y9746000D01*
X91749774Y9705188D01*
G37*
G36*
X96829774Y9705188D02*
G01*
X97023046Y9625133D01*
X97196986Y9508910D01*
X97344910Y9360986D01*
X97461133Y9187046D01*
X97541188Y8993774D01*
X97582000Y8788598D01*
X97582000Y8579402D01*
X97541188Y8374226D01*
X97461133Y8180954D01*
X97344910Y8007014D01*
X97196986Y7859090D01*
X97023046Y7742867D01*
X96829774Y7662812D01*
X96624598Y7622000D01*
X96415402Y7622000D01*
X96210226Y7662812D01*
X96016954Y7742867D01*
X95843014Y7859090D01*
X95695090Y8007014D01*
X95578867Y8180954D01*
X95498812Y8374226D01*
X95458000Y8579402D01*
X95458000Y8788598D01*
X95498812Y8993774D01*
X95578867Y9187046D01*
X95695090Y9360986D01*
X95843014Y9508910D01*
X96016954Y9625133D01*
X96210226Y9705188D01*
X96415402Y9746000D01*
X96624598Y9746000D01*
X96829774Y9705188D01*
G37*
G36*
X101909774Y9705188D02*
G01*
X102103046Y9625133D01*
X102276986Y9508910D01*
X102424910Y9360986D01*
X102541133Y9187046D01*
X102621188Y8993774D01*
X102662000Y8788598D01*
X102662000Y8579402D01*
X102621188Y8374226D01*
X102541133Y8180954D01*
X102424910Y8007014D01*
X102276986Y7859090D01*
X102103046Y7742867D01*
X101909774Y7662812D01*
X101704598Y7622000D01*
X101495402Y7622000D01*
X101290226Y7662812D01*
X101096954Y7742867D01*
X100923014Y7859090D01*
X100775090Y8007014D01*
X100658867Y8180954D01*
X100578812Y8374226D01*
X100538000Y8579402D01*
X100538000Y8788598D01*
X100578812Y8993774D01*
X100658867Y9187046D01*
X100775090Y9360986D01*
X100923014Y9508910D01*
X101096954Y9625133D01*
X101290226Y9705188D01*
X101495402Y9746000D01*
X101704598Y9746000D01*
X101909774Y9705188D01*
G37*
G36*
X61777774Y9705188D02*
G01*
X61971046Y9625133D01*
X62144986Y9508910D01*
X62292910Y9360986D01*
X62409133Y9187046D01*
X62489188Y8993774D01*
X62530000Y8788598D01*
X62530000Y8579402D01*
X62489188Y8374226D01*
X62409133Y8180954D01*
X62292910Y8007014D01*
X62144986Y7859090D01*
X61971046Y7742867D01*
X61777774Y7662812D01*
X61572598Y7622000D01*
X61363402Y7622000D01*
X61158226Y7662812D01*
X60964954Y7742867D01*
X60791014Y7859090D01*
X60643090Y8007014D01*
X60526867Y8180954D01*
X60446812Y8374226D01*
X60406000Y8579402D01*
X60406000Y8788598D01*
X60446812Y8993774D01*
X60526867Y9187046D01*
X60643090Y9360986D01*
X60791014Y9508910D01*
X60964954Y9625133D01*
X61158226Y9705188D01*
X61363402Y9746000D01*
X61572598Y9746000D01*
X61777774Y9705188D01*
G37*
G36*
X47045774Y9705188D02*
G01*
X47239046Y9625133D01*
X47412986Y9508910D01*
X47560910Y9360986D01*
X47677133Y9187046D01*
X47757188Y8993774D01*
X47798000Y8788598D01*
X47798000Y8579402D01*
X47757188Y8374226D01*
X47677133Y8180954D01*
X47560910Y8007014D01*
X47412986Y7859090D01*
X47239046Y7742867D01*
X47045774Y7662812D01*
X46840598Y7622000D01*
X46631402Y7622000D01*
X46426226Y7662812D01*
X46232954Y7742867D01*
X46059014Y7859090D01*
X45911090Y8007014D01*
X45794867Y8180954D01*
X45714812Y8374226D01*
X45674000Y8579402D01*
X45674000Y8788598D01*
X45714812Y8993774D01*
X45794867Y9187046D01*
X45911090Y9360986D01*
X46059014Y9508910D01*
X46232954Y9625133D01*
X46426226Y9705188D01*
X46631402Y9746000D01*
X46840598Y9746000D01*
X47045774Y9705188D01*
G37*
G36*
X9283782Y14252120D02*
G01*
X9529463Y14150355D01*
X9529465Y14150354D01*
X9745424Y14006055D01*
X9750578Y14002611D01*
X9938614Y13814575D01*
X10035281Y13669903D01*
X10053935Y13647173D01*
X10076665Y13628518D01*
X10102598Y13614657D01*
X10130737Y13606121D01*
X10160000Y13603239D01*
X10189264Y13606121D01*
X10217402Y13614657D01*
X10243335Y13628519D01*
X10266065Y13647173D01*
X10284719Y13669903D01*
X10381386Y13814575D01*
X10569422Y14002611D01*
X10574576Y14006055D01*
X10790535Y14150354D01*
X10790537Y14150355D01*
X11036218Y14252120D01*
X11297037Y14304000D01*
X11562963Y14304000D01*
X11823782Y14252120D01*
X12069463Y14150355D01*
X12069465Y14150354D01*
X12285424Y14006055D01*
X12290578Y14002611D01*
X12478614Y13814575D01*
X12575281Y13669903D01*
X12593935Y13647173D01*
X12616665Y13628518D01*
X12642598Y13614657D01*
X12670737Y13606121D01*
X12700000Y13603239D01*
X12729264Y13606121D01*
X12757402Y13614657D01*
X12783335Y13628519D01*
X12806065Y13647173D01*
X12824719Y13669903D01*
X12921386Y13814575D01*
X13109422Y14002611D01*
X13114576Y14006055D01*
X13330535Y14150354D01*
X13330537Y14150355D01*
X13576218Y14252120D01*
X13837037Y14304000D01*
X14102963Y14304000D01*
X14363782Y14252120D01*
X14609463Y14150355D01*
X14609465Y14150354D01*
X14825424Y14006055D01*
X14830578Y14002611D01*
X15018614Y13814575D01*
X15115281Y13669903D01*
X15133935Y13647173D01*
X15156665Y13628518D01*
X15182598Y13614657D01*
X15210737Y13606121D01*
X15240000Y13603239D01*
X15269264Y13606121D01*
X15297402Y13614657D01*
X15323335Y13628519D01*
X15346065Y13647173D01*
X15364719Y13669903D01*
X15461386Y13814575D01*
X15649422Y14002611D01*
X15654576Y14006055D01*
X15870535Y14150354D01*
X15870537Y14150355D01*
X16116218Y14252120D01*
X16377037Y14304000D01*
X16642963Y14304000D01*
X16903782Y14252120D01*
X17149463Y14150355D01*
X17149465Y14150354D01*
X17365424Y14006055D01*
X17370578Y14002611D01*
X17558614Y13814575D01*
X17655281Y13669903D01*
X17673935Y13647173D01*
X17696665Y13628518D01*
X17722598Y13614657D01*
X17750737Y13606121D01*
X17780000Y13603239D01*
X17809264Y13606121D01*
X17837402Y13614657D01*
X17863335Y13628519D01*
X17886065Y13647173D01*
X17904719Y13669903D01*
X18001386Y13814575D01*
X18189422Y14002611D01*
X18194576Y14006055D01*
X18410535Y14150354D01*
X18410537Y14150355D01*
X18656218Y14252120D01*
X18917037Y14304000D01*
X19182963Y14304000D01*
X19443782Y14252120D01*
X19689463Y14150355D01*
X19689465Y14150354D01*
X19905424Y14006055D01*
X19910578Y14002611D01*
X20098614Y13814575D01*
X20195281Y13669903D01*
X20213935Y13647173D01*
X20236665Y13628518D01*
X20262598Y13614657D01*
X20290737Y13606121D01*
X20320000Y13603239D01*
X20349264Y13606121D01*
X20377402Y13614657D01*
X20403335Y13628519D01*
X20426065Y13647173D01*
X20444719Y13669903D01*
X20541386Y13814575D01*
X20729422Y14002611D01*
X20734576Y14006055D01*
X20950535Y14150354D01*
X20950537Y14150355D01*
X21196218Y14252120D01*
X21457037Y14304000D01*
X21722963Y14304000D01*
X21983782Y14252120D01*
X22229463Y14150355D01*
X22229465Y14150354D01*
X22445424Y14006055D01*
X22450578Y14002611D01*
X22523936Y13929253D01*
X22546666Y13910598D01*
X22572599Y13896737D01*
X22600738Y13888201D01*
X22630001Y13885319D01*
X22659264Y13888201D01*
X22687403Y13896737D01*
X22713336Y13910598D01*
X22736066Y13929253D01*
X22754721Y13951983D01*
X22768582Y13977916D01*
X22777118Y14006055D01*
X22780000Y14035318D01*
X22780000Y14304000D01*
X25480000Y14304000D01*
X25480000Y11604000D01*
X25211318Y11604000D01*
X25182055Y11601118D01*
X25153916Y11592582D01*
X25127983Y11578721D01*
X25105253Y11560066D01*
X25086598Y11537336D01*
X25072737Y11511403D01*
X25064201Y11483264D01*
X25061319Y11454001D01*
X25064201Y11424738D01*
X25072737Y11396599D01*
X25086598Y11370666D01*
X25105253Y11347936D01*
X25178611Y11274578D01*
X25178613Y11274575D01*
X25317898Y11066121D01*
X25326355Y11053463D01*
X25428120Y10807782D01*
X25480000Y10546963D01*
X25480000Y10281037D01*
X25428120Y10020218D01*
X25326355Y9774537D01*
X25326354Y9774535D01*
X25180577Y9556364D01*
X25178611Y9553422D01*
X24990578Y9365389D01*
X24990575Y9365387D01*
X24769465Y9217646D01*
X24769464Y9217645D01*
X24769463Y9217645D01*
X24523782Y9115880D01*
X24262963Y9064000D01*
X23997037Y9064000D01*
X23736218Y9115880D01*
X23490537Y9217645D01*
X23490536Y9217645D01*
X23490535Y9217646D01*
X23269425Y9365387D01*
X23269422Y9365389D01*
X23081386Y9553425D01*
X22984719Y9698097D01*
X22966065Y9720827D01*
X22943335Y9739482D01*
X22917402Y9753343D01*
X22889263Y9761879D01*
X22860000Y9764761D01*
X22830736Y9761879D01*
X22802598Y9753343D01*
X22776665Y9739481D01*
X22753935Y9720827D01*
X22735281Y9698097D01*
X22638614Y9553425D01*
X22450578Y9365389D01*
X22450575Y9365387D01*
X22229465Y9217646D01*
X22229464Y9217645D01*
X22229463Y9217645D01*
X21983782Y9115880D01*
X21722963Y9064000D01*
X21457037Y9064000D01*
X21196218Y9115880D01*
X20950537Y9217645D01*
X20950536Y9217645D01*
X20950535Y9217646D01*
X20729425Y9365387D01*
X20729422Y9365389D01*
X20541386Y9553425D01*
X20444719Y9698097D01*
X20426065Y9720827D01*
X20403335Y9739482D01*
X20377402Y9753343D01*
X20349263Y9761879D01*
X20320000Y9764761D01*
X20290736Y9761879D01*
X20262598Y9753343D01*
X20236665Y9739481D01*
X20213935Y9720827D01*
X20195281Y9698097D01*
X20098614Y9553425D01*
X19910578Y9365389D01*
X19910575Y9365387D01*
X19689465Y9217646D01*
X19689464Y9217645D01*
X19689463Y9217645D01*
X19443782Y9115880D01*
X19182963Y9064000D01*
X18917037Y9064000D01*
X18656218Y9115880D01*
X18410537Y9217645D01*
X18410536Y9217645D01*
X18410535Y9217646D01*
X18189425Y9365387D01*
X18189422Y9365389D01*
X18001386Y9553425D01*
X17904719Y9698097D01*
X17886065Y9720827D01*
X17863335Y9739482D01*
X17837402Y9753343D01*
X17809263Y9761879D01*
X17780000Y9764761D01*
X17750736Y9761879D01*
X17722598Y9753343D01*
X17696665Y9739481D01*
X17673935Y9720827D01*
X17655281Y9698097D01*
X17558614Y9553425D01*
X17370578Y9365389D01*
X17370575Y9365387D01*
X17149465Y9217646D01*
X17149464Y9217645D01*
X17149463Y9217645D01*
X16903782Y9115880D01*
X16642963Y9064000D01*
X16377037Y9064000D01*
X16116218Y9115880D01*
X15870537Y9217645D01*
X15870536Y9217645D01*
X15870535Y9217646D01*
X15649425Y9365387D01*
X15649422Y9365389D01*
X15461386Y9553425D01*
X15364719Y9698097D01*
X15346065Y9720827D01*
X15323335Y9739482D01*
X15297402Y9753343D01*
X15269263Y9761879D01*
X15240000Y9764761D01*
X15210736Y9761879D01*
X15182598Y9753343D01*
X15156665Y9739481D01*
X15133935Y9720827D01*
X15115281Y9698097D01*
X15018614Y9553425D01*
X14830578Y9365389D01*
X14830575Y9365387D01*
X14609465Y9217646D01*
X14609464Y9217645D01*
X14609463Y9217645D01*
X14363782Y9115880D01*
X14102963Y9064000D01*
X13837037Y9064000D01*
X13576218Y9115880D01*
X13330537Y9217645D01*
X13330536Y9217645D01*
X13330535Y9217646D01*
X13109425Y9365387D01*
X13109422Y9365389D01*
X12921386Y9553425D01*
X12824719Y9698097D01*
X12806065Y9720827D01*
X12783335Y9739482D01*
X12757402Y9753343D01*
X12729263Y9761879D01*
X12700000Y9764761D01*
X12670736Y9761879D01*
X12642598Y9753343D01*
X12616665Y9739481D01*
X12593935Y9720827D01*
X12575281Y9698097D01*
X12478614Y9553425D01*
X12290578Y9365389D01*
X12290575Y9365387D01*
X12069465Y9217646D01*
X12069464Y9217645D01*
X12069463Y9217645D01*
X11823782Y9115880D01*
X11562963Y9064000D01*
X11297037Y9064000D01*
X11036218Y9115880D01*
X10790537Y9217645D01*
X10790536Y9217645D01*
X10790535Y9217646D01*
X10569425Y9365387D01*
X10569422Y9365389D01*
X10381386Y9553425D01*
X10284719Y9698097D01*
X10266065Y9720827D01*
X10243335Y9739482D01*
X10217402Y9753343D01*
X10189263Y9761879D01*
X10160000Y9764761D01*
X10130736Y9761879D01*
X10102598Y9753343D01*
X10076665Y9739481D01*
X10053935Y9720827D01*
X10035281Y9698097D01*
X9938614Y9553425D01*
X9750578Y9365389D01*
X9750575Y9365387D01*
X9529465Y9217646D01*
X9529464Y9217645D01*
X9529463Y9217645D01*
X9283782Y9115880D01*
X9022963Y9064000D01*
X8757037Y9064000D01*
X8496218Y9115880D01*
X8250537Y9217645D01*
X8250536Y9217645D01*
X8250535Y9217646D01*
X8029425Y9365387D01*
X8029422Y9365389D01*
X7841389Y9553422D01*
X7839423Y9556364D01*
X7693646Y9774535D01*
X7693645Y9774537D01*
X7591880Y10020218D01*
X7540000Y10281037D01*
X7540000Y10546963D01*
X7591880Y10807782D01*
X7693645Y11053463D01*
X7702103Y11066121D01*
X7841387Y11274575D01*
X7841389Y11274578D01*
X8029425Y11462614D01*
X8174097Y11559281D01*
X8196827Y11577935D01*
X8215482Y11600665D01*
X8229343Y11626598D01*
X8237879Y11654737D01*
X8240761Y11684000D01*
X9539239Y11684000D01*
X9542121Y11654736D01*
X9550657Y11626598D01*
X9564519Y11600665D01*
X9583173Y11577935D01*
X9605903Y11559281D01*
X9750575Y11462614D01*
X9938614Y11274575D01*
X10035281Y11129903D01*
X10053935Y11107173D01*
X10076665Y11088518D01*
X10102598Y11074657D01*
X10130737Y11066121D01*
X10160000Y11063239D01*
X10189264Y11066121D01*
X10217402Y11074657D01*
X10243335Y11088519D01*
X10266065Y11107173D01*
X10284719Y11129903D01*
X10381386Y11274575D01*
X10569425Y11462614D01*
X10714097Y11559281D01*
X10736827Y11577935D01*
X10755482Y11600665D01*
X10769343Y11626598D01*
X10777879Y11654737D01*
X10780761Y11684000D01*
X12079239Y11684000D01*
X12082121Y11654736D01*
X12090657Y11626598D01*
X12104519Y11600665D01*
X12123173Y11577935D01*
X12145903Y11559281D01*
X12290575Y11462614D01*
X12478614Y11274575D01*
X12575281Y11129903D01*
X12593935Y11107173D01*
X12616665Y11088518D01*
X12642598Y11074657D01*
X12670737Y11066121D01*
X12700000Y11063239D01*
X12729264Y11066121D01*
X12757402Y11074657D01*
X12783335Y11088519D01*
X12806065Y11107173D01*
X12824719Y11129903D01*
X12921386Y11274575D01*
X13109425Y11462614D01*
X13254097Y11559281D01*
X13276827Y11577935D01*
X13295482Y11600665D01*
X13309343Y11626598D01*
X13317879Y11654737D01*
X13320761Y11684000D01*
X14619239Y11684000D01*
X14622121Y11654736D01*
X14630657Y11626598D01*
X14644519Y11600665D01*
X14663173Y11577935D01*
X14685903Y11559281D01*
X14830575Y11462614D01*
X15018614Y11274575D01*
X15115281Y11129903D01*
X15133935Y11107173D01*
X15156665Y11088518D01*
X15182598Y11074657D01*
X15210737Y11066121D01*
X15240000Y11063239D01*
X15269264Y11066121D01*
X15297402Y11074657D01*
X15323335Y11088519D01*
X15346065Y11107173D01*
X15364719Y11129903D01*
X15461386Y11274575D01*
X15649425Y11462614D01*
X15794097Y11559281D01*
X15816827Y11577935D01*
X15835482Y11600665D01*
X15849343Y11626598D01*
X15857879Y11654737D01*
X15860761Y11684000D01*
X17159239Y11684000D01*
X17162121Y11654736D01*
X17170657Y11626598D01*
X17184519Y11600665D01*
X17203173Y11577935D01*
X17225903Y11559281D01*
X17370575Y11462614D01*
X17558614Y11274575D01*
X17655281Y11129903D01*
X17673935Y11107173D01*
X17696665Y11088518D01*
X17722598Y11074657D01*
X17750737Y11066121D01*
X17780000Y11063239D01*
X17809264Y11066121D01*
X17837402Y11074657D01*
X17863335Y11088519D01*
X17886065Y11107173D01*
X17904719Y11129903D01*
X18001386Y11274575D01*
X18189425Y11462614D01*
X18334097Y11559281D01*
X18356827Y11577935D01*
X18375482Y11600665D01*
X18389343Y11626598D01*
X18397879Y11654737D01*
X18400761Y11684000D01*
X19699239Y11684000D01*
X19702121Y11654736D01*
X19710657Y11626598D01*
X19724519Y11600665D01*
X19743173Y11577935D01*
X19765903Y11559281D01*
X19910575Y11462614D01*
X20098614Y11274575D01*
X20195281Y11129903D01*
X20213935Y11107173D01*
X20236665Y11088518D01*
X20262598Y11074657D01*
X20290737Y11066121D01*
X20320000Y11063239D01*
X20349264Y11066121D01*
X20377402Y11074657D01*
X20403335Y11088519D01*
X20426065Y11107173D01*
X20444719Y11129903D01*
X20541386Y11274575D01*
X20729425Y11462614D01*
X20874097Y11559281D01*
X20896827Y11577935D01*
X20915482Y11600665D01*
X20929343Y11626598D01*
X20937879Y11654737D01*
X20940761Y11684000D01*
X22239239Y11684000D01*
X22242121Y11654736D01*
X22250657Y11626598D01*
X22264519Y11600665D01*
X22283173Y11577935D01*
X22305903Y11559281D01*
X22450575Y11462614D01*
X22523936Y11389253D01*
X22546629Y11370629D01*
X22565253Y11347936D01*
X22638614Y11274575D01*
X22735281Y11129903D01*
X22753935Y11107173D01*
X22776665Y11088518D01*
X22802598Y11074657D01*
X22830737Y11066121D01*
X22860000Y11063239D01*
X22889264Y11066121D01*
X22917402Y11074657D01*
X22943335Y11088519D01*
X22966065Y11107173D01*
X22984719Y11129903D01*
X23081386Y11274575D01*
X23154747Y11347936D01*
X23173402Y11370666D01*
X23187263Y11396599D01*
X23195799Y11424738D01*
X23198681Y11454001D01*
X23195799Y11483264D01*
X23187263Y11511403D01*
X23173402Y11537336D01*
X23154747Y11560066D01*
X23132017Y11578721D01*
X23106084Y11592582D01*
X23077945Y11601118D01*
X23048682Y11604000D01*
X22780000Y11604000D01*
X22780000Y11872682D01*
X22777118Y11901945D01*
X22768582Y11930084D01*
X22754721Y11956017D01*
X22736066Y11978747D01*
X22713336Y11997402D01*
X22687403Y12011263D01*
X22659264Y12019799D01*
X22630001Y12022681D01*
X22600738Y12019799D01*
X22572599Y12011263D01*
X22546666Y11997402D01*
X22523936Y11978747D01*
X22450575Y11905386D01*
X22305903Y11808719D01*
X22283173Y11790065D01*
X22264518Y11767335D01*
X22250657Y11741402D01*
X22242121Y11713263D01*
X22239239Y11684000D01*
X20940761Y11684000D01*
X20937879Y11713264D01*
X20929343Y11741402D01*
X20915481Y11767335D01*
X20896827Y11790065D01*
X20874097Y11808719D01*
X20729425Y11905386D01*
X20541386Y12093425D01*
X20444719Y12238097D01*
X20426065Y12260827D01*
X20403335Y12279482D01*
X20377402Y12293343D01*
X20349263Y12301879D01*
X20320000Y12304761D01*
X20290736Y12301879D01*
X20262598Y12293343D01*
X20236665Y12279481D01*
X20213935Y12260827D01*
X20195281Y12238097D01*
X20098614Y12093425D01*
X19910575Y11905386D01*
X19765903Y11808719D01*
X19743173Y11790065D01*
X19724518Y11767335D01*
X19710657Y11741402D01*
X19702121Y11713263D01*
X19699239Y11684000D01*
X18400761Y11684000D01*
X18397879Y11713264D01*
X18389343Y11741402D01*
X18375481Y11767335D01*
X18356827Y11790065D01*
X18334097Y11808719D01*
X18189425Y11905386D01*
X18001386Y12093425D01*
X17904719Y12238097D01*
X17886065Y12260827D01*
X17863335Y12279482D01*
X17837402Y12293343D01*
X17809263Y12301879D01*
X17780000Y12304761D01*
X17750736Y12301879D01*
X17722598Y12293343D01*
X17696665Y12279481D01*
X17673935Y12260827D01*
X17655281Y12238097D01*
X17558614Y12093425D01*
X17370575Y11905386D01*
X17225903Y11808719D01*
X17203173Y11790065D01*
X17184518Y11767335D01*
X17170657Y11741402D01*
X17162121Y11713263D01*
X17159239Y11684000D01*
X15860761Y11684000D01*
X15857879Y11713264D01*
X15849343Y11741402D01*
X15835481Y11767335D01*
X15816827Y11790065D01*
X15794097Y11808719D01*
X15649425Y11905386D01*
X15461386Y12093425D01*
X15364719Y12238097D01*
X15346065Y12260827D01*
X15323335Y12279482D01*
X15297402Y12293343D01*
X15269263Y12301879D01*
X15240000Y12304761D01*
X15210736Y12301879D01*
X15182598Y12293343D01*
X15156665Y12279481D01*
X15133935Y12260827D01*
X15115281Y12238097D01*
X15018614Y12093425D01*
X14830575Y11905386D01*
X14685903Y11808719D01*
X14663173Y11790065D01*
X14644518Y11767335D01*
X14630657Y11741402D01*
X14622121Y11713263D01*
X14619239Y11684000D01*
X13320761Y11684000D01*
X13317879Y11713264D01*
X13309343Y11741402D01*
X13295481Y11767335D01*
X13276827Y11790065D01*
X13254097Y11808719D01*
X13109425Y11905386D01*
X12921386Y12093425D01*
X12824719Y12238097D01*
X12806065Y12260827D01*
X12783335Y12279482D01*
X12757402Y12293343D01*
X12729263Y12301879D01*
X12700000Y12304761D01*
X12670736Y12301879D01*
X12642598Y12293343D01*
X12616665Y12279481D01*
X12593935Y12260827D01*
X12575281Y12238097D01*
X12478614Y12093425D01*
X12290575Y11905386D01*
X12145903Y11808719D01*
X12123173Y11790065D01*
X12104518Y11767335D01*
X12090657Y11741402D01*
X12082121Y11713263D01*
X12079239Y11684000D01*
X10780761Y11684000D01*
X10777879Y11713264D01*
X10769343Y11741402D01*
X10755481Y11767335D01*
X10736827Y11790065D01*
X10714097Y11808719D01*
X10569425Y11905386D01*
X10381386Y12093425D01*
X10284719Y12238097D01*
X10266065Y12260827D01*
X10243335Y12279482D01*
X10217402Y12293343D01*
X10189263Y12301879D01*
X10160000Y12304761D01*
X10130736Y12301879D01*
X10102598Y12293343D01*
X10076665Y12279481D01*
X10053935Y12260827D01*
X10035281Y12238097D01*
X9938614Y12093425D01*
X9750575Y11905386D01*
X9605903Y11808719D01*
X9583173Y11790065D01*
X9564518Y11767335D01*
X9550657Y11741402D01*
X9542121Y11713263D01*
X9539239Y11684000D01*
X8240761Y11684000D01*
X8237879Y11713264D01*
X8229343Y11741402D01*
X8215481Y11767335D01*
X8196827Y11790065D01*
X8174097Y11808719D01*
X8029425Y11905386D01*
X7841389Y12093422D01*
X7778833Y12187044D01*
X7693646Y12314535D01*
X7684346Y12336986D01*
X7591880Y12560218D01*
X7540000Y12821037D01*
X7540000Y13086963D01*
X7591880Y13347782D01*
X7693645Y13593463D01*
X7702103Y13606121D01*
X7841387Y13814575D01*
X7841389Y13814578D01*
X8029422Y14002611D01*
X8034576Y14006055D01*
X8250535Y14150354D01*
X8250537Y14150355D01*
X8496218Y14252120D01*
X8757037Y14304000D01*
X9022963Y14304000D01*
X9283782Y14252120D01*
G37*
G36*
X71937774Y12657188D02*
G01*
X72131046Y12577133D01*
X72304986Y12460910D01*
X72452910Y12312986D01*
X72569133Y12139046D01*
X72649188Y11945774D01*
X72690000Y11740598D01*
X72690000Y11531402D01*
X72649188Y11326226D01*
X72569133Y11132954D01*
X72452910Y10959014D01*
X72304986Y10811090D01*
X72131046Y10694867D01*
X71937774Y10614812D01*
X71732598Y10574000D01*
X71523402Y10574000D01*
X71318226Y10614812D01*
X71124954Y10694867D01*
X70951014Y10811090D01*
X70803090Y10959014D01*
X70686867Y11132954D01*
X70606812Y11326226D01*
X70566000Y11531402D01*
X70566000Y11740598D01*
X70606812Y11945774D01*
X70686867Y12139046D01*
X70803090Y12312986D01*
X70951014Y12460910D01*
X71124954Y12577133D01*
X71318226Y12657188D01*
X71523402Y12698000D01*
X71732598Y12698000D01*
X71937774Y12657188D01*
G37*
G36*
X111815774Y12657188D02*
G01*
X112009046Y12577133D01*
X112182986Y12460910D01*
X112330910Y12312986D01*
X112447133Y12139046D01*
X112527188Y11945774D01*
X112568000Y11740598D01*
X112568000Y11531402D01*
X112527188Y11326226D01*
X112447133Y11132954D01*
X112330910Y10959014D01*
X112182986Y10811090D01*
X112009046Y10694867D01*
X111815774Y10614812D01*
X111610598Y10574000D01*
X111401402Y10574000D01*
X111196226Y10614812D01*
X111002954Y10694867D01*
X110829014Y10811090D01*
X110681090Y10959014D01*
X110564867Y11132954D01*
X110484812Y11326226D01*
X110444000Y11531402D01*
X110444000Y11740598D01*
X110484812Y11945774D01*
X110564867Y12139046D01*
X110681090Y12312986D01*
X110829014Y12460910D01*
X111002954Y12577133D01*
X111196226Y12657188D01*
X111401402Y12698000D01*
X111610598Y12698000D01*
X111815774Y12657188D01*
G37*
G36*
X116895774Y12657188D02*
G01*
X117089046Y12577133D01*
X117262986Y12460910D01*
X117410910Y12312986D01*
X117527133Y12139046D01*
X117607188Y11945774D01*
X117648000Y11740598D01*
X117648000Y11531402D01*
X117607188Y11326226D01*
X117527133Y11132954D01*
X117410910Y10959014D01*
X117262986Y10811090D01*
X117089046Y10694867D01*
X116895774Y10614812D01*
X116690598Y10574000D01*
X116481402Y10574000D01*
X116276226Y10614812D01*
X116082954Y10694867D01*
X115909014Y10811090D01*
X115761090Y10959014D01*
X115644867Y11132954D01*
X115564812Y11326226D01*
X115524000Y11531402D01*
X115524000Y11740598D01*
X115564812Y11945774D01*
X115644867Y12139046D01*
X115761090Y12312986D01*
X115909014Y12460910D01*
X116082954Y12577133D01*
X116276226Y12657188D01*
X116481402Y12698000D01*
X116690598Y12698000D01*
X116895774Y12657188D01*
G37*
G36*
X121721774Y12657188D02*
G01*
X121915046Y12577133D01*
X122088986Y12460910D01*
X122236910Y12312986D01*
X122353133Y12139046D01*
X122433188Y11945774D01*
X122474000Y11740598D01*
X122474000Y11531402D01*
X122433188Y11326226D01*
X122353133Y11132954D01*
X122236910Y10959014D01*
X122088986Y10811090D01*
X121915046Y10694867D01*
X121721774Y10614812D01*
X121516598Y10574000D01*
X121307402Y10574000D01*
X121102226Y10614812D01*
X120908954Y10694867D01*
X120735014Y10811090D01*
X120587090Y10959014D01*
X120470867Y11132954D01*
X120390812Y11326226D01*
X120350000Y11531402D01*
X120350000Y11740598D01*
X120390812Y11945774D01*
X120470867Y12139046D01*
X120587090Y12312986D01*
X120735014Y12460910D01*
X120908954Y12577133D01*
X121102226Y12657188D01*
X121307402Y12698000D01*
X121516598Y12698000D01*
X121721774Y12657188D01*
G37*
G36*
X56951774Y12657188D02*
G01*
X57145046Y12577133D01*
X57318986Y12460910D01*
X57466910Y12312986D01*
X57583133Y12139046D01*
X57663188Y11945774D01*
X57704000Y11740598D01*
X57704000Y11531402D01*
X57663188Y11326226D01*
X57583133Y11132954D01*
X57466910Y10959014D01*
X57318986Y10811090D01*
X57145046Y10694867D01*
X56951774Y10614812D01*
X56746598Y10574000D01*
X56537402Y10574000D01*
X56332226Y10614812D01*
X56138954Y10694867D01*
X55965014Y10811090D01*
X55817090Y10959014D01*
X55700867Y11132954D01*
X55620812Y11326226D01*
X55580000Y11531402D01*
X55580000Y11740598D01*
X55620812Y11945774D01*
X55700867Y12139046D01*
X55817090Y12312986D01*
X55965014Y12460910D01*
X56138954Y12577133D01*
X56332226Y12657188D01*
X56537402Y12698000D01*
X56746598Y12698000D01*
X56951774Y12657188D01*
G37*
G36*
X81843774Y12657188D02*
G01*
X82037046Y12577133D01*
X82210986Y12460910D01*
X82358910Y12312986D01*
X82475133Y12139046D01*
X82555188Y11945774D01*
X82596000Y11740598D01*
X82596000Y11531402D01*
X82555188Y11326226D01*
X82475133Y11132954D01*
X82358910Y10959014D01*
X82210986Y10811090D01*
X82037046Y10694867D01*
X81843774Y10614812D01*
X81638598Y10574000D01*
X81429402Y10574000D01*
X81224226Y10614812D01*
X81030954Y10694867D01*
X80857014Y10811090D01*
X80709090Y10959014D01*
X80592867Y11132954D01*
X80512812Y11326226D01*
X80472000Y11531402D01*
X80472000Y11740598D01*
X80512812Y11945774D01*
X80592867Y12139046D01*
X80709090Y12312986D01*
X80857014Y12460910D01*
X81030954Y12577133D01*
X81224226Y12657188D01*
X81429402Y12698000D01*
X81638598Y12698000D01*
X81843774Y12657188D01*
G37*
G36*
X106735774Y12657188D02*
G01*
X106929046Y12577133D01*
X107102986Y12460910D01*
X107250910Y12312986D01*
X107367133Y12139046D01*
X107447188Y11945774D01*
X107488000Y11740598D01*
X107488000Y11531402D01*
X107447188Y11326226D01*
X107367133Y11132954D01*
X107250910Y10959014D01*
X107102986Y10811090D01*
X106929046Y10694867D01*
X106735774Y10614812D01*
X106530598Y10574000D01*
X106321402Y10574000D01*
X106116226Y10614812D01*
X105922954Y10694867D01*
X105749014Y10811090D01*
X105601090Y10959014D01*
X105484867Y11132954D01*
X105404812Y11326226D01*
X105364000Y11531402D01*
X105364000Y11740598D01*
X105404812Y11945774D01*
X105484867Y12139046D01*
X105601090Y12312986D01*
X105749014Y12460910D01*
X105922954Y12577133D01*
X106116226Y12657188D01*
X106321402Y12698000D01*
X106530598Y12698000D01*
X106735774Y12657188D01*
G37*
G36*
X86923774Y12657188D02*
G01*
X87117046Y12577133D01*
X87290986Y12460910D01*
X87438910Y12312986D01*
X87555133Y12139046D01*
X87635188Y11945774D01*
X87676000Y11740598D01*
X87676000Y11531402D01*
X87635188Y11326226D01*
X87555133Y11132954D01*
X87438910Y10959014D01*
X87290986Y10811090D01*
X87117046Y10694867D01*
X86923774Y10614812D01*
X86718598Y10574000D01*
X86509402Y10574000D01*
X86304226Y10614812D01*
X86110954Y10694867D01*
X85937014Y10811090D01*
X85789090Y10959014D01*
X85672867Y11132954D01*
X85592812Y11326226D01*
X85552000Y11531402D01*
X85552000Y11740598D01*
X85592812Y11945774D01*
X85672867Y12139046D01*
X85789090Y12312986D01*
X85937014Y12460910D01*
X86110954Y12577133D01*
X86304226Y12657188D01*
X86509402Y12698000D01*
X86718598Y12698000D01*
X86923774Y12657188D01*
G37*
G36*
X51871774Y12681188D02*
G01*
X52065046Y12601133D01*
X52238986Y12484910D01*
X52386910Y12336986D01*
X52503133Y12163046D01*
X52583188Y11969774D01*
X52624000Y11764598D01*
X52624000Y11555402D01*
X52583188Y11350226D01*
X52503133Y11156954D01*
X52386910Y10983014D01*
X52238986Y10835090D01*
X52065046Y10718867D01*
X51871774Y10638812D01*
X51666598Y10598000D01*
X51457402Y10598000D01*
X51252226Y10638812D01*
X51058954Y10718867D01*
X50885014Y10835090D01*
X50737090Y10983014D01*
X50620867Y11156954D01*
X50540812Y11350226D01*
X50500000Y11555402D01*
X50500000Y11764598D01*
X50540812Y11969774D01*
X50620867Y12163046D01*
X50737090Y12336986D01*
X50885014Y12484910D01*
X51058954Y12601133D01*
X51252226Y12681188D01*
X51457402Y12722000D01*
X51666598Y12722000D01*
X51871774Y12681188D01*
G37*
G36*
X66857774Y12681188D02*
G01*
X67051046Y12601133D01*
X67224986Y12484910D01*
X67372910Y12336986D01*
X67489133Y12163046D01*
X67569188Y11969774D01*
X67610000Y11764598D01*
X67610000Y11555402D01*
X67569188Y11350226D01*
X67489133Y11156954D01*
X67372910Y10983014D01*
X67224986Y10835090D01*
X67051046Y10718867D01*
X66857774Y10638812D01*
X66652598Y10598000D01*
X66443402Y10598000D01*
X66238226Y10638812D01*
X66044954Y10718867D01*
X65871014Y10835090D01*
X65723090Y10983014D01*
X65606867Y11156954D01*
X65526812Y11350226D01*
X65486000Y11555402D01*
X65486000Y11764598D01*
X65526812Y11969774D01*
X65606867Y12163046D01*
X65723090Y12336986D01*
X65871014Y12484910D01*
X66044954Y12601133D01*
X66238226Y12681188D01*
X66443402Y12722000D01*
X66652598Y12722000D01*
X66857774Y12681188D01*
G37*
G36*
X76763774Y12681188D02*
G01*
X76957046Y12601133D01*
X77130986Y12484910D01*
X77278910Y12336986D01*
X77395133Y12163046D01*
X77475188Y11969774D01*
X77516000Y11764598D01*
X77516000Y11555402D01*
X77475188Y11350226D01*
X77395133Y11156954D01*
X77278910Y10983014D01*
X77130986Y10835090D01*
X76957046Y10718867D01*
X76763774Y10638812D01*
X76558598Y10598000D01*
X76349402Y10598000D01*
X76144226Y10638812D01*
X75950954Y10718867D01*
X75777014Y10835090D01*
X75629090Y10983014D01*
X75512867Y11156954D01*
X75432812Y11350226D01*
X75392000Y11555402D01*
X75392000Y11764598D01*
X75432812Y11969774D01*
X75512867Y12163046D01*
X75629090Y12336986D01*
X75777014Y12484910D01*
X75950954Y12601133D01*
X76144226Y12681188D01*
X76349402Y12722000D01*
X76558598Y12722000D01*
X76763774Y12681188D01*
G37*
G36*
X91749774Y12705188D02*
G01*
X91943046Y12625133D01*
X92116986Y12508910D01*
X92264910Y12360986D01*
X92381133Y12187046D01*
X92461188Y11993774D01*
X92502000Y11788598D01*
X92502000Y11579402D01*
X92461188Y11374226D01*
X92381133Y11180954D01*
X92264910Y11007014D01*
X92116986Y10859090D01*
X91943046Y10742867D01*
X91749774Y10662812D01*
X91544598Y10622000D01*
X91335402Y10622000D01*
X91130226Y10662812D01*
X90936954Y10742867D01*
X90763014Y10859090D01*
X90615090Y11007014D01*
X90498867Y11180954D01*
X90418812Y11374226D01*
X90378000Y11579402D01*
X90378000Y11788598D01*
X90418812Y11993774D01*
X90498867Y12187046D01*
X90615090Y12360986D01*
X90763014Y12508910D01*
X90936954Y12625133D01*
X91130226Y12705188D01*
X91335402Y12746000D01*
X91544598Y12746000D01*
X91749774Y12705188D01*
G37*
G36*
X96829774Y12705188D02*
G01*
X97023046Y12625133D01*
X97196986Y12508910D01*
X97344910Y12360986D01*
X97461133Y12187046D01*
X97541188Y11993774D01*
X97582000Y11788598D01*
X97582000Y11579402D01*
X97541188Y11374226D01*
X97461133Y11180954D01*
X97344910Y11007014D01*
X97196986Y10859090D01*
X97023046Y10742867D01*
X96829774Y10662812D01*
X96624598Y10622000D01*
X96415402Y10622000D01*
X96210226Y10662812D01*
X96016954Y10742867D01*
X95843014Y10859090D01*
X95695090Y11007014D01*
X95578867Y11180954D01*
X95498812Y11374226D01*
X95458000Y11579402D01*
X95458000Y11788598D01*
X95498812Y11993774D01*
X95578867Y12187046D01*
X95695090Y12360986D01*
X95843014Y12508910D01*
X96016954Y12625133D01*
X96210226Y12705188D01*
X96415402Y12746000D01*
X96624598Y12746000D01*
X96829774Y12705188D01*
G37*
G36*
X47045774Y12705188D02*
G01*
X47239046Y12625133D01*
X47412986Y12508910D01*
X47560910Y12360986D01*
X47677133Y12187046D01*
X47757188Y11993774D01*
X47798000Y11788598D01*
X47798000Y11579402D01*
X47757188Y11374226D01*
X47677133Y11180954D01*
X47560910Y11007014D01*
X47412986Y10859090D01*
X47239046Y10742867D01*
X47045774Y10662812D01*
X46840598Y10622000D01*
X46631402Y10622000D01*
X46426226Y10662812D01*
X46232954Y10742867D01*
X46059014Y10859090D01*
X45911090Y11007014D01*
X45794867Y11180954D01*
X45714812Y11374226D01*
X45674000Y11579402D01*
X45674000Y11788598D01*
X45714812Y11993774D01*
X45794867Y12187046D01*
X45911090Y12360986D01*
X46059014Y12508910D01*
X46232954Y12625133D01*
X46426226Y12705188D01*
X46631402Y12746000D01*
X46840598Y12746000D01*
X47045774Y12705188D01*
G37*
G36*
X101909774Y12705188D02*
G01*
X102103046Y12625133D01*
X102276986Y12508910D01*
X102424910Y12360986D01*
X102541133Y12187046D01*
X102621188Y11993774D01*
X102662000Y11788598D01*
X102662000Y11579402D01*
X102621188Y11374226D01*
X102541133Y11180954D01*
X102424910Y11007014D01*
X102276986Y10859090D01*
X102103046Y10742867D01*
X101909774Y10662812D01*
X101704598Y10622000D01*
X101495402Y10622000D01*
X101290226Y10662812D01*
X101096954Y10742867D01*
X100923014Y10859090D01*
X100775090Y11007014D01*
X100658867Y11180954D01*
X100578812Y11374226D01*
X100538000Y11579402D01*
X100538000Y11788598D01*
X100578812Y11993774D01*
X100658867Y12187046D01*
X100775090Y12360986D01*
X100923014Y12508910D01*
X101096954Y12625133D01*
X101290226Y12705188D01*
X101495402Y12746000D01*
X101704598Y12746000D01*
X101909774Y12705188D01*
G37*
G36*
X61777774Y12705188D02*
G01*
X61971046Y12625133D01*
X62144986Y12508910D01*
X62292910Y12360986D01*
X62409133Y12187046D01*
X62489188Y11993774D01*
X62530000Y11788598D01*
X62530000Y11579402D01*
X62489188Y11374226D01*
X62409133Y11180954D01*
X62292910Y11007014D01*
X62144986Y10859090D01*
X61971046Y10742867D01*
X61777774Y10662812D01*
X61572598Y10622000D01*
X61363402Y10622000D01*
X61158226Y10662812D01*
X60964954Y10742867D01*
X60791014Y10859090D01*
X60643090Y11007014D01*
X60526867Y11180954D01*
X60446812Y11374226D01*
X60406000Y11579402D01*
X60406000Y11788598D01*
X60446812Y11993774D01*
X60526867Y12187046D01*
X60643090Y12360986D01*
X60791014Y12508910D01*
X60964954Y12625133D01*
X61158226Y12705188D01*
X61363402Y12746000D01*
X61572598Y12746000D01*
X61777774Y12705188D01*
G37*
G36*
X130935196Y14966042D02*
G01*
X131171781Y14868045D01*
X131381874Y14727666D01*
X131384705Y14725774D01*
X131565774Y14544705D01*
X131565776Y14544702D01*
X131708045Y14331781D01*
X131806042Y14095196D01*
X131856000Y13844039D01*
X131856000Y13587961D01*
X131806042Y13336804D01*
X131708045Y13100219D01*
X131567666Y12890126D01*
X131565774Y12887295D01*
X131384705Y12706226D01*
X131384702Y12706224D01*
X131171781Y12563955D01*
X130935196Y12465958D01*
X130684039Y12416000D01*
X130427961Y12416000D01*
X130176804Y12465958D01*
X129940219Y12563955D01*
X129727298Y12706224D01*
X129727295Y12706226D01*
X129546226Y12887295D01*
X129544334Y12890126D01*
X129403955Y13100219D01*
X129305958Y13336804D01*
X129256000Y13587961D01*
X129256000Y13844039D01*
X129305958Y14095196D01*
X129403955Y14331781D01*
X129546224Y14544702D01*
X129546226Y14544705D01*
X129727295Y14725774D01*
X129730126Y14727666D01*
X129940219Y14868045D01*
X130176804Y14966042D01*
X130427961Y15016000D01*
X130684039Y15016000D01*
X130935196Y14966042D01*
G37*
G36*
X126435196Y14966042D02*
G01*
X126671781Y14868045D01*
X126881874Y14727666D01*
X126884705Y14725774D01*
X127065774Y14544705D01*
X127065776Y14544702D01*
X127208045Y14331781D01*
X127306042Y14095196D01*
X127356000Y13844039D01*
X127356000Y13587961D01*
X127306042Y13336804D01*
X127208045Y13100219D01*
X127067666Y12890126D01*
X127065774Y12887295D01*
X126884705Y12706226D01*
X126884702Y12706224D01*
X126671781Y12563955D01*
X126435196Y12465958D01*
X126184039Y12416000D01*
X125927961Y12416000D01*
X125676804Y12465958D01*
X125440219Y12563955D01*
X125227298Y12706224D01*
X125227295Y12706226D01*
X125046226Y12887295D01*
X125044334Y12890126D01*
X124903955Y13100219D01*
X124805958Y13336804D01*
X124756000Y13587961D01*
X124756000Y13844039D01*
X124805958Y14095196D01*
X124903955Y14331781D01*
X125046224Y14544702D01*
X125046226Y14544705D01*
X125227295Y14725774D01*
X125230126Y14727666D01*
X125440219Y14868045D01*
X125676804Y14966042D01*
X125927961Y15016000D01*
X126184039Y15016000D01*
X126435196Y14966042D01*
G37*
G36*
X9283782Y24412120D02*
G01*
X9529463Y24310355D01*
X9529465Y24310354D01*
X9745424Y24166055D01*
X9750578Y24162611D01*
X9938614Y23974575D01*
X10035281Y23829903D01*
X10053935Y23807173D01*
X10076665Y23788518D01*
X10102598Y23774657D01*
X10130737Y23766121D01*
X10160000Y23763239D01*
X10189264Y23766121D01*
X10217402Y23774657D01*
X10243335Y23788519D01*
X10266065Y23807173D01*
X10284719Y23829903D01*
X10381386Y23974575D01*
X10569422Y24162611D01*
X10574576Y24166055D01*
X10790535Y24310354D01*
X10790537Y24310355D01*
X11036218Y24412120D01*
X11297037Y24464000D01*
X11562963Y24464000D01*
X11823782Y24412120D01*
X12069463Y24310355D01*
X12069465Y24310354D01*
X12285424Y24166055D01*
X12290578Y24162611D01*
X12478614Y23974575D01*
X12575281Y23829903D01*
X12593935Y23807173D01*
X12616665Y23788518D01*
X12642598Y23774657D01*
X12670737Y23766121D01*
X12700000Y23763239D01*
X12729264Y23766121D01*
X12757402Y23774657D01*
X12783335Y23788519D01*
X12806065Y23807173D01*
X12824719Y23829903D01*
X12921386Y23974575D01*
X13109422Y24162611D01*
X13114576Y24166055D01*
X13330535Y24310354D01*
X13330537Y24310355D01*
X13576218Y24412120D01*
X13837037Y24464000D01*
X14102963Y24464000D01*
X14363782Y24412120D01*
X14609463Y24310355D01*
X14609465Y24310354D01*
X14825424Y24166055D01*
X14830578Y24162611D01*
X15018614Y23974575D01*
X15115281Y23829903D01*
X15133935Y23807173D01*
X15156665Y23788518D01*
X15182598Y23774657D01*
X15210737Y23766121D01*
X15240000Y23763239D01*
X15269264Y23766121D01*
X15297402Y23774657D01*
X15323335Y23788519D01*
X15346065Y23807173D01*
X15364719Y23829903D01*
X15461386Y23974575D01*
X15649422Y24162611D01*
X15654576Y24166055D01*
X15870535Y24310354D01*
X15870537Y24310355D01*
X16116218Y24412120D01*
X16377037Y24464000D01*
X16642963Y24464000D01*
X16903782Y24412120D01*
X17149463Y24310355D01*
X17149465Y24310354D01*
X17365424Y24166055D01*
X17370578Y24162611D01*
X17558614Y23974575D01*
X17655281Y23829903D01*
X17673935Y23807173D01*
X17696665Y23788518D01*
X17722598Y23774657D01*
X17750737Y23766121D01*
X17780000Y23763239D01*
X17809264Y23766121D01*
X17837402Y23774657D01*
X17863335Y23788519D01*
X17886065Y23807173D01*
X17904719Y23829903D01*
X18001386Y23974575D01*
X18189422Y24162611D01*
X18194576Y24166055D01*
X18410535Y24310354D01*
X18410537Y24310355D01*
X18656218Y24412120D01*
X18917037Y24464000D01*
X19182963Y24464000D01*
X19443782Y24412120D01*
X19689463Y24310355D01*
X19689465Y24310354D01*
X19905424Y24166055D01*
X19910578Y24162611D01*
X20098614Y23974575D01*
X20195281Y23829903D01*
X20213935Y23807173D01*
X20236665Y23788518D01*
X20262598Y23774657D01*
X20290737Y23766121D01*
X20320000Y23763239D01*
X20349264Y23766121D01*
X20377402Y23774657D01*
X20403335Y23788519D01*
X20426065Y23807173D01*
X20444719Y23829903D01*
X20541386Y23974575D01*
X20729422Y24162611D01*
X20734576Y24166055D01*
X20950535Y24310354D01*
X20950537Y24310355D01*
X21196218Y24412120D01*
X21457037Y24464000D01*
X21722963Y24464000D01*
X21983782Y24412120D01*
X22229463Y24310355D01*
X22229465Y24310354D01*
X22445424Y24166055D01*
X22450578Y24162611D01*
X22523936Y24089253D01*
X22546666Y24070598D01*
X22572599Y24056737D01*
X22600738Y24048201D01*
X22630001Y24045319D01*
X22659264Y24048201D01*
X22687403Y24056737D01*
X22713336Y24070598D01*
X22736066Y24089253D01*
X22754721Y24111983D01*
X22768582Y24137916D01*
X22777118Y24166055D01*
X22780000Y24195318D01*
X22780000Y24464000D01*
X25480000Y24464000D01*
X25480000Y21764000D01*
X25211318Y21764000D01*
X25182055Y21761118D01*
X25153916Y21752582D01*
X25127983Y21738721D01*
X25105253Y21720066D01*
X25086598Y21697336D01*
X25072737Y21671403D01*
X25064201Y21643264D01*
X25061319Y21614001D01*
X25064201Y21584738D01*
X25072737Y21556599D01*
X25086598Y21530666D01*
X25105253Y21507936D01*
X25178611Y21434578D01*
X25178613Y21434575D01*
X25317898Y21226121D01*
X25326355Y21213463D01*
X25428120Y20967782D01*
X25480000Y20706963D01*
X25480000Y20441037D01*
X25428120Y20180218D01*
X25326355Y19934537D01*
X25326354Y19934535D01*
X25290467Y19880827D01*
X25178611Y19713422D01*
X24990578Y19525389D01*
X24990575Y19525387D01*
X24769465Y19377646D01*
X24769464Y19377645D01*
X24769463Y19377645D01*
X24523782Y19275880D01*
X24262963Y19224000D01*
X23997037Y19224000D01*
X23736218Y19275880D01*
X23490537Y19377645D01*
X23490536Y19377645D01*
X23490535Y19377646D01*
X23269425Y19525387D01*
X23269422Y19525389D01*
X23081386Y19713425D01*
X22984719Y19858097D01*
X22966065Y19880827D01*
X22943335Y19899482D01*
X22917402Y19913343D01*
X22889263Y19921879D01*
X22860000Y19924761D01*
X22830736Y19921879D01*
X22802598Y19913343D01*
X22776665Y19899481D01*
X22753935Y19880827D01*
X22735281Y19858097D01*
X22638614Y19713425D01*
X22450578Y19525389D01*
X22450575Y19525387D01*
X22229465Y19377646D01*
X22229464Y19377645D01*
X22229463Y19377645D01*
X21983782Y19275880D01*
X21722963Y19224000D01*
X21457037Y19224000D01*
X21196218Y19275880D01*
X20950537Y19377645D01*
X20950536Y19377645D01*
X20950535Y19377646D01*
X20729425Y19525387D01*
X20729422Y19525389D01*
X20541386Y19713425D01*
X20444719Y19858097D01*
X20426065Y19880827D01*
X20403335Y19899482D01*
X20377402Y19913343D01*
X20349263Y19921879D01*
X20320000Y19924761D01*
X20290736Y19921879D01*
X20262598Y19913343D01*
X20236665Y19899481D01*
X20213935Y19880827D01*
X20195281Y19858097D01*
X20098614Y19713425D01*
X19910578Y19525389D01*
X19910575Y19525387D01*
X19689465Y19377646D01*
X19689464Y19377645D01*
X19689463Y19377645D01*
X19443782Y19275880D01*
X19182963Y19224000D01*
X18917037Y19224000D01*
X18656218Y19275880D01*
X18410537Y19377645D01*
X18410536Y19377645D01*
X18410535Y19377646D01*
X18189425Y19525387D01*
X18189422Y19525389D01*
X18001386Y19713425D01*
X17904719Y19858097D01*
X17886065Y19880827D01*
X17863335Y19899482D01*
X17837402Y19913343D01*
X17809263Y19921879D01*
X17780000Y19924761D01*
X17750736Y19921879D01*
X17722598Y19913343D01*
X17696665Y19899481D01*
X17673935Y19880827D01*
X17655281Y19858097D01*
X17558614Y19713425D01*
X17370578Y19525389D01*
X17370575Y19525387D01*
X17149465Y19377646D01*
X17149464Y19377645D01*
X17149463Y19377645D01*
X16903782Y19275880D01*
X16642963Y19224000D01*
X16377037Y19224000D01*
X16116218Y19275880D01*
X15870537Y19377645D01*
X15870536Y19377645D01*
X15870535Y19377646D01*
X15649425Y19525387D01*
X15649422Y19525389D01*
X15461386Y19713425D01*
X15364719Y19858097D01*
X15346065Y19880827D01*
X15323335Y19899482D01*
X15297402Y19913343D01*
X15269263Y19921879D01*
X15240000Y19924761D01*
X15210736Y19921879D01*
X15182598Y19913343D01*
X15156665Y19899481D01*
X15133935Y19880827D01*
X15115281Y19858097D01*
X15018614Y19713425D01*
X14830578Y19525389D01*
X14830575Y19525387D01*
X14609465Y19377646D01*
X14609464Y19377645D01*
X14609463Y19377645D01*
X14363782Y19275880D01*
X14102963Y19224000D01*
X13837037Y19224000D01*
X13576218Y19275880D01*
X13330537Y19377645D01*
X13330536Y19377645D01*
X13330535Y19377646D01*
X13109425Y19525387D01*
X13109422Y19525389D01*
X12921386Y19713425D01*
X12824719Y19858097D01*
X12806065Y19880827D01*
X12783335Y19899482D01*
X12757402Y19913343D01*
X12729263Y19921879D01*
X12700000Y19924761D01*
X12670736Y19921879D01*
X12642598Y19913343D01*
X12616665Y19899481D01*
X12593935Y19880827D01*
X12575281Y19858097D01*
X12478614Y19713425D01*
X12290578Y19525389D01*
X12290575Y19525387D01*
X12069465Y19377646D01*
X12069464Y19377645D01*
X12069463Y19377645D01*
X11823782Y19275880D01*
X11562963Y19224000D01*
X11297037Y19224000D01*
X11036218Y19275880D01*
X10790537Y19377645D01*
X10790536Y19377645D01*
X10790535Y19377646D01*
X10569425Y19525387D01*
X10569422Y19525389D01*
X10381386Y19713425D01*
X10284719Y19858097D01*
X10266065Y19880827D01*
X10243335Y19899482D01*
X10217402Y19913343D01*
X10189263Y19921879D01*
X10160000Y19924761D01*
X10130736Y19921879D01*
X10102598Y19913343D01*
X10076665Y19899481D01*
X10053935Y19880827D01*
X10035281Y19858097D01*
X9938614Y19713425D01*
X9750578Y19525389D01*
X9750575Y19525387D01*
X9529465Y19377646D01*
X9529464Y19377645D01*
X9529463Y19377645D01*
X9283782Y19275880D01*
X9022963Y19224000D01*
X8757037Y19224000D01*
X8496218Y19275880D01*
X8250537Y19377645D01*
X8250536Y19377645D01*
X8250535Y19377646D01*
X8029425Y19525387D01*
X8029422Y19525389D01*
X7841389Y19713422D01*
X7729533Y19880827D01*
X7693646Y19934535D01*
X7693645Y19934537D01*
X7591880Y20180218D01*
X7540000Y20441037D01*
X7540000Y20706963D01*
X7591880Y20967782D01*
X7693645Y21213463D01*
X7702103Y21226121D01*
X7841387Y21434575D01*
X7841389Y21434578D01*
X8029425Y21622614D01*
X8174097Y21719281D01*
X8196827Y21737935D01*
X8215482Y21760665D01*
X8229343Y21786598D01*
X8237879Y21814737D01*
X8240761Y21844000D01*
X9539239Y21844000D01*
X9542121Y21814736D01*
X9550657Y21786598D01*
X9564519Y21760665D01*
X9583173Y21737935D01*
X9605903Y21719281D01*
X9750575Y21622614D01*
X9938614Y21434575D01*
X10035281Y21289903D01*
X10053935Y21267173D01*
X10076665Y21248518D01*
X10102598Y21234657D01*
X10130737Y21226121D01*
X10160000Y21223239D01*
X10189264Y21226121D01*
X10217402Y21234657D01*
X10243335Y21248519D01*
X10266065Y21267173D01*
X10284719Y21289903D01*
X10381386Y21434575D01*
X10569425Y21622614D01*
X10714097Y21719281D01*
X10736827Y21737935D01*
X10755482Y21760665D01*
X10769343Y21786598D01*
X10777879Y21814737D01*
X10780761Y21844000D01*
X12079239Y21844000D01*
X12082121Y21814736D01*
X12090657Y21786598D01*
X12104519Y21760665D01*
X12123173Y21737935D01*
X12145903Y21719281D01*
X12290575Y21622614D01*
X12478614Y21434575D01*
X12575281Y21289903D01*
X12593935Y21267173D01*
X12616665Y21248518D01*
X12642598Y21234657D01*
X12670737Y21226121D01*
X12700000Y21223239D01*
X12729264Y21226121D01*
X12757402Y21234657D01*
X12783335Y21248519D01*
X12806065Y21267173D01*
X12824719Y21289903D01*
X12921386Y21434575D01*
X13109425Y21622614D01*
X13254097Y21719281D01*
X13276827Y21737935D01*
X13295482Y21760665D01*
X13309343Y21786598D01*
X13317879Y21814737D01*
X13320761Y21844000D01*
X14619239Y21844000D01*
X14622121Y21814736D01*
X14630657Y21786598D01*
X14644519Y21760665D01*
X14663173Y21737935D01*
X14685903Y21719281D01*
X14830575Y21622614D01*
X15018614Y21434575D01*
X15115281Y21289903D01*
X15133935Y21267173D01*
X15156665Y21248518D01*
X15182598Y21234657D01*
X15210737Y21226121D01*
X15240000Y21223239D01*
X15269264Y21226121D01*
X15297402Y21234657D01*
X15323335Y21248519D01*
X15346065Y21267173D01*
X15364719Y21289903D01*
X15461386Y21434575D01*
X15649425Y21622614D01*
X15794097Y21719281D01*
X15816827Y21737935D01*
X15835482Y21760665D01*
X15849343Y21786598D01*
X15857879Y21814737D01*
X15860761Y21844000D01*
X17159239Y21844000D01*
X17162121Y21814736D01*
X17170657Y21786598D01*
X17184519Y21760665D01*
X17203173Y21737935D01*
X17225903Y21719281D01*
X17370575Y21622614D01*
X17558614Y21434575D01*
X17655281Y21289903D01*
X17673935Y21267173D01*
X17696665Y21248518D01*
X17722598Y21234657D01*
X17750737Y21226121D01*
X17780000Y21223239D01*
X17809264Y21226121D01*
X17837402Y21234657D01*
X17863335Y21248519D01*
X17886065Y21267173D01*
X17904719Y21289903D01*
X18001386Y21434575D01*
X18189425Y21622614D01*
X18334097Y21719281D01*
X18356827Y21737935D01*
X18375482Y21760665D01*
X18389343Y21786598D01*
X18397879Y21814737D01*
X18400761Y21844000D01*
X19699239Y21844000D01*
X19702121Y21814736D01*
X19710657Y21786598D01*
X19724519Y21760665D01*
X19743173Y21737935D01*
X19765903Y21719281D01*
X19910575Y21622614D01*
X20098614Y21434575D01*
X20195281Y21289903D01*
X20213935Y21267173D01*
X20236665Y21248518D01*
X20262598Y21234657D01*
X20290737Y21226121D01*
X20320000Y21223239D01*
X20349264Y21226121D01*
X20377402Y21234657D01*
X20403335Y21248519D01*
X20426065Y21267173D01*
X20444719Y21289903D01*
X20541386Y21434575D01*
X20729425Y21622614D01*
X20874097Y21719281D01*
X20896827Y21737935D01*
X20915482Y21760665D01*
X20929343Y21786598D01*
X20937879Y21814737D01*
X20940761Y21844000D01*
X22239239Y21844000D01*
X22242121Y21814736D01*
X22250657Y21786598D01*
X22264519Y21760665D01*
X22283173Y21737935D01*
X22305903Y21719281D01*
X22450575Y21622614D01*
X22523936Y21549253D01*
X22546629Y21530629D01*
X22565253Y21507936D01*
X22638614Y21434575D01*
X22735281Y21289903D01*
X22753935Y21267173D01*
X22776665Y21248518D01*
X22802598Y21234657D01*
X22830737Y21226121D01*
X22860000Y21223239D01*
X22889264Y21226121D01*
X22917402Y21234657D01*
X22943335Y21248519D01*
X22966065Y21267173D01*
X22984719Y21289903D01*
X23081386Y21434575D01*
X23154747Y21507936D01*
X23173402Y21530666D01*
X23187263Y21556599D01*
X23195799Y21584738D01*
X23198681Y21614001D01*
X23195799Y21643264D01*
X23187263Y21671403D01*
X23173402Y21697336D01*
X23154747Y21720066D01*
X23132017Y21738721D01*
X23106084Y21752582D01*
X23077945Y21761118D01*
X23048682Y21764000D01*
X22780000Y21764000D01*
X22780000Y22032682D01*
X22777118Y22061945D01*
X22768582Y22090084D01*
X22754721Y22116017D01*
X22736066Y22138747D01*
X22713336Y22157402D01*
X22687403Y22171263D01*
X22659264Y22179799D01*
X22630001Y22182681D01*
X22600738Y22179799D01*
X22572599Y22171263D01*
X22546666Y22157402D01*
X22523936Y22138747D01*
X22450575Y22065386D01*
X22305903Y21968719D01*
X22283173Y21950065D01*
X22264518Y21927335D01*
X22250657Y21901402D01*
X22242121Y21873263D01*
X22239239Y21844000D01*
X20940761Y21844000D01*
X20937879Y21873264D01*
X20929343Y21901402D01*
X20915481Y21927335D01*
X20896827Y21950065D01*
X20874097Y21968719D01*
X20729425Y22065386D01*
X20541386Y22253425D01*
X20444719Y22398097D01*
X20426065Y22420827D01*
X20403335Y22439482D01*
X20377402Y22453343D01*
X20349263Y22461879D01*
X20320000Y22464761D01*
X20290736Y22461879D01*
X20262598Y22453343D01*
X20236665Y22439481D01*
X20213935Y22420827D01*
X20195281Y22398097D01*
X20098614Y22253425D01*
X19910575Y22065386D01*
X19765903Y21968719D01*
X19743173Y21950065D01*
X19724518Y21927335D01*
X19710657Y21901402D01*
X19702121Y21873263D01*
X19699239Y21844000D01*
X18400761Y21844000D01*
X18397879Y21873264D01*
X18389343Y21901402D01*
X18375481Y21927335D01*
X18356827Y21950065D01*
X18334097Y21968719D01*
X18189425Y22065386D01*
X18001386Y22253425D01*
X17904719Y22398097D01*
X17886065Y22420827D01*
X17863335Y22439482D01*
X17837402Y22453343D01*
X17809263Y22461879D01*
X17780000Y22464761D01*
X17750736Y22461879D01*
X17722598Y22453343D01*
X17696665Y22439481D01*
X17673935Y22420827D01*
X17655281Y22398097D01*
X17558614Y22253425D01*
X17370575Y22065386D01*
X17225903Y21968719D01*
X17203173Y21950065D01*
X17184518Y21927335D01*
X17170657Y21901402D01*
X17162121Y21873263D01*
X17159239Y21844000D01*
X15860761Y21844000D01*
X15857879Y21873264D01*
X15849343Y21901402D01*
X15835481Y21927335D01*
X15816827Y21950065D01*
X15794097Y21968719D01*
X15649425Y22065386D01*
X15461386Y22253425D01*
X15364719Y22398097D01*
X15346065Y22420827D01*
X15323335Y22439482D01*
X15297402Y22453343D01*
X15269263Y22461879D01*
X15240000Y22464761D01*
X15210736Y22461879D01*
X15182598Y22453343D01*
X15156665Y22439481D01*
X15133935Y22420827D01*
X15115281Y22398097D01*
X15018614Y22253425D01*
X14830575Y22065386D01*
X14685903Y21968719D01*
X14663173Y21950065D01*
X14644518Y21927335D01*
X14630657Y21901402D01*
X14622121Y21873263D01*
X14619239Y21844000D01*
X13320761Y21844000D01*
X13317879Y21873264D01*
X13309343Y21901402D01*
X13295481Y21927335D01*
X13276827Y21950065D01*
X13254097Y21968719D01*
X13109425Y22065386D01*
X12921386Y22253425D01*
X12824719Y22398097D01*
X12806065Y22420827D01*
X12783335Y22439482D01*
X12757402Y22453343D01*
X12729263Y22461879D01*
X12700000Y22464761D01*
X12670736Y22461879D01*
X12642598Y22453343D01*
X12616665Y22439481D01*
X12593935Y22420827D01*
X12575281Y22398097D01*
X12478614Y22253425D01*
X12290575Y22065386D01*
X12145903Y21968719D01*
X12123173Y21950065D01*
X12104518Y21927335D01*
X12090657Y21901402D01*
X12082121Y21873263D01*
X12079239Y21844000D01*
X10780761Y21844000D01*
X10777879Y21873264D01*
X10769343Y21901402D01*
X10755481Y21927335D01*
X10736827Y21950065D01*
X10714097Y21968719D01*
X10569425Y22065386D01*
X10381386Y22253425D01*
X10284719Y22398097D01*
X10266065Y22420827D01*
X10243335Y22439482D01*
X10217402Y22453343D01*
X10189263Y22461879D01*
X10160000Y22464761D01*
X10130736Y22461879D01*
X10102598Y22453343D01*
X10076665Y22439481D01*
X10053935Y22420827D01*
X10035281Y22398097D01*
X9938614Y22253425D01*
X9750575Y22065386D01*
X9605903Y21968719D01*
X9583173Y21950065D01*
X9564518Y21927335D01*
X9550657Y21901402D01*
X9542121Y21873263D01*
X9539239Y21844000D01*
X8240761Y21844000D01*
X8237879Y21873264D01*
X8229343Y21901402D01*
X8215481Y21927335D01*
X8196827Y21950065D01*
X8174097Y21968719D01*
X8029425Y22065386D01*
X7841389Y22253422D01*
X7729533Y22420827D01*
X7693646Y22474535D01*
X7693645Y22474537D01*
X7591880Y22720218D01*
X7540000Y22981037D01*
X7540000Y23246963D01*
X7591880Y23507782D01*
X7693645Y23753463D01*
X7702103Y23766121D01*
X7841387Y23974575D01*
X7841389Y23974578D01*
X8029422Y24162611D01*
X8034576Y24166055D01*
X8250535Y24310354D01*
X8250537Y24310355D01*
X8496218Y24412120D01*
X8757037Y24464000D01*
X9022963Y24464000D01*
X9283782Y24412120D01*
G37*
M02*
