G04 #@! TF.GenerationSoftware,KiCad,Pcbnew,(5.1.5)-3*
G04 #@! TF.CreationDate,2021-02-24T13:16:18+01:00*
G04 #@! TF.ProjectId,Projekt,50726f6a-656b-4742-9e6b-696361645f70,rev?*
G04 #@! TF.SameCoordinates,PX3778af0PY9765530*
G04 #@! TF.FileFunction,Soldermask,Top*
G04 #@! TF.FilePolarity,Negative*
%FSLAX46Y46*%
G04 Gerber Fmt 4.6, Leading zero omitted, Abs format (unit mm)*
G04 Created by KiCad (PCBNEW (5.1.5)-3) date 2021-02-24 13:16:18*
%MOMM*%
%LPD*%
G04 APERTURE LIST*
%ADD10C,0.100000*%
G04 APERTURE END LIST*
D10*
G36*
X82978600Y9206863D02*
G01*
X83084860Y9185727D01*
X83285047Y9102807D01*
X83465209Y8982426D01*
X83618426Y8829209D01*
X83738807Y8649047D01*
X83821727Y8448860D01*
X83864000Y8236339D01*
X83864000Y8019661D01*
X83821727Y7807140D01*
X83738807Y7606953D01*
X83618426Y7426791D01*
X83465209Y7273574D01*
X83285047Y7153193D01*
X83084860Y7070273D01*
X82978599Y7049136D01*
X82872341Y7028000D01*
X82655659Y7028000D01*
X82549401Y7049136D01*
X82443140Y7070273D01*
X82242953Y7153193D01*
X82062791Y7273574D01*
X81909574Y7426791D01*
X81789193Y7606953D01*
X81706273Y7807140D01*
X81664000Y8019661D01*
X81664000Y8236339D01*
X81706273Y8448860D01*
X81789193Y8649047D01*
X81909574Y8829209D01*
X82062791Y8982426D01*
X82242953Y9102807D01*
X82443140Y9185727D01*
X82549400Y9206863D01*
X82655659Y9228000D01*
X82872341Y9228000D01*
X82978600Y9206863D01*
G37*
G36*
X81364000Y7028000D02*
G01*
X79164000Y7028000D01*
X79164000Y9228000D01*
X81364000Y9228000D01*
X81364000Y7028000D01*
G37*
G36*
X68794600Y14794863D02*
G01*
X68900860Y14773727D01*
X69101047Y14690807D01*
X69281209Y14570426D01*
X69434426Y14417209D01*
X69554807Y14237047D01*
X69637727Y14036860D01*
X69680000Y13824339D01*
X69680000Y13607661D01*
X69637727Y13395140D01*
X69554807Y13194953D01*
X69434426Y13014791D01*
X69281209Y12861574D01*
X69101047Y12741193D01*
X68900860Y12658273D01*
X68794599Y12637136D01*
X68688341Y12616000D01*
X68471659Y12616000D01*
X68365401Y12637136D01*
X68259140Y12658273D01*
X68058953Y12741193D01*
X67878791Y12861574D01*
X67725574Y13014791D01*
X67605193Y13194953D01*
X67522273Y13395140D01*
X67480000Y13607661D01*
X67480000Y13824339D01*
X67522273Y14036860D01*
X67605193Y14237047D01*
X67725574Y14417209D01*
X67878791Y14570426D01*
X68058953Y14690807D01*
X68259140Y14773727D01*
X68365400Y14794863D01*
X68471659Y14816000D01*
X68688341Y14816000D01*
X68794600Y14794863D01*
G37*
G36*
X45934600Y14794863D02*
G01*
X46040860Y14773727D01*
X46241047Y14690807D01*
X46421209Y14570426D01*
X46574426Y14417209D01*
X46694807Y14237047D01*
X46777727Y14036860D01*
X46820000Y13824339D01*
X46820000Y13607661D01*
X46777727Y13395140D01*
X46694807Y13194953D01*
X46574426Y13014791D01*
X46421209Y12861574D01*
X46241047Y12741193D01*
X46040860Y12658273D01*
X45934599Y12637136D01*
X45828341Y12616000D01*
X45611659Y12616000D01*
X45505401Y12637136D01*
X45399140Y12658273D01*
X45198953Y12741193D01*
X45018791Y12861574D01*
X44865574Y13014791D01*
X44745193Y13194953D01*
X44662273Y13395140D01*
X44620000Y13607661D01*
X44620000Y13824339D01*
X44662273Y14036860D01*
X44745193Y14237047D01*
X44865574Y14417209D01*
X45018791Y14570426D01*
X45198953Y14690807D01*
X45399140Y14773727D01*
X45505400Y14794863D01*
X45611659Y14816000D01*
X45828341Y14816000D01*
X45934600Y14794863D01*
G37*
G36*
X61174600Y14794863D02*
G01*
X61280860Y14773727D01*
X61481047Y14690807D01*
X61661209Y14570426D01*
X61814426Y14417209D01*
X61934807Y14237047D01*
X62017727Y14036860D01*
X62060000Y13824339D01*
X62060000Y13607661D01*
X62017727Y13395140D01*
X61934807Y13194953D01*
X61814426Y13014791D01*
X61661209Y12861574D01*
X61481047Y12741193D01*
X61280860Y12658273D01*
X61174599Y12637136D01*
X61068341Y12616000D01*
X60851659Y12616000D01*
X60745401Y12637136D01*
X60639140Y12658273D01*
X60438953Y12741193D01*
X60258791Y12861574D01*
X60105574Y13014791D01*
X59985193Y13194953D01*
X59902273Y13395140D01*
X59860000Y13607661D01*
X59860000Y13824339D01*
X59902273Y14036860D01*
X59985193Y14237047D01*
X60105574Y14417209D01*
X60258791Y14570426D01*
X60438953Y14690807D01*
X60639140Y14773727D01*
X60745400Y14794863D01*
X60851659Y14816000D01*
X61068341Y14816000D01*
X61174600Y14794863D01*
G37*
G36*
X58634600Y14794863D02*
G01*
X58740860Y14773727D01*
X58941047Y14690807D01*
X59121209Y14570426D01*
X59274426Y14417209D01*
X59394807Y14237047D01*
X59477727Y14036860D01*
X59520000Y13824339D01*
X59520000Y13607661D01*
X59477727Y13395140D01*
X59394807Y13194953D01*
X59274426Y13014791D01*
X59121209Y12861574D01*
X58941047Y12741193D01*
X58740860Y12658273D01*
X58634599Y12637136D01*
X58528341Y12616000D01*
X58311659Y12616000D01*
X58205401Y12637136D01*
X58099140Y12658273D01*
X57898953Y12741193D01*
X57718791Y12861574D01*
X57565574Y13014791D01*
X57445193Y13194953D01*
X57362273Y13395140D01*
X57320000Y13607661D01*
X57320000Y13824339D01*
X57362273Y14036860D01*
X57445193Y14237047D01*
X57565574Y14417209D01*
X57718791Y14570426D01*
X57898953Y14690807D01*
X58099140Y14773727D01*
X58205400Y14794863D01*
X58311659Y14816000D01*
X58528341Y14816000D01*
X58634600Y14794863D01*
G37*
G36*
X56094600Y14794863D02*
G01*
X56200860Y14773727D01*
X56401047Y14690807D01*
X56581209Y14570426D01*
X56734426Y14417209D01*
X56854807Y14237047D01*
X56937727Y14036860D01*
X56980000Y13824339D01*
X56980000Y13607661D01*
X56937727Y13395140D01*
X56854807Y13194953D01*
X56734426Y13014791D01*
X56581209Y12861574D01*
X56401047Y12741193D01*
X56200860Y12658273D01*
X56094599Y12637136D01*
X55988341Y12616000D01*
X55771659Y12616000D01*
X55665401Y12637136D01*
X55559140Y12658273D01*
X55358953Y12741193D01*
X55178791Y12861574D01*
X55025574Y13014791D01*
X54905193Y13194953D01*
X54822273Y13395140D01*
X54780000Y13607661D01*
X54780000Y13824339D01*
X54822273Y14036860D01*
X54905193Y14237047D01*
X55025574Y14417209D01*
X55178791Y14570426D01*
X55358953Y14690807D01*
X55559140Y14773727D01*
X55665400Y14794863D01*
X55771659Y14816000D01*
X55988341Y14816000D01*
X56094600Y14794863D01*
G37*
G36*
X53554600Y14794863D02*
G01*
X53660860Y14773727D01*
X53861047Y14690807D01*
X54041209Y14570426D01*
X54194426Y14417209D01*
X54314807Y14237047D01*
X54397727Y14036860D01*
X54440000Y13824339D01*
X54440000Y13607661D01*
X54397727Y13395140D01*
X54314807Y13194953D01*
X54194426Y13014791D01*
X54041209Y12861574D01*
X53861047Y12741193D01*
X53660860Y12658273D01*
X53554599Y12637136D01*
X53448341Y12616000D01*
X53231659Y12616000D01*
X53125401Y12637136D01*
X53019140Y12658273D01*
X52818953Y12741193D01*
X52638791Y12861574D01*
X52485574Y13014791D01*
X52365193Y13194953D01*
X52282273Y13395140D01*
X52240000Y13607661D01*
X52240000Y13824339D01*
X52282273Y14036860D01*
X52365193Y14237047D01*
X52485574Y14417209D01*
X52638791Y14570426D01*
X52818953Y14690807D01*
X53019140Y14773727D01*
X53125400Y14794863D01*
X53231659Y14816000D01*
X53448341Y14816000D01*
X53554600Y14794863D01*
G37*
G36*
X51014600Y14794863D02*
G01*
X51120860Y14773727D01*
X51321047Y14690807D01*
X51501209Y14570426D01*
X51654426Y14417209D01*
X51774807Y14237047D01*
X51857727Y14036860D01*
X51900000Y13824339D01*
X51900000Y13607661D01*
X51857727Y13395140D01*
X51774807Y13194953D01*
X51654426Y13014791D01*
X51501209Y12861574D01*
X51321047Y12741193D01*
X51120860Y12658273D01*
X51014599Y12637136D01*
X50908341Y12616000D01*
X50691659Y12616000D01*
X50585401Y12637136D01*
X50479140Y12658273D01*
X50278953Y12741193D01*
X50098791Y12861574D01*
X49945574Y13014791D01*
X49825193Y13194953D01*
X49742273Y13395140D01*
X49700000Y13607661D01*
X49700000Y13824339D01*
X49742273Y14036860D01*
X49825193Y14237047D01*
X49945574Y14417209D01*
X50098791Y14570426D01*
X50278953Y14690807D01*
X50479140Y14773727D01*
X50585400Y14794863D01*
X50691659Y14816000D01*
X50908341Y14816000D01*
X51014600Y14794863D01*
G37*
G36*
X48474600Y14794863D02*
G01*
X48580860Y14773727D01*
X48781047Y14690807D01*
X48961209Y14570426D01*
X49114426Y14417209D01*
X49234807Y14237047D01*
X49317727Y14036860D01*
X49360000Y13824339D01*
X49360000Y13607661D01*
X49317727Y13395140D01*
X49234807Y13194953D01*
X49114426Y13014791D01*
X48961209Y12861574D01*
X48781047Y12741193D01*
X48580860Y12658273D01*
X48474599Y12637136D01*
X48368341Y12616000D01*
X48151659Y12616000D01*
X48045401Y12637136D01*
X47939140Y12658273D01*
X47738953Y12741193D01*
X47558791Y12861574D01*
X47405574Y13014791D01*
X47285193Y13194953D01*
X47202273Y13395140D01*
X47160000Y13607661D01*
X47160000Y13824339D01*
X47202273Y14036860D01*
X47285193Y14237047D01*
X47405574Y14417209D01*
X47558791Y14570426D01*
X47738953Y14690807D01*
X47939140Y14773727D01*
X48045400Y14794863D01*
X48151659Y14816000D01*
X48368341Y14816000D01*
X48474600Y14794863D01*
G37*
G36*
X43394600Y14794863D02*
G01*
X43500860Y14773727D01*
X43701047Y14690807D01*
X43881209Y14570426D01*
X44034426Y14417209D01*
X44154807Y14237047D01*
X44237727Y14036860D01*
X44280000Y13824339D01*
X44280000Y13607661D01*
X44237727Y13395140D01*
X44154807Y13194953D01*
X44034426Y13014791D01*
X43881209Y12861574D01*
X43701047Y12741193D01*
X43500860Y12658273D01*
X43394599Y12637136D01*
X43288341Y12616000D01*
X43071659Y12616000D01*
X42965401Y12637136D01*
X42859140Y12658273D01*
X42658953Y12741193D01*
X42478791Y12861574D01*
X42325574Y13014791D01*
X42205193Y13194953D01*
X42122273Y13395140D01*
X42080000Y13607661D01*
X42080000Y13824339D01*
X42122273Y14036860D01*
X42205193Y14237047D01*
X42325574Y14417209D01*
X42478791Y14570426D01*
X42658953Y14690807D01*
X42859140Y14773727D01*
X42965400Y14794863D01*
X43071659Y14816000D01*
X43288341Y14816000D01*
X43394600Y14794863D01*
G37*
G36*
X40854600Y14794863D02*
G01*
X40960860Y14773727D01*
X41161047Y14690807D01*
X41341209Y14570426D01*
X41494426Y14417209D01*
X41614807Y14237047D01*
X41697727Y14036860D01*
X41740000Y13824339D01*
X41740000Y13607661D01*
X41697727Y13395140D01*
X41614807Y13194953D01*
X41494426Y13014791D01*
X41341209Y12861574D01*
X41161047Y12741193D01*
X40960860Y12658273D01*
X40854599Y12637136D01*
X40748341Y12616000D01*
X40531659Y12616000D01*
X40425401Y12637136D01*
X40319140Y12658273D01*
X40118953Y12741193D01*
X39938791Y12861574D01*
X39785574Y13014791D01*
X39665193Y13194953D01*
X39582273Y13395140D01*
X39540000Y13607661D01*
X39540000Y13824339D01*
X39582273Y14036860D01*
X39665193Y14237047D01*
X39785574Y14417209D01*
X39938791Y14570426D01*
X40118953Y14690807D01*
X40319140Y14773727D01*
X40425400Y14794863D01*
X40531659Y14816000D01*
X40748341Y14816000D01*
X40854600Y14794863D01*
G37*
G36*
X38314600Y14794863D02*
G01*
X38420860Y14773727D01*
X38621047Y14690807D01*
X38801209Y14570426D01*
X38954426Y14417209D01*
X39074807Y14237047D01*
X39157727Y14036860D01*
X39200000Y13824339D01*
X39200000Y13607661D01*
X39157727Y13395140D01*
X39074807Y13194953D01*
X38954426Y13014791D01*
X38801209Y12861574D01*
X38621047Y12741193D01*
X38420860Y12658273D01*
X38314599Y12637136D01*
X38208341Y12616000D01*
X37991659Y12616000D01*
X37885401Y12637136D01*
X37779140Y12658273D01*
X37578953Y12741193D01*
X37398791Y12861574D01*
X37245574Y13014791D01*
X37125193Y13194953D01*
X37042273Y13395140D01*
X37000000Y13607661D01*
X37000000Y13824339D01*
X37042273Y14036860D01*
X37125193Y14237047D01*
X37245574Y14417209D01*
X37398791Y14570426D01*
X37578953Y14690807D01*
X37779140Y14773727D01*
X37885400Y14794863D01*
X37991659Y14816000D01*
X38208341Y14816000D01*
X38314600Y14794863D01*
G37*
G36*
X71334600Y14794863D02*
G01*
X71440860Y14773727D01*
X71641047Y14690807D01*
X71821209Y14570426D01*
X71974426Y14417209D01*
X72094807Y14237047D01*
X72177727Y14036860D01*
X72220000Y13824339D01*
X72220000Y13607661D01*
X72177727Y13395140D01*
X72094807Y13194953D01*
X71974426Y13014791D01*
X71821209Y12861574D01*
X71641047Y12741193D01*
X71440860Y12658273D01*
X71334599Y12637136D01*
X71228341Y12616000D01*
X71011659Y12616000D01*
X70905401Y12637136D01*
X70799140Y12658273D01*
X70598953Y12741193D01*
X70418791Y12861574D01*
X70265574Y13014791D01*
X70145193Y13194953D01*
X70062273Y13395140D01*
X70020000Y13607661D01*
X70020000Y13824339D01*
X70062273Y14036860D01*
X70145193Y14237047D01*
X70265574Y14417209D01*
X70418791Y14570426D01*
X70598953Y14690807D01*
X70799140Y14773727D01*
X70905400Y14794863D01*
X71011659Y14816000D01*
X71228341Y14816000D01*
X71334600Y14794863D01*
G37*
G36*
X66254600Y14794863D02*
G01*
X66360860Y14773727D01*
X66561047Y14690807D01*
X66741209Y14570426D01*
X66894426Y14417209D01*
X67014807Y14237047D01*
X67097727Y14036860D01*
X67140000Y13824339D01*
X67140000Y13607661D01*
X67097727Y13395140D01*
X67014807Y13194953D01*
X66894426Y13014791D01*
X66741209Y12861574D01*
X66561047Y12741193D01*
X66360860Y12658273D01*
X66254599Y12637136D01*
X66148341Y12616000D01*
X65931659Y12616000D01*
X65825401Y12637136D01*
X65719140Y12658273D01*
X65518953Y12741193D01*
X65338791Y12861574D01*
X65185574Y13014791D01*
X65065193Y13194953D01*
X64982273Y13395140D01*
X64940000Y13607661D01*
X64940000Y13824339D01*
X64982273Y14036860D01*
X65065193Y14237047D01*
X65185574Y14417209D01*
X65338791Y14570426D01*
X65518953Y14690807D01*
X65719140Y14773727D01*
X65825400Y14794863D01*
X65931659Y14816000D01*
X66148341Y14816000D01*
X66254600Y14794863D01*
G37*
G36*
X63714600Y14794863D02*
G01*
X63820860Y14773727D01*
X64021047Y14690807D01*
X64201209Y14570426D01*
X64354426Y14417209D01*
X64474807Y14237047D01*
X64557727Y14036860D01*
X64600000Y13824339D01*
X64600000Y13607661D01*
X64557727Y13395140D01*
X64474807Y13194953D01*
X64354426Y13014791D01*
X64201209Y12861574D01*
X64021047Y12741193D01*
X63820860Y12658273D01*
X63714599Y12637136D01*
X63608341Y12616000D01*
X63391659Y12616000D01*
X63285401Y12637136D01*
X63179140Y12658273D01*
X62978953Y12741193D01*
X62798791Y12861574D01*
X62645574Y13014791D01*
X62525193Y13194953D01*
X62442273Y13395140D01*
X62400000Y13607661D01*
X62400000Y13824339D01*
X62442273Y14036860D01*
X62525193Y14237047D01*
X62645574Y14417209D01*
X62798791Y14570426D01*
X62978953Y14690807D01*
X63179140Y14773727D01*
X63285400Y14794863D01*
X63391659Y14816000D01*
X63608341Y14816000D01*
X63714600Y14794863D01*
G37*
G36*
X51014599Y22414864D02*
G01*
X51120860Y22393727D01*
X51321047Y22310807D01*
X51501209Y22190426D01*
X51654426Y22037209D01*
X51774807Y21857047D01*
X51857727Y21656860D01*
X51900000Y21444339D01*
X51900000Y21227661D01*
X51857727Y21015140D01*
X51774807Y20814953D01*
X51654426Y20634791D01*
X51501209Y20481574D01*
X51321047Y20361193D01*
X51120860Y20278273D01*
X51014599Y20257136D01*
X50908341Y20236000D01*
X50691659Y20236000D01*
X50585401Y20257136D01*
X50479140Y20278273D01*
X50278953Y20361193D01*
X50098791Y20481574D01*
X49945574Y20634791D01*
X49825193Y20814953D01*
X49742273Y21015140D01*
X49700000Y21227661D01*
X49700000Y21444339D01*
X49742273Y21656860D01*
X49825193Y21857047D01*
X49945574Y22037209D01*
X50098791Y22190426D01*
X50278953Y22310807D01*
X50479140Y22393727D01*
X50585401Y22414864D01*
X50691659Y22436000D01*
X50908341Y22436000D01*
X51014599Y22414864D01*
G37*
G36*
X72220000Y20236000D02*
G01*
X70020000Y20236000D01*
X70020000Y22436000D01*
X72220000Y22436000D01*
X72220000Y20236000D01*
G37*
G36*
X68794599Y22414864D02*
G01*
X68900860Y22393727D01*
X69101047Y22310807D01*
X69281209Y22190426D01*
X69434426Y22037209D01*
X69554807Y21857047D01*
X69637727Y21656860D01*
X69680000Y21444339D01*
X69680000Y21227661D01*
X69637727Y21015140D01*
X69554807Y20814953D01*
X69434426Y20634791D01*
X69281209Y20481574D01*
X69101047Y20361193D01*
X68900860Y20278273D01*
X68794599Y20257136D01*
X68688341Y20236000D01*
X68471659Y20236000D01*
X68365401Y20257136D01*
X68259140Y20278273D01*
X68058953Y20361193D01*
X67878791Y20481574D01*
X67725574Y20634791D01*
X67605193Y20814953D01*
X67522273Y21015140D01*
X67480000Y21227661D01*
X67480000Y21444339D01*
X67522273Y21656860D01*
X67605193Y21857047D01*
X67725574Y22037209D01*
X67878791Y22190426D01*
X68058953Y22310807D01*
X68259140Y22393727D01*
X68365401Y22414864D01*
X68471659Y22436000D01*
X68688341Y22436000D01*
X68794599Y22414864D01*
G37*
G36*
X66254599Y22414864D02*
G01*
X66360860Y22393727D01*
X66561047Y22310807D01*
X66741209Y22190426D01*
X66894426Y22037209D01*
X67014807Y21857047D01*
X67097727Y21656860D01*
X67140000Y21444339D01*
X67140000Y21227661D01*
X67097727Y21015140D01*
X67014807Y20814953D01*
X66894426Y20634791D01*
X66741209Y20481574D01*
X66561047Y20361193D01*
X66360860Y20278273D01*
X66254599Y20257136D01*
X66148341Y20236000D01*
X65931659Y20236000D01*
X65825401Y20257136D01*
X65719140Y20278273D01*
X65518953Y20361193D01*
X65338791Y20481574D01*
X65185574Y20634791D01*
X65065193Y20814953D01*
X64982273Y21015140D01*
X64940000Y21227661D01*
X64940000Y21444339D01*
X64982273Y21656860D01*
X65065193Y21857047D01*
X65185574Y22037209D01*
X65338791Y22190426D01*
X65518953Y22310807D01*
X65719140Y22393727D01*
X65825401Y22414864D01*
X65931659Y22436000D01*
X66148341Y22436000D01*
X66254599Y22414864D01*
G37*
G36*
X63714599Y22414864D02*
G01*
X63820860Y22393727D01*
X64021047Y22310807D01*
X64201209Y22190426D01*
X64354426Y22037209D01*
X64474807Y21857047D01*
X64557727Y21656860D01*
X64600000Y21444339D01*
X64600000Y21227661D01*
X64557727Y21015140D01*
X64474807Y20814953D01*
X64354426Y20634791D01*
X64201209Y20481574D01*
X64021047Y20361193D01*
X63820860Y20278273D01*
X63714599Y20257136D01*
X63608341Y20236000D01*
X63391659Y20236000D01*
X63285401Y20257136D01*
X63179140Y20278273D01*
X62978953Y20361193D01*
X62798791Y20481574D01*
X62645574Y20634791D01*
X62525193Y20814953D01*
X62442273Y21015140D01*
X62400000Y21227661D01*
X62400000Y21444339D01*
X62442273Y21656860D01*
X62525193Y21857047D01*
X62645574Y22037209D01*
X62798791Y22190426D01*
X62978953Y22310807D01*
X63179140Y22393727D01*
X63285401Y22414864D01*
X63391659Y22436000D01*
X63608341Y22436000D01*
X63714599Y22414864D01*
G37*
G36*
X38314599Y22414864D02*
G01*
X38420860Y22393727D01*
X38621047Y22310807D01*
X38801209Y22190426D01*
X38954426Y22037209D01*
X39074807Y21857047D01*
X39157727Y21656860D01*
X39200000Y21444339D01*
X39200000Y21227661D01*
X39157727Y21015140D01*
X39074807Y20814953D01*
X38954426Y20634791D01*
X38801209Y20481574D01*
X38621047Y20361193D01*
X38420860Y20278273D01*
X38314599Y20257136D01*
X38208341Y20236000D01*
X37991659Y20236000D01*
X37885401Y20257136D01*
X37779140Y20278273D01*
X37578953Y20361193D01*
X37398791Y20481574D01*
X37245574Y20634791D01*
X37125193Y20814953D01*
X37042273Y21015140D01*
X37000000Y21227661D01*
X37000000Y21444339D01*
X37042273Y21656860D01*
X37125193Y21857047D01*
X37245574Y22037209D01*
X37398791Y22190426D01*
X37578953Y22310807D01*
X37779140Y22393727D01*
X37885401Y22414864D01*
X37991659Y22436000D01*
X38208341Y22436000D01*
X38314599Y22414864D01*
G37*
G36*
X43394599Y22414864D02*
G01*
X43500860Y22393727D01*
X43701047Y22310807D01*
X43881209Y22190426D01*
X44034426Y22037209D01*
X44154807Y21857047D01*
X44237727Y21656860D01*
X44280000Y21444339D01*
X44280000Y21227661D01*
X44237727Y21015140D01*
X44154807Y20814953D01*
X44034426Y20634791D01*
X43881209Y20481574D01*
X43701047Y20361193D01*
X43500860Y20278273D01*
X43394599Y20257136D01*
X43288341Y20236000D01*
X43071659Y20236000D01*
X42965401Y20257136D01*
X42859140Y20278273D01*
X42658953Y20361193D01*
X42478791Y20481574D01*
X42325574Y20634791D01*
X42205193Y20814953D01*
X42122273Y21015140D01*
X42080000Y21227661D01*
X42080000Y21444339D01*
X42122273Y21656860D01*
X42205193Y21857047D01*
X42325574Y22037209D01*
X42478791Y22190426D01*
X42658953Y22310807D01*
X42859140Y22393727D01*
X42965401Y22414864D01*
X43071659Y22436000D01*
X43288341Y22436000D01*
X43394599Y22414864D01*
G37*
G36*
X45934599Y22414864D02*
G01*
X46040860Y22393727D01*
X46241047Y22310807D01*
X46421209Y22190426D01*
X46574426Y22037209D01*
X46694807Y21857047D01*
X46777727Y21656860D01*
X46820000Y21444339D01*
X46820000Y21227661D01*
X46777727Y21015140D01*
X46694807Y20814953D01*
X46574426Y20634791D01*
X46421209Y20481574D01*
X46241047Y20361193D01*
X46040860Y20278273D01*
X45934599Y20257136D01*
X45828341Y20236000D01*
X45611659Y20236000D01*
X45505401Y20257136D01*
X45399140Y20278273D01*
X45198953Y20361193D01*
X45018791Y20481574D01*
X44865574Y20634791D01*
X44745193Y20814953D01*
X44662273Y21015140D01*
X44620000Y21227661D01*
X44620000Y21444339D01*
X44662273Y21656860D01*
X44745193Y21857047D01*
X44865574Y22037209D01*
X45018791Y22190426D01*
X45198953Y22310807D01*
X45399140Y22393727D01*
X45505401Y22414864D01*
X45611659Y22436000D01*
X45828341Y22436000D01*
X45934599Y22414864D01*
G37*
G36*
X48474599Y22414864D02*
G01*
X48580860Y22393727D01*
X48781047Y22310807D01*
X48961209Y22190426D01*
X49114426Y22037209D01*
X49234807Y21857047D01*
X49317727Y21656860D01*
X49360000Y21444339D01*
X49360000Y21227661D01*
X49317727Y21015140D01*
X49234807Y20814953D01*
X49114426Y20634791D01*
X48961209Y20481574D01*
X48781047Y20361193D01*
X48580860Y20278273D01*
X48474599Y20257136D01*
X48368341Y20236000D01*
X48151659Y20236000D01*
X48045401Y20257136D01*
X47939140Y20278273D01*
X47738953Y20361193D01*
X47558791Y20481574D01*
X47405574Y20634791D01*
X47285193Y20814953D01*
X47202273Y21015140D01*
X47160000Y21227661D01*
X47160000Y21444339D01*
X47202273Y21656860D01*
X47285193Y21857047D01*
X47405574Y22037209D01*
X47558791Y22190426D01*
X47738953Y22310807D01*
X47939140Y22393727D01*
X48045401Y22414864D01*
X48151659Y22436000D01*
X48368341Y22436000D01*
X48474599Y22414864D01*
G37*
G36*
X40854599Y22414864D02*
G01*
X40960860Y22393727D01*
X41161047Y22310807D01*
X41341209Y22190426D01*
X41494426Y22037209D01*
X41614807Y21857047D01*
X41697727Y21656860D01*
X41740000Y21444339D01*
X41740000Y21227661D01*
X41697727Y21015140D01*
X41614807Y20814953D01*
X41494426Y20634791D01*
X41341209Y20481574D01*
X41161047Y20361193D01*
X40960860Y20278273D01*
X40854599Y20257136D01*
X40748341Y20236000D01*
X40531659Y20236000D01*
X40425401Y20257136D01*
X40319140Y20278273D01*
X40118953Y20361193D01*
X39938791Y20481574D01*
X39785574Y20634791D01*
X39665193Y20814953D01*
X39582273Y21015140D01*
X39540000Y21227661D01*
X39540000Y21444339D01*
X39582273Y21656860D01*
X39665193Y21857047D01*
X39785574Y22037209D01*
X39938791Y22190426D01*
X40118953Y22310807D01*
X40319140Y22393727D01*
X40425401Y22414864D01*
X40531659Y22436000D01*
X40748341Y22436000D01*
X40854599Y22414864D01*
G37*
G36*
X56094599Y22414864D02*
G01*
X56200860Y22393727D01*
X56401047Y22310807D01*
X56581209Y22190426D01*
X56734426Y22037209D01*
X56854807Y21857047D01*
X56937727Y21656860D01*
X56980000Y21444339D01*
X56980000Y21227661D01*
X56937727Y21015140D01*
X56854807Y20814953D01*
X56734426Y20634791D01*
X56581209Y20481574D01*
X56401047Y20361193D01*
X56200860Y20278273D01*
X56094599Y20257136D01*
X55988341Y20236000D01*
X55771659Y20236000D01*
X55665401Y20257136D01*
X55559140Y20278273D01*
X55358953Y20361193D01*
X55178791Y20481574D01*
X55025574Y20634791D01*
X54905193Y20814953D01*
X54822273Y21015140D01*
X54780000Y21227661D01*
X54780000Y21444339D01*
X54822273Y21656860D01*
X54905193Y21857047D01*
X55025574Y22037209D01*
X55178791Y22190426D01*
X55358953Y22310807D01*
X55559140Y22393727D01*
X55665401Y22414864D01*
X55771659Y22436000D01*
X55988341Y22436000D01*
X56094599Y22414864D01*
G37*
G36*
X58634599Y22414864D02*
G01*
X58740860Y22393727D01*
X58941047Y22310807D01*
X59121209Y22190426D01*
X59274426Y22037209D01*
X59394807Y21857047D01*
X59477727Y21656860D01*
X59520000Y21444339D01*
X59520000Y21227661D01*
X59477727Y21015140D01*
X59394807Y20814953D01*
X59274426Y20634791D01*
X59121209Y20481574D01*
X58941047Y20361193D01*
X58740860Y20278273D01*
X58634599Y20257136D01*
X58528341Y20236000D01*
X58311659Y20236000D01*
X58205401Y20257136D01*
X58099140Y20278273D01*
X57898953Y20361193D01*
X57718791Y20481574D01*
X57565574Y20634791D01*
X57445193Y20814953D01*
X57362273Y21015140D01*
X57320000Y21227661D01*
X57320000Y21444339D01*
X57362273Y21656860D01*
X57445193Y21857047D01*
X57565574Y22037209D01*
X57718791Y22190426D01*
X57898953Y22310807D01*
X58099140Y22393727D01*
X58205401Y22414864D01*
X58311659Y22436000D01*
X58528341Y22436000D01*
X58634599Y22414864D01*
G37*
G36*
X61174599Y22414864D02*
G01*
X61280860Y22393727D01*
X61481047Y22310807D01*
X61661209Y22190426D01*
X61814426Y22037209D01*
X61934807Y21857047D01*
X62017727Y21656860D01*
X62060000Y21444339D01*
X62060000Y21227661D01*
X62017727Y21015140D01*
X61934807Y20814953D01*
X61814426Y20634791D01*
X61661209Y20481574D01*
X61481047Y20361193D01*
X61280860Y20278273D01*
X61174599Y20257136D01*
X61068341Y20236000D01*
X60851659Y20236000D01*
X60745401Y20257136D01*
X60639140Y20278273D01*
X60438953Y20361193D01*
X60258791Y20481574D01*
X60105574Y20634791D01*
X59985193Y20814953D01*
X59902273Y21015140D01*
X59860000Y21227661D01*
X59860000Y21444339D01*
X59902273Y21656860D01*
X59985193Y21857047D01*
X60105574Y22037209D01*
X60258791Y22190426D01*
X60438953Y22310807D01*
X60639140Y22393727D01*
X60745401Y22414864D01*
X60851659Y22436000D01*
X61068341Y22436000D01*
X61174599Y22414864D01*
G37*
G36*
X53554599Y22414864D02*
G01*
X53660860Y22393727D01*
X53861047Y22310807D01*
X54041209Y22190426D01*
X54194426Y22037209D01*
X54314807Y21857047D01*
X54397727Y21656860D01*
X54440000Y21444339D01*
X54440000Y21227661D01*
X54397727Y21015140D01*
X54314807Y20814953D01*
X54194426Y20634791D01*
X54041209Y20481574D01*
X53861047Y20361193D01*
X53660860Y20278273D01*
X53554599Y20257136D01*
X53448341Y20236000D01*
X53231659Y20236000D01*
X53125401Y20257136D01*
X53019140Y20278273D01*
X52818953Y20361193D01*
X52638791Y20481574D01*
X52485574Y20634791D01*
X52365193Y20814953D01*
X52282273Y21015140D01*
X52240000Y21227661D01*
X52240000Y21444339D01*
X52282273Y21656860D01*
X52365193Y21857047D01*
X52485574Y22037209D01*
X52638791Y22190426D01*
X52818953Y22310807D01*
X53019140Y22393727D01*
X53125401Y22414864D01*
X53231659Y22436000D01*
X53448341Y22436000D01*
X53554599Y22414864D01*
G37*
G36*
X58623952Y35993666D02*
G01*
X58909674Y35875316D01*
X59166817Y35703499D01*
X59385499Y35484817D01*
X59557316Y35227674D01*
X59675666Y34941952D01*
X59736000Y34638632D01*
X59736000Y34329368D01*
X59675666Y34026048D01*
X59557316Y33740326D01*
X59385499Y33483183D01*
X59166817Y33264501D01*
X58909674Y33092684D01*
X58623952Y32974334D01*
X58320632Y32914000D01*
X58011368Y32914000D01*
X57708048Y32974334D01*
X57422326Y33092684D01*
X57165183Y33264501D01*
X56946501Y33483183D01*
X56774684Y33740326D01*
X56656334Y34026048D01*
X56596000Y34329368D01*
X56596000Y34638632D01*
X56656334Y34941952D01*
X56774684Y35227674D01*
X56946501Y35484817D01*
X57165183Y35703499D01*
X57422326Y35875316D01*
X57708048Y35993666D01*
X58011368Y36054000D01*
X58320632Y36054000D01*
X58623952Y35993666D01*
G37*
G36*
X71323952Y35993666D02*
G01*
X71609674Y35875316D01*
X71866817Y35703499D01*
X72085499Y35484817D01*
X72257316Y35227674D01*
X72375666Y34941952D01*
X72436000Y34638632D01*
X72436000Y34329368D01*
X72375666Y34026048D01*
X72257316Y33740326D01*
X72085499Y33483183D01*
X71866817Y33264501D01*
X71609674Y33092684D01*
X71323952Y32974334D01*
X71020632Y32914000D01*
X70711368Y32914000D01*
X70408048Y32974334D01*
X70122326Y33092684D01*
X69865183Y33264501D01*
X69646501Y33483183D01*
X69474684Y33740326D01*
X69356334Y34026048D01*
X69296000Y34329368D01*
X69296000Y34638632D01*
X69356334Y34941952D01*
X69474684Y35227674D01*
X69646501Y35484817D01*
X69865183Y35703499D01*
X70122326Y35875316D01*
X70408048Y35993666D01*
X70711368Y36054000D01*
X71020632Y36054000D01*
X71323952Y35993666D01*
G37*
G36*
X45923952Y35993666D02*
G01*
X46209674Y35875316D01*
X46466817Y35703499D01*
X46685499Y35484817D01*
X46857316Y35227674D01*
X46975666Y34941952D01*
X47036000Y34638632D01*
X47036000Y34329368D01*
X46975666Y34026048D01*
X46857316Y33740326D01*
X46685499Y33483183D01*
X46466817Y33264501D01*
X46209674Y33092684D01*
X45923952Y32974334D01*
X45620632Y32914000D01*
X45311368Y32914000D01*
X45008048Y32974334D01*
X44722326Y33092684D01*
X44465183Y33264501D01*
X44246501Y33483183D01*
X44074684Y33740326D01*
X43956334Y34026048D01*
X43896000Y34329368D01*
X43896000Y34638632D01*
X43956334Y34941952D01*
X44074684Y35227674D01*
X44246501Y35484817D01*
X44465183Y35703499D01*
X44722326Y35875316D01*
X45008048Y35993666D01*
X45311368Y36054000D01*
X45620632Y36054000D01*
X45923952Y35993666D01*
G37*
G36*
X20523952Y35993666D02*
G01*
X20809674Y35875316D01*
X21066817Y35703499D01*
X21285499Y35484817D01*
X21457316Y35227674D01*
X21575666Y34941952D01*
X21636000Y34638632D01*
X21636000Y34329368D01*
X21575666Y34026048D01*
X21457316Y33740326D01*
X21285499Y33483183D01*
X21066817Y33264501D01*
X20809674Y33092684D01*
X20523952Y32974334D01*
X20220632Y32914000D01*
X19911368Y32914000D01*
X19608048Y32974334D01*
X19322326Y33092684D01*
X19065183Y33264501D01*
X18846501Y33483183D01*
X18674684Y33740326D01*
X18556334Y34026048D01*
X18496000Y34329368D01*
X18496000Y34638632D01*
X18556334Y34941952D01*
X18674684Y35227674D01*
X18846501Y35484817D01*
X19065183Y35703499D01*
X19322326Y35875316D01*
X19608048Y35993666D01*
X19911368Y36054000D01*
X20220632Y36054000D01*
X20523952Y35993666D01*
G37*
G36*
X33223952Y35993666D02*
G01*
X33509674Y35875316D01*
X33766817Y35703499D01*
X33985499Y35484817D01*
X34157316Y35227674D01*
X34275666Y34941952D01*
X34336000Y34638632D01*
X34336000Y34329368D01*
X34275666Y34026048D01*
X34157316Y33740326D01*
X33985499Y33483183D01*
X33766817Y33264501D01*
X33509674Y33092684D01*
X33223952Y32974334D01*
X32920632Y32914000D01*
X32611368Y32914000D01*
X32308048Y32974334D01*
X32022326Y33092684D01*
X31765183Y33264501D01*
X31546501Y33483183D01*
X31374684Y33740326D01*
X31256334Y34026048D01*
X31196000Y34329368D01*
X31196000Y34638632D01*
X31256334Y34941952D01*
X31374684Y35227674D01*
X31546501Y35484817D01*
X31765183Y35703499D01*
X32022326Y35875316D01*
X32308048Y35993666D01*
X32611368Y36054000D01*
X32920632Y36054000D01*
X33223952Y35993666D01*
G37*
G36*
X84023952Y35993666D02*
G01*
X84309674Y35875316D01*
X84566817Y35703499D01*
X84785499Y35484817D01*
X84957316Y35227674D01*
X85075666Y34941952D01*
X85136000Y34638632D01*
X85136000Y34329368D01*
X85075666Y34026048D01*
X84957316Y33740326D01*
X84785499Y33483183D01*
X84566817Y33264501D01*
X84309674Y33092684D01*
X84023952Y32974334D01*
X83720632Y32914000D01*
X83411368Y32914000D01*
X83108048Y32974334D01*
X82822326Y33092684D01*
X82565183Y33264501D01*
X82346501Y33483183D01*
X82174684Y33740326D01*
X82056334Y34026048D01*
X81996000Y34329368D01*
X81996000Y34638632D01*
X82056334Y34941952D01*
X82174684Y35227674D01*
X82346501Y35484817D01*
X82565183Y35703499D01*
X82822326Y35875316D01*
X83108048Y35993666D01*
X83411368Y36054000D01*
X83720632Y36054000D01*
X84023952Y35993666D01*
G37*
G36*
X92716000Y32934000D02*
G01*
X89616000Y32934000D01*
X89616000Y36034000D01*
X92716000Y36034000D01*
X92716000Y32934000D01*
G37*
G36*
X29216000Y32934000D02*
G01*
X26116000Y32934000D01*
X26116000Y36034000D01*
X29216000Y36034000D01*
X29216000Y32934000D01*
G37*
G36*
X80016000Y32934000D02*
G01*
X76916000Y32934000D01*
X76916000Y36034000D01*
X80016000Y36034000D01*
X80016000Y32934000D01*
G37*
G36*
X67316000Y32934000D02*
G01*
X64216000Y32934000D01*
X64216000Y36034000D01*
X67316000Y36034000D01*
X67316000Y32934000D01*
G37*
G36*
X54616000Y32934000D02*
G01*
X51516000Y32934000D01*
X51516000Y36034000D01*
X54616000Y36034000D01*
X54616000Y32934000D01*
G37*
G36*
X41916000Y32934000D02*
G01*
X38816000Y32934000D01*
X38816000Y36034000D01*
X41916000Y36034000D01*
X41916000Y32934000D01*
G37*
G36*
X7843952Y36033666D02*
G01*
X8129674Y35915316D01*
X8386817Y35743499D01*
X8605499Y35524817D01*
X8777316Y35267674D01*
X8895666Y34981952D01*
X8956000Y34678632D01*
X8956000Y34369368D01*
X8895666Y34066048D01*
X8777316Y33780326D01*
X8605499Y33523183D01*
X8386817Y33304501D01*
X8129674Y33132684D01*
X7843952Y33014334D01*
X7540632Y32954000D01*
X7231368Y32954000D01*
X6928048Y33014334D01*
X6642326Y33132684D01*
X6385183Y33304501D01*
X6166501Y33523183D01*
X5994684Y33780326D01*
X5876334Y34066048D01*
X5816000Y34369368D01*
X5816000Y34678632D01*
X5876334Y34981952D01*
X5994684Y35267674D01*
X6166501Y35524817D01*
X6385183Y35743499D01*
X6642326Y35915316D01*
X6928048Y36033666D01*
X7231368Y36094000D01*
X7540632Y36094000D01*
X7843952Y36033666D01*
G37*
G36*
X97251952Y36053666D02*
G01*
X97537674Y35935316D01*
X97794817Y35763499D01*
X98013499Y35544817D01*
X98185316Y35287674D01*
X98303666Y35001952D01*
X98364000Y34698632D01*
X98364000Y34389368D01*
X98303666Y34086048D01*
X98185316Y33800326D01*
X98013499Y33543183D01*
X97794817Y33324501D01*
X97537674Y33152684D01*
X97251952Y33034334D01*
X96948632Y32974000D01*
X96639368Y32974000D01*
X96336048Y33034334D01*
X96050326Y33152684D01*
X95793183Y33324501D01*
X95574501Y33543183D01*
X95402684Y33800326D01*
X95284334Y34086048D01*
X95224000Y34389368D01*
X95224000Y34698632D01*
X95284334Y35001952D01*
X95402684Y35287674D01*
X95574501Y35544817D01*
X95793183Y35763499D01*
X96050326Y35935316D01*
X96336048Y36053666D01*
X96639368Y36114000D01*
X96948632Y36114000D01*
X97251952Y36053666D01*
G37*
G36*
X16536000Y32974000D02*
G01*
X13436000Y32974000D01*
X13436000Y36074000D01*
X16536000Y36074000D01*
X16536000Y32974000D01*
G37*
G36*
X105944000Y32994000D02*
G01*
X102844000Y32994000D01*
X102844000Y36094000D01*
X105944000Y36094000D01*
X105944000Y32994000D01*
G37*
G36*
X53518118Y46174435D02*
G01*
X53518121Y46174434D01*
X53518120Y46174434D01*
X53800199Y46057593D01*
X53800200Y46057592D01*
X54054068Y45887964D01*
X54269964Y45672068D01*
X54383049Y45502823D01*
X54439593Y45418199D01*
X54529965Y45200021D01*
X54556435Y45136118D01*
X54616000Y44836662D01*
X54616000Y44531338D01*
X54556435Y44231882D01*
X54556434Y44231880D01*
X54439593Y43949801D01*
X54439592Y43949800D01*
X54269964Y43695932D01*
X54054068Y43480036D01*
X53889997Y43370408D01*
X53800199Y43310407D01*
X53662970Y43253565D01*
X53518118Y43193565D01*
X53218662Y43134000D01*
X52913338Y43134000D01*
X52613882Y43193565D01*
X52469030Y43253565D01*
X52331801Y43310407D01*
X52242003Y43370408D01*
X52077932Y43480036D01*
X51862036Y43695932D01*
X51692408Y43949800D01*
X51692407Y43949801D01*
X51575566Y44231880D01*
X51575565Y44231882D01*
X51516000Y44531338D01*
X51516000Y44836662D01*
X51575565Y45136118D01*
X51602035Y45200021D01*
X51692407Y45418199D01*
X51748951Y45502823D01*
X51862036Y45672068D01*
X52077932Y45887964D01*
X52331800Y46057592D01*
X52331801Y46057593D01*
X52613880Y46174434D01*
X52613879Y46174434D01*
X52613882Y46174435D01*
X52913338Y46234000D01*
X53218662Y46234000D01*
X53518118Y46174435D01*
G37*
G36*
X40818118Y46174435D02*
G01*
X40818121Y46174434D01*
X40818120Y46174434D01*
X41100199Y46057593D01*
X41100200Y46057592D01*
X41354068Y45887964D01*
X41569964Y45672068D01*
X41683049Y45502823D01*
X41739593Y45418199D01*
X41829965Y45200021D01*
X41856435Y45136118D01*
X41916000Y44836662D01*
X41916000Y44531338D01*
X41856435Y44231882D01*
X41856434Y44231880D01*
X41739593Y43949801D01*
X41739592Y43949800D01*
X41569964Y43695932D01*
X41354068Y43480036D01*
X41189997Y43370408D01*
X41100199Y43310407D01*
X40962970Y43253565D01*
X40818118Y43193565D01*
X40518662Y43134000D01*
X40213338Y43134000D01*
X39913882Y43193565D01*
X39769030Y43253565D01*
X39631801Y43310407D01*
X39542003Y43370408D01*
X39377932Y43480036D01*
X39162036Y43695932D01*
X38992408Y43949800D01*
X38992407Y43949801D01*
X38875566Y44231880D01*
X38875565Y44231882D01*
X38816000Y44531338D01*
X38816000Y44836662D01*
X38875565Y45136118D01*
X38902035Y45200021D01*
X38992407Y45418199D01*
X39048951Y45502823D01*
X39162036Y45672068D01*
X39377932Y45887964D01*
X39631800Y46057592D01*
X39631801Y46057593D01*
X39913880Y46174434D01*
X39913879Y46174434D01*
X39913882Y46174435D01*
X40213338Y46234000D01*
X40518662Y46234000D01*
X40818118Y46174435D01*
G37*
G36*
X78918118Y46174435D02*
G01*
X78918121Y46174434D01*
X78918120Y46174434D01*
X79200199Y46057593D01*
X79200200Y46057592D01*
X79454068Y45887964D01*
X79669964Y45672068D01*
X79783049Y45502823D01*
X79839593Y45418199D01*
X79929965Y45200021D01*
X79956435Y45136118D01*
X80016000Y44836662D01*
X80016000Y44531338D01*
X79956435Y44231882D01*
X79956434Y44231880D01*
X79839593Y43949801D01*
X79839592Y43949800D01*
X79669964Y43695932D01*
X79454068Y43480036D01*
X79289997Y43370408D01*
X79200199Y43310407D01*
X79062970Y43253565D01*
X78918118Y43193565D01*
X78618662Y43134000D01*
X78313338Y43134000D01*
X78013882Y43193565D01*
X77869030Y43253565D01*
X77731801Y43310407D01*
X77642003Y43370408D01*
X77477932Y43480036D01*
X77262036Y43695932D01*
X77092408Y43949800D01*
X77092407Y43949801D01*
X76975566Y44231880D01*
X76975565Y44231882D01*
X76916000Y44531338D01*
X76916000Y44836662D01*
X76975565Y45136118D01*
X77002035Y45200021D01*
X77092407Y45418199D01*
X77148951Y45502823D01*
X77262036Y45672068D01*
X77477932Y45887964D01*
X77731800Y46057592D01*
X77731801Y46057593D01*
X78013880Y46174434D01*
X78013879Y46174434D01*
X78013882Y46174435D01*
X78313338Y46234000D01*
X78618662Y46234000D01*
X78918118Y46174435D01*
G37*
G36*
X91618118Y46174435D02*
G01*
X91618121Y46174434D01*
X91618120Y46174434D01*
X91900199Y46057593D01*
X91900200Y46057592D01*
X92154068Y45887964D01*
X92369964Y45672068D01*
X92483049Y45502823D01*
X92539593Y45418199D01*
X92629965Y45200021D01*
X92656435Y45136118D01*
X92716000Y44836662D01*
X92716000Y44531338D01*
X92656435Y44231882D01*
X92656434Y44231880D01*
X92539593Y43949801D01*
X92539592Y43949800D01*
X92369964Y43695932D01*
X92154068Y43480036D01*
X91989997Y43370408D01*
X91900199Y43310407D01*
X91762970Y43253565D01*
X91618118Y43193565D01*
X91318662Y43134000D01*
X91013338Y43134000D01*
X90713882Y43193565D01*
X90569030Y43253565D01*
X90431801Y43310407D01*
X90342003Y43370408D01*
X90177932Y43480036D01*
X89962036Y43695932D01*
X89792408Y43949800D01*
X89792407Y43949801D01*
X89675566Y44231880D01*
X89675565Y44231882D01*
X89616000Y44531338D01*
X89616000Y44836662D01*
X89675565Y45136118D01*
X89702035Y45200021D01*
X89792407Y45418199D01*
X89848951Y45502823D01*
X89962036Y45672068D01*
X90177932Y45887964D01*
X90431800Y46057592D01*
X90431801Y46057593D01*
X90713880Y46174434D01*
X90713879Y46174434D01*
X90713882Y46174435D01*
X91013338Y46234000D01*
X91318662Y46234000D01*
X91618118Y46174435D01*
G37*
G36*
X66218118Y46174435D02*
G01*
X66218121Y46174434D01*
X66218120Y46174434D01*
X66500199Y46057593D01*
X66500200Y46057592D01*
X66754068Y45887964D01*
X66969964Y45672068D01*
X67083049Y45502823D01*
X67139593Y45418199D01*
X67229965Y45200021D01*
X67256435Y45136118D01*
X67316000Y44836662D01*
X67316000Y44531338D01*
X67256435Y44231882D01*
X67256434Y44231880D01*
X67139593Y43949801D01*
X67139592Y43949800D01*
X66969964Y43695932D01*
X66754068Y43480036D01*
X66589997Y43370408D01*
X66500199Y43310407D01*
X66362970Y43253565D01*
X66218118Y43193565D01*
X65918662Y43134000D01*
X65613338Y43134000D01*
X65313882Y43193565D01*
X65169030Y43253565D01*
X65031801Y43310407D01*
X64942003Y43370408D01*
X64777932Y43480036D01*
X64562036Y43695932D01*
X64392408Y43949800D01*
X64392407Y43949801D01*
X64275566Y44231880D01*
X64275565Y44231882D01*
X64216000Y44531338D01*
X64216000Y44836662D01*
X64275565Y45136118D01*
X64302035Y45200021D01*
X64392407Y45418199D01*
X64448951Y45502823D01*
X64562036Y45672068D01*
X64777932Y45887964D01*
X65031800Y46057592D01*
X65031801Y46057593D01*
X65313880Y46174434D01*
X65313879Y46174434D01*
X65313882Y46174435D01*
X65613338Y46234000D01*
X65918662Y46234000D01*
X66218118Y46174435D01*
G37*
G36*
X28118118Y46174435D02*
G01*
X28118121Y46174434D01*
X28118120Y46174434D01*
X28400199Y46057593D01*
X28400200Y46057592D01*
X28654068Y45887964D01*
X28869964Y45672068D01*
X28983049Y45502823D01*
X29039593Y45418199D01*
X29129965Y45200021D01*
X29156435Y45136118D01*
X29216000Y44836662D01*
X29216000Y44531338D01*
X29156435Y44231882D01*
X29156434Y44231880D01*
X29039593Y43949801D01*
X29039592Y43949800D01*
X28869964Y43695932D01*
X28654068Y43480036D01*
X28489997Y43370408D01*
X28400199Y43310407D01*
X28262970Y43253565D01*
X28118118Y43193565D01*
X27818662Y43134000D01*
X27513338Y43134000D01*
X27213882Y43193565D01*
X27069030Y43253565D01*
X26931801Y43310407D01*
X26842003Y43370408D01*
X26677932Y43480036D01*
X26462036Y43695932D01*
X26292408Y43949800D01*
X26292407Y43949801D01*
X26175566Y44231880D01*
X26175565Y44231882D01*
X26116000Y44531338D01*
X26116000Y44836662D01*
X26175565Y45136118D01*
X26202035Y45200021D01*
X26292407Y45418199D01*
X26348951Y45502823D01*
X26462036Y45672068D01*
X26677932Y45887964D01*
X26931800Y46057592D01*
X26931801Y46057593D01*
X27213880Y46174434D01*
X27213879Y46174434D01*
X27213882Y46174435D01*
X27513338Y46234000D01*
X27818662Y46234000D01*
X28118118Y46174435D01*
G37*
G36*
X15438118Y46214435D02*
G01*
X15438121Y46214434D01*
X15438120Y46214434D01*
X15720199Y46097593D01*
X15720200Y46097592D01*
X15974068Y45927964D01*
X16189964Y45712068D01*
X16303049Y45542823D01*
X16359593Y45458199D01*
X16449965Y45240021D01*
X16476435Y45176118D01*
X16536000Y44876662D01*
X16536000Y44571338D01*
X16476435Y44271882D01*
X16449965Y44207979D01*
X16359593Y43989801D01*
X16359592Y43989800D01*
X16189964Y43735932D01*
X15974068Y43520036D01*
X15914206Y43480038D01*
X15720199Y43350407D01*
X15502021Y43260035D01*
X15438118Y43233565D01*
X15138662Y43174000D01*
X14833338Y43174000D01*
X14533882Y43233565D01*
X14469979Y43260035D01*
X14251801Y43350407D01*
X14057794Y43480038D01*
X13997932Y43520036D01*
X13782036Y43735932D01*
X13612408Y43989800D01*
X13612407Y43989801D01*
X13522035Y44207979D01*
X13495565Y44271882D01*
X13436000Y44571338D01*
X13436000Y44876662D01*
X13495565Y45176118D01*
X13522035Y45240021D01*
X13612407Y45458199D01*
X13668951Y45542823D01*
X13782036Y45712068D01*
X13997932Y45927964D01*
X14251800Y46097592D01*
X14251801Y46097593D01*
X14533880Y46214434D01*
X14533879Y46214434D01*
X14533882Y46214435D01*
X14833338Y46274000D01*
X15138662Y46274000D01*
X15438118Y46214435D01*
G37*
G36*
X104846118Y46234435D02*
G01*
X104846121Y46234434D01*
X104846120Y46234434D01*
X105128199Y46117593D01*
X105212823Y46061049D01*
X105382068Y45947964D01*
X105597964Y45732068D01*
X105611326Y45712070D01*
X105767593Y45478199D01*
X105857965Y45260021D01*
X105884435Y45196118D01*
X105944000Y44896662D01*
X105944000Y44591338D01*
X105884435Y44291882D01*
X105884434Y44291880D01*
X105767593Y44009801D01*
X105767592Y44009800D01*
X105597964Y43755932D01*
X105382068Y43540036D01*
X105292274Y43480038D01*
X105128199Y43370407D01*
X104983346Y43310407D01*
X104846118Y43253565D01*
X104546662Y43194000D01*
X104241338Y43194000D01*
X103941882Y43253565D01*
X103804654Y43310407D01*
X103659801Y43370407D01*
X103495726Y43480038D01*
X103405932Y43540036D01*
X103190036Y43755932D01*
X103020408Y44009800D01*
X103020407Y44009801D01*
X102903566Y44291880D01*
X102903565Y44291882D01*
X102844000Y44591338D01*
X102844000Y44896662D01*
X102903565Y45196118D01*
X102930035Y45260021D01*
X103020407Y45478199D01*
X103176674Y45712070D01*
X103190036Y45732068D01*
X103405932Y45947964D01*
X103575177Y46061049D01*
X103659801Y46117593D01*
X103941880Y46234434D01*
X103941879Y46234434D01*
X103941882Y46234435D01*
X104241338Y46294000D01*
X104546662Y46294000D01*
X104846118Y46234435D01*
G37*
G36*
X84018118Y51274435D02*
G01*
X84018121Y51274434D01*
X84018120Y51274434D01*
X84300199Y51157593D01*
X84300200Y51157592D01*
X84554068Y50987964D01*
X84769964Y50772068D01*
X84795400Y50734000D01*
X84939593Y50518199D01*
X85029965Y50300021D01*
X85056435Y50236118D01*
X85116000Y49936662D01*
X85116000Y49631338D01*
X85056435Y49331882D01*
X85056434Y49331880D01*
X84939593Y49049801D01*
X84939592Y49049800D01*
X84769964Y48795932D01*
X84554068Y48580036D01*
X84389997Y48470408D01*
X84300199Y48410407D01*
X84162970Y48353565D01*
X84018118Y48293565D01*
X83718662Y48234000D01*
X83413338Y48234000D01*
X83113882Y48293565D01*
X82969030Y48353565D01*
X82831801Y48410407D01*
X82742003Y48470408D01*
X82577932Y48580036D01*
X82362036Y48795932D01*
X82192408Y49049800D01*
X82192407Y49049801D01*
X82075566Y49331880D01*
X82075565Y49331882D01*
X82016000Y49631338D01*
X82016000Y49936662D01*
X82075565Y50236118D01*
X82102035Y50300021D01*
X82192407Y50518199D01*
X82336600Y50734000D01*
X82362036Y50772068D01*
X82577932Y50987964D01*
X82831800Y51157592D01*
X82831801Y51157593D01*
X83113880Y51274434D01*
X83113879Y51274434D01*
X83113882Y51274435D01*
X83413338Y51334000D01*
X83718662Y51334000D01*
X84018118Y51274435D01*
G37*
G36*
X33218118Y51274435D02*
G01*
X33218121Y51274434D01*
X33218120Y51274434D01*
X33500199Y51157593D01*
X33500200Y51157592D01*
X33754068Y50987964D01*
X33969964Y50772068D01*
X33995400Y50734000D01*
X34139593Y50518199D01*
X34229965Y50300021D01*
X34256435Y50236118D01*
X34316000Y49936662D01*
X34316000Y49631338D01*
X34256435Y49331882D01*
X34256434Y49331880D01*
X34139593Y49049801D01*
X34139592Y49049800D01*
X33969964Y48795932D01*
X33754068Y48580036D01*
X33589997Y48470408D01*
X33500199Y48410407D01*
X33362970Y48353565D01*
X33218118Y48293565D01*
X32918662Y48234000D01*
X32613338Y48234000D01*
X32313882Y48293565D01*
X32169030Y48353565D01*
X32031801Y48410407D01*
X31942003Y48470408D01*
X31777932Y48580036D01*
X31562036Y48795932D01*
X31392408Y49049800D01*
X31392407Y49049801D01*
X31275566Y49331880D01*
X31275565Y49331882D01*
X31216000Y49631338D01*
X31216000Y49936662D01*
X31275565Y50236118D01*
X31302035Y50300021D01*
X31392407Y50518199D01*
X31536600Y50734000D01*
X31562036Y50772068D01*
X31777932Y50987964D01*
X32031800Y51157592D01*
X32031801Y51157593D01*
X32313880Y51274434D01*
X32313879Y51274434D01*
X32313882Y51274435D01*
X32613338Y51334000D01*
X32918662Y51334000D01*
X33218118Y51274435D01*
G37*
G36*
X20518118Y51274435D02*
G01*
X20518121Y51274434D01*
X20518120Y51274434D01*
X20800199Y51157593D01*
X20800200Y51157592D01*
X21054068Y50987964D01*
X21269964Y50772068D01*
X21295400Y50734000D01*
X21439593Y50518199D01*
X21529965Y50300021D01*
X21556435Y50236118D01*
X21616000Y49936662D01*
X21616000Y49631338D01*
X21556435Y49331882D01*
X21556434Y49331880D01*
X21439593Y49049801D01*
X21439592Y49049800D01*
X21269964Y48795932D01*
X21054068Y48580036D01*
X20889997Y48470408D01*
X20800199Y48410407D01*
X20662970Y48353565D01*
X20518118Y48293565D01*
X20218662Y48234000D01*
X19913338Y48234000D01*
X19613882Y48293565D01*
X19469030Y48353565D01*
X19331801Y48410407D01*
X19242003Y48470408D01*
X19077932Y48580036D01*
X18862036Y48795932D01*
X18692408Y49049800D01*
X18692407Y49049801D01*
X18575566Y49331880D01*
X18575565Y49331882D01*
X18516000Y49631338D01*
X18516000Y49936662D01*
X18575565Y50236118D01*
X18602035Y50300021D01*
X18692407Y50518199D01*
X18836600Y50734000D01*
X18862036Y50772068D01*
X19077932Y50987964D01*
X19331800Y51157592D01*
X19331801Y51157593D01*
X19613880Y51274434D01*
X19613879Y51274434D01*
X19613882Y51274435D01*
X19913338Y51334000D01*
X20218662Y51334000D01*
X20518118Y51274435D01*
G37*
G36*
X45918118Y51274435D02*
G01*
X45918121Y51274434D01*
X45918120Y51274434D01*
X46200199Y51157593D01*
X46200200Y51157592D01*
X46454068Y50987964D01*
X46669964Y50772068D01*
X46695400Y50734000D01*
X46839593Y50518199D01*
X46929965Y50300021D01*
X46956435Y50236118D01*
X47016000Y49936662D01*
X47016000Y49631338D01*
X46956435Y49331882D01*
X46956434Y49331880D01*
X46839593Y49049801D01*
X46839592Y49049800D01*
X46669964Y48795932D01*
X46454068Y48580036D01*
X46289997Y48470408D01*
X46200199Y48410407D01*
X46062970Y48353565D01*
X45918118Y48293565D01*
X45618662Y48234000D01*
X45313338Y48234000D01*
X45013882Y48293565D01*
X44869030Y48353565D01*
X44731801Y48410407D01*
X44642003Y48470408D01*
X44477932Y48580036D01*
X44262036Y48795932D01*
X44092408Y49049800D01*
X44092407Y49049801D01*
X43975566Y49331880D01*
X43975565Y49331882D01*
X43916000Y49631338D01*
X43916000Y49936662D01*
X43975565Y50236118D01*
X44002035Y50300021D01*
X44092407Y50518199D01*
X44236600Y50734000D01*
X44262036Y50772068D01*
X44477932Y50987964D01*
X44731800Y51157592D01*
X44731801Y51157593D01*
X45013880Y51274434D01*
X45013879Y51274434D01*
X45013882Y51274435D01*
X45313338Y51334000D01*
X45618662Y51334000D01*
X45918118Y51274435D01*
G37*
G36*
X58618118Y51274435D02*
G01*
X58618121Y51274434D01*
X58618120Y51274434D01*
X58900199Y51157593D01*
X58900200Y51157592D01*
X59154068Y50987964D01*
X59369964Y50772068D01*
X59395400Y50734000D01*
X59539593Y50518199D01*
X59629965Y50300021D01*
X59656435Y50236118D01*
X59716000Y49936662D01*
X59716000Y49631338D01*
X59656435Y49331882D01*
X59656434Y49331880D01*
X59539593Y49049801D01*
X59539592Y49049800D01*
X59369964Y48795932D01*
X59154068Y48580036D01*
X58989997Y48470408D01*
X58900199Y48410407D01*
X58762970Y48353565D01*
X58618118Y48293565D01*
X58318662Y48234000D01*
X58013338Y48234000D01*
X57713882Y48293565D01*
X57569030Y48353565D01*
X57431801Y48410407D01*
X57342003Y48470408D01*
X57177932Y48580036D01*
X56962036Y48795932D01*
X56792408Y49049800D01*
X56792407Y49049801D01*
X56675566Y49331880D01*
X56675565Y49331882D01*
X56616000Y49631338D01*
X56616000Y49936662D01*
X56675565Y50236118D01*
X56702035Y50300021D01*
X56792407Y50518199D01*
X56936600Y50734000D01*
X56962036Y50772068D01*
X57177932Y50987964D01*
X57431800Y51157592D01*
X57431801Y51157593D01*
X57713880Y51274434D01*
X57713879Y51274434D01*
X57713882Y51274435D01*
X58013338Y51334000D01*
X58318662Y51334000D01*
X58618118Y51274435D01*
G37*
G36*
X71318118Y51274435D02*
G01*
X71318121Y51274434D01*
X71318120Y51274434D01*
X71600199Y51157593D01*
X71600200Y51157592D01*
X71854068Y50987964D01*
X72069964Y50772068D01*
X72095400Y50734000D01*
X72239593Y50518199D01*
X72329965Y50300021D01*
X72356435Y50236118D01*
X72416000Y49936662D01*
X72416000Y49631338D01*
X72356435Y49331882D01*
X72356434Y49331880D01*
X72239593Y49049801D01*
X72239592Y49049800D01*
X72069964Y48795932D01*
X71854068Y48580036D01*
X71689997Y48470408D01*
X71600199Y48410407D01*
X71462970Y48353565D01*
X71318118Y48293565D01*
X71018662Y48234000D01*
X70713338Y48234000D01*
X70413882Y48293565D01*
X70269030Y48353565D01*
X70131801Y48410407D01*
X70042003Y48470408D01*
X69877932Y48580036D01*
X69662036Y48795932D01*
X69492408Y49049800D01*
X69492407Y49049801D01*
X69375566Y49331880D01*
X69375565Y49331882D01*
X69316000Y49631338D01*
X69316000Y49936662D01*
X69375565Y50236118D01*
X69402035Y50300021D01*
X69492407Y50518199D01*
X69636600Y50734000D01*
X69662036Y50772068D01*
X69877932Y50987964D01*
X70131800Y51157592D01*
X70131801Y51157593D01*
X70413880Y51274434D01*
X70413879Y51274434D01*
X70413882Y51274435D01*
X70713338Y51334000D01*
X71018662Y51334000D01*
X71318118Y51274435D01*
G37*
G36*
X7838118Y51314435D02*
G01*
X7838121Y51314434D01*
X7838120Y51314434D01*
X8120199Y51197593D01*
X8120200Y51197592D01*
X8374068Y51027964D01*
X8589964Y50812068D01*
X8642127Y50734000D01*
X8759593Y50558199D01*
X8849965Y50340021D01*
X8876435Y50276118D01*
X8936000Y49976662D01*
X8936000Y49671338D01*
X8876435Y49371882D01*
X8849965Y49307979D01*
X8759593Y49089801D01*
X8759592Y49089800D01*
X8589964Y48835932D01*
X8374068Y48620036D01*
X8314206Y48580038D01*
X8120199Y48450407D01*
X7902021Y48360035D01*
X7838118Y48333565D01*
X7538662Y48274000D01*
X7233338Y48274000D01*
X6933882Y48333565D01*
X6869979Y48360035D01*
X6651801Y48450407D01*
X6457794Y48580038D01*
X6397932Y48620036D01*
X6182036Y48835932D01*
X6012408Y49089800D01*
X6012407Y49089801D01*
X5922035Y49307979D01*
X5895565Y49371882D01*
X5836000Y49671338D01*
X5836000Y49976662D01*
X5895565Y50276118D01*
X5922035Y50340021D01*
X6012407Y50558199D01*
X6129873Y50734000D01*
X6182036Y50812068D01*
X6397932Y51027964D01*
X6651800Y51197592D01*
X6651801Y51197593D01*
X6933880Y51314434D01*
X6933879Y51314434D01*
X6933882Y51314435D01*
X7233338Y51374000D01*
X7538662Y51374000D01*
X7838118Y51314435D01*
G37*
G36*
X97246118Y51334435D02*
G01*
X97246121Y51334434D01*
X97246120Y51334434D01*
X97528199Y51217593D01*
X97612823Y51161049D01*
X97782068Y51047964D01*
X97997964Y50832068D01*
X98038053Y50772070D01*
X98167593Y50578199D01*
X98257965Y50360021D01*
X98284435Y50296118D01*
X98344000Y49996662D01*
X98344000Y49691338D01*
X98284435Y49391882D01*
X98284434Y49391880D01*
X98167593Y49109801D01*
X98167592Y49109800D01*
X97997964Y48855932D01*
X97782068Y48640036D01*
X97692274Y48580038D01*
X97528199Y48470407D01*
X97383346Y48410407D01*
X97246118Y48353565D01*
X96946662Y48294000D01*
X96641338Y48294000D01*
X96341882Y48353565D01*
X96204654Y48410407D01*
X96059801Y48470407D01*
X95895726Y48580038D01*
X95805932Y48640036D01*
X95590036Y48855932D01*
X95420408Y49109800D01*
X95420407Y49109801D01*
X95303566Y49391880D01*
X95303565Y49391882D01*
X95244000Y49691338D01*
X95244000Y49996662D01*
X95303565Y50296118D01*
X95330035Y50360021D01*
X95420407Y50578199D01*
X95549947Y50772070D01*
X95590036Y50832068D01*
X95805932Y51047964D01*
X95975177Y51161049D01*
X96059801Y51217593D01*
X96341880Y51334434D01*
X96341879Y51334434D01*
X96341882Y51334435D01*
X96641338Y51394000D01*
X96946662Y51394000D01*
X97246118Y51334435D01*
G37*
G36*
X40818118Y53774435D02*
G01*
X40818121Y53774434D01*
X40818120Y53774434D01*
X41100199Y53657593D01*
X41100200Y53657592D01*
X41354068Y53487964D01*
X41569964Y53272068D01*
X41683049Y53102823D01*
X41739593Y53018199D01*
X41829965Y52800021D01*
X41856435Y52736118D01*
X41916000Y52436662D01*
X41916000Y52131338D01*
X41856435Y51831882D01*
X41856434Y51831880D01*
X41739593Y51549801D01*
X41739592Y51549800D01*
X41569964Y51295932D01*
X41354068Y51080036D01*
X41189997Y50970408D01*
X41100199Y50910407D01*
X40962970Y50853565D01*
X40818118Y50793565D01*
X40518662Y50734000D01*
X40213338Y50734000D01*
X39913882Y50793565D01*
X39769030Y50853565D01*
X39631801Y50910407D01*
X39542003Y50970408D01*
X39377932Y51080036D01*
X39162036Y51295932D01*
X38992408Y51549800D01*
X38992407Y51549801D01*
X38875566Y51831880D01*
X38875565Y51831882D01*
X38816000Y52131338D01*
X38816000Y52436662D01*
X38875565Y52736118D01*
X38902035Y52800021D01*
X38992407Y53018199D01*
X39048951Y53102823D01*
X39162036Y53272068D01*
X39377932Y53487964D01*
X39631800Y53657592D01*
X39631801Y53657593D01*
X39913880Y53774434D01*
X39913879Y53774434D01*
X39913882Y53774435D01*
X40213338Y53834000D01*
X40518662Y53834000D01*
X40818118Y53774435D01*
G37*
G36*
X53518118Y53774435D02*
G01*
X53518121Y53774434D01*
X53518120Y53774434D01*
X53800199Y53657593D01*
X53800200Y53657592D01*
X54054068Y53487964D01*
X54269964Y53272068D01*
X54383049Y53102823D01*
X54439593Y53018199D01*
X54529965Y52800021D01*
X54556435Y52736118D01*
X54616000Y52436662D01*
X54616000Y52131338D01*
X54556435Y51831882D01*
X54556434Y51831880D01*
X54439593Y51549801D01*
X54439592Y51549800D01*
X54269964Y51295932D01*
X54054068Y51080036D01*
X53889997Y50970408D01*
X53800199Y50910407D01*
X53662970Y50853565D01*
X53518118Y50793565D01*
X53218662Y50734000D01*
X52913338Y50734000D01*
X52613882Y50793565D01*
X52469030Y50853565D01*
X52331801Y50910407D01*
X52242003Y50970408D01*
X52077932Y51080036D01*
X51862036Y51295932D01*
X51692408Y51549800D01*
X51692407Y51549801D01*
X51575566Y51831880D01*
X51575565Y51831882D01*
X51516000Y52131338D01*
X51516000Y52436662D01*
X51575565Y52736118D01*
X51602035Y52800021D01*
X51692407Y53018199D01*
X51748951Y53102823D01*
X51862036Y53272068D01*
X52077932Y53487964D01*
X52331800Y53657592D01*
X52331801Y53657593D01*
X52613880Y53774434D01*
X52613879Y53774434D01*
X52613882Y53774435D01*
X52913338Y53834000D01*
X53218662Y53834000D01*
X53518118Y53774435D01*
G37*
G36*
X91618118Y53774435D02*
G01*
X91618121Y53774434D01*
X91618120Y53774434D01*
X91900199Y53657593D01*
X91900200Y53657592D01*
X92154068Y53487964D01*
X92369964Y53272068D01*
X92483049Y53102823D01*
X92539593Y53018199D01*
X92629965Y52800021D01*
X92656435Y52736118D01*
X92716000Y52436662D01*
X92716000Y52131338D01*
X92656435Y51831882D01*
X92656434Y51831880D01*
X92539593Y51549801D01*
X92539592Y51549800D01*
X92369964Y51295932D01*
X92154068Y51080036D01*
X91989997Y50970408D01*
X91900199Y50910407D01*
X91762970Y50853565D01*
X91618118Y50793565D01*
X91318662Y50734000D01*
X91013338Y50734000D01*
X90713882Y50793565D01*
X90569030Y50853565D01*
X90431801Y50910407D01*
X90342003Y50970408D01*
X90177932Y51080036D01*
X89962036Y51295932D01*
X89792408Y51549800D01*
X89792407Y51549801D01*
X89675566Y51831880D01*
X89675565Y51831882D01*
X89616000Y52131338D01*
X89616000Y52436662D01*
X89675565Y52736118D01*
X89702035Y52800021D01*
X89792407Y53018199D01*
X89848951Y53102823D01*
X89962036Y53272068D01*
X90177932Y53487964D01*
X90431800Y53657592D01*
X90431801Y53657593D01*
X90713880Y53774434D01*
X90713879Y53774434D01*
X90713882Y53774435D01*
X91013338Y53834000D01*
X91318662Y53834000D01*
X91618118Y53774435D01*
G37*
G36*
X28118118Y53774435D02*
G01*
X28118121Y53774434D01*
X28118120Y53774434D01*
X28400199Y53657593D01*
X28400200Y53657592D01*
X28654068Y53487964D01*
X28869964Y53272068D01*
X28983049Y53102823D01*
X29039593Y53018199D01*
X29129965Y52800021D01*
X29156435Y52736118D01*
X29216000Y52436662D01*
X29216000Y52131338D01*
X29156435Y51831882D01*
X29156434Y51831880D01*
X29039593Y51549801D01*
X29039592Y51549800D01*
X28869964Y51295932D01*
X28654068Y51080036D01*
X28489997Y50970408D01*
X28400199Y50910407D01*
X28262970Y50853565D01*
X28118118Y50793565D01*
X27818662Y50734000D01*
X27513338Y50734000D01*
X27213882Y50793565D01*
X27069030Y50853565D01*
X26931801Y50910407D01*
X26842003Y50970408D01*
X26677932Y51080036D01*
X26462036Y51295932D01*
X26292408Y51549800D01*
X26292407Y51549801D01*
X26175566Y51831880D01*
X26175565Y51831882D01*
X26116000Y52131338D01*
X26116000Y52436662D01*
X26175565Y52736118D01*
X26202035Y52800021D01*
X26292407Y53018199D01*
X26348951Y53102823D01*
X26462036Y53272068D01*
X26677932Y53487964D01*
X26931800Y53657592D01*
X26931801Y53657593D01*
X27213880Y53774434D01*
X27213879Y53774434D01*
X27213882Y53774435D01*
X27513338Y53834000D01*
X27818662Y53834000D01*
X28118118Y53774435D01*
G37*
G36*
X66218118Y53774435D02*
G01*
X66218121Y53774434D01*
X66218120Y53774434D01*
X66500199Y53657593D01*
X66500200Y53657592D01*
X66754068Y53487964D01*
X66969964Y53272068D01*
X67083049Y53102823D01*
X67139593Y53018199D01*
X67229965Y52800021D01*
X67256435Y52736118D01*
X67316000Y52436662D01*
X67316000Y52131338D01*
X67256435Y51831882D01*
X67256434Y51831880D01*
X67139593Y51549801D01*
X67139592Y51549800D01*
X66969964Y51295932D01*
X66754068Y51080036D01*
X66589997Y50970408D01*
X66500199Y50910407D01*
X66362970Y50853565D01*
X66218118Y50793565D01*
X65918662Y50734000D01*
X65613338Y50734000D01*
X65313882Y50793565D01*
X65169030Y50853565D01*
X65031801Y50910407D01*
X64942003Y50970408D01*
X64777932Y51080036D01*
X64562036Y51295932D01*
X64392408Y51549800D01*
X64392407Y51549801D01*
X64275566Y51831880D01*
X64275565Y51831882D01*
X64216000Y52131338D01*
X64216000Y52436662D01*
X64275565Y52736118D01*
X64302035Y52800021D01*
X64392407Y53018199D01*
X64448951Y53102823D01*
X64562036Y53272068D01*
X64777932Y53487964D01*
X65031800Y53657592D01*
X65031801Y53657593D01*
X65313880Y53774434D01*
X65313879Y53774434D01*
X65313882Y53774435D01*
X65613338Y53834000D01*
X65918662Y53834000D01*
X66218118Y53774435D01*
G37*
G36*
X78918118Y53774435D02*
G01*
X78918121Y53774434D01*
X78918120Y53774434D01*
X79200199Y53657593D01*
X79200200Y53657592D01*
X79454068Y53487964D01*
X79669964Y53272068D01*
X79783049Y53102823D01*
X79839593Y53018199D01*
X79929965Y52800021D01*
X79956435Y52736118D01*
X80016000Y52436662D01*
X80016000Y52131338D01*
X79956435Y51831882D01*
X79956434Y51831880D01*
X79839593Y51549801D01*
X79839592Y51549800D01*
X79669964Y51295932D01*
X79454068Y51080036D01*
X79289997Y50970408D01*
X79200199Y50910407D01*
X79062970Y50853565D01*
X78918118Y50793565D01*
X78618662Y50734000D01*
X78313338Y50734000D01*
X78013882Y50793565D01*
X77869030Y50853565D01*
X77731801Y50910407D01*
X77642003Y50970408D01*
X77477932Y51080036D01*
X77262036Y51295932D01*
X77092408Y51549800D01*
X77092407Y51549801D01*
X76975566Y51831880D01*
X76975565Y51831882D01*
X76916000Y52131338D01*
X76916000Y52436662D01*
X76975565Y52736118D01*
X77002035Y52800021D01*
X77092407Y53018199D01*
X77148951Y53102823D01*
X77262036Y53272068D01*
X77477932Y53487964D01*
X77731800Y53657592D01*
X77731801Y53657593D01*
X78013880Y53774434D01*
X78013879Y53774434D01*
X78013882Y53774435D01*
X78313338Y53834000D01*
X78618662Y53834000D01*
X78918118Y53774435D01*
G37*
G36*
X15438118Y53814435D02*
G01*
X15438121Y53814434D01*
X15438120Y53814434D01*
X15720199Y53697593D01*
X15720200Y53697592D01*
X15974068Y53527964D01*
X16189964Y53312068D01*
X16303049Y53142823D01*
X16359593Y53058199D01*
X16449965Y52840021D01*
X16476435Y52776118D01*
X16536000Y52476662D01*
X16536000Y52171338D01*
X16476435Y51871882D01*
X16449965Y51807979D01*
X16359593Y51589801D01*
X16359592Y51589800D01*
X16189964Y51335932D01*
X15974068Y51120036D01*
X15804823Y51006951D01*
X15720199Y50950407D01*
X15502021Y50860035D01*
X15438118Y50833565D01*
X15138662Y50774000D01*
X14833338Y50774000D01*
X14533882Y50833565D01*
X14469979Y50860035D01*
X14251801Y50950407D01*
X14167177Y51006951D01*
X13997932Y51120036D01*
X13782036Y51335932D01*
X13612408Y51589800D01*
X13612407Y51589801D01*
X13522035Y51807979D01*
X13495565Y51871882D01*
X13436000Y52171338D01*
X13436000Y52476662D01*
X13495565Y52776118D01*
X13522035Y52840021D01*
X13612407Y53058199D01*
X13668951Y53142823D01*
X13782036Y53312068D01*
X13997932Y53527964D01*
X14251800Y53697592D01*
X14251801Y53697593D01*
X14533880Y53814434D01*
X14533879Y53814434D01*
X14533882Y53814435D01*
X14833338Y53874000D01*
X15138662Y53874000D01*
X15438118Y53814435D01*
G37*
G36*
X104846118Y53834435D02*
G01*
X104846121Y53834434D01*
X104846120Y53834434D01*
X105128199Y53717593D01*
X105212823Y53661049D01*
X105382068Y53547964D01*
X105597964Y53332068D01*
X105611326Y53312070D01*
X105767593Y53078199D01*
X105857965Y52860021D01*
X105884435Y52796118D01*
X105944000Y52496662D01*
X105944000Y52191338D01*
X105884435Y51891882D01*
X105884434Y51891880D01*
X105767593Y51609801D01*
X105767592Y51609800D01*
X105597964Y51355932D01*
X105382068Y51140036D01*
X105214339Y51027964D01*
X105128199Y50970407D01*
X104983346Y50910407D01*
X104846118Y50853565D01*
X104546662Y50794000D01*
X104241338Y50794000D01*
X103941882Y50853565D01*
X103804654Y50910407D01*
X103659801Y50970407D01*
X103573661Y51027964D01*
X103405932Y51140036D01*
X103190036Y51355932D01*
X103020408Y51609800D01*
X103020407Y51609801D01*
X102903566Y51891880D01*
X102903565Y51891882D01*
X102844000Y52191338D01*
X102844000Y52496662D01*
X102903565Y52796118D01*
X102930035Y52860021D01*
X103020407Y53078199D01*
X103176674Y53312070D01*
X103190036Y53332068D01*
X103405932Y53547964D01*
X103575177Y53661049D01*
X103659801Y53717593D01*
X103941880Y53834434D01*
X103941879Y53834434D01*
X103941882Y53834435D01*
X104241338Y53894000D01*
X104546662Y53894000D01*
X104846118Y53834435D01*
G37*
G36*
X7823952Y61393666D02*
G01*
X8109674Y61275316D01*
X8366817Y61103499D01*
X8585499Y60884817D01*
X8757316Y60627674D01*
X8875666Y60341952D01*
X8936000Y60038632D01*
X8936000Y59729368D01*
X8875666Y59426048D01*
X8757316Y59140326D01*
X8585499Y58883183D01*
X8366817Y58664501D01*
X8109674Y58492684D01*
X7823952Y58374334D01*
X7520632Y58314000D01*
X7211368Y58314000D01*
X6908048Y58374334D01*
X6622326Y58492684D01*
X6365183Y58664501D01*
X6146501Y58883183D01*
X5974684Y59140326D01*
X5856334Y59426048D01*
X5796000Y59729368D01*
X5796000Y60038632D01*
X5856334Y60341952D01*
X5974684Y60627674D01*
X6146501Y60884817D01*
X6365183Y61103499D01*
X6622326Y61275316D01*
X6908048Y61393666D01*
X7211368Y61454000D01*
X7520632Y61454000D01*
X7823952Y61393666D01*
G37*
G36*
X20523952Y61393666D02*
G01*
X20809674Y61275316D01*
X21066817Y61103499D01*
X21285499Y60884817D01*
X21457316Y60627674D01*
X21575666Y60341952D01*
X21636000Y60038632D01*
X21636000Y59729368D01*
X21575666Y59426048D01*
X21457316Y59140326D01*
X21285499Y58883183D01*
X21066817Y58664501D01*
X20809674Y58492684D01*
X20523952Y58374334D01*
X20220632Y58314000D01*
X19911368Y58314000D01*
X19608048Y58374334D01*
X19322326Y58492684D01*
X19065183Y58664501D01*
X18846501Y58883183D01*
X18674684Y59140326D01*
X18556334Y59426048D01*
X18496000Y59729368D01*
X18496000Y60038632D01*
X18556334Y60341952D01*
X18674684Y60627674D01*
X18846501Y60884817D01*
X19065183Y61103499D01*
X19322326Y61275316D01*
X19608048Y61393666D01*
X19911368Y61454000D01*
X20220632Y61454000D01*
X20523952Y61393666D01*
G37*
G36*
X33223952Y61393666D02*
G01*
X33509674Y61275316D01*
X33766817Y61103499D01*
X33985499Y60884817D01*
X34157316Y60627674D01*
X34275666Y60341952D01*
X34336000Y60038632D01*
X34336000Y59729368D01*
X34275666Y59426048D01*
X34157316Y59140326D01*
X33985499Y58883183D01*
X33766817Y58664501D01*
X33509674Y58492684D01*
X33223952Y58374334D01*
X32920632Y58314000D01*
X32611368Y58314000D01*
X32308048Y58374334D01*
X32022326Y58492684D01*
X31765183Y58664501D01*
X31546501Y58883183D01*
X31374684Y59140326D01*
X31256334Y59426048D01*
X31196000Y59729368D01*
X31196000Y60038632D01*
X31256334Y60341952D01*
X31374684Y60627674D01*
X31546501Y60884817D01*
X31765183Y61103499D01*
X32022326Y61275316D01*
X32308048Y61393666D01*
X32611368Y61454000D01*
X32920632Y61454000D01*
X33223952Y61393666D01*
G37*
G36*
X58623952Y61393666D02*
G01*
X58909674Y61275316D01*
X59166817Y61103499D01*
X59385499Y60884817D01*
X59557316Y60627674D01*
X59675666Y60341952D01*
X59736000Y60038632D01*
X59736000Y59729368D01*
X59675666Y59426048D01*
X59557316Y59140326D01*
X59385499Y58883183D01*
X59166817Y58664501D01*
X58909674Y58492684D01*
X58623952Y58374334D01*
X58320632Y58314000D01*
X58011368Y58314000D01*
X57708048Y58374334D01*
X57422326Y58492684D01*
X57165183Y58664501D01*
X56946501Y58883183D01*
X56774684Y59140326D01*
X56656334Y59426048D01*
X56596000Y59729368D01*
X56596000Y60038632D01*
X56656334Y60341952D01*
X56774684Y60627674D01*
X56946501Y60884817D01*
X57165183Y61103499D01*
X57422326Y61275316D01*
X57708048Y61393666D01*
X58011368Y61454000D01*
X58320632Y61454000D01*
X58623952Y61393666D01*
G37*
G36*
X84023952Y61393666D02*
G01*
X84309674Y61275316D01*
X84566817Y61103499D01*
X84785499Y60884817D01*
X84957316Y60627674D01*
X85075666Y60341952D01*
X85136000Y60038632D01*
X85136000Y59729368D01*
X85075666Y59426048D01*
X84957316Y59140326D01*
X84785499Y58883183D01*
X84566817Y58664501D01*
X84309674Y58492684D01*
X84023952Y58374334D01*
X83720632Y58314000D01*
X83411368Y58314000D01*
X83108048Y58374334D01*
X82822326Y58492684D01*
X82565183Y58664501D01*
X82346501Y58883183D01*
X82174684Y59140326D01*
X82056334Y59426048D01*
X81996000Y59729368D01*
X81996000Y60038632D01*
X82056334Y60341952D01*
X82174684Y60627674D01*
X82346501Y60884817D01*
X82565183Y61103499D01*
X82822326Y61275316D01*
X83108048Y61393666D01*
X83411368Y61454000D01*
X83720632Y61454000D01*
X84023952Y61393666D01*
G37*
G36*
X71323952Y61393666D02*
G01*
X71609674Y61275316D01*
X71866817Y61103499D01*
X72085499Y60884817D01*
X72257316Y60627674D01*
X72375666Y60341952D01*
X72436000Y60038632D01*
X72436000Y59729368D01*
X72375666Y59426048D01*
X72257316Y59140326D01*
X72085499Y58883183D01*
X71866817Y58664501D01*
X71609674Y58492684D01*
X71323952Y58374334D01*
X71020632Y58314000D01*
X70711368Y58314000D01*
X70408048Y58374334D01*
X70122326Y58492684D01*
X69865183Y58664501D01*
X69646501Y58883183D01*
X69474684Y59140326D01*
X69356334Y59426048D01*
X69296000Y59729368D01*
X69296000Y60038632D01*
X69356334Y60341952D01*
X69474684Y60627674D01*
X69646501Y60884817D01*
X69865183Y61103499D01*
X70122326Y61275316D01*
X70408048Y61393666D01*
X70711368Y61454000D01*
X71020632Y61454000D01*
X71323952Y61393666D01*
G37*
G36*
X29216000Y58334000D02*
G01*
X26116000Y58334000D01*
X26116000Y61434000D01*
X29216000Y61434000D01*
X29216000Y58334000D01*
G37*
G36*
X92716000Y58334000D02*
G01*
X89616000Y58334000D01*
X89616000Y61434000D01*
X92716000Y61434000D01*
X92716000Y58334000D01*
G37*
G36*
X80016000Y58334000D02*
G01*
X76916000Y58334000D01*
X76916000Y61434000D01*
X80016000Y61434000D01*
X80016000Y58334000D01*
G37*
G36*
X67316000Y58334000D02*
G01*
X64216000Y58334000D01*
X64216000Y61434000D01*
X67316000Y61434000D01*
X67316000Y58334000D01*
G37*
G36*
X41916000Y58334000D02*
G01*
X38816000Y58334000D01*
X38816000Y61434000D01*
X41916000Y61434000D01*
X41916000Y58334000D01*
G37*
G36*
X16516000Y58334000D02*
G01*
X13416000Y58334000D01*
X13416000Y61434000D01*
X16516000Y61434000D01*
X16516000Y58334000D01*
G37*
G36*
X97231952Y61453666D02*
G01*
X97517674Y61335316D01*
X97774817Y61163499D01*
X97993499Y60944817D01*
X98165316Y60687674D01*
X98283666Y60401952D01*
X98344000Y60098632D01*
X98344000Y59789368D01*
X98283666Y59486048D01*
X98165316Y59200326D01*
X97993499Y58943183D01*
X97774817Y58724501D01*
X97517674Y58552684D01*
X97231952Y58434334D01*
X96928632Y58374000D01*
X96619368Y58374000D01*
X96316048Y58434334D01*
X96030326Y58552684D01*
X95773183Y58724501D01*
X95554501Y58943183D01*
X95382684Y59200326D01*
X95264334Y59486048D01*
X95204000Y59789368D01*
X95204000Y60098632D01*
X95264334Y60401952D01*
X95382684Y60687674D01*
X95554501Y60944817D01*
X95773183Y61163499D01*
X96030326Y61335316D01*
X96316048Y61453666D01*
X96619368Y61514000D01*
X96928632Y61514000D01*
X97231952Y61453666D01*
G37*
G36*
X45943952Y61453666D02*
G01*
X46229674Y61335316D01*
X46486817Y61163499D01*
X46705499Y60944817D01*
X46877316Y60687674D01*
X46995666Y60401952D01*
X47056000Y60098632D01*
X47056000Y59789368D01*
X46995666Y59486048D01*
X46877316Y59200326D01*
X46705499Y58943183D01*
X46486817Y58724501D01*
X46229674Y58552684D01*
X45943952Y58434334D01*
X45640632Y58374000D01*
X45331368Y58374000D01*
X45028048Y58434334D01*
X44742326Y58552684D01*
X44485183Y58724501D01*
X44266501Y58943183D01*
X44094684Y59200326D01*
X43976334Y59486048D01*
X43916000Y59789368D01*
X43916000Y60098632D01*
X43976334Y60401952D01*
X44094684Y60687674D01*
X44266501Y60944817D01*
X44485183Y61163499D01*
X44742326Y61335316D01*
X45028048Y61453666D01*
X45331368Y61514000D01*
X45640632Y61514000D01*
X45943952Y61453666D01*
G37*
G36*
X54636000Y58394000D02*
G01*
X51536000Y58394000D01*
X51536000Y61494000D01*
X54636000Y61494000D01*
X54636000Y58394000D01*
G37*
G36*
X105924000Y58394000D02*
G01*
X102824000Y58394000D01*
X102824000Y61494000D01*
X105924000Y61494000D01*
X105924000Y58394000D01*
G37*
G36*
X91618118Y71574435D02*
G01*
X91618121Y71574434D01*
X91618120Y71574434D01*
X91900199Y71457593D01*
X91900200Y71457592D01*
X92154068Y71287964D01*
X92369964Y71072068D01*
X92483049Y70902823D01*
X92539593Y70818199D01*
X92629965Y70600021D01*
X92656435Y70536118D01*
X92716000Y70236662D01*
X92716000Y69931338D01*
X92656435Y69631882D01*
X92656434Y69631880D01*
X92539593Y69349801D01*
X92539592Y69349800D01*
X92369964Y69095932D01*
X92154068Y68880036D01*
X91989997Y68770408D01*
X91900199Y68710407D01*
X91762970Y68653565D01*
X91618118Y68593565D01*
X91318662Y68534000D01*
X91013338Y68534000D01*
X90713882Y68593565D01*
X90569030Y68653565D01*
X90431801Y68710407D01*
X90342003Y68770408D01*
X90177932Y68880036D01*
X89962036Y69095932D01*
X89792408Y69349800D01*
X89792407Y69349801D01*
X89675566Y69631880D01*
X89675565Y69631882D01*
X89616000Y69931338D01*
X89616000Y70236662D01*
X89675565Y70536118D01*
X89702035Y70600021D01*
X89792407Y70818199D01*
X89848951Y70902823D01*
X89962036Y71072068D01*
X90177932Y71287964D01*
X90431800Y71457592D01*
X90431801Y71457593D01*
X90713880Y71574434D01*
X90713879Y71574434D01*
X90713882Y71574435D01*
X91013338Y71634000D01*
X91318662Y71634000D01*
X91618118Y71574435D01*
G37*
G36*
X78918118Y71574435D02*
G01*
X78918121Y71574434D01*
X78918120Y71574434D01*
X79200199Y71457593D01*
X79200200Y71457592D01*
X79454068Y71287964D01*
X79669964Y71072068D01*
X79783049Y70902823D01*
X79839593Y70818199D01*
X79929965Y70600021D01*
X79956435Y70536118D01*
X80016000Y70236662D01*
X80016000Y69931338D01*
X79956435Y69631882D01*
X79956434Y69631880D01*
X79839593Y69349801D01*
X79839592Y69349800D01*
X79669964Y69095932D01*
X79454068Y68880036D01*
X79289997Y68770408D01*
X79200199Y68710407D01*
X79062970Y68653565D01*
X78918118Y68593565D01*
X78618662Y68534000D01*
X78313338Y68534000D01*
X78013882Y68593565D01*
X77869030Y68653565D01*
X77731801Y68710407D01*
X77642003Y68770408D01*
X77477932Y68880036D01*
X77262036Y69095932D01*
X77092408Y69349800D01*
X77092407Y69349801D01*
X76975566Y69631880D01*
X76975565Y69631882D01*
X76916000Y69931338D01*
X76916000Y70236662D01*
X76975565Y70536118D01*
X77002035Y70600021D01*
X77092407Y70818199D01*
X77148951Y70902823D01*
X77262036Y71072068D01*
X77477932Y71287964D01*
X77731800Y71457592D01*
X77731801Y71457593D01*
X78013880Y71574434D01*
X78013879Y71574434D01*
X78013882Y71574435D01*
X78313338Y71634000D01*
X78618662Y71634000D01*
X78918118Y71574435D01*
G37*
G36*
X66218118Y71574435D02*
G01*
X66218121Y71574434D01*
X66218120Y71574434D01*
X66500199Y71457593D01*
X66500200Y71457592D01*
X66754068Y71287964D01*
X66969964Y71072068D01*
X67083049Y70902823D01*
X67139593Y70818199D01*
X67229965Y70600021D01*
X67256435Y70536118D01*
X67316000Y70236662D01*
X67316000Y69931338D01*
X67256435Y69631882D01*
X67256434Y69631880D01*
X67139593Y69349801D01*
X67139592Y69349800D01*
X66969964Y69095932D01*
X66754068Y68880036D01*
X66589997Y68770408D01*
X66500199Y68710407D01*
X66362970Y68653565D01*
X66218118Y68593565D01*
X65918662Y68534000D01*
X65613338Y68534000D01*
X65313882Y68593565D01*
X65169030Y68653565D01*
X65031801Y68710407D01*
X64942003Y68770408D01*
X64777932Y68880036D01*
X64562036Y69095932D01*
X64392408Y69349800D01*
X64392407Y69349801D01*
X64275566Y69631880D01*
X64275565Y69631882D01*
X64216000Y69931338D01*
X64216000Y70236662D01*
X64275565Y70536118D01*
X64302035Y70600021D01*
X64392407Y70818199D01*
X64448951Y70902823D01*
X64562036Y71072068D01*
X64777932Y71287964D01*
X65031800Y71457592D01*
X65031801Y71457593D01*
X65313880Y71574434D01*
X65313879Y71574434D01*
X65313882Y71574435D01*
X65613338Y71634000D01*
X65918662Y71634000D01*
X66218118Y71574435D01*
G37*
G36*
X40818118Y71574435D02*
G01*
X40818121Y71574434D01*
X40818120Y71574434D01*
X41100199Y71457593D01*
X41100200Y71457592D01*
X41354068Y71287964D01*
X41569964Y71072068D01*
X41683049Y70902823D01*
X41739593Y70818199D01*
X41829965Y70600021D01*
X41856435Y70536118D01*
X41916000Y70236662D01*
X41916000Y69931338D01*
X41856435Y69631882D01*
X41856434Y69631880D01*
X41739593Y69349801D01*
X41739592Y69349800D01*
X41569964Y69095932D01*
X41354068Y68880036D01*
X41189997Y68770408D01*
X41100199Y68710407D01*
X40962970Y68653565D01*
X40818118Y68593565D01*
X40518662Y68534000D01*
X40213338Y68534000D01*
X39913882Y68593565D01*
X39769030Y68653565D01*
X39631801Y68710407D01*
X39542003Y68770408D01*
X39377932Y68880036D01*
X39162036Y69095932D01*
X38992408Y69349800D01*
X38992407Y69349801D01*
X38875566Y69631880D01*
X38875565Y69631882D01*
X38816000Y69931338D01*
X38816000Y70236662D01*
X38875565Y70536118D01*
X38902035Y70600021D01*
X38992407Y70818199D01*
X39048951Y70902823D01*
X39162036Y71072068D01*
X39377932Y71287964D01*
X39631800Y71457592D01*
X39631801Y71457593D01*
X39913880Y71574434D01*
X39913879Y71574434D01*
X39913882Y71574435D01*
X40213338Y71634000D01*
X40518662Y71634000D01*
X40818118Y71574435D01*
G37*
G36*
X15418118Y71574435D02*
G01*
X15418121Y71574434D01*
X15418120Y71574434D01*
X15700199Y71457593D01*
X15700200Y71457592D01*
X15954068Y71287964D01*
X16169964Y71072068D01*
X16283049Y70902823D01*
X16339593Y70818199D01*
X16429965Y70600021D01*
X16456435Y70536118D01*
X16516000Y70236662D01*
X16516000Y69931338D01*
X16456435Y69631882D01*
X16456434Y69631880D01*
X16339593Y69349801D01*
X16339592Y69349800D01*
X16169964Y69095932D01*
X15954068Y68880036D01*
X15789997Y68770408D01*
X15700199Y68710407D01*
X15562970Y68653565D01*
X15418118Y68593565D01*
X15118662Y68534000D01*
X14813338Y68534000D01*
X14513882Y68593565D01*
X14369030Y68653565D01*
X14231801Y68710407D01*
X14142003Y68770408D01*
X13977932Y68880036D01*
X13762036Y69095932D01*
X13592408Y69349800D01*
X13592407Y69349801D01*
X13475566Y69631880D01*
X13475565Y69631882D01*
X13416000Y69931338D01*
X13416000Y70236662D01*
X13475565Y70536118D01*
X13502035Y70600021D01*
X13592407Y70818199D01*
X13648951Y70902823D01*
X13762036Y71072068D01*
X13977932Y71287964D01*
X14231800Y71457592D01*
X14231801Y71457593D01*
X14513880Y71574434D01*
X14513879Y71574434D01*
X14513882Y71574435D01*
X14813338Y71634000D01*
X15118662Y71634000D01*
X15418118Y71574435D01*
G37*
G36*
X28118118Y71574435D02*
G01*
X28118121Y71574434D01*
X28118120Y71574434D01*
X28400199Y71457593D01*
X28400200Y71457592D01*
X28654068Y71287964D01*
X28869964Y71072068D01*
X28983049Y70902823D01*
X29039593Y70818199D01*
X29129965Y70600021D01*
X29156435Y70536118D01*
X29216000Y70236662D01*
X29216000Y69931338D01*
X29156435Y69631882D01*
X29156434Y69631880D01*
X29039593Y69349801D01*
X29039592Y69349800D01*
X28869964Y69095932D01*
X28654068Y68880036D01*
X28489997Y68770408D01*
X28400199Y68710407D01*
X28262970Y68653565D01*
X28118118Y68593565D01*
X27818662Y68534000D01*
X27513338Y68534000D01*
X27213882Y68593565D01*
X27069030Y68653565D01*
X26931801Y68710407D01*
X26842003Y68770408D01*
X26677932Y68880036D01*
X26462036Y69095932D01*
X26292408Y69349800D01*
X26292407Y69349801D01*
X26175566Y69631880D01*
X26175565Y69631882D01*
X26116000Y69931338D01*
X26116000Y70236662D01*
X26175565Y70536118D01*
X26202035Y70600021D01*
X26292407Y70818199D01*
X26348951Y70902823D01*
X26462036Y71072068D01*
X26677932Y71287964D01*
X26931800Y71457592D01*
X26931801Y71457593D01*
X27213880Y71574434D01*
X27213879Y71574434D01*
X27213882Y71574435D01*
X27513338Y71634000D01*
X27818662Y71634000D01*
X28118118Y71574435D01*
G37*
G36*
X53538118Y71634435D02*
G01*
X53538121Y71634434D01*
X53538120Y71634434D01*
X53820199Y71517593D01*
X53820200Y71517592D01*
X54074068Y71347964D01*
X54289964Y71132068D01*
X54330053Y71072070D01*
X54459593Y70878199D01*
X54549965Y70660021D01*
X54576435Y70596118D01*
X54636000Y70296662D01*
X54636000Y69991338D01*
X54576435Y69691882D01*
X54576434Y69691880D01*
X54459593Y69409801D01*
X54459592Y69409800D01*
X54289964Y69155932D01*
X54074068Y68940036D01*
X53984274Y68880038D01*
X53820199Y68770407D01*
X53675346Y68710407D01*
X53538118Y68653565D01*
X53238662Y68594000D01*
X52933338Y68594000D01*
X52633882Y68653565D01*
X52496654Y68710407D01*
X52351801Y68770407D01*
X52187726Y68880038D01*
X52097932Y68940036D01*
X51882036Y69155932D01*
X51712408Y69409800D01*
X51712407Y69409801D01*
X51595566Y69691880D01*
X51595565Y69691882D01*
X51536000Y69991338D01*
X51536000Y70296662D01*
X51595565Y70596118D01*
X51622035Y70660021D01*
X51712407Y70878199D01*
X51841947Y71072070D01*
X51882036Y71132068D01*
X52097932Y71347964D01*
X52351800Y71517592D01*
X52351801Y71517593D01*
X52633880Y71634434D01*
X52633879Y71634434D01*
X52633882Y71634435D01*
X52933338Y71694000D01*
X53238662Y71694000D01*
X53538118Y71634435D01*
G37*
G36*
X104826118Y71634435D02*
G01*
X104826121Y71634434D01*
X104826120Y71634434D01*
X105108199Y71517593D01*
X105108200Y71517592D01*
X105362068Y71347964D01*
X105577964Y71132068D01*
X105618053Y71072070D01*
X105747593Y70878199D01*
X105837965Y70660021D01*
X105864435Y70596118D01*
X105924000Y70296662D01*
X105924000Y69991338D01*
X105864435Y69691882D01*
X105864434Y69691880D01*
X105747593Y69409801D01*
X105747592Y69409800D01*
X105577964Y69155932D01*
X105362068Y68940036D01*
X105272274Y68880038D01*
X105108199Y68770407D01*
X104963346Y68710407D01*
X104826118Y68653565D01*
X104526662Y68594000D01*
X104221338Y68594000D01*
X103921882Y68653565D01*
X103784654Y68710407D01*
X103639801Y68770407D01*
X103475726Y68880038D01*
X103385932Y68940036D01*
X103170036Y69155932D01*
X103000408Y69409800D01*
X103000407Y69409801D01*
X102883566Y69691880D01*
X102883565Y69691882D01*
X102824000Y69991338D01*
X102824000Y70296662D01*
X102883565Y70596118D01*
X102910035Y70660021D01*
X103000407Y70878199D01*
X103129947Y71072070D01*
X103170036Y71132068D01*
X103385932Y71347964D01*
X103639800Y71517592D01*
X103639801Y71517593D01*
X103921880Y71634434D01*
X103921879Y71634434D01*
X103921882Y71634435D01*
X104221338Y71694000D01*
X104526662Y71694000D01*
X104826118Y71634435D01*
G37*
G36*
X7818118Y76674435D02*
G01*
X7818121Y76674434D01*
X7818120Y76674434D01*
X8100199Y76557593D01*
X8100200Y76557592D01*
X8354068Y76387964D01*
X8569964Y76172068D01*
X8595400Y76134000D01*
X8739593Y75918199D01*
X8829965Y75700021D01*
X8856435Y75636118D01*
X8916000Y75336662D01*
X8916000Y75031338D01*
X8856435Y74731882D01*
X8856434Y74731880D01*
X8739593Y74449801D01*
X8739592Y74449800D01*
X8569964Y74195932D01*
X8354068Y73980036D01*
X8189997Y73870408D01*
X8100199Y73810407D01*
X7962970Y73753565D01*
X7818118Y73693565D01*
X7518662Y73634000D01*
X7213338Y73634000D01*
X6913882Y73693565D01*
X6769030Y73753565D01*
X6631801Y73810407D01*
X6542003Y73870408D01*
X6377932Y73980036D01*
X6162036Y74195932D01*
X5992408Y74449800D01*
X5992407Y74449801D01*
X5875566Y74731880D01*
X5875565Y74731882D01*
X5816000Y75031338D01*
X5816000Y75336662D01*
X5875565Y75636118D01*
X5902035Y75700021D01*
X5992407Y75918199D01*
X6136600Y76134000D01*
X6162036Y76172068D01*
X6377932Y76387964D01*
X6631800Y76557592D01*
X6631801Y76557593D01*
X6913880Y76674434D01*
X6913879Y76674434D01*
X6913882Y76674435D01*
X7213338Y76734000D01*
X7518662Y76734000D01*
X7818118Y76674435D01*
G37*
G36*
X20518118Y76674435D02*
G01*
X20518121Y76674434D01*
X20518120Y76674434D01*
X20800199Y76557593D01*
X20800200Y76557592D01*
X21054068Y76387964D01*
X21269964Y76172068D01*
X21295400Y76134000D01*
X21439593Y75918199D01*
X21529965Y75700021D01*
X21556435Y75636118D01*
X21616000Y75336662D01*
X21616000Y75031338D01*
X21556435Y74731882D01*
X21556434Y74731880D01*
X21439593Y74449801D01*
X21439592Y74449800D01*
X21269964Y74195932D01*
X21054068Y73980036D01*
X20889997Y73870408D01*
X20800199Y73810407D01*
X20662970Y73753565D01*
X20518118Y73693565D01*
X20218662Y73634000D01*
X19913338Y73634000D01*
X19613882Y73693565D01*
X19469030Y73753565D01*
X19331801Y73810407D01*
X19242003Y73870408D01*
X19077932Y73980036D01*
X18862036Y74195932D01*
X18692408Y74449800D01*
X18692407Y74449801D01*
X18575566Y74731880D01*
X18575565Y74731882D01*
X18516000Y75031338D01*
X18516000Y75336662D01*
X18575565Y75636118D01*
X18602035Y75700021D01*
X18692407Y75918199D01*
X18836600Y76134000D01*
X18862036Y76172068D01*
X19077932Y76387964D01*
X19331800Y76557592D01*
X19331801Y76557593D01*
X19613880Y76674434D01*
X19613879Y76674434D01*
X19613882Y76674435D01*
X19913338Y76734000D01*
X20218662Y76734000D01*
X20518118Y76674435D01*
G37*
G36*
X58618118Y76674435D02*
G01*
X58618121Y76674434D01*
X58618120Y76674434D01*
X58900199Y76557593D01*
X58900200Y76557592D01*
X59154068Y76387964D01*
X59369964Y76172068D01*
X59395400Y76134000D01*
X59539593Y75918199D01*
X59629965Y75700021D01*
X59656435Y75636118D01*
X59716000Y75336662D01*
X59716000Y75031338D01*
X59656435Y74731882D01*
X59656434Y74731880D01*
X59539593Y74449801D01*
X59539592Y74449800D01*
X59369964Y74195932D01*
X59154068Y73980036D01*
X58989997Y73870408D01*
X58900199Y73810407D01*
X58762970Y73753565D01*
X58618118Y73693565D01*
X58318662Y73634000D01*
X58013338Y73634000D01*
X57713882Y73693565D01*
X57569030Y73753565D01*
X57431801Y73810407D01*
X57342003Y73870408D01*
X57177932Y73980036D01*
X56962036Y74195932D01*
X56792408Y74449800D01*
X56792407Y74449801D01*
X56675566Y74731880D01*
X56675565Y74731882D01*
X56616000Y75031338D01*
X56616000Y75336662D01*
X56675565Y75636118D01*
X56702035Y75700021D01*
X56792407Y75918199D01*
X56936600Y76134000D01*
X56962036Y76172068D01*
X57177932Y76387964D01*
X57431800Y76557592D01*
X57431801Y76557593D01*
X57713880Y76674434D01*
X57713879Y76674434D01*
X57713882Y76674435D01*
X58013338Y76734000D01*
X58318662Y76734000D01*
X58618118Y76674435D01*
G37*
G36*
X71318118Y76674435D02*
G01*
X71318121Y76674434D01*
X71318120Y76674434D01*
X71600199Y76557593D01*
X71600200Y76557592D01*
X71854068Y76387964D01*
X72069964Y76172068D01*
X72095400Y76134000D01*
X72239593Y75918199D01*
X72329965Y75700021D01*
X72356435Y75636118D01*
X72416000Y75336662D01*
X72416000Y75031338D01*
X72356435Y74731882D01*
X72356434Y74731880D01*
X72239593Y74449801D01*
X72239592Y74449800D01*
X72069964Y74195932D01*
X71854068Y73980036D01*
X71689997Y73870408D01*
X71600199Y73810407D01*
X71462970Y73753565D01*
X71318118Y73693565D01*
X71018662Y73634000D01*
X70713338Y73634000D01*
X70413882Y73693565D01*
X70269030Y73753565D01*
X70131801Y73810407D01*
X70042003Y73870408D01*
X69877932Y73980036D01*
X69662036Y74195932D01*
X69492408Y74449800D01*
X69492407Y74449801D01*
X69375566Y74731880D01*
X69375565Y74731882D01*
X69316000Y75031338D01*
X69316000Y75336662D01*
X69375565Y75636118D01*
X69402035Y75700021D01*
X69492407Y75918199D01*
X69636600Y76134000D01*
X69662036Y76172068D01*
X69877932Y76387964D01*
X70131800Y76557592D01*
X70131801Y76557593D01*
X70413880Y76674434D01*
X70413879Y76674434D01*
X70413882Y76674435D01*
X70713338Y76734000D01*
X71018662Y76734000D01*
X71318118Y76674435D01*
G37*
G36*
X84018118Y76674435D02*
G01*
X84018121Y76674434D01*
X84018120Y76674434D01*
X84300199Y76557593D01*
X84300200Y76557592D01*
X84554068Y76387964D01*
X84769964Y76172068D01*
X84795400Y76134000D01*
X84939593Y75918199D01*
X85029965Y75700021D01*
X85056435Y75636118D01*
X85116000Y75336662D01*
X85116000Y75031338D01*
X85056435Y74731882D01*
X85056434Y74731880D01*
X84939593Y74449801D01*
X84939592Y74449800D01*
X84769964Y74195932D01*
X84554068Y73980036D01*
X84389997Y73870408D01*
X84300199Y73810407D01*
X84162970Y73753565D01*
X84018118Y73693565D01*
X83718662Y73634000D01*
X83413338Y73634000D01*
X83113882Y73693565D01*
X82969030Y73753565D01*
X82831801Y73810407D01*
X82742003Y73870408D01*
X82577932Y73980036D01*
X82362036Y74195932D01*
X82192408Y74449800D01*
X82192407Y74449801D01*
X82075566Y74731880D01*
X82075565Y74731882D01*
X82016000Y75031338D01*
X82016000Y75336662D01*
X82075565Y75636118D01*
X82102035Y75700021D01*
X82192407Y75918199D01*
X82336600Y76134000D01*
X82362036Y76172068D01*
X82577932Y76387964D01*
X82831800Y76557592D01*
X82831801Y76557593D01*
X83113880Y76674434D01*
X83113879Y76674434D01*
X83113882Y76674435D01*
X83413338Y76734000D01*
X83718662Y76734000D01*
X84018118Y76674435D01*
G37*
G36*
X33218118Y76674435D02*
G01*
X33218121Y76674434D01*
X33218120Y76674434D01*
X33500199Y76557593D01*
X33500200Y76557592D01*
X33754068Y76387964D01*
X33969964Y76172068D01*
X33995400Y76134000D01*
X34139593Y75918199D01*
X34229965Y75700021D01*
X34256435Y75636118D01*
X34316000Y75336662D01*
X34316000Y75031338D01*
X34256435Y74731882D01*
X34256434Y74731880D01*
X34139593Y74449801D01*
X34139592Y74449800D01*
X33969964Y74195932D01*
X33754068Y73980036D01*
X33589997Y73870408D01*
X33500199Y73810407D01*
X33362970Y73753565D01*
X33218118Y73693565D01*
X32918662Y73634000D01*
X32613338Y73634000D01*
X32313882Y73693565D01*
X32169030Y73753565D01*
X32031801Y73810407D01*
X31942003Y73870408D01*
X31777932Y73980036D01*
X31562036Y74195932D01*
X31392408Y74449800D01*
X31392407Y74449801D01*
X31275566Y74731880D01*
X31275565Y74731882D01*
X31216000Y75031338D01*
X31216000Y75336662D01*
X31275565Y75636118D01*
X31302035Y75700021D01*
X31392407Y75918199D01*
X31536600Y76134000D01*
X31562036Y76172068D01*
X31777932Y76387964D01*
X32031800Y76557592D01*
X32031801Y76557593D01*
X32313880Y76674434D01*
X32313879Y76674434D01*
X32313882Y76674435D01*
X32613338Y76734000D01*
X32918662Y76734000D01*
X33218118Y76674435D01*
G37*
G36*
X45938118Y76734435D02*
G01*
X45938121Y76734434D01*
X45938120Y76734434D01*
X46220199Y76617593D01*
X46220200Y76617592D01*
X46474068Y76447964D01*
X46689964Y76232068D01*
X46730053Y76172070D01*
X46859593Y75978199D01*
X46949965Y75760021D01*
X46976435Y75696118D01*
X47036000Y75396662D01*
X47036000Y75091338D01*
X46976435Y74791882D01*
X46976434Y74791880D01*
X46859593Y74509801D01*
X46859592Y74509800D01*
X46689964Y74255932D01*
X46474068Y74040036D01*
X46384274Y73980038D01*
X46220199Y73870407D01*
X46075346Y73810407D01*
X45938118Y73753565D01*
X45638662Y73694000D01*
X45333338Y73694000D01*
X45033882Y73753565D01*
X44896654Y73810407D01*
X44751801Y73870407D01*
X44587726Y73980038D01*
X44497932Y74040036D01*
X44282036Y74255932D01*
X44112408Y74509800D01*
X44112407Y74509801D01*
X43995566Y74791880D01*
X43995565Y74791882D01*
X43936000Y75091338D01*
X43936000Y75396662D01*
X43995565Y75696118D01*
X44022035Y75760021D01*
X44112407Y75978199D01*
X44241947Y76172070D01*
X44282036Y76232068D01*
X44497932Y76447964D01*
X44751800Y76617592D01*
X44751801Y76617593D01*
X45033880Y76734434D01*
X45033879Y76734434D01*
X45033882Y76734435D01*
X45333338Y76794000D01*
X45638662Y76794000D01*
X45938118Y76734435D01*
G37*
G36*
X97226118Y76734435D02*
G01*
X97226121Y76734434D01*
X97226120Y76734434D01*
X97508199Y76617593D01*
X97508200Y76617592D01*
X97762068Y76447964D01*
X97977964Y76232068D01*
X98018053Y76172070D01*
X98147593Y75978199D01*
X98237965Y75760021D01*
X98264435Y75696118D01*
X98324000Y75396662D01*
X98324000Y75091338D01*
X98264435Y74791882D01*
X98264434Y74791880D01*
X98147593Y74509801D01*
X98147592Y74509800D01*
X97977964Y74255932D01*
X97762068Y74040036D01*
X97672274Y73980038D01*
X97508199Y73870407D01*
X97363346Y73810407D01*
X97226118Y73753565D01*
X96926662Y73694000D01*
X96621338Y73694000D01*
X96321882Y73753565D01*
X96184654Y73810407D01*
X96039801Y73870407D01*
X95875726Y73980038D01*
X95785932Y74040036D01*
X95570036Y74255932D01*
X95400408Y74509800D01*
X95400407Y74509801D01*
X95283566Y74791880D01*
X95283565Y74791882D01*
X95224000Y75091338D01*
X95224000Y75396662D01*
X95283565Y75696118D01*
X95310035Y75760021D01*
X95400407Y75978199D01*
X95529947Y76172070D01*
X95570036Y76232068D01*
X95785932Y76447964D01*
X96039800Y76617592D01*
X96039801Y76617593D01*
X96321880Y76734434D01*
X96321879Y76734434D01*
X96321882Y76734435D01*
X96621338Y76794000D01*
X96926662Y76794000D01*
X97226118Y76734435D01*
G37*
G36*
X78918118Y79174435D02*
G01*
X78918121Y79174434D01*
X78918120Y79174434D01*
X79200199Y79057593D01*
X79200200Y79057592D01*
X79454068Y78887964D01*
X79669964Y78672068D01*
X79783049Y78502823D01*
X79839593Y78418199D01*
X79929965Y78200021D01*
X79956435Y78136118D01*
X80016000Y77836662D01*
X80016000Y77531338D01*
X79956435Y77231882D01*
X79956434Y77231880D01*
X79839593Y76949801D01*
X79839592Y76949800D01*
X79669964Y76695932D01*
X79454068Y76480036D01*
X79289997Y76370408D01*
X79200199Y76310407D01*
X79062970Y76253565D01*
X78918118Y76193565D01*
X78618662Y76134000D01*
X78313338Y76134000D01*
X78013882Y76193565D01*
X77869030Y76253565D01*
X77731801Y76310407D01*
X77642003Y76370408D01*
X77477932Y76480036D01*
X77262036Y76695932D01*
X77092408Y76949800D01*
X77092407Y76949801D01*
X76975566Y77231880D01*
X76975565Y77231882D01*
X76916000Y77531338D01*
X76916000Y77836662D01*
X76975565Y78136118D01*
X77002035Y78200021D01*
X77092407Y78418199D01*
X77148951Y78502823D01*
X77262036Y78672068D01*
X77477932Y78887964D01*
X77731800Y79057592D01*
X77731801Y79057593D01*
X78013880Y79174434D01*
X78013879Y79174434D01*
X78013882Y79174435D01*
X78313338Y79234000D01*
X78618662Y79234000D01*
X78918118Y79174435D01*
G37*
G36*
X91618118Y79174435D02*
G01*
X91618121Y79174434D01*
X91618120Y79174434D01*
X91900199Y79057593D01*
X91900200Y79057592D01*
X92154068Y78887964D01*
X92369964Y78672068D01*
X92483049Y78502823D01*
X92539593Y78418199D01*
X92629965Y78200021D01*
X92656435Y78136118D01*
X92716000Y77836662D01*
X92716000Y77531338D01*
X92656435Y77231882D01*
X92656434Y77231880D01*
X92539593Y76949801D01*
X92539592Y76949800D01*
X92369964Y76695932D01*
X92154068Y76480036D01*
X91989997Y76370408D01*
X91900199Y76310407D01*
X91762970Y76253565D01*
X91618118Y76193565D01*
X91318662Y76134000D01*
X91013338Y76134000D01*
X90713882Y76193565D01*
X90569030Y76253565D01*
X90431801Y76310407D01*
X90342003Y76370408D01*
X90177932Y76480036D01*
X89962036Y76695932D01*
X89792408Y76949800D01*
X89792407Y76949801D01*
X89675566Y77231880D01*
X89675565Y77231882D01*
X89616000Y77531338D01*
X89616000Y77836662D01*
X89675565Y78136118D01*
X89702035Y78200021D01*
X89792407Y78418199D01*
X89848951Y78502823D01*
X89962036Y78672068D01*
X90177932Y78887964D01*
X90431800Y79057592D01*
X90431801Y79057593D01*
X90713880Y79174434D01*
X90713879Y79174434D01*
X90713882Y79174435D01*
X91013338Y79234000D01*
X91318662Y79234000D01*
X91618118Y79174435D01*
G37*
G36*
X66218118Y79174435D02*
G01*
X66218121Y79174434D01*
X66218120Y79174434D01*
X66500199Y79057593D01*
X66500200Y79057592D01*
X66754068Y78887964D01*
X66969964Y78672068D01*
X67083049Y78502823D01*
X67139593Y78418199D01*
X67229965Y78200021D01*
X67256435Y78136118D01*
X67316000Y77836662D01*
X67316000Y77531338D01*
X67256435Y77231882D01*
X67256434Y77231880D01*
X67139593Y76949801D01*
X67139592Y76949800D01*
X66969964Y76695932D01*
X66754068Y76480036D01*
X66589997Y76370408D01*
X66500199Y76310407D01*
X66362970Y76253565D01*
X66218118Y76193565D01*
X65918662Y76134000D01*
X65613338Y76134000D01*
X65313882Y76193565D01*
X65169030Y76253565D01*
X65031801Y76310407D01*
X64942003Y76370408D01*
X64777932Y76480036D01*
X64562036Y76695932D01*
X64392408Y76949800D01*
X64392407Y76949801D01*
X64275566Y77231880D01*
X64275565Y77231882D01*
X64216000Y77531338D01*
X64216000Y77836662D01*
X64275565Y78136118D01*
X64302035Y78200021D01*
X64392407Y78418199D01*
X64448951Y78502823D01*
X64562036Y78672068D01*
X64777932Y78887964D01*
X65031800Y79057592D01*
X65031801Y79057593D01*
X65313880Y79174434D01*
X65313879Y79174434D01*
X65313882Y79174435D01*
X65613338Y79234000D01*
X65918662Y79234000D01*
X66218118Y79174435D01*
G37*
G36*
X40818118Y79174435D02*
G01*
X40818121Y79174434D01*
X40818120Y79174434D01*
X41100199Y79057593D01*
X41100200Y79057592D01*
X41354068Y78887964D01*
X41569964Y78672068D01*
X41683049Y78502823D01*
X41739593Y78418199D01*
X41829965Y78200021D01*
X41856435Y78136118D01*
X41916000Y77836662D01*
X41916000Y77531338D01*
X41856435Y77231882D01*
X41856434Y77231880D01*
X41739593Y76949801D01*
X41739592Y76949800D01*
X41569964Y76695932D01*
X41354068Y76480036D01*
X41189997Y76370408D01*
X41100199Y76310407D01*
X40962970Y76253565D01*
X40818118Y76193565D01*
X40518662Y76134000D01*
X40213338Y76134000D01*
X39913882Y76193565D01*
X39769030Y76253565D01*
X39631801Y76310407D01*
X39542003Y76370408D01*
X39377932Y76480036D01*
X39162036Y76695932D01*
X38992408Y76949800D01*
X38992407Y76949801D01*
X38875566Y77231880D01*
X38875565Y77231882D01*
X38816000Y77531338D01*
X38816000Y77836662D01*
X38875565Y78136118D01*
X38902035Y78200021D01*
X38992407Y78418199D01*
X39048951Y78502823D01*
X39162036Y78672068D01*
X39377932Y78887964D01*
X39631800Y79057592D01*
X39631801Y79057593D01*
X39913880Y79174434D01*
X39913879Y79174434D01*
X39913882Y79174435D01*
X40213338Y79234000D01*
X40518662Y79234000D01*
X40818118Y79174435D01*
G37*
G36*
X15418118Y79174435D02*
G01*
X15418121Y79174434D01*
X15418120Y79174434D01*
X15700199Y79057593D01*
X15700200Y79057592D01*
X15954068Y78887964D01*
X16169964Y78672068D01*
X16283049Y78502823D01*
X16339593Y78418199D01*
X16429965Y78200021D01*
X16456435Y78136118D01*
X16516000Y77836662D01*
X16516000Y77531338D01*
X16456435Y77231882D01*
X16456434Y77231880D01*
X16339593Y76949801D01*
X16339592Y76949800D01*
X16169964Y76695932D01*
X15954068Y76480036D01*
X15789997Y76370408D01*
X15700199Y76310407D01*
X15562970Y76253565D01*
X15418118Y76193565D01*
X15118662Y76134000D01*
X14813338Y76134000D01*
X14513882Y76193565D01*
X14369030Y76253565D01*
X14231801Y76310407D01*
X14142003Y76370408D01*
X13977932Y76480036D01*
X13762036Y76695932D01*
X13592408Y76949800D01*
X13592407Y76949801D01*
X13475566Y77231880D01*
X13475565Y77231882D01*
X13416000Y77531338D01*
X13416000Y77836662D01*
X13475565Y78136118D01*
X13502035Y78200021D01*
X13592407Y78418199D01*
X13648951Y78502823D01*
X13762036Y78672068D01*
X13977932Y78887964D01*
X14231800Y79057592D01*
X14231801Y79057593D01*
X14513880Y79174434D01*
X14513879Y79174434D01*
X14513882Y79174435D01*
X14813338Y79234000D01*
X15118662Y79234000D01*
X15418118Y79174435D01*
G37*
G36*
X28118118Y79174435D02*
G01*
X28118121Y79174434D01*
X28118120Y79174434D01*
X28400199Y79057593D01*
X28400200Y79057592D01*
X28654068Y78887964D01*
X28869964Y78672068D01*
X28983049Y78502823D01*
X29039593Y78418199D01*
X29129965Y78200021D01*
X29156435Y78136118D01*
X29216000Y77836662D01*
X29216000Y77531338D01*
X29156435Y77231882D01*
X29156434Y77231880D01*
X29039593Y76949801D01*
X29039592Y76949800D01*
X28869964Y76695932D01*
X28654068Y76480036D01*
X28489997Y76370408D01*
X28400199Y76310407D01*
X28262970Y76253565D01*
X28118118Y76193565D01*
X27818662Y76134000D01*
X27513338Y76134000D01*
X27213882Y76193565D01*
X27069030Y76253565D01*
X26931801Y76310407D01*
X26842003Y76370408D01*
X26677932Y76480036D01*
X26462036Y76695932D01*
X26292408Y76949800D01*
X26292407Y76949801D01*
X26175566Y77231880D01*
X26175565Y77231882D01*
X26116000Y77531338D01*
X26116000Y77836662D01*
X26175565Y78136118D01*
X26202035Y78200021D01*
X26292407Y78418199D01*
X26348951Y78502823D01*
X26462036Y78672068D01*
X26677932Y78887964D01*
X26931800Y79057592D01*
X26931801Y79057593D01*
X27213880Y79174434D01*
X27213879Y79174434D01*
X27213882Y79174435D01*
X27513338Y79234000D01*
X27818662Y79234000D01*
X28118118Y79174435D01*
G37*
G36*
X104826118Y79234435D02*
G01*
X104826121Y79234434D01*
X104826120Y79234434D01*
X105108199Y79117593D01*
X105108200Y79117592D01*
X105362068Y78947964D01*
X105577964Y78732068D01*
X105618053Y78672070D01*
X105747593Y78478199D01*
X105837965Y78260021D01*
X105864435Y78196118D01*
X105924000Y77896662D01*
X105924000Y77591338D01*
X105864435Y77291882D01*
X105864434Y77291880D01*
X105747593Y77009801D01*
X105747592Y77009800D01*
X105577964Y76755932D01*
X105362068Y76540036D01*
X105192823Y76426951D01*
X105108199Y76370407D01*
X104963346Y76310407D01*
X104826118Y76253565D01*
X104526662Y76194000D01*
X104221338Y76194000D01*
X103921882Y76253565D01*
X103784654Y76310407D01*
X103639801Y76370407D01*
X103555177Y76426951D01*
X103385932Y76540036D01*
X103170036Y76755932D01*
X103000408Y77009800D01*
X103000407Y77009801D01*
X102883566Y77291880D01*
X102883565Y77291882D01*
X102824000Y77591338D01*
X102824000Y77896662D01*
X102883565Y78196118D01*
X102910035Y78260021D01*
X103000407Y78478199D01*
X103129947Y78672070D01*
X103170036Y78732068D01*
X103385932Y78947964D01*
X103639800Y79117592D01*
X103639801Y79117593D01*
X103921880Y79234434D01*
X103921879Y79234434D01*
X103921882Y79234435D01*
X104221338Y79294000D01*
X104526662Y79294000D01*
X104826118Y79234435D01*
G37*
G36*
X53538118Y79234435D02*
G01*
X53538121Y79234434D01*
X53538120Y79234434D01*
X53820199Y79117593D01*
X53820200Y79117592D01*
X54074068Y78947964D01*
X54289964Y78732068D01*
X54330053Y78672070D01*
X54459593Y78478199D01*
X54549965Y78260021D01*
X54576435Y78196118D01*
X54636000Y77896662D01*
X54636000Y77591338D01*
X54576435Y77291882D01*
X54576434Y77291880D01*
X54459593Y77009801D01*
X54459592Y77009800D01*
X54289964Y76755932D01*
X54074068Y76540036D01*
X53904823Y76426951D01*
X53820199Y76370407D01*
X53675346Y76310407D01*
X53538118Y76253565D01*
X53238662Y76194000D01*
X52933338Y76194000D01*
X52633882Y76253565D01*
X52496654Y76310407D01*
X52351801Y76370407D01*
X52267177Y76426951D01*
X52097932Y76540036D01*
X51882036Y76755932D01*
X51712408Y77009800D01*
X51712407Y77009801D01*
X51595566Y77291880D01*
X51595565Y77291882D01*
X51536000Y77591338D01*
X51536000Y77896662D01*
X51595565Y78196118D01*
X51622035Y78260021D01*
X51712407Y78478199D01*
X51841947Y78672070D01*
X51882036Y78732068D01*
X52097932Y78947964D01*
X52351800Y79117592D01*
X52351801Y79117593D01*
X52633880Y79234434D01*
X52633879Y79234434D01*
X52633882Y79234435D01*
X52933338Y79294000D01*
X53238662Y79294000D01*
X53538118Y79234435D01*
G37*
G36*
X51544192Y90839426D02*
G01*
X51730951Y90802277D01*
X51994831Y90692974D01*
X51994833Y90692973D01*
X52229167Y90536396D01*
X52232324Y90534287D01*
X52434287Y90332324D01*
X52592974Y90094831D01*
X52702277Y89830951D01*
X52758000Y89550812D01*
X52758000Y89265188D01*
X52702277Y88985049D01*
X52592974Y88721169D01*
X52434287Y88483676D01*
X52232324Y88281713D01*
X52232321Y88281711D01*
X51994833Y88123027D01*
X51994832Y88123026D01*
X51994831Y88123026D01*
X51730951Y88013723D01*
X51544192Y87976574D01*
X51450813Y87958000D01*
X51165187Y87958000D01*
X51071808Y87976574D01*
X50885049Y88013723D01*
X50621169Y88123026D01*
X50621168Y88123026D01*
X50621167Y88123027D01*
X50383679Y88281711D01*
X50383676Y88281713D01*
X50181713Y88483676D01*
X50023026Y88721169D01*
X49913723Y88985049D01*
X49858000Y89265188D01*
X49858000Y89550812D01*
X49913723Y89830951D01*
X50023026Y90094831D01*
X50181713Y90332324D01*
X50383676Y90534287D01*
X50386833Y90536396D01*
X50621167Y90692973D01*
X50621169Y90692974D01*
X50885049Y90802277D01*
X51071808Y90839426D01*
X51165187Y90858000D01*
X51450813Y90858000D01*
X51544192Y90839426D01*
G37*
G36*
X19032192Y90839426D02*
G01*
X19218951Y90802277D01*
X19482831Y90692974D01*
X19482833Y90692973D01*
X19717167Y90536396D01*
X19720324Y90534287D01*
X19922287Y90332324D01*
X20080974Y90094831D01*
X20190277Y89830951D01*
X20246000Y89550812D01*
X20246000Y89265188D01*
X20190277Y88985049D01*
X20080974Y88721169D01*
X19922287Y88483676D01*
X19720324Y88281713D01*
X19720321Y88281711D01*
X19482833Y88123027D01*
X19482832Y88123026D01*
X19482831Y88123026D01*
X19218951Y88013723D01*
X19032192Y87976574D01*
X18938813Y87958000D01*
X18653187Y87958000D01*
X18559808Y87976574D01*
X18373049Y88013723D01*
X18109169Y88123026D01*
X18109168Y88123026D01*
X18109167Y88123027D01*
X17871679Y88281711D01*
X17871676Y88281713D01*
X17669713Y88483676D01*
X17511026Y88721169D01*
X17401723Y88985049D01*
X17346000Y89265188D01*
X17346000Y89550812D01*
X17401723Y89830951D01*
X17511026Y90094831D01*
X17669713Y90332324D01*
X17871676Y90534287D01*
X17874833Y90536396D01*
X18109167Y90692973D01*
X18109169Y90692974D01*
X18373049Y90802277D01*
X18559808Y90839426D01*
X18653187Y90858000D01*
X18938813Y90858000D01*
X19032192Y90839426D01*
G37*
G36*
X13952192Y90839426D02*
G01*
X14138951Y90802277D01*
X14402831Y90692974D01*
X14402833Y90692973D01*
X14637167Y90536396D01*
X14640324Y90534287D01*
X14842287Y90332324D01*
X15000974Y90094831D01*
X15110277Y89830951D01*
X15166000Y89550812D01*
X15166000Y89265188D01*
X15110277Y88985049D01*
X15000974Y88721169D01*
X14842287Y88483676D01*
X14640324Y88281713D01*
X14640321Y88281711D01*
X14402833Y88123027D01*
X14402832Y88123026D01*
X14402831Y88123026D01*
X14138951Y88013723D01*
X13952192Y87976574D01*
X13858813Y87958000D01*
X13573187Y87958000D01*
X13479808Y87976574D01*
X13293049Y88013723D01*
X13029169Y88123026D01*
X13029168Y88123026D01*
X13029167Y88123027D01*
X12791679Y88281711D01*
X12791676Y88281713D01*
X12589713Y88483676D01*
X12431026Y88721169D01*
X12321723Y88985049D01*
X12266000Y89265188D01*
X12266000Y89550812D01*
X12321723Y89830951D01*
X12431026Y90094831D01*
X12589713Y90332324D01*
X12791676Y90534287D01*
X12794833Y90536396D01*
X13029167Y90692973D01*
X13029169Y90692974D01*
X13293049Y90802277D01*
X13479808Y90839426D01*
X13573187Y90858000D01*
X13858813Y90858000D01*
X13952192Y90839426D01*
G37*
G36*
X26144192Y90839426D02*
G01*
X26330951Y90802277D01*
X26594831Y90692974D01*
X26594833Y90692973D01*
X26829167Y90536396D01*
X26832324Y90534287D01*
X27034287Y90332324D01*
X27192974Y90094831D01*
X27302277Y89830951D01*
X27358000Y89550812D01*
X27358000Y89265188D01*
X27302277Y88985049D01*
X27192974Y88721169D01*
X27034287Y88483676D01*
X26832324Y88281713D01*
X26832321Y88281711D01*
X26594833Y88123027D01*
X26594832Y88123026D01*
X26594831Y88123026D01*
X26330951Y88013723D01*
X26144192Y87976574D01*
X26050813Y87958000D01*
X25765187Y87958000D01*
X25671808Y87976574D01*
X25485049Y88013723D01*
X25221169Y88123026D01*
X25221168Y88123026D01*
X25221167Y88123027D01*
X24983679Y88281711D01*
X24983676Y88281713D01*
X24781713Y88483676D01*
X24623026Y88721169D01*
X24513723Y88985049D01*
X24458000Y89265188D01*
X24458000Y89550812D01*
X24513723Y89830951D01*
X24623026Y90094831D01*
X24781713Y90332324D01*
X24983676Y90534287D01*
X24986833Y90536396D01*
X25221167Y90692973D01*
X25221169Y90692974D01*
X25485049Y90802277D01*
X25671808Y90839426D01*
X25765187Y90858000D01*
X26050813Y90858000D01*
X26144192Y90839426D01*
G37*
G36*
X31224192Y90839426D02*
G01*
X31410951Y90802277D01*
X31674831Y90692974D01*
X31674833Y90692973D01*
X31909167Y90536396D01*
X31912324Y90534287D01*
X32114287Y90332324D01*
X32272974Y90094831D01*
X32382277Y89830951D01*
X32438000Y89550812D01*
X32438000Y89265188D01*
X32382277Y88985049D01*
X32272974Y88721169D01*
X32114287Y88483676D01*
X31912324Y88281713D01*
X31912321Y88281711D01*
X31674833Y88123027D01*
X31674832Y88123026D01*
X31674831Y88123026D01*
X31410951Y88013723D01*
X31224192Y87976574D01*
X31130813Y87958000D01*
X30845187Y87958000D01*
X30751808Y87976574D01*
X30565049Y88013723D01*
X30301169Y88123026D01*
X30301168Y88123026D01*
X30301167Y88123027D01*
X30063679Y88281711D01*
X30063676Y88281713D01*
X29861713Y88483676D01*
X29703026Y88721169D01*
X29593723Y88985049D01*
X29538000Y89265188D01*
X29538000Y89550812D01*
X29593723Y89830951D01*
X29703026Y90094831D01*
X29861713Y90332324D01*
X30063676Y90534287D01*
X30066833Y90536396D01*
X30301167Y90692973D01*
X30301169Y90692974D01*
X30565049Y90802277D01*
X30751808Y90839426D01*
X30845187Y90858000D01*
X31130813Y90858000D01*
X31224192Y90839426D01*
G37*
G36*
X36304192Y90839426D02*
G01*
X36490951Y90802277D01*
X36754831Y90692974D01*
X36754833Y90692973D01*
X36989167Y90536396D01*
X36992324Y90534287D01*
X37194287Y90332324D01*
X37352974Y90094831D01*
X37462277Y89830951D01*
X37518000Y89550812D01*
X37518000Y89265188D01*
X37462277Y88985049D01*
X37352974Y88721169D01*
X37194287Y88483676D01*
X36992324Y88281713D01*
X36992321Y88281711D01*
X36754833Y88123027D01*
X36754832Y88123026D01*
X36754831Y88123026D01*
X36490951Y88013723D01*
X36304192Y87976574D01*
X36210813Y87958000D01*
X35925187Y87958000D01*
X35831808Y87976574D01*
X35645049Y88013723D01*
X35381169Y88123026D01*
X35381168Y88123026D01*
X35381167Y88123027D01*
X35143679Y88281711D01*
X35143676Y88281713D01*
X34941713Y88483676D01*
X34783026Y88721169D01*
X34673723Y88985049D01*
X34618000Y89265188D01*
X34618000Y89550812D01*
X34673723Y89830951D01*
X34783026Y90094831D01*
X34941713Y90332324D01*
X35143676Y90534287D01*
X35146833Y90536396D01*
X35381167Y90692973D01*
X35381169Y90692974D01*
X35645049Y90802277D01*
X35831808Y90839426D01*
X35925187Y90858000D01*
X36210813Y90858000D01*
X36304192Y90839426D01*
G37*
G36*
X104376192Y90839426D02*
G01*
X104562951Y90802277D01*
X104826831Y90692974D01*
X104826833Y90692973D01*
X105061167Y90536396D01*
X105064324Y90534287D01*
X105266287Y90332324D01*
X105424974Y90094831D01*
X105534277Y89830951D01*
X105590000Y89550812D01*
X105590000Y89265188D01*
X105534277Y88985049D01*
X105424974Y88721169D01*
X105266287Y88483676D01*
X105064324Y88281713D01*
X105064321Y88281711D01*
X104826833Y88123027D01*
X104826832Y88123026D01*
X104826831Y88123026D01*
X104562951Y88013723D01*
X104376192Y87976574D01*
X104282813Y87958000D01*
X103997187Y87958000D01*
X103903808Y87976574D01*
X103717049Y88013723D01*
X103453169Y88123026D01*
X103453168Y88123026D01*
X103453167Y88123027D01*
X103215679Y88281711D01*
X103215676Y88281713D01*
X103013713Y88483676D01*
X102855026Y88721169D01*
X102745723Y88985049D01*
X102690000Y89265188D01*
X102690000Y89550812D01*
X102745723Y89830951D01*
X102855026Y90094831D01*
X103013713Y90332324D01*
X103215676Y90534287D01*
X103218833Y90536396D01*
X103453167Y90692973D01*
X103453169Y90692974D01*
X103717049Y90802277D01*
X103903808Y90839426D01*
X103997187Y90858000D01*
X104282813Y90858000D01*
X104376192Y90839426D01*
G37*
G36*
X99296192Y90839426D02*
G01*
X99482951Y90802277D01*
X99746831Y90692974D01*
X99746833Y90692973D01*
X99981167Y90536396D01*
X99984324Y90534287D01*
X100186287Y90332324D01*
X100344974Y90094831D01*
X100454277Y89830951D01*
X100510000Y89550812D01*
X100510000Y89265188D01*
X100454277Y88985049D01*
X100344974Y88721169D01*
X100186287Y88483676D01*
X99984324Y88281713D01*
X99984321Y88281711D01*
X99746833Y88123027D01*
X99746832Y88123026D01*
X99746831Y88123026D01*
X99482951Y88013723D01*
X99296192Y87976574D01*
X99202813Y87958000D01*
X98917187Y87958000D01*
X98823808Y87976574D01*
X98637049Y88013723D01*
X98373169Y88123026D01*
X98373168Y88123026D01*
X98373167Y88123027D01*
X98135679Y88281711D01*
X98135676Y88281713D01*
X97933713Y88483676D01*
X97775026Y88721169D01*
X97665723Y88985049D01*
X97610000Y89265188D01*
X97610000Y89550812D01*
X97665723Y89830951D01*
X97775026Y90094831D01*
X97933713Y90332324D01*
X98135676Y90534287D01*
X98138833Y90536396D01*
X98373167Y90692973D01*
X98373169Y90692974D01*
X98637049Y90802277D01*
X98823808Y90839426D01*
X98917187Y90858000D01*
X99202813Y90858000D01*
X99296192Y90839426D01*
G37*
G36*
X89136192Y90839426D02*
G01*
X89322951Y90802277D01*
X89586831Y90692974D01*
X89586833Y90692973D01*
X89821167Y90536396D01*
X89824324Y90534287D01*
X90026287Y90332324D01*
X90184974Y90094831D01*
X90294277Y89830951D01*
X90350000Y89550812D01*
X90350000Y89265188D01*
X90294277Y88985049D01*
X90184974Y88721169D01*
X90026287Y88483676D01*
X89824324Y88281713D01*
X89824321Y88281711D01*
X89586833Y88123027D01*
X89586832Y88123026D01*
X89586831Y88123026D01*
X89322951Y88013723D01*
X89136192Y87976574D01*
X89042813Y87958000D01*
X88757187Y87958000D01*
X88663808Y87976574D01*
X88477049Y88013723D01*
X88213169Y88123026D01*
X88213168Y88123026D01*
X88213167Y88123027D01*
X87975679Y88281711D01*
X87975676Y88281713D01*
X87773713Y88483676D01*
X87615026Y88721169D01*
X87505723Y88985049D01*
X87450000Y89265188D01*
X87450000Y89550812D01*
X87505723Y89830951D01*
X87615026Y90094831D01*
X87773713Y90332324D01*
X87975676Y90534287D01*
X87978833Y90536396D01*
X88213167Y90692973D01*
X88213169Y90692974D01*
X88477049Y90802277D01*
X88663808Y90839426D01*
X88757187Y90858000D01*
X89042813Y90858000D01*
X89136192Y90839426D01*
G37*
G36*
X84056192Y90839426D02*
G01*
X84242951Y90802277D01*
X84506831Y90692974D01*
X84506833Y90692973D01*
X84741167Y90536396D01*
X84744324Y90534287D01*
X84946287Y90332324D01*
X85104974Y90094831D01*
X85214277Y89830951D01*
X85270000Y89550812D01*
X85270000Y89265188D01*
X85214277Y88985049D01*
X85104974Y88721169D01*
X84946287Y88483676D01*
X84744324Y88281713D01*
X84744321Y88281711D01*
X84506833Y88123027D01*
X84506832Y88123026D01*
X84506831Y88123026D01*
X84242951Y88013723D01*
X84056192Y87976574D01*
X83962813Y87958000D01*
X83677187Y87958000D01*
X83583808Y87976574D01*
X83397049Y88013723D01*
X83133169Y88123026D01*
X83133168Y88123026D01*
X83133167Y88123027D01*
X82895679Y88281711D01*
X82895676Y88281713D01*
X82693713Y88483676D01*
X82535026Y88721169D01*
X82425723Y88985049D01*
X82370000Y89265188D01*
X82370000Y89550812D01*
X82425723Y89830951D01*
X82535026Y90094831D01*
X82693713Y90332324D01*
X82895676Y90534287D01*
X82898833Y90536396D01*
X83133167Y90692973D01*
X83133169Y90692974D01*
X83397049Y90802277D01*
X83583808Y90839426D01*
X83677187Y90858000D01*
X83962813Y90858000D01*
X84056192Y90839426D01*
G37*
G36*
X78976192Y90839426D02*
G01*
X79162951Y90802277D01*
X79426831Y90692974D01*
X79426833Y90692973D01*
X79661167Y90536396D01*
X79664324Y90534287D01*
X79866287Y90332324D01*
X80024974Y90094831D01*
X80134277Y89830951D01*
X80190000Y89550812D01*
X80190000Y89265188D01*
X80134277Y88985049D01*
X80024974Y88721169D01*
X79866287Y88483676D01*
X79664324Y88281713D01*
X79664321Y88281711D01*
X79426833Y88123027D01*
X79426832Y88123026D01*
X79426831Y88123026D01*
X79162951Y88013723D01*
X78976192Y87976574D01*
X78882813Y87958000D01*
X78597187Y87958000D01*
X78503808Y87976574D01*
X78317049Y88013723D01*
X78053169Y88123026D01*
X78053168Y88123026D01*
X78053167Y88123027D01*
X77815679Y88281711D01*
X77815676Y88281713D01*
X77613713Y88483676D01*
X77455026Y88721169D01*
X77345723Y88985049D01*
X77290000Y89265188D01*
X77290000Y89550812D01*
X77345723Y89830951D01*
X77455026Y90094831D01*
X77613713Y90332324D01*
X77815676Y90534287D01*
X77818833Y90536396D01*
X78053167Y90692973D01*
X78053169Y90692974D01*
X78317049Y90802277D01*
X78503808Y90839426D01*
X78597187Y90858000D01*
X78882813Y90858000D01*
X78976192Y90839426D01*
G37*
G36*
X73896192Y90839426D02*
G01*
X74082951Y90802277D01*
X74346831Y90692974D01*
X74346833Y90692973D01*
X74581167Y90536396D01*
X74584324Y90534287D01*
X74786287Y90332324D01*
X74944974Y90094831D01*
X75054277Y89830951D01*
X75110000Y89550812D01*
X75110000Y89265188D01*
X75054277Y88985049D01*
X74944974Y88721169D01*
X74786287Y88483676D01*
X74584324Y88281713D01*
X74584321Y88281711D01*
X74346833Y88123027D01*
X74346832Y88123026D01*
X74346831Y88123026D01*
X74082951Y88013723D01*
X73896192Y87976574D01*
X73802813Y87958000D01*
X73517187Y87958000D01*
X73423808Y87976574D01*
X73237049Y88013723D01*
X72973169Y88123026D01*
X72973168Y88123026D01*
X72973167Y88123027D01*
X72735679Y88281711D01*
X72735676Y88281713D01*
X72533713Y88483676D01*
X72375026Y88721169D01*
X72265723Y88985049D01*
X72210000Y89265188D01*
X72210000Y89550812D01*
X72265723Y89830951D01*
X72375026Y90094831D01*
X72533713Y90332324D01*
X72735676Y90534287D01*
X72738833Y90536396D01*
X72973167Y90692973D01*
X72973169Y90692974D01*
X73237049Y90802277D01*
X73423808Y90839426D01*
X73517187Y90858000D01*
X73802813Y90858000D01*
X73896192Y90839426D01*
G37*
G36*
X68816192Y90839426D02*
G01*
X69002951Y90802277D01*
X69266831Y90692974D01*
X69266833Y90692973D01*
X69501167Y90536396D01*
X69504324Y90534287D01*
X69706287Y90332324D01*
X69864974Y90094831D01*
X69974277Y89830951D01*
X70030000Y89550812D01*
X70030000Y89265188D01*
X69974277Y88985049D01*
X69864974Y88721169D01*
X69706287Y88483676D01*
X69504324Y88281713D01*
X69504321Y88281711D01*
X69266833Y88123027D01*
X69266832Y88123026D01*
X69266831Y88123026D01*
X69002951Y88013723D01*
X68816192Y87976574D01*
X68722813Y87958000D01*
X68437187Y87958000D01*
X68343808Y87976574D01*
X68157049Y88013723D01*
X67893169Y88123026D01*
X67893168Y88123026D01*
X67893167Y88123027D01*
X67655679Y88281711D01*
X67655676Y88281713D01*
X67453713Y88483676D01*
X67295026Y88721169D01*
X67185723Y88985049D01*
X67130000Y89265188D01*
X67130000Y89550812D01*
X67185723Y89830951D01*
X67295026Y90094831D01*
X67453713Y90332324D01*
X67655676Y90534287D01*
X67658833Y90536396D01*
X67893167Y90692973D01*
X67893169Y90692974D01*
X68157049Y90802277D01*
X68343808Y90839426D01*
X68437187Y90858000D01*
X68722813Y90858000D01*
X68816192Y90839426D01*
G37*
G36*
X61704192Y90839426D02*
G01*
X61890951Y90802277D01*
X62154831Y90692974D01*
X62154833Y90692973D01*
X62389167Y90536396D01*
X62392324Y90534287D01*
X62594287Y90332324D01*
X62752974Y90094831D01*
X62862277Y89830951D01*
X62918000Y89550812D01*
X62918000Y89265188D01*
X62862277Y88985049D01*
X62752974Y88721169D01*
X62594287Y88483676D01*
X62392324Y88281713D01*
X62392321Y88281711D01*
X62154833Y88123027D01*
X62154832Y88123026D01*
X62154831Y88123026D01*
X61890951Y88013723D01*
X61704192Y87976574D01*
X61610813Y87958000D01*
X61325187Y87958000D01*
X61231808Y87976574D01*
X61045049Y88013723D01*
X60781169Y88123026D01*
X60781168Y88123026D01*
X60781167Y88123027D01*
X60543679Y88281711D01*
X60543676Y88281713D01*
X60341713Y88483676D01*
X60183026Y88721169D01*
X60073723Y88985049D01*
X60018000Y89265188D01*
X60018000Y89550812D01*
X60073723Y89830951D01*
X60183026Y90094831D01*
X60341713Y90332324D01*
X60543676Y90534287D01*
X60546833Y90536396D01*
X60781167Y90692973D01*
X60781169Y90692974D01*
X61045049Y90802277D01*
X61231808Y90839426D01*
X61325187Y90858000D01*
X61610813Y90858000D01*
X61704192Y90839426D01*
G37*
G36*
X56624192Y90839426D02*
G01*
X56810951Y90802277D01*
X57074831Y90692974D01*
X57074833Y90692973D01*
X57309167Y90536396D01*
X57312324Y90534287D01*
X57514287Y90332324D01*
X57672974Y90094831D01*
X57782277Y89830951D01*
X57838000Y89550812D01*
X57838000Y89265188D01*
X57782277Y88985049D01*
X57672974Y88721169D01*
X57514287Y88483676D01*
X57312324Y88281713D01*
X57312321Y88281711D01*
X57074833Y88123027D01*
X57074832Y88123026D01*
X57074831Y88123026D01*
X56810951Y88013723D01*
X56624192Y87976574D01*
X56530813Y87958000D01*
X56245187Y87958000D01*
X56151808Y87976574D01*
X55965049Y88013723D01*
X55701169Y88123026D01*
X55701168Y88123026D01*
X55701167Y88123027D01*
X55463679Y88281711D01*
X55463676Y88281713D01*
X55261713Y88483676D01*
X55103026Y88721169D01*
X54993723Y88985049D01*
X54938000Y89265188D01*
X54938000Y89550812D01*
X54993723Y89830951D01*
X55103026Y90094831D01*
X55261713Y90332324D01*
X55463676Y90534287D01*
X55466833Y90536396D01*
X55701167Y90692973D01*
X55701169Y90692974D01*
X55965049Y90802277D01*
X56151808Y90839426D01*
X56245187Y90858000D01*
X56530813Y90858000D01*
X56624192Y90839426D01*
G37*
G36*
X41384192Y90839426D02*
G01*
X41570951Y90802277D01*
X41834831Y90692974D01*
X41834833Y90692973D01*
X42069167Y90536396D01*
X42072324Y90534287D01*
X42274287Y90332324D01*
X42432974Y90094831D01*
X42542277Y89830951D01*
X42598000Y89550812D01*
X42598000Y89265188D01*
X42542277Y88985049D01*
X42432974Y88721169D01*
X42274287Y88483676D01*
X42072324Y88281713D01*
X42072321Y88281711D01*
X41834833Y88123027D01*
X41834832Y88123026D01*
X41834831Y88123026D01*
X41570951Y88013723D01*
X41384192Y87976574D01*
X41290813Y87958000D01*
X41005187Y87958000D01*
X40911808Y87976574D01*
X40725049Y88013723D01*
X40461169Y88123026D01*
X40461168Y88123026D01*
X40461167Y88123027D01*
X40223679Y88281711D01*
X40223676Y88281713D01*
X40021713Y88483676D01*
X39863026Y88721169D01*
X39753723Y88985049D01*
X39698000Y89265188D01*
X39698000Y89550812D01*
X39753723Y89830951D01*
X39863026Y90094831D01*
X40021713Y90332324D01*
X40223676Y90534287D01*
X40226833Y90536396D01*
X40461167Y90692973D01*
X40461169Y90692974D01*
X40725049Y90802277D01*
X40911808Y90839426D01*
X41005187Y90858000D01*
X41290813Y90858000D01*
X41384192Y90839426D01*
G37*
G36*
X46464192Y90839426D02*
G01*
X46650951Y90802277D01*
X46914831Y90692974D01*
X46914833Y90692973D01*
X47149167Y90536396D01*
X47152324Y90534287D01*
X47354287Y90332324D01*
X47512974Y90094831D01*
X47622277Y89830951D01*
X47678000Y89550812D01*
X47678000Y89265188D01*
X47622277Y88985049D01*
X47512974Y88721169D01*
X47354287Y88483676D01*
X47152324Y88281713D01*
X47152321Y88281711D01*
X46914833Y88123027D01*
X46914832Y88123026D01*
X46914831Y88123026D01*
X46650951Y88013723D01*
X46464192Y87976574D01*
X46370813Y87958000D01*
X46085187Y87958000D01*
X45991808Y87976574D01*
X45805049Y88013723D01*
X45541169Y88123026D01*
X45541168Y88123026D01*
X45541167Y88123027D01*
X45303679Y88281711D01*
X45303676Y88281713D01*
X45101713Y88483676D01*
X44943026Y88721169D01*
X44833723Y88985049D01*
X44778000Y89265188D01*
X44778000Y89550812D01*
X44833723Y89830951D01*
X44943026Y90094831D01*
X45101713Y90332324D01*
X45303676Y90534287D01*
X45306833Y90536396D01*
X45541167Y90692973D01*
X45541169Y90692974D01*
X45805049Y90802277D01*
X45991808Y90839426D01*
X46085187Y90858000D01*
X46370813Y90858000D01*
X46464192Y90839426D01*
G37*
G36*
X94216192Y90839426D02*
G01*
X94402951Y90802277D01*
X94666831Y90692974D01*
X94666833Y90692973D01*
X94901167Y90536396D01*
X94904324Y90534287D01*
X95106287Y90332324D01*
X95264974Y90094831D01*
X95374277Y89830951D01*
X95430000Y89550812D01*
X95430000Y89265188D01*
X95374277Y88985049D01*
X95264974Y88721169D01*
X95106287Y88483676D01*
X94904324Y88281713D01*
X94904321Y88281711D01*
X94666833Y88123027D01*
X94666832Y88123026D01*
X94666831Y88123026D01*
X94402951Y88013723D01*
X94216192Y87976574D01*
X94122813Y87958000D01*
X93837187Y87958000D01*
X93743808Y87976574D01*
X93557049Y88013723D01*
X93293169Y88123026D01*
X93293168Y88123026D01*
X93293167Y88123027D01*
X93055679Y88281711D01*
X93055676Y88281713D01*
X92853713Y88483676D01*
X92695026Y88721169D01*
X92585723Y88985049D01*
X92530000Y89265188D01*
X92530000Y89550812D01*
X92585723Y89830951D01*
X92695026Y90094831D01*
X92853713Y90332324D01*
X93055676Y90534287D01*
X93058833Y90536396D01*
X93293167Y90692973D01*
X93293169Y90692974D01*
X93557049Y90802277D01*
X93743808Y90839426D01*
X93837187Y90858000D01*
X94122813Y90858000D01*
X94216192Y90839426D01*
G37*
M02*
