G04 #@! TF.GenerationSoftware,KiCad,Pcbnew,(5.1.5)-3*
G04 #@! TF.CreationDate,2021-02-24T13:16:18+01:00*
G04 #@! TF.ProjectId,Projekt,50726f6a-656b-4742-9e6b-696361645f70,rev?*
G04 #@! TF.SameCoordinates,PX3778af0PY9765530*
G04 #@! TF.FileFunction,Copper,L1,Top*
G04 #@! TF.FilePolarity,Positive*
%FSLAX46Y46*%
G04 Gerber Fmt 4.6, Leading zero omitted, Abs format (unit mm)*
G04 Created by KiCad (PCBNEW (5.1.5)-3) date 2021-02-24 13:16:18*
%MOMM*%
%LPD*%
G04 APERTURE LIST*
%ADD10C,2.300000*%
%ADD11C,1.600000*%
%ADD12R,1.600000X1.600000*%
%ADD13O,1.600000X1.600000*%
%ADD14C,2.500000*%
%ADD15R,2.500000X2.500000*%
%ADD16C,2.540000*%
%ADD17C,3.500000*%
%ADD18C,1.500000*%
%ADD19C,1.000000*%
%ADD20C,0.254000*%
G04 APERTURE END LIST*
D10*
X104140000Y89408000D03*
X99060000Y89408000D03*
X93980000Y89408000D03*
X88900000Y89408000D03*
X83820000Y89408000D03*
X78740000Y89408000D03*
X73660000Y89408000D03*
X68580000Y89408000D03*
X61468000Y89408000D03*
X56388000Y89408000D03*
X51308000Y89408000D03*
X46228000Y89408000D03*
X41148000Y89408000D03*
X36068000Y89408000D03*
X30988000Y89408000D03*
X25908000Y89408000D03*
D11*
X82764000Y8128000D03*
D12*
X80264000Y8128000D03*
D13*
X71120000Y13716000D03*
X38100000Y21336000D03*
X68580000Y13716000D03*
X40640000Y21336000D03*
X66040000Y13716000D03*
X43180000Y21336000D03*
X63500000Y13716000D03*
X45720000Y21336000D03*
X60960000Y13716000D03*
X48260000Y21336000D03*
X58420000Y13716000D03*
X50800000Y21336000D03*
X55880000Y13716000D03*
X53340000Y21336000D03*
X53340000Y13716000D03*
X55880000Y21336000D03*
X50800000Y13716000D03*
X58420000Y21336000D03*
X48260000Y13716000D03*
X60960000Y21336000D03*
X45720000Y13716000D03*
X63500000Y21336000D03*
X43180000Y13716000D03*
X66040000Y21336000D03*
X40640000Y13716000D03*
X68580000Y21336000D03*
X38100000Y13716000D03*
D12*
X71120000Y21336000D03*
D10*
X18796000Y89408000D03*
X13716000Y89408000D03*
D14*
X27666000Y77684000D03*
X20066000Y75184000D03*
X27666000Y70084000D03*
D15*
X27666000Y59884000D03*
D16*
X20066000Y59884000D03*
D14*
X14966000Y77684000D03*
X7366000Y75184000D03*
X14966000Y70084000D03*
D15*
X14966000Y59884000D03*
D16*
X7366000Y59884000D03*
D14*
X40366000Y77684000D03*
X32766000Y75184000D03*
X40366000Y70084000D03*
D15*
X40366000Y59884000D03*
D16*
X32766000Y59884000D03*
D14*
X53086000Y77744000D03*
X45486000Y75244000D03*
X53086000Y70144000D03*
D15*
X53086000Y59944000D03*
D16*
X45486000Y59944000D03*
D14*
X27666000Y52284000D03*
X20066000Y49784000D03*
X27666000Y44684000D03*
D15*
X27666000Y34484000D03*
D16*
X20066000Y34484000D03*
D14*
X14986000Y52324000D03*
X7386000Y49824000D03*
X14986000Y44724000D03*
D15*
X14986000Y34524000D03*
D16*
X7386000Y34524000D03*
D14*
X91166000Y52284000D03*
X83566000Y49784000D03*
X91166000Y44684000D03*
D15*
X91166000Y34484000D03*
D16*
X83566000Y34484000D03*
D14*
X104374000Y77744000D03*
X96774000Y75244000D03*
X104374000Y70144000D03*
D15*
X104374000Y59944000D03*
D16*
X96774000Y59944000D03*
D14*
X78466000Y77684000D03*
X70866000Y75184000D03*
X78466000Y70084000D03*
D15*
X78466000Y59884000D03*
D16*
X70866000Y59884000D03*
D14*
X91166000Y77684000D03*
X83566000Y75184000D03*
X91166000Y70084000D03*
D15*
X91166000Y59884000D03*
D16*
X83566000Y59884000D03*
D14*
X65766000Y77684000D03*
X58166000Y75184000D03*
X65766000Y70084000D03*
D15*
X65766000Y59884000D03*
D16*
X58166000Y59884000D03*
D14*
X53066000Y52284000D03*
X45466000Y49784000D03*
X53066000Y44684000D03*
D15*
X53066000Y34484000D03*
D16*
X45466000Y34484000D03*
D14*
X104394000Y52344000D03*
X96794000Y49844000D03*
X104394000Y44744000D03*
D15*
X104394000Y34544000D03*
D16*
X96794000Y34544000D03*
D14*
X78466000Y52284000D03*
X70866000Y49784000D03*
X78466000Y44684000D03*
D15*
X78466000Y34484000D03*
D16*
X70866000Y34484000D03*
D14*
X65766000Y52284000D03*
X58166000Y49784000D03*
X65766000Y44684000D03*
D15*
X65766000Y34484000D03*
D16*
X58166000Y34484000D03*
D14*
X40366000Y52284000D03*
X32766000Y49784000D03*
X40366000Y44684000D03*
D15*
X40366000Y34484000D03*
D16*
X32766000Y34484000D03*
D17*
X31496000Y45974000D03*
X84582000Y70612000D03*
X32258000Y70866000D03*
X57912000Y70612000D03*
X70560000Y70612000D03*
X45006001Y70612000D03*
X96520000Y45974000D03*
X5588000Y45720000D03*
X57404000Y45974000D03*
X84328000Y45974000D03*
X19558000Y45720000D03*
X7366000Y70612000D03*
X19304000Y70612000D03*
X69850000Y45974000D03*
X44450000Y45974000D03*
X97536000Y70612000D03*
X27940000Y55880000D03*
X92202000Y55880000D03*
X42926000Y55118000D03*
X54851642Y54743999D03*
X53086000Y81280000D03*
X92202000Y81280000D03*
X104648000Y55880000D03*
X80010000Y55880000D03*
X68326000Y54683999D03*
X14486001Y55880000D03*
X40894000Y81280000D03*
X29740964Y81257036D03*
X16256000Y81280000D03*
X104902000Y81280000D03*
X78994000Y81280000D03*
X65480000Y81280000D03*
X84328000Y64262000D03*
X34798000Y37846000D03*
X25908000Y63754000D03*
X42164000Y64262000D03*
X17780000Y63754000D03*
X100584000Y38100000D03*
X68834000Y64262000D03*
X97028000Y64262000D03*
X55880000Y38354000D03*
X55626000Y64262000D03*
X43434000Y38354000D03*
X68326000Y38100000D03*
X46736000Y18034000D03*
X55371193Y27718684D03*
X75438000Y12766001D03*
X69596000Y25146000D03*
X33528000Y8636000D03*
D18*
X92629999Y42083999D02*
X83993999Y42083999D01*
X44450000Y43019998D02*
X44450000Y45974000D01*
X96520000Y45974000D02*
X92629999Y42083999D01*
X69676001Y42083999D02*
X57230001Y42083999D01*
X19558000Y42418000D02*
X19558000Y45720000D01*
X5588000Y45720000D02*
X8382000Y45720000D01*
X57230001Y42083999D02*
X57404000Y42257998D01*
X31576001Y42083999D02*
X31496000Y42164000D01*
X9224001Y42083999D02*
X5588000Y45720000D01*
X43514001Y42083999D02*
X44450000Y43019998D01*
X57404000Y42257998D02*
X57404000Y45974000D01*
X43514001Y42083999D02*
X31576001Y42083999D01*
X57230001Y42083999D02*
X43514001Y42083999D01*
X31576001Y42083999D02*
X19223999Y42083999D01*
X19223999Y42083999D02*
X19558000Y42418000D01*
X31496000Y42164000D02*
X31496000Y45974000D01*
X19223999Y42083999D02*
X9224001Y42083999D01*
X8382000Y45720000D02*
X10922000Y48260000D01*
X83993999Y42083999D02*
X84328000Y42418000D01*
X69676001Y42083999D02*
X69850000Y42257998D01*
X83993999Y42083999D02*
X69676001Y42083999D01*
X10922000Y67056000D02*
X10494001Y67483999D01*
X84328000Y42418000D02*
X84328000Y45974000D01*
X69850000Y42257998D02*
X69850000Y45974000D01*
X10922000Y48260000D02*
X10922000Y67056000D01*
X70438001Y67483999D02*
X58339999Y67483999D01*
X84662001Y67483999D02*
X70438001Y67483999D01*
X45006001Y67515999D02*
X45006001Y70612000D01*
X84662001Y67483999D02*
X84582000Y67564000D01*
X32177999Y67483999D02*
X19638001Y67483999D01*
X84582000Y67564000D02*
X84582000Y70612000D01*
X97536000Y70612000D02*
X94407999Y67483999D01*
X70560000Y67605998D02*
X70560000Y70612000D01*
X57912000Y67911998D02*
X57912000Y70612000D01*
X32177999Y67483999D02*
X32258000Y67564000D01*
X58339999Y67483999D02*
X57912000Y67911998D01*
X19304000Y67818000D02*
X19304000Y70612000D01*
X45038001Y67483999D02*
X45006001Y67515999D01*
X19638001Y67483999D02*
X10494001Y67483999D01*
X19638001Y67483999D02*
X19304000Y67818000D01*
X9115999Y68862001D02*
X7366000Y70612000D01*
X45038001Y67483999D02*
X32177999Y67483999D01*
X70438001Y67483999D02*
X70560000Y67605998D01*
X10494001Y67483999D02*
X9115999Y68862001D01*
X94407999Y67483999D02*
X84662001Y67483999D01*
X58339999Y67483999D02*
X45038001Y67483999D01*
X32258000Y67564000D02*
X32258000Y70866000D01*
X80010000Y55880000D02*
X69522001Y55880000D01*
X69522001Y55880000D02*
X68326000Y54683999D01*
X102427127Y81280000D02*
X100838000Y79690873D01*
X27940000Y55880000D02*
X42164000Y55880000D01*
X42926000Y55118000D02*
X54477641Y55118000D01*
X54477641Y55118000D02*
X54851642Y54743999D01*
X42164000Y55880000D02*
X42926000Y55118000D01*
X100838000Y79690873D02*
X100838000Y57215127D01*
X68326000Y54683999D02*
X54911642Y54683999D01*
X54911642Y54683999D02*
X54851642Y54743999D01*
X92202000Y55880000D02*
X80010000Y55880000D01*
X100838000Y57215127D02*
X102173127Y55880000D01*
X104902000Y81280000D02*
X102427127Y81280000D01*
X102173127Y55880000D02*
X104648000Y55880000D01*
X104648000Y55880000D02*
X92202000Y55880000D01*
X27940000Y55880000D02*
X14486001Y55880000D01*
X29763928Y81280000D02*
X29740964Y81257036D01*
X29740964Y81257036D02*
X16278964Y81257036D01*
X92202000Y81280000D02*
X78994000Y81280000D01*
X16278964Y81257036D02*
X16256000Y81280000D01*
X78994000Y81280000D02*
X29763928Y81280000D01*
X104902000Y81280000D02*
X92202000Y81280000D01*
X18288000Y64262000D02*
X17780000Y63754000D01*
X100330000Y37846000D02*
X100584000Y38100000D01*
D19*
X73970000Y26360000D02*
X72136000Y28194000D01*
X73970000Y14234001D02*
X73970000Y26360000D01*
X75438000Y12766001D02*
X73970000Y14234001D01*
X55846509Y28194000D02*
X55371193Y27718684D01*
X58872000Y28194000D02*
X55846509Y28194000D01*
X72136000Y28194000D02*
X58872000Y28194000D01*
X37187999Y23236001D02*
X33528000Y19576002D01*
X33528000Y19576002D02*
X33528000Y9906000D01*
X67686001Y23236001D02*
X37187999Y23236001D01*
X69596000Y25146000D02*
X67686001Y23236001D01*
D20*
G36*
X107011001Y3225000D02*
G01*
X3479000Y3225000D01*
X3479000Y8879963D01*
X31051000Y8879963D01*
X31051000Y8392037D01*
X31146190Y7913486D01*
X31332911Y7462701D01*
X31603989Y7057005D01*
X31949005Y6711989D01*
X32354701Y6440911D01*
X32805486Y6254190D01*
X33284037Y6159000D01*
X33771963Y6159000D01*
X34250514Y6254190D01*
X34701299Y6440911D01*
X35106995Y6711989D01*
X35452011Y7057005D01*
X35723089Y7462701D01*
X35909810Y7913486D01*
X36005000Y8392037D01*
X36005000Y8879963D01*
X35995445Y8928000D01*
X78733483Y8928000D01*
X78733483Y7328000D01*
X78747520Y7185483D01*
X78789090Y7048443D01*
X78856597Y6922147D01*
X78947446Y6811446D01*
X79058147Y6720597D01*
X79184443Y6653090D01*
X79321483Y6611520D01*
X79464000Y6597483D01*
X81064000Y6597483D01*
X81206517Y6611520D01*
X81343557Y6653090D01*
X81469853Y6720597D01*
X81580554Y6811446D01*
X81671403Y6922147D01*
X81738910Y7048443D01*
X81754341Y7099312D01*
X81834630Y7019023D01*
X81950903Y7135296D01*
X82022486Y6891329D01*
X82277996Y6770429D01*
X82552184Y6701700D01*
X82834512Y6687783D01*
X83114130Y6729213D01*
X83380292Y6824397D01*
X83505514Y6891329D01*
X83577097Y7135298D01*
X82764000Y7948395D01*
X82749858Y7934252D01*
X82570253Y8113857D01*
X82584395Y8128000D01*
X82943605Y8128000D01*
X83756702Y7314903D01*
X84000671Y7386486D01*
X84121571Y7641996D01*
X84190300Y7916184D01*
X84204217Y8198512D01*
X84162787Y8478130D01*
X84067603Y8744292D01*
X84000671Y8869514D01*
X83756702Y8941097D01*
X82943605Y8128000D01*
X82584395Y8128000D01*
X82570253Y8142142D01*
X82749858Y8321747D01*
X82764000Y8307605D01*
X83577097Y9120702D01*
X83505514Y9364671D01*
X83250004Y9485571D01*
X82975816Y9554300D01*
X82693488Y9568217D01*
X82413870Y9526787D01*
X82147708Y9431603D01*
X82022486Y9364671D01*
X81950903Y9120704D01*
X81834630Y9236977D01*
X81754341Y9156688D01*
X81738910Y9207557D01*
X81671403Y9333853D01*
X81580554Y9444554D01*
X81469853Y9535403D01*
X81343557Y9602910D01*
X81206517Y9644480D01*
X81064000Y9658517D01*
X79464000Y9658517D01*
X79321483Y9644480D01*
X79184443Y9602910D01*
X79058147Y9535403D01*
X78947446Y9444554D01*
X78856597Y9333853D01*
X78789090Y9207557D01*
X78747520Y9070517D01*
X78733483Y8928000D01*
X35995445Y8928000D01*
X35909810Y9358514D01*
X35723089Y9809299D01*
X35452011Y10214995D01*
X35106995Y10560011D01*
X34755000Y10795207D01*
X34755000Y13866396D01*
X36573000Y13866396D01*
X36573000Y13565604D01*
X36631681Y13270590D01*
X36746790Y12992694D01*
X36913901Y12742594D01*
X37126594Y12529901D01*
X37376694Y12362790D01*
X37654590Y12247681D01*
X37949604Y12189000D01*
X38250396Y12189000D01*
X38545410Y12247681D01*
X38823306Y12362790D01*
X39073406Y12529901D01*
X39286099Y12742594D01*
X39370000Y12868161D01*
X39453901Y12742594D01*
X39666594Y12529901D01*
X39916694Y12362790D01*
X40194590Y12247681D01*
X40489604Y12189000D01*
X40790396Y12189000D01*
X41085410Y12247681D01*
X41363306Y12362790D01*
X41613406Y12529901D01*
X41826099Y12742594D01*
X41910000Y12868161D01*
X41993901Y12742594D01*
X42206594Y12529901D01*
X42456694Y12362790D01*
X42734590Y12247681D01*
X43029604Y12189000D01*
X43330396Y12189000D01*
X43625410Y12247681D01*
X43903306Y12362790D01*
X44153406Y12529901D01*
X44366099Y12742594D01*
X44450000Y12868161D01*
X44533901Y12742594D01*
X44746594Y12529901D01*
X44996694Y12362790D01*
X45274590Y12247681D01*
X45569604Y12189000D01*
X45870396Y12189000D01*
X46165410Y12247681D01*
X46443306Y12362790D01*
X46693406Y12529901D01*
X46906099Y12742594D01*
X46990000Y12868161D01*
X47073901Y12742594D01*
X47286594Y12529901D01*
X47536694Y12362790D01*
X47814590Y12247681D01*
X48109604Y12189000D01*
X48410396Y12189000D01*
X48705410Y12247681D01*
X48983306Y12362790D01*
X49233406Y12529901D01*
X49446099Y12742594D01*
X49530000Y12868161D01*
X49613901Y12742594D01*
X49826594Y12529901D01*
X50076694Y12362790D01*
X50354590Y12247681D01*
X50649604Y12189000D01*
X50950396Y12189000D01*
X51245410Y12247681D01*
X51523306Y12362790D01*
X51773406Y12529901D01*
X51986099Y12742594D01*
X52070000Y12868161D01*
X52153901Y12742594D01*
X52366594Y12529901D01*
X52616694Y12362790D01*
X52894590Y12247681D01*
X53189604Y12189000D01*
X53490396Y12189000D01*
X53785410Y12247681D01*
X54063306Y12362790D01*
X54313406Y12529901D01*
X54526099Y12742594D01*
X54669677Y12957475D01*
X54727615Y12860869D01*
X54916586Y12652481D01*
X55142580Y12484963D01*
X55396913Y12364754D01*
X55530961Y12324096D01*
X55753000Y12446085D01*
X55753000Y13589000D01*
X55733000Y13589000D01*
X55733000Y13843000D01*
X55753000Y13843000D01*
X55753000Y14985915D01*
X56007000Y14985915D01*
X56007000Y13843000D01*
X56027000Y13843000D01*
X56027000Y13589000D01*
X56007000Y13589000D01*
X56007000Y12446085D01*
X56229039Y12324096D01*
X56363087Y12364754D01*
X56617420Y12484963D01*
X56843414Y12652481D01*
X57032385Y12860869D01*
X57090323Y12957475D01*
X57233901Y12742594D01*
X57446594Y12529901D01*
X57696694Y12362790D01*
X57974590Y12247681D01*
X58269604Y12189000D01*
X58570396Y12189000D01*
X58865410Y12247681D01*
X59143306Y12362790D01*
X59393406Y12529901D01*
X59606099Y12742594D01*
X59690000Y12868161D01*
X59773901Y12742594D01*
X59986594Y12529901D01*
X60236694Y12362790D01*
X60514590Y12247681D01*
X60809604Y12189000D01*
X61110396Y12189000D01*
X61405410Y12247681D01*
X61683306Y12362790D01*
X61933406Y12529901D01*
X62146099Y12742594D01*
X62230000Y12868161D01*
X62313901Y12742594D01*
X62526594Y12529901D01*
X62776694Y12362790D01*
X63054590Y12247681D01*
X63349604Y12189000D01*
X63650396Y12189000D01*
X63945410Y12247681D01*
X64223306Y12362790D01*
X64473406Y12529901D01*
X64686099Y12742594D01*
X64770000Y12868161D01*
X64853901Y12742594D01*
X65066594Y12529901D01*
X65316694Y12362790D01*
X65594590Y12247681D01*
X65889604Y12189000D01*
X66190396Y12189000D01*
X66485410Y12247681D01*
X66763306Y12362790D01*
X67013406Y12529901D01*
X67226099Y12742594D01*
X67310000Y12868161D01*
X67393901Y12742594D01*
X67606594Y12529901D01*
X67856694Y12362790D01*
X68134590Y12247681D01*
X68429604Y12189000D01*
X68730396Y12189000D01*
X69025410Y12247681D01*
X69303306Y12362790D01*
X69553406Y12529901D01*
X69766099Y12742594D01*
X69850000Y12868161D01*
X69933901Y12742594D01*
X70146594Y12529901D01*
X70396694Y12362790D01*
X70674590Y12247681D01*
X70969604Y12189000D01*
X71270396Y12189000D01*
X71565410Y12247681D01*
X71843306Y12362790D01*
X72093406Y12529901D01*
X72306099Y12742594D01*
X72473210Y12992694D01*
X72588319Y13270590D01*
X72647000Y13565604D01*
X72647000Y13866396D01*
X72588319Y14161410D01*
X72473210Y14439306D01*
X72306099Y14689406D01*
X72093406Y14902099D01*
X71843306Y15069210D01*
X71565410Y15184319D01*
X71270396Y15243000D01*
X70969604Y15243000D01*
X70674590Y15184319D01*
X70396694Y15069210D01*
X70146594Y14902099D01*
X69933901Y14689406D01*
X69850000Y14563839D01*
X69766099Y14689406D01*
X69553406Y14902099D01*
X69303306Y15069210D01*
X69025410Y15184319D01*
X68730396Y15243000D01*
X68429604Y15243000D01*
X68134590Y15184319D01*
X67856694Y15069210D01*
X67606594Y14902099D01*
X67393901Y14689406D01*
X67310000Y14563839D01*
X67226099Y14689406D01*
X67013406Y14902099D01*
X66763306Y15069210D01*
X66485410Y15184319D01*
X66190396Y15243000D01*
X65889604Y15243000D01*
X65594590Y15184319D01*
X65316694Y15069210D01*
X65066594Y14902099D01*
X64853901Y14689406D01*
X64770000Y14563839D01*
X64686099Y14689406D01*
X64473406Y14902099D01*
X64223306Y15069210D01*
X63945410Y15184319D01*
X63650396Y15243000D01*
X63349604Y15243000D01*
X63054590Y15184319D01*
X62776694Y15069210D01*
X62526594Y14902099D01*
X62313901Y14689406D01*
X62230000Y14563839D01*
X62146099Y14689406D01*
X61933406Y14902099D01*
X61683306Y15069210D01*
X61405410Y15184319D01*
X61110396Y15243000D01*
X60809604Y15243000D01*
X60514590Y15184319D01*
X60236694Y15069210D01*
X59986594Y14902099D01*
X59773901Y14689406D01*
X59690000Y14563839D01*
X59606099Y14689406D01*
X59393406Y14902099D01*
X59143306Y15069210D01*
X58865410Y15184319D01*
X58570396Y15243000D01*
X58269604Y15243000D01*
X57974590Y15184319D01*
X57696694Y15069210D01*
X57446594Y14902099D01*
X57233901Y14689406D01*
X57090323Y14474525D01*
X57032385Y14571131D01*
X56843414Y14779519D01*
X56617420Y14947037D01*
X56363087Y15067246D01*
X56229039Y15107904D01*
X56007000Y14985915D01*
X55753000Y14985915D01*
X55530961Y15107904D01*
X55396913Y15067246D01*
X55142580Y14947037D01*
X54916586Y14779519D01*
X54727615Y14571131D01*
X54669677Y14474525D01*
X54526099Y14689406D01*
X54313406Y14902099D01*
X54063306Y15069210D01*
X53785410Y15184319D01*
X53490396Y15243000D01*
X53189604Y15243000D01*
X52894590Y15184319D01*
X52616694Y15069210D01*
X52366594Y14902099D01*
X52153901Y14689406D01*
X52070000Y14563839D01*
X51986099Y14689406D01*
X51773406Y14902099D01*
X51523306Y15069210D01*
X51245410Y15184319D01*
X50950396Y15243000D01*
X50649604Y15243000D01*
X50354590Y15184319D01*
X50076694Y15069210D01*
X49826594Y14902099D01*
X49613901Y14689406D01*
X49530000Y14563839D01*
X49446099Y14689406D01*
X49233406Y14902099D01*
X48983306Y15069210D01*
X48705410Y15184319D01*
X48410396Y15243000D01*
X48109604Y15243000D01*
X47814590Y15184319D01*
X47536694Y15069210D01*
X47286594Y14902099D01*
X47073901Y14689406D01*
X46990000Y14563839D01*
X46906099Y14689406D01*
X46693406Y14902099D01*
X46443306Y15069210D01*
X46165410Y15184319D01*
X45870396Y15243000D01*
X45569604Y15243000D01*
X45274590Y15184319D01*
X44996694Y15069210D01*
X44746594Y14902099D01*
X44533901Y14689406D01*
X44450000Y14563839D01*
X44366099Y14689406D01*
X44153406Y14902099D01*
X43903306Y15069210D01*
X43625410Y15184319D01*
X43330396Y15243000D01*
X43029604Y15243000D01*
X42734590Y15184319D01*
X42456694Y15069210D01*
X42206594Y14902099D01*
X41993901Y14689406D01*
X41910000Y14563839D01*
X41826099Y14689406D01*
X41613406Y14902099D01*
X41363306Y15069210D01*
X41085410Y15184319D01*
X40790396Y15243000D01*
X40489604Y15243000D01*
X40194590Y15184319D01*
X39916694Y15069210D01*
X39666594Y14902099D01*
X39453901Y14689406D01*
X39370000Y14563839D01*
X39286099Y14689406D01*
X39073406Y14902099D01*
X38823306Y15069210D01*
X38545410Y15184319D01*
X38250396Y15243000D01*
X37949604Y15243000D01*
X37654590Y15184319D01*
X37376694Y15069210D01*
X37126594Y14902099D01*
X36913901Y14689406D01*
X36746790Y14439306D01*
X36631681Y14161410D01*
X36573000Y13866396D01*
X34755000Y13866396D01*
X34755000Y19067763D01*
X36622746Y20935509D01*
X36631681Y20890590D01*
X36746790Y20612694D01*
X36913901Y20362594D01*
X37126594Y20149901D01*
X37376694Y19982790D01*
X37654590Y19867681D01*
X37949604Y19809000D01*
X38250396Y19809000D01*
X38545410Y19867681D01*
X38823306Y19982790D01*
X39073406Y20149901D01*
X39286099Y20362594D01*
X39370000Y20488161D01*
X39453901Y20362594D01*
X39666594Y20149901D01*
X39916694Y19982790D01*
X40194590Y19867681D01*
X40489604Y19809000D01*
X40790396Y19809000D01*
X41085410Y19867681D01*
X41363306Y19982790D01*
X41613406Y20149901D01*
X41826099Y20362594D01*
X41910000Y20488161D01*
X41993901Y20362594D01*
X42206594Y20149901D01*
X42456694Y19982790D01*
X42734590Y19867681D01*
X43029604Y19809000D01*
X43330396Y19809000D01*
X43625410Y19867681D01*
X43903306Y19982790D01*
X44153406Y20149901D01*
X44366099Y20362594D01*
X44450000Y20488161D01*
X44533901Y20362594D01*
X44746594Y20149901D01*
X44996694Y19982790D01*
X45274590Y19867681D01*
X45569604Y19809000D01*
X45870396Y19809000D01*
X46165410Y19867681D01*
X46443306Y19982790D01*
X46693406Y20149901D01*
X46906099Y20362594D01*
X46990000Y20488161D01*
X47073901Y20362594D01*
X47286594Y20149901D01*
X47536694Y19982790D01*
X47814590Y19867681D01*
X48109604Y19809000D01*
X48410396Y19809000D01*
X48705410Y19867681D01*
X48983306Y19982790D01*
X49233406Y20149901D01*
X49446099Y20362594D01*
X49530000Y20488161D01*
X49613901Y20362594D01*
X49826594Y20149901D01*
X50076694Y19982790D01*
X50354590Y19867681D01*
X50649604Y19809000D01*
X50950396Y19809000D01*
X51245410Y19867681D01*
X51523306Y19982790D01*
X51773406Y20149901D01*
X51986099Y20362594D01*
X52129677Y20577475D01*
X52187615Y20480869D01*
X52376586Y20272481D01*
X52602580Y20104963D01*
X52856913Y19984754D01*
X52990961Y19944096D01*
X53213000Y20066085D01*
X53213000Y21209000D01*
X53193000Y21209000D01*
X53193000Y21463000D01*
X53213000Y21463000D01*
X53213000Y21483000D01*
X53467000Y21483000D01*
X53467000Y21463000D01*
X53487000Y21463000D01*
X53487000Y21209000D01*
X53467000Y21209000D01*
X53467000Y20066085D01*
X53689039Y19944096D01*
X53823087Y19984754D01*
X54077420Y20104963D01*
X54303414Y20272481D01*
X54492385Y20480869D01*
X54550323Y20577475D01*
X54693901Y20362594D01*
X54906594Y20149901D01*
X55156694Y19982790D01*
X55434590Y19867681D01*
X55729604Y19809000D01*
X56030396Y19809000D01*
X56325410Y19867681D01*
X56603306Y19982790D01*
X56853406Y20149901D01*
X57066099Y20362594D01*
X57150000Y20488161D01*
X57233901Y20362594D01*
X57446594Y20149901D01*
X57696694Y19982790D01*
X57974590Y19867681D01*
X58269604Y19809000D01*
X58570396Y19809000D01*
X58865410Y19867681D01*
X59143306Y19982790D01*
X59393406Y20149901D01*
X59606099Y20362594D01*
X59690000Y20488161D01*
X59773901Y20362594D01*
X59986594Y20149901D01*
X60236694Y19982790D01*
X60514590Y19867681D01*
X60809604Y19809000D01*
X61110396Y19809000D01*
X61405410Y19867681D01*
X61683306Y19982790D01*
X61933406Y20149901D01*
X62146099Y20362594D01*
X62230000Y20488161D01*
X62313901Y20362594D01*
X62526594Y20149901D01*
X62776694Y19982790D01*
X63054590Y19867681D01*
X63349604Y19809000D01*
X63650396Y19809000D01*
X63945410Y19867681D01*
X64223306Y19982790D01*
X64473406Y20149901D01*
X64686099Y20362594D01*
X64770000Y20488161D01*
X64853901Y20362594D01*
X65066594Y20149901D01*
X65316694Y19982790D01*
X65594590Y19867681D01*
X65889604Y19809000D01*
X66190396Y19809000D01*
X66485410Y19867681D01*
X66763306Y19982790D01*
X67013406Y20149901D01*
X67226099Y20362594D01*
X67310000Y20488161D01*
X67393901Y20362594D01*
X67606594Y20149901D01*
X67856694Y19982790D01*
X68134590Y19867681D01*
X68429604Y19809000D01*
X68730396Y19809000D01*
X69025410Y19867681D01*
X69303306Y19982790D01*
X69553406Y20149901D01*
X69650265Y20246760D01*
X69712597Y20130147D01*
X69803446Y20019446D01*
X69914147Y19928597D01*
X70040443Y19861090D01*
X70177483Y19819520D01*
X70320000Y19805483D01*
X71920000Y19805483D01*
X72062517Y19819520D01*
X72199557Y19861090D01*
X72325853Y19928597D01*
X72436554Y20019446D01*
X72527403Y20130147D01*
X72594910Y20256443D01*
X72636480Y20393483D01*
X72650517Y20536000D01*
X72650517Y22136000D01*
X72636480Y22278517D01*
X72594910Y22415557D01*
X72527403Y22541853D01*
X72436554Y22652554D01*
X72325853Y22743403D01*
X72199557Y22810910D01*
X72062517Y22852480D01*
X71920000Y22866517D01*
X70565554Y22866517D01*
X70769299Y22950911D01*
X71174995Y23221989D01*
X71520011Y23567005D01*
X71791089Y23972701D01*
X71977810Y24423486D01*
X72073000Y24902037D01*
X72073000Y25389963D01*
X71977810Y25868514D01*
X71791089Y26319299D01*
X71520011Y26724995D01*
X71278006Y26967000D01*
X71627761Y26967000D01*
X72743001Y25851759D01*
X72743000Y14294261D01*
X72737065Y14234001D01*
X72743000Y14173741D01*
X72743000Y14173734D01*
X72760755Y13993468D01*
X72830916Y13762178D01*
X72944851Y13549019D01*
X73044156Y13428016D01*
X72961000Y13009964D01*
X72961000Y12522038D01*
X73056190Y12043487D01*
X73242911Y11592702D01*
X73513989Y11187006D01*
X73859005Y10841990D01*
X74264701Y10570912D01*
X74715486Y10384191D01*
X75194037Y10289001D01*
X75681963Y10289001D01*
X76160514Y10384191D01*
X76611299Y10570912D01*
X77016995Y10841990D01*
X77362011Y11187006D01*
X77633089Y11592702D01*
X77819810Y12043487D01*
X77915000Y12522038D01*
X77915000Y13009964D01*
X77819810Y13488515D01*
X77633089Y13939300D01*
X77362011Y14344996D01*
X77016995Y14690012D01*
X76611299Y14961090D01*
X76160514Y15147811D01*
X75681963Y15243001D01*
X75197000Y15243001D01*
X75197000Y26299737D01*
X75202935Y26360000D01*
X75179246Y26600534D01*
X75109084Y26831824D01*
X75101043Y26846867D01*
X74995149Y27044983D01*
X74841817Y27231817D01*
X74795005Y27270235D01*
X73046239Y29019000D01*
X73007817Y29065817D01*
X72820983Y29219149D01*
X72607824Y29333084D01*
X72376534Y29403245D01*
X72196268Y29421000D01*
X72196260Y29421000D01*
X72136000Y29426935D01*
X72075740Y29421000D01*
X57171883Y29421000D01*
X56950188Y29642695D01*
X56544492Y29913773D01*
X56093707Y30100494D01*
X55615156Y30195684D01*
X55127230Y30195684D01*
X54648679Y30100494D01*
X54197894Y29913773D01*
X53792198Y29642695D01*
X53447182Y29297679D01*
X53176104Y28891983D01*
X52989383Y28441198D01*
X52894193Y27962647D01*
X52894193Y27474721D01*
X52989383Y26996170D01*
X53176104Y26545385D01*
X53447182Y26139689D01*
X53792198Y25794673D01*
X54197894Y25523595D01*
X54648679Y25336874D01*
X55127230Y25241684D01*
X55615156Y25241684D01*
X56093707Y25336874D01*
X56544492Y25523595D01*
X56950188Y25794673D01*
X57295204Y26139689D01*
X57566282Y26545385D01*
X57740920Y26967000D01*
X67913994Y26967000D01*
X67671989Y26724995D01*
X67400911Y26319299D01*
X67214190Y25868514D01*
X67119000Y25389963D01*
X67119000Y24902037D01*
X67201590Y24486829D01*
X67177762Y24463001D01*
X37248258Y24463001D01*
X37187998Y24468936D01*
X37127738Y24463001D01*
X37127731Y24463001D01*
X36947465Y24445246D01*
X36716175Y24375085D01*
X36503016Y24261150D01*
X36316182Y24107818D01*
X36277764Y24061006D01*
X32703000Y20486241D01*
X32656183Y20447819D01*
X32502851Y20260984D01*
X32388916Y20047825D01*
X32318755Y19816535D01*
X32301000Y19636269D01*
X32301000Y19636262D01*
X32295065Y19576002D01*
X32301000Y19515742D01*
X32301001Y10795208D01*
X31949005Y10560011D01*
X31603989Y10214995D01*
X31332911Y9809299D01*
X31146190Y9358514D01*
X31051000Y8879963D01*
X3479000Y8879963D01*
X3479000Y34720687D01*
X5389000Y34720687D01*
X5389000Y34327313D01*
X5465743Y33941496D01*
X5616281Y33578066D01*
X5834829Y33250986D01*
X6112986Y32972829D01*
X6440066Y32754281D01*
X6803496Y32603743D01*
X7189313Y32527000D01*
X7582687Y32527000D01*
X7968504Y32603743D01*
X8331934Y32754281D01*
X8659014Y32972829D01*
X8937171Y33250986D01*
X8952548Y33274000D01*
X13097928Y33274000D01*
X13110188Y33149518D01*
X13146498Y33029820D01*
X13205463Y32919506D01*
X13284815Y32822815D01*
X13381506Y32743463D01*
X13491820Y32684498D01*
X13611518Y32648188D01*
X13736000Y32635928D01*
X14700250Y32639000D01*
X14859000Y32797750D01*
X14859000Y34397000D01*
X15113000Y34397000D01*
X15113000Y32797750D01*
X15271750Y32639000D01*
X16236000Y32635928D01*
X16360482Y32648188D01*
X16480180Y32684498D01*
X16590494Y32743463D01*
X16687185Y32822815D01*
X16766537Y32919506D01*
X16825502Y33029820D01*
X16861812Y33149518D01*
X16874072Y33274000D01*
X16871000Y34238250D01*
X16712250Y34397000D01*
X15113000Y34397000D01*
X14859000Y34397000D01*
X13259750Y34397000D01*
X13101000Y34238250D01*
X13097928Y33274000D01*
X8952548Y33274000D01*
X9155719Y33578066D01*
X9306257Y33941496D01*
X9383000Y34327313D01*
X9383000Y34720687D01*
X9306257Y35106504D01*
X9155719Y35469934D01*
X8952549Y35774000D01*
X13097928Y35774000D01*
X13101000Y34809750D01*
X13259750Y34651000D01*
X14859000Y34651000D01*
X14859000Y36250250D01*
X15113000Y36250250D01*
X15113000Y34651000D01*
X16712250Y34651000D01*
X16741937Y34680687D01*
X18069000Y34680687D01*
X18069000Y34287313D01*
X18145743Y33901496D01*
X18296281Y33538066D01*
X18514829Y33210986D01*
X18792986Y32932829D01*
X19120066Y32714281D01*
X19483496Y32563743D01*
X19869313Y32487000D01*
X20262687Y32487000D01*
X20648504Y32563743D01*
X21011934Y32714281D01*
X21339014Y32932829D01*
X21617171Y33210986D01*
X21632548Y33234000D01*
X25777928Y33234000D01*
X25790188Y33109518D01*
X25826498Y32989820D01*
X25885463Y32879506D01*
X25964815Y32782815D01*
X26061506Y32703463D01*
X26171820Y32644498D01*
X26291518Y32608188D01*
X26416000Y32595928D01*
X27380250Y32599000D01*
X27539000Y32757750D01*
X27539000Y34357000D01*
X27793000Y34357000D01*
X27793000Y32757750D01*
X27951750Y32599000D01*
X28916000Y32595928D01*
X29040482Y32608188D01*
X29160180Y32644498D01*
X29270494Y32703463D01*
X29367185Y32782815D01*
X29446537Y32879506D01*
X29505502Y32989820D01*
X29541812Y33109518D01*
X29554072Y33234000D01*
X29551000Y34198250D01*
X29392250Y34357000D01*
X27793000Y34357000D01*
X27539000Y34357000D01*
X25939750Y34357000D01*
X25781000Y34198250D01*
X25777928Y33234000D01*
X21632548Y33234000D01*
X21835719Y33538066D01*
X21986257Y33901496D01*
X22063000Y34287313D01*
X22063000Y34680687D01*
X21986257Y35066504D01*
X21835719Y35429934D01*
X21632549Y35734000D01*
X25777928Y35734000D01*
X25781000Y34769750D01*
X25939750Y34611000D01*
X27539000Y34611000D01*
X27539000Y36210250D01*
X27793000Y36210250D01*
X27793000Y34611000D01*
X29392250Y34611000D01*
X29461937Y34680687D01*
X30769000Y34680687D01*
X30769000Y34287313D01*
X30845743Y33901496D01*
X30996281Y33538066D01*
X31214829Y33210986D01*
X31492986Y32932829D01*
X31820066Y32714281D01*
X32183496Y32563743D01*
X32569313Y32487000D01*
X32962687Y32487000D01*
X33348504Y32563743D01*
X33711934Y32714281D01*
X34039014Y32932829D01*
X34317171Y33210986D01*
X34332548Y33234000D01*
X38477928Y33234000D01*
X38490188Y33109518D01*
X38526498Y32989820D01*
X38585463Y32879506D01*
X38664815Y32782815D01*
X38761506Y32703463D01*
X38871820Y32644498D01*
X38991518Y32608188D01*
X39116000Y32595928D01*
X40080250Y32599000D01*
X40239000Y32757750D01*
X40239000Y34357000D01*
X40493000Y34357000D01*
X40493000Y32757750D01*
X40651750Y32599000D01*
X41616000Y32595928D01*
X41740482Y32608188D01*
X41860180Y32644498D01*
X41970494Y32703463D01*
X42067185Y32782815D01*
X42146537Y32879506D01*
X42205502Y32989820D01*
X42241812Y33109518D01*
X42254072Y33234000D01*
X42251000Y34198250D01*
X42092250Y34357000D01*
X40493000Y34357000D01*
X40239000Y34357000D01*
X38639750Y34357000D01*
X38481000Y34198250D01*
X38477928Y33234000D01*
X34332548Y33234000D01*
X34535719Y33538066D01*
X34686257Y33901496D01*
X34763000Y34287313D01*
X34763000Y34680687D01*
X34686257Y35066504D01*
X34535719Y35429934D01*
X34332549Y35734000D01*
X38477928Y35734000D01*
X38481000Y34769750D01*
X38639750Y34611000D01*
X40239000Y34611000D01*
X40239000Y36210250D01*
X40493000Y36210250D01*
X40493000Y34611000D01*
X42092250Y34611000D01*
X42161937Y34680687D01*
X43469000Y34680687D01*
X43469000Y34287313D01*
X43545743Y33901496D01*
X43696281Y33538066D01*
X43914829Y33210986D01*
X44192986Y32932829D01*
X44520066Y32714281D01*
X44883496Y32563743D01*
X45269313Y32487000D01*
X45662687Y32487000D01*
X46048504Y32563743D01*
X46411934Y32714281D01*
X46739014Y32932829D01*
X47017171Y33210986D01*
X47032548Y33234000D01*
X51177928Y33234000D01*
X51190188Y33109518D01*
X51226498Y32989820D01*
X51285463Y32879506D01*
X51364815Y32782815D01*
X51461506Y32703463D01*
X51571820Y32644498D01*
X51691518Y32608188D01*
X51816000Y32595928D01*
X52780250Y32599000D01*
X52939000Y32757750D01*
X52939000Y34357000D01*
X53193000Y34357000D01*
X53193000Y32757750D01*
X53351750Y32599000D01*
X54316000Y32595928D01*
X54440482Y32608188D01*
X54560180Y32644498D01*
X54670494Y32703463D01*
X54767185Y32782815D01*
X54846537Y32879506D01*
X54905502Y32989820D01*
X54941812Y33109518D01*
X54954072Y33234000D01*
X54951000Y34198250D01*
X54792250Y34357000D01*
X53193000Y34357000D01*
X52939000Y34357000D01*
X51339750Y34357000D01*
X51181000Y34198250D01*
X51177928Y33234000D01*
X47032548Y33234000D01*
X47235719Y33538066D01*
X47386257Y33901496D01*
X47463000Y34287313D01*
X47463000Y34680687D01*
X47386257Y35066504D01*
X47235719Y35429934D01*
X47032549Y35734000D01*
X51177928Y35734000D01*
X51181000Y34769750D01*
X51339750Y34611000D01*
X52939000Y34611000D01*
X52939000Y36210250D01*
X53193000Y36210250D01*
X53193000Y34611000D01*
X54792250Y34611000D01*
X54861937Y34680687D01*
X56169000Y34680687D01*
X56169000Y34287313D01*
X56245743Y33901496D01*
X56396281Y33538066D01*
X56614829Y33210986D01*
X56892986Y32932829D01*
X57220066Y32714281D01*
X57583496Y32563743D01*
X57969313Y32487000D01*
X58362687Y32487000D01*
X58748504Y32563743D01*
X59111934Y32714281D01*
X59439014Y32932829D01*
X59717171Y33210986D01*
X59732548Y33234000D01*
X63877928Y33234000D01*
X63890188Y33109518D01*
X63926498Y32989820D01*
X63985463Y32879506D01*
X64064815Y32782815D01*
X64161506Y32703463D01*
X64271820Y32644498D01*
X64391518Y32608188D01*
X64516000Y32595928D01*
X65480250Y32599000D01*
X65639000Y32757750D01*
X65639000Y34357000D01*
X65893000Y34357000D01*
X65893000Y32757750D01*
X66051750Y32599000D01*
X67016000Y32595928D01*
X67140482Y32608188D01*
X67260180Y32644498D01*
X67370494Y32703463D01*
X67467185Y32782815D01*
X67546537Y32879506D01*
X67605502Y32989820D01*
X67641812Y33109518D01*
X67654072Y33234000D01*
X67651000Y34198250D01*
X67492250Y34357000D01*
X65893000Y34357000D01*
X65639000Y34357000D01*
X64039750Y34357000D01*
X63881000Y34198250D01*
X63877928Y33234000D01*
X59732548Y33234000D01*
X59935719Y33538066D01*
X60086257Y33901496D01*
X60163000Y34287313D01*
X60163000Y34680687D01*
X60086257Y35066504D01*
X59935719Y35429934D01*
X59732549Y35734000D01*
X63877928Y35734000D01*
X63881000Y34769750D01*
X64039750Y34611000D01*
X65639000Y34611000D01*
X65639000Y36210250D01*
X65893000Y36210250D01*
X65893000Y34611000D01*
X67492250Y34611000D01*
X67561937Y34680687D01*
X68869000Y34680687D01*
X68869000Y34287313D01*
X68945743Y33901496D01*
X69096281Y33538066D01*
X69314829Y33210986D01*
X69592986Y32932829D01*
X69920066Y32714281D01*
X70283496Y32563743D01*
X70669313Y32487000D01*
X71062687Y32487000D01*
X71448504Y32563743D01*
X71811934Y32714281D01*
X72139014Y32932829D01*
X72417171Y33210986D01*
X72432548Y33234000D01*
X76577928Y33234000D01*
X76590188Y33109518D01*
X76626498Y32989820D01*
X76685463Y32879506D01*
X76764815Y32782815D01*
X76861506Y32703463D01*
X76971820Y32644498D01*
X77091518Y32608188D01*
X77216000Y32595928D01*
X78180250Y32599000D01*
X78339000Y32757750D01*
X78339000Y34357000D01*
X78593000Y34357000D01*
X78593000Y32757750D01*
X78751750Y32599000D01*
X79716000Y32595928D01*
X79840482Y32608188D01*
X79960180Y32644498D01*
X80070494Y32703463D01*
X80167185Y32782815D01*
X80246537Y32879506D01*
X80305502Y32989820D01*
X80341812Y33109518D01*
X80354072Y33234000D01*
X80351000Y34198250D01*
X80192250Y34357000D01*
X78593000Y34357000D01*
X78339000Y34357000D01*
X76739750Y34357000D01*
X76581000Y34198250D01*
X76577928Y33234000D01*
X72432548Y33234000D01*
X72635719Y33538066D01*
X72786257Y33901496D01*
X72863000Y34287313D01*
X72863000Y34680687D01*
X72786257Y35066504D01*
X72635719Y35429934D01*
X72432549Y35734000D01*
X76577928Y35734000D01*
X76581000Y34769750D01*
X76739750Y34611000D01*
X78339000Y34611000D01*
X78339000Y36210250D01*
X78593000Y36210250D01*
X78593000Y34611000D01*
X80192250Y34611000D01*
X80261937Y34680687D01*
X81569000Y34680687D01*
X81569000Y34287313D01*
X81645743Y33901496D01*
X81796281Y33538066D01*
X82014829Y33210986D01*
X82292986Y32932829D01*
X82620066Y32714281D01*
X82983496Y32563743D01*
X83369313Y32487000D01*
X83762687Y32487000D01*
X84148504Y32563743D01*
X84511934Y32714281D01*
X84839014Y32932829D01*
X85117171Y33210986D01*
X85132548Y33234000D01*
X89277928Y33234000D01*
X89290188Y33109518D01*
X89326498Y32989820D01*
X89385463Y32879506D01*
X89464815Y32782815D01*
X89561506Y32703463D01*
X89671820Y32644498D01*
X89791518Y32608188D01*
X89916000Y32595928D01*
X90880250Y32599000D01*
X91039000Y32757750D01*
X91039000Y34357000D01*
X91293000Y34357000D01*
X91293000Y32757750D01*
X91451750Y32599000D01*
X92416000Y32595928D01*
X92540482Y32608188D01*
X92660180Y32644498D01*
X92770494Y32703463D01*
X92867185Y32782815D01*
X92946537Y32879506D01*
X93005502Y32989820D01*
X93041812Y33109518D01*
X93054072Y33234000D01*
X93051000Y34198250D01*
X92892250Y34357000D01*
X91293000Y34357000D01*
X91039000Y34357000D01*
X89439750Y34357000D01*
X89281000Y34198250D01*
X89277928Y33234000D01*
X85132548Y33234000D01*
X85335719Y33538066D01*
X85486257Y33901496D01*
X85563000Y34287313D01*
X85563000Y34680687D01*
X85486257Y35066504D01*
X85335719Y35429934D01*
X85132549Y35734000D01*
X89277928Y35734000D01*
X89281000Y34769750D01*
X89439750Y34611000D01*
X91039000Y34611000D01*
X91039000Y36210250D01*
X91293000Y36210250D01*
X91293000Y34611000D01*
X92892250Y34611000D01*
X93021937Y34740687D01*
X94797000Y34740687D01*
X94797000Y34347313D01*
X94873743Y33961496D01*
X95024281Y33598066D01*
X95242829Y33270986D01*
X95520986Y32992829D01*
X95848066Y32774281D01*
X96211496Y32623743D01*
X96597313Y32547000D01*
X96990687Y32547000D01*
X97376504Y32623743D01*
X97739934Y32774281D01*
X98067014Y32992829D01*
X98345171Y33270986D01*
X98360548Y33294000D01*
X102505928Y33294000D01*
X102518188Y33169518D01*
X102554498Y33049820D01*
X102613463Y32939506D01*
X102692815Y32842815D01*
X102789506Y32763463D01*
X102899820Y32704498D01*
X103019518Y32668188D01*
X103144000Y32655928D01*
X104108250Y32659000D01*
X104267000Y32817750D01*
X104267000Y34417000D01*
X104521000Y34417000D01*
X104521000Y32817750D01*
X104679750Y32659000D01*
X105644000Y32655928D01*
X105768482Y32668188D01*
X105888180Y32704498D01*
X105998494Y32763463D01*
X106095185Y32842815D01*
X106174537Y32939506D01*
X106233502Y33049820D01*
X106269812Y33169518D01*
X106282072Y33294000D01*
X106279000Y34258250D01*
X106120250Y34417000D01*
X104521000Y34417000D01*
X104267000Y34417000D01*
X102667750Y34417000D01*
X102509000Y34258250D01*
X102505928Y33294000D01*
X98360548Y33294000D01*
X98563719Y33598066D01*
X98714257Y33961496D01*
X98791000Y34347313D01*
X98791000Y34740687D01*
X98714257Y35126504D01*
X98563719Y35489934D01*
X98360549Y35794000D01*
X102505928Y35794000D01*
X102509000Y34829750D01*
X102667750Y34671000D01*
X104267000Y34671000D01*
X104267000Y36270250D01*
X104521000Y36270250D01*
X104521000Y34671000D01*
X106120250Y34671000D01*
X106279000Y34829750D01*
X106282072Y35794000D01*
X106269812Y35918482D01*
X106233502Y36038180D01*
X106174537Y36148494D01*
X106095185Y36245185D01*
X105998494Y36324537D01*
X105888180Y36383502D01*
X105768482Y36419812D01*
X105644000Y36432072D01*
X104679750Y36429000D01*
X104521000Y36270250D01*
X104267000Y36270250D01*
X104108250Y36429000D01*
X103144000Y36432072D01*
X103019518Y36419812D01*
X102899820Y36383502D01*
X102789506Y36324537D01*
X102692815Y36245185D01*
X102613463Y36148494D01*
X102554498Y36038180D01*
X102518188Y35918482D01*
X102505928Y35794000D01*
X98360549Y35794000D01*
X98345171Y35817014D01*
X98067014Y36095171D01*
X97739934Y36313719D01*
X97376504Y36464257D01*
X96990687Y36541000D01*
X96597313Y36541000D01*
X96211496Y36464257D01*
X95848066Y36313719D01*
X95520986Y36095171D01*
X95242829Y35817014D01*
X95024281Y35489934D01*
X94873743Y35126504D01*
X94797000Y34740687D01*
X93021937Y34740687D01*
X93051000Y34769750D01*
X93054072Y35734000D01*
X93041812Y35858482D01*
X93005502Y35978180D01*
X92946537Y36088494D01*
X92867185Y36185185D01*
X92770494Y36264537D01*
X92660180Y36323502D01*
X92540482Y36359812D01*
X92416000Y36372072D01*
X91451750Y36369000D01*
X91293000Y36210250D01*
X91039000Y36210250D01*
X90880250Y36369000D01*
X89916000Y36372072D01*
X89791518Y36359812D01*
X89671820Y36323502D01*
X89561506Y36264537D01*
X89464815Y36185185D01*
X89385463Y36088494D01*
X89326498Y35978180D01*
X89290188Y35858482D01*
X89277928Y35734000D01*
X85132549Y35734000D01*
X85117171Y35757014D01*
X84839014Y36035171D01*
X84511934Y36253719D01*
X84148504Y36404257D01*
X83762687Y36481000D01*
X83369313Y36481000D01*
X82983496Y36404257D01*
X82620066Y36253719D01*
X82292986Y36035171D01*
X82014829Y35757014D01*
X81796281Y35429934D01*
X81645743Y35066504D01*
X81569000Y34680687D01*
X80261937Y34680687D01*
X80351000Y34769750D01*
X80354072Y35734000D01*
X80341812Y35858482D01*
X80305502Y35978180D01*
X80246537Y36088494D01*
X80167185Y36185185D01*
X80070494Y36264537D01*
X79960180Y36323502D01*
X79840482Y36359812D01*
X79716000Y36372072D01*
X78751750Y36369000D01*
X78593000Y36210250D01*
X78339000Y36210250D01*
X78180250Y36369000D01*
X77216000Y36372072D01*
X77091518Y36359812D01*
X76971820Y36323502D01*
X76861506Y36264537D01*
X76764815Y36185185D01*
X76685463Y36088494D01*
X76626498Y35978180D01*
X76590188Y35858482D01*
X76577928Y35734000D01*
X72432549Y35734000D01*
X72417171Y35757014D01*
X72139014Y36035171D01*
X71811934Y36253719D01*
X71448504Y36404257D01*
X71062687Y36481000D01*
X70669313Y36481000D01*
X70283496Y36404257D01*
X69920066Y36253719D01*
X69592986Y36035171D01*
X69314829Y35757014D01*
X69096281Y35429934D01*
X68945743Y35066504D01*
X68869000Y34680687D01*
X67561937Y34680687D01*
X67651000Y34769750D01*
X67654072Y35734000D01*
X67641812Y35858482D01*
X67605502Y35978180D01*
X67546537Y36088494D01*
X67467185Y36185185D01*
X67370494Y36264537D01*
X67260180Y36323502D01*
X67140482Y36359812D01*
X67016000Y36372072D01*
X66051750Y36369000D01*
X65893000Y36210250D01*
X65639000Y36210250D01*
X65480250Y36369000D01*
X64516000Y36372072D01*
X64391518Y36359812D01*
X64271820Y36323502D01*
X64161506Y36264537D01*
X64064815Y36185185D01*
X63985463Y36088494D01*
X63926498Y35978180D01*
X63890188Y35858482D01*
X63877928Y35734000D01*
X59732549Y35734000D01*
X59717171Y35757014D01*
X59439014Y36035171D01*
X59111934Y36253719D01*
X58748504Y36404257D01*
X58362687Y36481000D01*
X57969313Y36481000D01*
X57583496Y36404257D01*
X57220066Y36253719D01*
X56892986Y36035171D01*
X56614829Y35757014D01*
X56396281Y35429934D01*
X56245743Y35066504D01*
X56169000Y34680687D01*
X54861937Y34680687D01*
X54951000Y34769750D01*
X54954072Y35734000D01*
X54941812Y35858482D01*
X54905502Y35978180D01*
X54846537Y36088494D01*
X54767185Y36185185D01*
X54670494Y36264537D01*
X54560180Y36323502D01*
X54440482Y36359812D01*
X54316000Y36372072D01*
X53351750Y36369000D01*
X53193000Y36210250D01*
X52939000Y36210250D01*
X52780250Y36369000D01*
X51816000Y36372072D01*
X51691518Y36359812D01*
X51571820Y36323502D01*
X51461506Y36264537D01*
X51364815Y36185185D01*
X51285463Y36088494D01*
X51226498Y35978180D01*
X51190188Y35858482D01*
X51177928Y35734000D01*
X47032549Y35734000D01*
X47017171Y35757014D01*
X46739014Y36035171D01*
X46411934Y36253719D01*
X46048504Y36404257D01*
X45662687Y36481000D01*
X45269313Y36481000D01*
X44883496Y36404257D01*
X44520066Y36253719D01*
X44192986Y36035171D01*
X43914829Y35757014D01*
X43696281Y35429934D01*
X43545743Y35066504D01*
X43469000Y34680687D01*
X42161937Y34680687D01*
X42251000Y34769750D01*
X42254072Y35734000D01*
X42241812Y35858482D01*
X42205502Y35978180D01*
X42146537Y36088494D01*
X42067185Y36185185D01*
X41970494Y36264537D01*
X41860180Y36323502D01*
X41740482Y36359812D01*
X41616000Y36372072D01*
X40651750Y36369000D01*
X40493000Y36210250D01*
X40239000Y36210250D01*
X40080250Y36369000D01*
X39116000Y36372072D01*
X38991518Y36359812D01*
X38871820Y36323502D01*
X38761506Y36264537D01*
X38664815Y36185185D01*
X38585463Y36088494D01*
X38526498Y35978180D01*
X38490188Y35858482D01*
X38477928Y35734000D01*
X34332549Y35734000D01*
X34317171Y35757014D01*
X34039014Y36035171D01*
X33711934Y36253719D01*
X33348504Y36404257D01*
X32962687Y36481000D01*
X32569313Y36481000D01*
X32183496Y36404257D01*
X31820066Y36253719D01*
X31492986Y36035171D01*
X31214829Y35757014D01*
X30996281Y35429934D01*
X30845743Y35066504D01*
X30769000Y34680687D01*
X29461937Y34680687D01*
X29551000Y34769750D01*
X29554072Y35734000D01*
X29541812Y35858482D01*
X29505502Y35978180D01*
X29446537Y36088494D01*
X29367185Y36185185D01*
X29270494Y36264537D01*
X29160180Y36323502D01*
X29040482Y36359812D01*
X28916000Y36372072D01*
X27951750Y36369000D01*
X27793000Y36210250D01*
X27539000Y36210250D01*
X27380250Y36369000D01*
X26416000Y36372072D01*
X26291518Y36359812D01*
X26171820Y36323502D01*
X26061506Y36264537D01*
X25964815Y36185185D01*
X25885463Y36088494D01*
X25826498Y35978180D01*
X25790188Y35858482D01*
X25777928Y35734000D01*
X21632549Y35734000D01*
X21617171Y35757014D01*
X21339014Y36035171D01*
X21011934Y36253719D01*
X20648504Y36404257D01*
X20262687Y36481000D01*
X19869313Y36481000D01*
X19483496Y36404257D01*
X19120066Y36253719D01*
X18792986Y36035171D01*
X18514829Y35757014D01*
X18296281Y35429934D01*
X18145743Y35066504D01*
X18069000Y34680687D01*
X16741937Y34680687D01*
X16871000Y34809750D01*
X16874072Y35774000D01*
X16861812Y35898482D01*
X16825502Y36018180D01*
X16766537Y36128494D01*
X16687185Y36225185D01*
X16590494Y36304537D01*
X16480180Y36363502D01*
X16360482Y36399812D01*
X16236000Y36412072D01*
X15271750Y36409000D01*
X15113000Y36250250D01*
X14859000Y36250250D01*
X14700250Y36409000D01*
X13736000Y36412072D01*
X13611518Y36399812D01*
X13491820Y36363502D01*
X13381506Y36304537D01*
X13284815Y36225185D01*
X13205463Y36128494D01*
X13146498Y36018180D01*
X13110188Y35898482D01*
X13097928Y35774000D01*
X8952549Y35774000D01*
X8937171Y35797014D01*
X8659014Y36075171D01*
X8331934Y36293719D01*
X7968504Y36444257D01*
X7582687Y36521000D01*
X7189313Y36521000D01*
X6803496Y36444257D01*
X6440066Y36293719D01*
X6112986Y36075171D01*
X5834829Y35797014D01*
X5616281Y35469934D01*
X5465743Y35106504D01*
X5389000Y34720687D01*
X3479000Y34720687D01*
X3479000Y44417860D01*
X3663989Y44141005D01*
X4009005Y43795989D01*
X4414701Y43524911D01*
X4865486Y43338190D01*
X5344037Y43243000D01*
X5831963Y43243000D01*
X5952276Y43266932D01*
X8128297Y41090910D01*
X8174551Y41034549D01*
X8262501Y40962371D01*
X8399453Y40849976D01*
X8656042Y40712827D01*
X8670732Y40708371D01*
X8934458Y40628370D01*
X9151445Y40606999D01*
X9151448Y40606999D01*
X9224001Y40599853D01*
X9296554Y40606999D01*
X19151446Y40606999D01*
X19223999Y40599853D01*
X19296552Y40606999D01*
X31503450Y40606999D01*
X31576000Y40599853D01*
X31648551Y40606999D01*
X43441448Y40606999D01*
X43514001Y40599853D01*
X43586554Y40606999D01*
X57157448Y40606999D01*
X57230001Y40599853D01*
X57302554Y40606999D01*
X69603448Y40606999D01*
X69676001Y40599853D01*
X69748554Y40606999D01*
X83921446Y40606999D01*
X83993999Y40599853D01*
X84066552Y40606999D01*
X92557446Y40606999D01*
X92629999Y40599853D01*
X92702552Y40606999D01*
X92702555Y40606999D01*
X92919542Y40628370D01*
X93197957Y40712827D01*
X93454546Y40849977D01*
X93679449Y41034549D01*
X93725707Y41090915D01*
X96155724Y43520932D01*
X96276037Y43497000D01*
X96763963Y43497000D01*
X97242514Y43592190D01*
X97693299Y43778911D01*
X98098995Y44049989D01*
X98444011Y44395005D01*
X98715089Y44800701D01*
X98772257Y44938718D01*
X102417000Y44938718D01*
X102417000Y44549282D01*
X102492975Y44167330D01*
X102642005Y43807539D01*
X102858364Y43483736D01*
X103133736Y43208364D01*
X103457539Y42992005D01*
X103817330Y42842975D01*
X104199282Y42767000D01*
X104588718Y42767000D01*
X104970670Y42842975D01*
X105330461Y42992005D01*
X105654264Y43208364D01*
X105929636Y43483736D01*
X106145995Y43807539D01*
X106295025Y44167330D01*
X106371000Y44549282D01*
X106371000Y44938718D01*
X106295025Y45320670D01*
X106145995Y45680461D01*
X105929636Y46004264D01*
X105654264Y46279636D01*
X105330461Y46495995D01*
X104970670Y46645025D01*
X104588718Y46721000D01*
X104199282Y46721000D01*
X103817330Y46645025D01*
X103457539Y46495995D01*
X103133736Y46279636D01*
X102858364Y46004264D01*
X102642005Y45680461D01*
X102492975Y45320670D01*
X102417000Y44938718D01*
X98772257Y44938718D01*
X98901810Y45251486D01*
X98997000Y45730037D01*
X98997000Y46217963D01*
X98901810Y46696514D01*
X98715089Y47147299D01*
X98444011Y47552995D01*
X98098995Y47898011D01*
X97769562Y48118132D01*
X98054264Y48308364D01*
X98329636Y48583736D01*
X98545995Y48907539D01*
X98695025Y49267330D01*
X98771000Y49649282D01*
X98771000Y50038718D01*
X98695025Y50420670D01*
X98545995Y50780461D01*
X98329636Y51104264D01*
X98054264Y51379636D01*
X97730461Y51595995D01*
X97370670Y51745025D01*
X96988718Y51821000D01*
X96599282Y51821000D01*
X96217330Y51745025D01*
X95857539Y51595995D01*
X95533736Y51379636D01*
X95258364Y51104264D01*
X95042005Y50780461D01*
X94892975Y50420670D01*
X94817000Y50038718D01*
X94817000Y49649282D01*
X94892975Y49267330D01*
X95042005Y48907539D01*
X95258364Y48583736D01*
X95533736Y48308364D01*
X95590834Y48270212D01*
X95346701Y48169089D01*
X94941005Y47898011D01*
X94595989Y47552995D01*
X94324911Y47147299D01*
X94138190Y46696514D01*
X94043000Y46217963D01*
X94043000Y45730037D01*
X94066932Y45609724D01*
X93143000Y44685792D01*
X93143000Y44878718D01*
X93067025Y45260670D01*
X92917995Y45620461D01*
X92701636Y45944264D01*
X92426264Y46219636D01*
X92102461Y46435995D01*
X91742670Y46585025D01*
X91360718Y46661000D01*
X90971282Y46661000D01*
X90589330Y46585025D01*
X90229539Y46435995D01*
X89905736Y46219636D01*
X89630364Y45944264D01*
X89414005Y45620461D01*
X89264975Y45260670D01*
X89189000Y44878718D01*
X89189000Y44489282D01*
X89264975Y44107330D01*
X89414005Y43747539D01*
X89538647Y43560999D01*
X85805000Y43560999D01*
X85805000Y43981838D01*
X85906995Y44049989D01*
X86252011Y44395005D01*
X86523089Y44800701D01*
X86709810Y45251486D01*
X86805000Y45730037D01*
X86805000Y46217963D01*
X86709810Y46696514D01*
X86523089Y47147299D01*
X86252011Y47552995D01*
X85906995Y47898011D01*
X85501299Y48169089D01*
X85050514Y48355810D01*
X84953089Y48375189D01*
X85101636Y48523736D01*
X85317995Y48847539D01*
X85467025Y49207330D01*
X85543000Y49589282D01*
X85543000Y49978718D01*
X85467025Y50360670D01*
X85317995Y50720461D01*
X85101636Y51044264D01*
X84826264Y51319636D01*
X84502461Y51535995D01*
X84142670Y51685025D01*
X83760718Y51761000D01*
X83371282Y51761000D01*
X82989330Y51685025D01*
X82629539Y51535995D01*
X82305736Y51319636D01*
X82030364Y51044264D01*
X81814005Y50720461D01*
X81664975Y50360670D01*
X81589000Y49978718D01*
X81589000Y49589282D01*
X81664975Y49207330D01*
X81814005Y48847539D01*
X82030364Y48523736D01*
X82305736Y48248364D01*
X82629539Y48032005D01*
X82827082Y47950180D01*
X82749005Y47898011D01*
X82403989Y47552995D01*
X82132911Y47147299D01*
X81946190Y46696514D01*
X81851000Y46217963D01*
X81851000Y45730037D01*
X81946190Y45251486D01*
X82132911Y44800701D01*
X82403989Y44395005D01*
X82749005Y44049989D01*
X82851000Y43981838D01*
X82851000Y43560999D01*
X80093353Y43560999D01*
X80217995Y43747539D01*
X80367025Y44107330D01*
X80443000Y44489282D01*
X80443000Y44878718D01*
X80367025Y45260670D01*
X80217995Y45620461D01*
X80001636Y45944264D01*
X79726264Y46219636D01*
X79402461Y46435995D01*
X79042670Y46585025D01*
X78660718Y46661000D01*
X78271282Y46661000D01*
X77889330Y46585025D01*
X77529539Y46435995D01*
X77205736Y46219636D01*
X76930364Y45944264D01*
X76714005Y45620461D01*
X76564975Y45260670D01*
X76489000Y44878718D01*
X76489000Y44489282D01*
X76564975Y44107330D01*
X76714005Y43747539D01*
X76838647Y43560999D01*
X71327000Y43560999D01*
X71327000Y43981838D01*
X71428995Y44049989D01*
X71774011Y44395005D01*
X72045089Y44800701D01*
X72231810Y45251486D01*
X72327000Y45730037D01*
X72327000Y46217963D01*
X72231810Y46696514D01*
X72045089Y47147299D01*
X71774011Y47552995D01*
X71443632Y47883374D01*
X71802461Y48032005D01*
X72126264Y48248364D01*
X72401636Y48523736D01*
X72617995Y48847539D01*
X72767025Y49207330D01*
X72843000Y49589282D01*
X72843000Y49978718D01*
X72767025Y50360670D01*
X72617995Y50720461D01*
X72401636Y51044264D01*
X72126264Y51319636D01*
X71802461Y51535995D01*
X71442670Y51685025D01*
X71060718Y51761000D01*
X70671282Y51761000D01*
X70289330Y51685025D01*
X69929539Y51535995D01*
X69605736Y51319636D01*
X69330364Y51044264D01*
X69114005Y50720461D01*
X68964975Y50360670D01*
X68889000Y49978718D01*
X68889000Y49589282D01*
X68964975Y49207330D01*
X69114005Y48847539D01*
X69330364Y48523736D01*
X69436770Y48417330D01*
X69127486Y48355810D01*
X68676701Y48169089D01*
X68271005Y47898011D01*
X67925989Y47552995D01*
X67654911Y47147299D01*
X67468190Y46696514D01*
X67373000Y46217963D01*
X67373000Y45837461D01*
X67301636Y45944264D01*
X67026264Y46219636D01*
X66702461Y46435995D01*
X66342670Y46585025D01*
X65960718Y46661000D01*
X65571282Y46661000D01*
X65189330Y46585025D01*
X64829539Y46435995D01*
X64505736Y46219636D01*
X64230364Y45944264D01*
X64014005Y45620461D01*
X63864975Y45260670D01*
X63789000Y44878718D01*
X63789000Y44489282D01*
X63864975Y44107330D01*
X64014005Y43747539D01*
X64138647Y43560999D01*
X58881000Y43560999D01*
X58881000Y43981838D01*
X58982995Y44049989D01*
X59328011Y44395005D01*
X59599089Y44800701D01*
X59785810Y45251486D01*
X59881000Y45730037D01*
X59881000Y46217963D01*
X59785810Y46696514D01*
X59599089Y47147299D01*
X59328011Y47552995D01*
X58982995Y47898011D01*
X58904918Y47950180D01*
X59102461Y48032005D01*
X59426264Y48248364D01*
X59701636Y48523736D01*
X59917995Y48847539D01*
X60067025Y49207330D01*
X60143000Y49589282D01*
X60143000Y49978718D01*
X60067025Y50360670D01*
X59917995Y50720461D01*
X59701636Y51044264D01*
X59426264Y51319636D01*
X59102461Y51535995D01*
X58742670Y51685025D01*
X58360718Y51761000D01*
X57971282Y51761000D01*
X57589330Y51685025D01*
X57229539Y51535995D01*
X56905736Y51319636D01*
X56630364Y51044264D01*
X56414005Y50720461D01*
X56264975Y50360670D01*
X56189000Y49978718D01*
X56189000Y49589282D01*
X56264975Y49207330D01*
X56414005Y48847539D01*
X56630364Y48523736D01*
X56778911Y48375189D01*
X56681486Y48355810D01*
X56230701Y48169089D01*
X55825005Y47898011D01*
X55479989Y47552995D01*
X55208911Y47147299D01*
X55022190Y46696514D01*
X54927000Y46217963D01*
X54927000Y45730037D01*
X55022190Y45251486D01*
X55208911Y44800701D01*
X55479989Y44395005D01*
X55825005Y44049989D01*
X55927000Y43981838D01*
X55927000Y43560999D01*
X54693353Y43560999D01*
X54817995Y43747539D01*
X54967025Y44107330D01*
X55043000Y44489282D01*
X55043000Y44878718D01*
X54967025Y45260670D01*
X54817995Y45620461D01*
X54601636Y45944264D01*
X54326264Y46219636D01*
X54002461Y46435995D01*
X53642670Y46585025D01*
X53260718Y46661000D01*
X52871282Y46661000D01*
X52489330Y46585025D01*
X52129539Y46435995D01*
X51805736Y46219636D01*
X51530364Y45944264D01*
X51314005Y45620461D01*
X51164975Y45260670D01*
X51089000Y44878718D01*
X51089000Y44489282D01*
X51164975Y44107330D01*
X51314005Y43747539D01*
X51438647Y43560999D01*
X45927000Y43560999D01*
X45927000Y43981838D01*
X46028995Y44049989D01*
X46374011Y44395005D01*
X46645089Y44800701D01*
X46831810Y45251486D01*
X46927000Y45730037D01*
X46927000Y46217963D01*
X46831810Y46696514D01*
X46645089Y47147299D01*
X46374011Y47552995D01*
X46043632Y47883374D01*
X46402461Y48032005D01*
X46726264Y48248364D01*
X47001636Y48523736D01*
X47217995Y48847539D01*
X47367025Y49207330D01*
X47443000Y49589282D01*
X47443000Y49978718D01*
X47367025Y50360670D01*
X47217995Y50720461D01*
X47001636Y51044264D01*
X46726264Y51319636D01*
X46402461Y51535995D01*
X46042670Y51685025D01*
X45660718Y51761000D01*
X45271282Y51761000D01*
X44889330Y51685025D01*
X44529539Y51535995D01*
X44205736Y51319636D01*
X43930364Y51044264D01*
X43714005Y50720461D01*
X43564975Y50360670D01*
X43489000Y49978718D01*
X43489000Y49589282D01*
X43564975Y49207330D01*
X43714005Y48847539D01*
X43930364Y48523736D01*
X44036770Y48417330D01*
X43727486Y48355810D01*
X43276701Y48169089D01*
X42871005Y47898011D01*
X42525989Y47552995D01*
X42254911Y47147299D01*
X42068190Y46696514D01*
X41973000Y46217963D01*
X41973000Y45837461D01*
X41901636Y45944264D01*
X41626264Y46219636D01*
X41302461Y46435995D01*
X40942670Y46585025D01*
X40560718Y46661000D01*
X40171282Y46661000D01*
X39789330Y46585025D01*
X39429539Y46435995D01*
X39105736Y46219636D01*
X38830364Y45944264D01*
X38614005Y45620461D01*
X38464975Y45260670D01*
X38389000Y44878718D01*
X38389000Y44489282D01*
X38464975Y44107330D01*
X38614005Y43747539D01*
X38738647Y43560999D01*
X32973000Y43560999D01*
X32973000Y43981838D01*
X33074995Y44049989D01*
X33420011Y44395005D01*
X33691089Y44800701D01*
X33877810Y45251486D01*
X33973000Y45730037D01*
X33973000Y46217963D01*
X33877810Y46696514D01*
X33691089Y47147299D01*
X33420011Y47552995D01*
X33131947Y47841059D01*
X33342670Y47882975D01*
X33702461Y48032005D01*
X34026264Y48248364D01*
X34301636Y48523736D01*
X34517995Y48847539D01*
X34667025Y49207330D01*
X34743000Y49589282D01*
X34743000Y49978718D01*
X34667025Y50360670D01*
X34517995Y50720461D01*
X34301636Y51044264D01*
X34026264Y51319636D01*
X33702461Y51535995D01*
X33342670Y51685025D01*
X32960718Y51761000D01*
X32571282Y51761000D01*
X32189330Y51685025D01*
X31829539Y51535995D01*
X31505736Y51319636D01*
X31230364Y51044264D01*
X31014005Y50720461D01*
X30864975Y50360670D01*
X30789000Y49978718D01*
X30789000Y49589282D01*
X30864975Y49207330D01*
X31014005Y48847539D01*
X31230364Y48523736D01*
X31303100Y48451000D01*
X31252037Y48451000D01*
X30773486Y48355810D01*
X30322701Y48169089D01*
X29917005Y47898011D01*
X29571989Y47552995D01*
X29300911Y47147299D01*
X29114190Y46696514D01*
X29019000Y46217963D01*
X29019000Y46126900D01*
X28926264Y46219636D01*
X28602461Y46435995D01*
X28242670Y46585025D01*
X27860718Y46661000D01*
X27471282Y46661000D01*
X27089330Y46585025D01*
X26729539Y46435995D01*
X26405736Y46219636D01*
X26130364Y45944264D01*
X25914005Y45620461D01*
X25764975Y45260670D01*
X25689000Y44878718D01*
X25689000Y44489282D01*
X25764975Y44107330D01*
X25914005Y43747539D01*
X26038647Y43560999D01*
X21035000Y43560999D01*
X21035000Y43727838D01*
X21136995Y43795989D01*
X21482011Y44141005D01*
X21753089Y44546701D01*
X21939810Y44997486D01*
X22035000Y45476037D01*
X22035000Y45963963D01*
X21939810Y46442514D01*
X21753089Y46893299D01*
X21482011Y47298995D01*
X21136995Y47644011D01*
X20731299Y47915089D01*
X20725750Y47917388D01*
X21002461Y48032005D01*
X21326264Y48248364D01*
X21601636Y48523736D01*
X21817995Y48847539D01*
X21967025Y49207330D01*
X22043000Y49589282D01*
X22043000Y49978718D01*
X21967025Y50360670D01*
X21817995Y50720461D01*
X21601636Y51044264D01*
X21326264Y51319636D01*
X21002461Y51535995D01*
X20642670Y51685025D01*
X20260718Y51761000D01*
X19871282Y51761000D01*
X19489330Y51685025D01*
X19129539Y51535995D01*
X18805736Y51319636D01*
X18530364Y51044264D01*
X18314005Y50720461D01*
X18164975Y50360670D01*
X18089000Y49978718D01*
X18089000Y49589282D01*
X18164975Y49207330D01*
X18314005Y48847539D01*
X18530364Y48523736D01*
X18805736Y48248364D01*
X18981578Y48130870D01*
X18835486Y48101810D01*
X18384701Y47915089D01*
X17979005Y47644011D01*
X17633989Y47298995D01*
X17362911Y46893299D01*
X17176190Y46442514D01*
X17081000Y45963963D01*
X17081000Y45476037D01*
X17176190Y44997486D01*
X17362911Y44546701D01*
X17633989Y44141005D01*
X17979005Y43795989D01*
X18081000Y43727838D01*
X18081000Y43560999D01*
X16586625Y43560999D01*
X16737995Y43787539D01*
X16887025Y44147330D01*
X16963000Y44529282D01*
X16963000Y44918718D01*
X16887025Y45300670D01*
X16737995Y45660461D01*
X16521636Y45984264D01*
X16246264Y46259636D01*
X15922461Y46475995D01*
X15562670Y46625025D01*
X15180718Y46701000D01*
X14791282Y46701000D01*
X14409330Y46625025D01*
X14049539Y46475995D01*
X13725736Y46259636D01*
X13450364Y45984264D01*
X13234005Y45660461D01*
X13084975Y45300670D01*
X13009000Y44918718D01*
X13009000Y44529282D01*
X13084975Y44147330D01*
X13234005Y43787539D01*
X13385375Y43560999D01*
X9835794Y43560999D01*
X9013826Y44382966D01*
X9206547Y44485978D01*
X9431450Y44670550D01*
X9477708Y44726916D01*
X11915095Y47164301D01*
X11971450Y47210550D01*
X12017701Y47266907D01*
X12156022Y47435452D01*
X12293171Y47692041D01*
X12293172Y47692042D01*
X12377629Y47970457D01*
X12399000Y48187444D01*
X12399000Y48187449D01*
X12406146Y48259999D01*
X12399000Y48332550D01*
X12399000Y54544936D01*
X12561990Y54301005D01*
X12907006Y53955989D01*
X13312702Y53684911D01*
X13481212Y53615112D01*
X13450364Y53584264D01*
X13234005Y53260461D01*
X13084975Y52900670D01*
X13009000Y52518718D01*
X13009000Y52129282D01*
X13084975Y51747330D01*
X13234005Y51387539D01*
X13450364Y51063736D01*
X13725736Y50788364D01*
X14049539Y50572005D01*
X14409330Y50422975D01*
X14791282Y50347000D01*
X15180718Y50347000D01*
X15562670Y50422975D01*
X15922461Y50572005D01*
X16246264Y50788364D01*
X16521636Y51063736D01*
X16737995Y51387539D01*
X16887025Y51747330D01*
X16963000Y52129282D01*
X16963000Y52518718D01*
X16887025Y52900670D01*
X16737995Y53260461D01*
X16521636Y53584264D01*
X16246264Y53859636D01*
X16079843Y53970836D01*
X16410012Y54301005D01*
X16478163Y54403000D01*
X25947838Y54403000D01*
X26015989Y54301005D01*
X26361005Y53955989D01*
X26485404Y53872868D01*
X26405736Y53819636D01*
X26130364Y53544264D01*
X25914005Y53220461D01*
X25764975Y52860670D01*
X25689000Y52478718D01*
X25689000Y52089282D01*
X25764975Y51707330D01*
X25914005Y51347539D01*
X26130364Y51023736D01*
X26405736Y50748364D01*
X26729539Y50532005D01*
X27089330Y50382975D01*
X27471282Y50307000D01*
X27860718Y50307000D01*
X28242670Y50382975D01*
X28602461Y50532005D01*
X28926264Y50748364D01*
X29201636Y51023736D01*
X29417995Y51347539D01*
X29567025Y51707330D01*
X29643000Y52089282D01*
X29643000Y52478718D01*
X29567025Y52860670D01*
X29417995Y53220461D01*
X29201636Y53544264D01*
X29076310Y53669590D01*
X29113299Y53684911D01*
X29518995Y53955989D01*
X29864011Y54301005D01*
X29932162Y54403000D01*
X40542695Y54403000D01*
X40544190Y54395486D01*
X40603414Y54252507D01*
X40560718Y54261000D01*
X40171282Y54261000D01*
X39789330Y54185025D01*
X39429539Y54035995D01*
X39105736Y53819636D01*
X38830364Y53544264D01*
X38614005Y53220461D01*
X38464975Y52860670D01*
X38389000Y52478718D01*
X38389000Y52089282D01*
X38464975Y51707330D01*
X38614005Y51347539D01*
X38830364Y51023736D01*
X39105736Y50748364D01*
X39429539Y50532005D01*
X39789330Y50382975D01*
X40171282Y50307000D01*
X40560718Y50307000D01*
X40942670Y50382975D01*
X41302461Y50532005D01*
X41626264Y50748364D01*
X41901636Y51023736D01*
X42117995Y51347539D01*
X42267025Y51707330D01*
X42343000Y52089282D01*
X42343000Y52478718D01*
X42295423Y52717902D01*
X42682037Y52641000D01*
X43169963Y52641000D01*
X43648514Y52736190D01*
X44099299Y52922911D01*
X44504995Y53193989D01*
X44850011Y53539005D01*
X44918162Y53641000D01*
X51627100Y53641000D01*
X51530364Y53544264D01*
X51314005Y53220461D01*
X51164975Y52860670D01*
X51089000Y52478718D01*
X51089000Y52089282D01*
X51164975Y51707330D01*
X51314005Y51347539D01*
X51530364Y51023736D01*
X51805736Y50748364D01*
X52129539Y50532005D01*
X52489330Y50382975D01*
X52871282Y50307000D01*
X53260718Y50307000D01*
X53642670Y50382975D01*
X54002461Y50532005D01*
X54326264Y50748364D01*
X54601636Y51023736D01*
X54817995Y51347539D01*
X54967025Y51707330D01*
X55043000Y52089282D01*
X55043000Y52266999D01*
X55095605Y52266999D01*
X55574156Y52362189D01*
X56024941Y52548910D01*
X56430637Y52819988D01*
X56775653Y53165004D01*
X56803713Y53206999D01*
X64008429Y53206999D01*
X63864975Y52860670D01*
X63789000Y52478718D01*
X63789000Y52089282D01*
X63864975Y51707330D01*
X64014005Y51347539D01*
X64230364Y51023736D01*
X64505736Y50748364D01*
X64829539Y50532005D01*
X65189330Y50382975D01*
X65571282Y50307000D01*
X65960718Y50307000D01*
X66342670Y50382975D01*
X66702461Y50532005D01*
X67026264Y50748364D01*
X67301636Y51023736D01*
X67517995Y51347539D01*
X67667025Y51707330D01*
X67743000Y52089282D01*
X67743000Y52274438D01*
X68082037Y52206999D01*
X68569963Y52206999D01*
X69048514Y52302189D01*
X69499299Y52488910D01*
X69904995Y52759988D01*
X70250011Y53105004D01*
X70521089Y53510700D01*
X70707810Y53961485D01*
X70795633Y54403000D01*
X78017838Y54403000D01*
X78085989Y54301005D01*
X78150099Y54236895D01*
X77889330Y54185025D01*
X77529539Y54035995D01*
X77205736Y53819636D01*
X76930364Y53544264D01*
X76714005Y53220461D01*
X76564975Y52860670D01*
X76489000Y52478718D01*
X76489000Y52089282D01*
X76564975Y51707330D01*
X76714005Y51347539D01*
X76930364Y51023736D01*
X77205736Y50748364D01*
X77529539Y50532005D01*
X77889330Y50382975D01*
X78271282Y50307000D01*
X78660718Y50307000D01*
X79042670Y50382975D01*
X79402461Y50532005D01*
X79726264Y50748364D01*
X80001636Y51023736D01*
X80217995Y51347539D01*
X80367025Y51707330D01*
X80443000Y52089282D01*
X80443000Y52478718D01*
X80367025Y52860670D01*
X80217995Y53220461D01*
X80096026Y53403000D01*
X80253963Y53403000D01*
X80732514Y53498190D01*
X81183299Y53684911D01*
X81588995Y53955989D01*
X81934011Y54301005D01*
X82002162Y54403000D01*
X90209838Y54403000D01*
X90277989Y54301005D01*
X90451189Y54127805D01*
X90229539Y54035995D01*
X89905736Y53819636D01*
X89630364Y53544264D01*
X89414005Y53220461D01*
X89264975Y52860670D01*
X89189000Y52478718D01*
X89189000Y52089282D01*
X89264975Y51707330D01*
X89414005Y51347539D01*
X89630364Y51023736D01*
X89905736Y50748364D01*
X90229539Y50532005D01*
X90589330Y50382975D01*
X90971282Y50307000D01*
X91360718Y50307000D01*
X91742670Y50382975D01*
X92102461Y50532005D01*
X92426264Y50748364D01*
X92701636Y51023736D01*
X92917995Y51347539D01*
X93067025Y51707330D01*
X93143000Y52089282D01*
X93143000Y52478718D01*
X93067025Y52860670D01*
X92917995Y53220461D01*
X92754958Y53464463D01*
X92924514Y53498190D01*
X93375299Y53684911D01*
X93780995Y53955989D01*
X94126011Y54301005D01*
X94194162Y54403000D01*
X102100574Y54403000D01*
X102173127Y54395854D01*
X102245680Y54403000D01*
X102655838Y54403000D01*
X102723989Y54301005D01*
X103069005Y53955989D01*
X103158506Y53896187D01*
X103133736Y53879636D01*
X102858364Y53604264D01*
X102642005Y53280461D01*
X102492975Y52920670D01*
X102417000Y52538718D01*
X102417000Y52149282D01*
X102492975Y51767330D01*
X102642005Y51407539D01*
X102858364Y51083736D01*
X103133736Y50808364D01*
X103457539Y50592005D01*
X103817330Y50442975D01*
X104199282Y50367000D01*
X104588718Y50367000D01*
X104970670Y50442975D01*
X105330461Y50592005D01*
X105654264Y50808364D01*
X105929636Y51083736D01*
X106145995Y51407539D01*
X106295025Y51767330D01*
X106371000Y52149282D01*
X106371000Y52538718D01*
X106295025Y52920670D01*
X106145995Y53280461D01*
X105929636Y53604264D01*
X105837898Y53696002D01*
X106226995Y53955989D01*
X106572011Y54301005D01*
X106843089Y54706701D01*
X107011000Y55112076D01*
X107011001Y3225000D01*
G37*
X107011001Y3225000D02*
X3479000Y3225000D01*
X3479000Y8879963D01*
X31051000Y8879963D01*
X31051000Y8392037D01*
X31146190Y7913486D01*
X31332911Y7462701D01*
X31603989Y7057005D01*
X31949005Y6711989D01*
X32354701Y6440911D01*
X32805486Y6254190D01*
X33284037Y6159000D01*
X33771963Y6159000D01*
X34250514Y6254190D01*
X34701299Y6440911D01*
X35106995Y6711989D01*
X35452011Y7057005D01*
X35723089Y7462701D01*
X35909810Y7913486D01*
X36005000Y8392037D01*
X36005000Y8879963D01*
X35995445Y8928000D01*
X78733483Y8928000D01*
X78733483Y7328000D01*
X78747520Y7185483D01*
X78789090Y7048443D01*
X78856597Y6922147D01*
X78947446Y6811446D01*
X79058147Y6720597D01*
X79184443Y6653090D01*
X79321483Y6611520D01*
X79464000Y6597483D01*
X81064000Y6597483D01*
X81206517Y6611520D01*
X81343557Y6653090D01*
X81469853Y6720597D01*
X81580554Y6811446D01*
X81671403Y6922147D01*
X81738910Y7048443D01*
X81754341Y7099312D01*
X81834630Y7019023D01*
X81950903Y7135296D01*
X82022486Y6891329D01*
X82277996Y6770429D01*
X82552184Y6701700D01*
X82834512Y6687783D01*
X83114130Y6729213D01*
X83380292Y6824397D01*
X83505514Y6891329D01*
X83577097Y7135298D01*
X82764000Y7948395D01*
X82749858Y7934252D01*
X82570253Y8113857D01*
X82584395Y8128000D01*
X82943605Y8128000D01*
X83756702Y7314903D01*
X84000671Y7386486D01*
X84121571Y7641996D01*
X84190300Y7916184D01*
X84204217Y8198512D01*
X84162787Y8478130D01*
X84067603Y8744292D01*
X84000671Y8869514D01*
X83756702Y8941097D01*
X82943605Y8128000D01*
X82584395Y8128000D01*
X82570253Y8142142D01*
X82749858Y8321747D01*
X82764000Y8307605D01*
X83577097Y9120702D01*
X83505514Y9364671D01*
X83250004Y9485571D01*
X82975816Y9554300D01*
X82693488Y9568217D01*
X82413870Y9526787D01*
X82147708Y9431603D01*
X82022486Y9364671D01*
X81950903Y9120704D01*
X81834630Y9236977D01*
X81754341Y9156688D01*
X81738910Y9207557D01*
X81671403Y9333853D01*
X81580554Y9444554D01*
X81469853Y9535403D01*
X81343557Y9602910D01*
X81206517Y9644480D01*
X81064000Y9658517D01*
X79464000Y9658517D01*
X79321483Y9644480D01*
X79184443Y9602910D01*
X79058147Y9535403D01*
X78947446Y9444554D01*
X78856597Y9333853D01*
X78789090Y9207557D01*
X78747520Y9070517D01*
X78733483Y8928000D01*
X35995445Y8928000D01*
X35909810Y9358514D01*
X35723089Y9809299D01*
X35452011Y10214995D01*
X35106995Y10560011D01*
X34755000Y10795207D01*
X34755000Y13866396D01*
X36573000Y13866396D01*
X36573000Y13565604D01*
X36631681Y13270590D01*
X36746790Y12992694D01*
X36913901Y12742594D01*
X37126594Y12529901D01*
X37376694Y12362790D01*
X37654590Y12247681D01*
X37949604Y12189000D01*
X38250396Y12189000D01*
X38545410Y12247681D01*
X38823306Y12362790D01*
X39073406Y12529901D01*
X39286099Y12742594D01*
X39370000Y12868161D01*
X39453901Y12742594D01*
X39666594Y12529901D01*
X39916694Y12362790D01*
X40194590Y12247681D01*
X40489604Y12189000D01*
X40790396Y12189000D01*
X41085410Y12247681D01*
X41363306Y12362790D01*
X41613406Y12529901D01*
X41826099Y12742594D01*
X41910000Y12868161D01*
X41993901Y12742594D01*
X42206594Y12529901D01*
X42456694Y12362790D01*
X42734590Y12247681D01*
X43029604Y12189000D01*
X43330396Y12189000D01*
X43625410Y12247681D01*
X43903306Y12362790D01*
X44153406Y12529901D01*
X44366099Y12742594D01*
X44450000Y12868161D01*
X44533901Y12742594D01*
X44746594Y12529901D01*
X44996694Y12362790D01*
X45274590Y12247681D01*
X45569604Y12189000D01*
X45870396Y12189000D01*
X46165410Y12247681D01*
X46443306Y12362790D01*
X46693406Y12529901D01*
X46906099Y12742594D01*
X46990000Y12868161D01*
X47073901Y12742594D01*
X47286594Y12529901D01*
X47536694Y12362790D01*
X47814590Y12247681D01*
X48109604Y12189000D01*
X48410396Y12189000D01*
X48705410Y12247681D01*
X48983306Y12362790D01*
X49233406Y12529901D01*
X49446099Y12742594D01*
X49530000Y12868161D01*
X49613901Y12742594D01*
X49826594Y12529901D01*
X50076694Y12362790D01*
X50354590Y12247681D01*
X50649604Y12189000D01*
X50950396Y12189000D01*
X51245410Y12247681D01*
X51523306Y12362790D01*
X51773406Y12529901D01*
X51986099Y12742594D01*
X52070000Y12868161D01*
X52153901Y12742594D01*
X52366594Y12529901D01*
X52616694Y12362790D01*
X52894590Y12247681D01*
X53189604Y12189000D01*
X53490396Y12189000D01*
X53785410Y12247681D01*
X54063306Y12362790D01*
X54313406Y12529901D01*
X54526099Y12742594D01*
X54669677Y12957475D01*
X54727615Y12860869D01*
X54916586Y12652481D01*
X55142580Y12484963D01*
X55396913Y12364754D01*
X55530961Y12324096D01*
X55753000Y12446085D01*
X55753000Y13589000D01*
X55733000Y13589000D01*
X55733000Y13843000D01*
X55753000Y13843000D01*
X55753000Y14985915D01*
X56007000Y14985915D01*
X56007000Y13843000D01*
X56027000Y13843000D01*
X56027000Y13589000D01*
X56007000Y13589000D01*
X56007000Y12446085D01*
X56229039Y12324096D01*
X56363087Y12364754D01*
X56617420Y12484963D01*
X56843414Y12652481D01*
X57032385Y12860869D01*
X57090323Y12957475D01*
X57233901Y12742594D01*
X57446594Y12529901D01*
X57696694Y12362790D01*
X57974590Y12247681D01*
X58269604Y12189000D01*
X58570396Y12189000D01*
X58865410Y12247681D01*
X59143306Y12362790D01*
X59393406Y12529901D01*
X59606099Y12742594D01*
X59690000Y12868161D01*
X59773901Y12742594D01*
X59986594Y12529901D01*
X60236694Y12362790D01*
X60514590Y12247681D01*
X60809604Y12189000D01*
X61110396Y12189000D01*
X61405410Y12247681D01*
X61683306Y12362790D01*
X61933406Y12529901D01*
X62146099Y12742594D01*
X62230000Y12868161D01*
X62313901Y12742594D01*
X62526594Y12529901D01*
X62776694Y12362790D01*
X63054590Y12247681D01*
X63349604Y12189000D01*
X63650396Y12189000D01*
X63945410Y12247681D01*
X64223306Y12362790D01*
X64473406Y12529901D01*
X64686099Y12742594D01*
X64770000Y12868161D01*
X64853901Y12742594D01*
X65066594Y12529901D01*
X65316694Y12362790D01*
X65594590Y12247681D01*
X65889604Y12189000D01*
X66190396Y12189000D01*
X66485410Y12247681D01*
X66763306Y12362790D01*
X67013406Y12529901D01*
X67226099Y12742594D01*
X67310000Y12868161D01*
X67393901Y12742594D01*
X67606594Y12529901D01*
X67856694Y12362790D01*
X68134590Y12247681D01*
X68429604Y12189000D01*
X68730396Y12189000D01*
X69025410Y12247681D01*
X69303306Y12362790D01*
X69553406Y12529901D01*
X69766099Y12742594D01*
X69850000Y12868161D01*
X69933901Y12742594D01*
X70146594Y12529901D01*
X70396694Y12362790D01*
X70674590Y12247681D01*
X70969604Y12189000D01*
X71270396Y12189000D01*
X71565410Y12247681D01*
X71843306Y12362790D01*
X72093406Y12529901D01*
X72306099Y12742594D01*
X72473210Y12992694D01*
X72588319Y13270590D01*
X72647000Y13565604D01*
X72647000Y13866396D01*
X72588319Y14161410D01*
X72473210Y14439306D01*
X72306099Y14689406D01*
X72093406Y14902099D01*
X71843306Y15069210D01*
X71565410Y15184319D01*
X71270396Y15243000D01*
X70969604Y15243000D01*
X70674590Y15184319D01*
X70396694Y15069210D01*
X70146594Y14902099D01*
X69933901Y14689406D01*
X69850000Y14563839D01*
X69766099Y14689406D01*
X69553406Y14902099D01*
X69303306Y15069210D01*
X69025410Y15184319D01*
X68730396Y15243000D01*
X68429604Y15243000D01*
X68134590Y15184319D01*
X67856694Y15069210D01*
X67606594Y14902099D01*
X67393901Y14689406D01*
X67310000Y14563839D01*
X67226099Y14689406D01*
X67013406Y14902099D01*
X66763306Y15069210D01*
X66485410Y15184319D01*
X66190396Y15243000D01*
X65889604Y15243000D01*
X65594590Y15184319D01*
X65316694Y15069210D01*
X65066594Y14902099D01*
X64853901Y14689406D01*
X64770000Y14563839D01*
X64686099Y14689406D01*
X64473406Y14902099D01*
X64223306Y15069210D01*
X63945410Y15184319D01*
X63650396Y15243000D01*
X63349604Y15243000D01*
X63054590Y15184319D01*
X62776694Y15069210D01*
X62526594Y14902099D01*
X62313901Y14689406D01*
X62230000Y14563839D01*
X62146099Y14689406D01*
X61933406Y14902099D01*
X61683306Y15069210D01*
X61405410Y15184319D01*
X61110396Y15243000D01*
X60809604Y15243000D01*
X60514590Y15184319D01*
X60236694Y15069210D01*
X59986594Y14902099D01*
X59773901Y14689406D01*
X59690000Y14563839D01*
X59606099Y14689406D01*
X59393406Y14902099D01*
X59143306Y15069210D01*
X58865410Y15184319D01*
X58570396Y15243000D01*
X58269604Y15243000D01*
X57974590Y15184319D01*
X57696694Y15069210D01*
X57446594Y14902099D01*
X57233901Y14689406D01*
X57090323Y14474525D01*
X57032385Y14571131D01*
X56843414Y14779519D01*
X56617420Y14947037D01*
X56363087Y15067246D01*
X56229039Y15107904D01*
X56007000Y14985915D01*
X55753000Y14985915D01*
X55530961Y15107904D01*
X55396913Y15067246D01*
X55142580Y14947037D01*
X54916586Y14779519D01*
X54727615Y14571131D01*
X54669677Y14474525D01*
X54526099Y14689406D01*
X54313406Y14902099D01*
X54063306Y15069210D01*
X53785410Y15184319D01*
X53490396Y15243000D01*
X53189604Y15243000D01*
X52894590Y15184319D01*
X52616694Y15069210D01*
X52366594Y14902099D01*
X52153901Y14689406D01*
X52070000Y14563839D01*
X51986099Y14689406D01*
X51773406Y14902099D01*
X51523306Y15069210D01*
X51245410Y15184319D01*
X50950396Y15243000D01*
X50649604Y15243000D01*
X50354590Y15184319D01*
X50076694Y15069210D01*
X49826594Y14902099D01*
X49613901Y14689406D01*
X49530000Y14563839D01*
X49446099Y14689406D01*
X49233406Y14902099D01*
X48983306Y15069210D01*
X48705410Y15184319D01*
X48410396Y15243000D01*
X48109604Y15243000D01*
X47814590Y15184319D01*
X47536694Y15069210D01*
X47286594Y14902099D01*
X47073901Y14689406D01*
X46990000Y14563839D01*
X46906099Y14689406D01*
X46693406Y14902099D01*
X46443306Y15069210D01*
X46165410Y15184319D01*
X45870396Y15243000D01*
X45569604Y15243000D01*
X45274590Y15184319D01*
X44996694Y15069210D01*
X44746594Y14902099D01*
X44533901Y14689406D01*
X44450000Y14563839D01*
X44366099Y14689406D01*
X44153406Y14902099D01*
X43903306Y15069210D01*
X43625410Y15184319D01*
X43330396Y15243000D01*
X43029604Y15243000D01*
X42734590Y15184319D01*
X42456694Y15069210D01*
X42206594Y14902099D01*
X41993901Y14689406D01*
X41910000Y14563839D01*
X41826099Y14689406D01*
X41613406Y14902099D01*
X41363306Y15069210D01*
X41085410Y15184319D01*
X40790396Y15243000D01*
X40489604Y15243000D01*
X40194590Y15184319D01*
X39916694Y15069210D01*
X39666594Y14902099D01*
X39453901Y14689406D01*
X39370000Y14563839D01*
X39286099Y14689406D01*
X39073406Y14902099D01*
X38823306Y15069210D01*
X38545410Y15184319D01*
X38250396Y15243000D01*
X37949604Y15243000D01*
X37654590Y15184319D01*
X37376694Y15069210D01*
X37126594Y14902099D01*
X36913901Y14689406D01*
X36746790Y14439306D01*
X36631681Y14161410D01*
X36573000Y13866396D01*
X34755000Y13866396D01*
X34755000Y19067763D01*
X36622746Y20935509D01*
X36631681Y20890590D01*
X36746790Y20612694D01*
X36913901Y20362594D01*
X37126594Y20149901D01*
X37376694Y19982790D01*
X37654590Y19867681D01*
X37949604Y19809000D01*
X38250396Y19809000D01*
X38545410Y19867681D01*
X38823306Y19982790D01*
X39073406Y20149901D01*
X39286099Y20362594D01*
X39370000Y20488161D01*
X39453901Y20362594D01*
X39666594Y20149901D01*
X39916694Y19982790D01*
X40194590Y19867681D01*
X40489604Y19809000D01*
X40790396Y19809000D01*
X41085410Y19867681D01*
X41363306Y19982790D01*
X41613406Y20149901D01*
X41826099Y20362594D01*
X41910000Y20488161D01*
X41993901Y20362594D01*
X42206594Y20149901D01*
X42456694Y19982790D01*
X42734590Y19867681D01*
X43029604Y19809000D01*
X43330396Y19809000D01*
X43625410Y19867681D01*
X43903306Y19982790D01*
X44153406Y20149901D01*
X44366099Y20362594D01*
X44450000Y20488161D01*
X44533901Y20362594D01*
X44746594Y20149901D01*
X44996694Y19982790D01*
X45274590Y19867681D01*
X45569604Y19809000D01*
X45870396Y19809000D01*
X46165410Y19867681D01*
X46443306Y19982790D01*
X46693406Y20149901D01*
X46906099Y20362594D01*
X46990000Y20488161D01*
X47073901Y20362594D01*
X47286594Y20149901D01*
X47536694Y19982790D01*
X47814590Y19867681D01*
X48109604Y19809000D01*
X48410396Y19809000D01*
X48705410Y19867681D01*
X48983306Y19982790D01*
X49233406Y20149901D01*
X49446099Y20362594D01*
X49530000Y20488161D01*
X49613901Y20362594D01*
X49826594Y20149901D01*
X50076694Y19982790D01*
X50354590Y19867681D01*
X50649604Y19809000D01*
X50950396Y19809000D01*
X51245410Y19867681D01*
X51523306Y19982790D01*
X51773406Y20149901D01*
X51986099Y20362594D01*
X52129677Y20577475D01*
X52187615Y20480869D01*
X52376586Y20272481D01*
X52602580Y20104963D01*
X52856913Y19984754D01*
X52990961Y19944096D01*
X53213000Y20066085D01*
X53213000Y21209000D01*
X53193000Y21209000D01*
X53193000Y21463000D01*
X53213000Y21463000D01*
X53213000Y21483000D01*
X53467000Y21483000D01*
X53467000Y21463000D01*
X53487000Y21463000D01*
X53487000Y21209000D01*
X53467000Y21209000D01*
X53467000Y20066085D01*
X53689039Y19944096D01*
X53823087Y19984754D01*
X54077420Y20104963D01*
X54303414Y20272481D01*
X54492385Y20480869D01*
X54550323Y20577475D01*
X54693901Y20362594D01*
X54906594Y20149901D01*
X55156694Y19982790D01*
X55434590Y19867681D01*
X55729604Y19809000D01*
X56030396Y19809000D01*
X56325410Y19867681D01*
X56603306Y19982790D01*
X56853406Y20149901D01*
X57066099Y20362594D01*
X57150000Y20488161D01*
X57233901Y20362594D01*
X57446594Y20149901D01*
X57696694Y19982790D01*
X57974590Y19867681D01*
X58269604Y19809000D01*
X58570396Y19809000D01*
X58865410Y19867681D01*
X59143306Y19982790D01*
X59393406Y20149901D01*
X59606099Y20362594D01*
X59690000Y20488161D01*
X59773901Y20362594D01*
X59986594Y20149901D01*
X60236694Y19982790D01*
X60514590Y19867681D01*
X60809604Y19809000D01*
X61110396Y19809000D01*
X61405410Y19867681D01*
X61683306Y19982790D01*
X61933406Y20149901D01*
X62146099Y20362594D01*
X62230000Y20488161D01*
X62313901Y20362594D01*
X62526594Y20149901D01*
X62776694Y19982790D01*
X63054590Y19867681D01*
X63349604Y19809000D01*
X63650396Y19809000D01*
X63945410Y19867681D01*
X64223306Y19982790D01*
X64473406Y20149901D01*
X64686099Y20362594D01*
X64770000Y20488161D01*
X64853901Y20362594D01*
X65066594Y20149901D01*
X65316694Y19982790D01*
X65594590Y19867681D01*
X65889604Y19809000D01*
X66190396Y19809000D01*
X66485410Y19867681D01*
X66763306Y19982790D01*
X67013406Y20149901D01*
X67226099Y20362594D01*
X67310000Y20488161D01*
X67393901Y20362594D01*
X67606594Y20149901D01*
X67856694Y19982790D01*
X68134590Y19867681D01*
X68429604Y19809000D01*
X68730396Y19809000D01*
X69025410Y19867681D01*
X69303306Y19982790D01*
X69553406Y20149901D01*
X69650265Y20246760D01*
X69712597Y20130147D01*
X69803446Y20019446D01*
X69914147Y19928597D01*
X70040443Y19861090D01*
X70177483Y19819520D01*
X70320000Y19805483D01*
X71920000Y19805483D01*
X72062517Y19819520D01*
X72199557Y19861090D01*
X72325853Y19928597D01*
X72436554Y20019446D01*
X72527403Y20130147D01*
X72594910Y20256443D01*
X72636480Y20393483D01*
X72650517Y20536000D01*
X72650517Y22136000D01*
X72636480Y22278517D01*
X72594910Y22415557D01*
X72527403Y22541853D01*
X72436554Y22652554D01*
X72325853Y22743403D01*
X72199557Y22810910D01*
X72062517Y22852480D01*
X71920000Y22866517D01*
X70565554Y22866517D01*
X70769299Y22950911D01*
X71174995Y23221989D01*
X71520011Y23567005D01*
X71791089Y23972701D01*
X71977810Y24423486D01*
X72073000Y24902037D01*
X72073000Y25389963D01*
X71977810Y25868514D01*
X71791089Y26319299D01*
X71520011Y26724995D01*
X71278006Y26967000D01*
X71627761Y26967000D01*
X72743001Y25851759D01*
X72743000Y14294261D01*
X72737065Y14234001D01*
X72743000Y14173741D01*
X72743000Y14173734D01*
X72760755Y13993468D01*
X72830916Y13762178D01*
X72944851Y13549019D01*
X73044156Y13428016D01*
X72961000Y13009964D01*
X72961000Y12522038D01*
X73056190Y12043487D01*
X73242911Y11592702D01*
X73513989Y11187006D01*
X73859005Y10841990D01*
X74264701Y10570912D01*
X74715486Y10384191D01*
X75194037Y10289001D01*
X75681963Y10289001D01*
X76160514Y10384191D01*
X76611299Y10570912D01*
X77016995Y10841990D01*
X77362011Y11187006D01*
X77633089Y11592702D01*
X77819810Y12043487D01*
X77915000Y12522038D01*
X77915000Y13009964D01*
X77819810Y13488515D01*
X77633089Y13939300D01*
X77362011Y14344996D01*
X77016995Y14690012D01*
X76611299Y14961090D01*
X76160514Y15147811D01*
X75681963Y15243001D01*
X75197000Y15243001D01*
X75197000Y26299737D01*
X75202935Y26360000D01*
X75179246Y26600534D01*
X75109084Y26831824D01*
X75101043Y26846867D01*
X74995149Y27044983D01*
X74841817Y27231817D01*
X74795005Y27270235D01*
X73046239Y29019000D01*
X73007817Y29065817D01*
X72820983Y29219149D01*
X72607824Y29333084D01*
X72376534Y29403245D01*
X72196268Y29421000D01*
X72196260Y29421000D01*
X72136000Y29426935D01*
X72075740Y29421000D01*
X57171883Y29421000D01*
X56950188Y29642695D01*
X56544492Y29913773D01*
X56093707Y30100494D01*
X55615156Y30195684D01*
X55127230Y30195684D01*
X54648679Y30100494D01*
X54197894Y29913773D01*
X53792198Y29642695D01*
X53447182Y29297679D01*
X53176104Y28891983D01*
X52989383Y28441198D01*
X52894193Y27962647D01*
X52894193Y27474721D01*
X52989383Y26996170D01*
X53176104Y26545385D01*
X53447182Y26139689D01*
X53792198Y25794673D01*
X54197894Y25523595D01*
X54648679Y25336874D01*
X55127230Y25241684D01*
X55615156Y25241684D01*
X56093707Y25336874D01*
X56544492Y25523595D01*
X56950188Y25794673D01*
X57295204Y26139689D01*
X57566282Y26545385D01*
X57740920Y26967000D01*
X67913994Y26967000D01*
X67671989Y26724995D01*
X67400911Y26319299D01*
X67214190Y25868514D01*
X67119000Y25389963D01*
X67119000Y24902037D01*
X67201590Y24486829D01*
X67177762Y24463001D01*
X37248258Y24463001D01*
X37187998Y24468936D01*
X37127738Y24463001D01*
X37127731Y24463001D01*
X36947465Y24445246D01*
X36716175Y24375085D01*
X36503016Y24261150D01*
X36316182Y24107818D01*
X36277764Y24061006D01*
X32703000Y20486241D01*
X32656183Y20447819D01*
X32502851Y20260984D01*
X32388916Y20047825D01*
X32318755Y19816535D01*
X32301000Y19636269D01*
X32301000Y19636262D01*
X32295065Y19576002D01*
X32301000Y19515742D01*
X32301001Y10795208D01*
X31949005Y10560011D01*
X31603989Y10214995D01*
X31332911Y9809299D01*
X31146190Y9358514D01*
X31051000Y8879963D01*
X3479000Y8879963D01*
X3479000Y34720687D01*
X5389000Y34720687D01*
X5389000Y34327313D01*
X5465743Y33941496D01*
X5616281Y33578066D01*
X5834829Y33250986D01*
X6112986Y32972829D01*
X6440066Y32754281D01*
X6803496Y32603743D01*
X7189313Y32527000D01*
X7582687Y32527000D01*
X7968504Y32603743D01*
X8331934Y32754281D01*
X8659014Y32972829D01*
X8937171Y33250986D01*
X8952548Y33274000D01*
X13097928Y33274000D01*
X13110188Y33149518D01*
X13146498Y33029820D01*
X13205463Y32919506D01*
X13284815Y32822815D01*
X13381506Y32743463D01*
X13491820Y32684498D01*
X13611518Y32648188D01*
X13736000Y32635928D01*
X14700250Y32639000D01*
X14859000Y32797750D01*
X14859000Y34397000D01*
X15113000Y34397000D01*
X15113000Y32797750D01*
X15271750Y32639000D01*
X16236000Y32635928D01*
X16360482Y32648188D01*
X16480180Y32684498D01*
X16590494Y32743463D01*
X16687185Y32822815D01*
X16766537Y32919506D01*
X16825502Y33029820D01*
X16861812Y33149518D01*
X16874072Y33274000D01*
X16871000Y34238250D01*
X16712250Y34397000D01*
X15113000Y34397000D01*
X14859000Y34397000D01*
X13259750Y34397000D01*
X13101000Y34238250D01*
X13097928Y33274000D01*
X8952548Y33274000D01*
X9155719Y33578066D01*
X9306257Y33941496D01*
X9383000Y34327313D01*
X9383000Y34720687D01*
X9306257Y35106504D01*
X9155719Y35469934D01*
X8952549Y35774000D01*
X13097928Y35774000D01*
X13101000Y34809750D01*
X13259750Y34651000D01*
X14859000Y34651000D01*
X14859000Y36250250D01*
X15113000Y36250250D01*
X15113000Y34651000D01*
X16712250Y34651000D01*
X16741937Y34680687D01*
X18069000Y34680687D01*
X18069000Y34287313D01*
X18145743Y33901496D01*
X18296281Y33538066D01*
X18514829Y33210986D01*
X18792986Y32932829D01*
X19120066Y32714281D01*
X19483496Y32563743D01*
X19869313Y32487000D01*
X20262687Y32487000D01*
X20648504Y32563743D01*
X21011934Y32714281D01*
X21339014Y32932829D01*
X21617171Y33210986D01*
X21632548Y33234000D01*
X25777928Y33234000D01*
X25790188Y33109518D01*
X25826498Y32989820D01*
X25885463Y32879506D01*
X25964815Y32782815D01*
X26061506Y32703463D01*
X26171820Y32644498D01*
X26291518Y32608188D01*
X26416000Y32595928D01*
X27380250Y32599000D01*
X27539000Y32757750D01*
X27539000Y34357000D01*
X27793000Y34357000D01*
X27793000Y32757750D01*
X27951750Y32599000D01*
X28916000Y32595928D01*
X29040482Y32608188D01*
X29160180Y32644498D01*
X29270494Y32703463D01*
X29367185Y32782815D01*
X29446537Y32879506D01*
X29505502Y32989820D01*
X29541812Y33109518D01*
X29554072Y33234000D01*
X29551000Y34198250D01*
X29392250Y34357000D01*
X27793000Y34357000D01*
X27539000Y34357000D01*
X25939750Y34357000D01*
X25781000Y34198250D01*
X25777928Y33234000D01*
X21632548Y33234000D01*
X21835719Y33538066D01*
X21986257Y33901496D01*
X22063000Y34287313D01*
X22063000Y34680687D01*
X21986257Y35066504D01*
X21835719Y35429934D01*
X21632549Y35734000D01*
X25777928Y35734000D01*
X25781000Y34769750D01*
X25939750Y34611000D01*
X27539000Y34611000D01*
X27539000Y36210250D01*
X27793000Y36210250D01*
X27793000Y34611000D01*
X29392250Y34611000D01*
X29461937Y34680687D01*
X30769000Y34680687D01*
X30769000Y34287313D01*
X30845743Y33901496D01*
X30996281Y33538066D01*
X31214829Y33210986D01*
X31492986Y32932829D01*
X31820066Y32714281D01*
X32183496Y32563743D01*
X32569313Y32487000D01*
X32962687Y32487000D01*
X33348504Y32563743D01*
X33711934Y32714281D01*
X34039014Y32932829D01*
X34317171Y33210986D01*
X34332548Y33234000D01*
X38477928Y33234000D01*
X38490188Y33109518D01*
X38526498Y32989820D01*
X38585463Y32879506D01*
X38664815Y32782815D01*
X38761506Y32703463D01*
X38871820Y32644498D01*
X38991518Y32608188D01*
X39116000Y32595928D01*
X40080250Y32599000D01*
X40239000Y32757750D01*
X40239000Y34357000D01*
X40493000Y34357000D01*
X40493000Y32757750D01*
X40651750Y32599000D01*
X41616000Y32595928D01*
X41740482Y32608188D01*
X41860180Y32644498D01*
X41970494Y32703463D01*
X42067185Y32782815D01*
X42146537Y32879506D01*
X42205502Y32989820D01*
X42241812Y33109518D01*
X42254072Y33234000D01*
X42251000Y34198250D01*
X42092250Y34357000D01*
X40493000Y34357000D01*
X40239000Y34357000D01*
X38639750Y34357000D01*
X38481000Y34198250D01*
X38477928Y33234000D01*
X34332548Y33234000D01*
X34535719Y33538066D01*
X34686257Y33901496D01*
X34763000Y34287313D01*
X34763000Y34680687D01*
X34686257Y35066504D01*
X34535719Y35429934D01*
X34332549Y35734000D01*
X38477928Y35734000D01*
X38481000Y34769750D01*
X38639750Y34611000D01*
X40239000Y34611000D01*
X40239000Y36210250D01*
X40493000Y36210250D01*
X40493000Y34611000D01*
X42092250Y34611000D01*
X42161937Y34680687D01*
X43469000Y34680687D01*
X43469000Y34287313D01*
X43545743Y33901496D01*
X43696281Y33538066D01*
X43914829Y33210986D01*
X44192986Y32932829D01*
X44520066Y32714281D01*
X44883496Y32563743D01*
X45269313Y32487000D01*
X45662687Y32487000D01*
X46048504Y32563743D01*
X46411934Y32714281D01*
X46739014Y32932829D01*
X47017171Y33210986D01*
X47032548Y33234000D01*
X51177928Y33234000D01*
X51190188Y33109518D01*
X51226498Y32989820D01*
X51285463Y32879506D01*
X51364815Y32782815D01*
X51461506Y32703463D01*
X51571820Y32644498D01*
X51691518Y32608188D01*
X51816000Y32595928D01*
X52780250Y32599000D01*
X52939000Y32757750D01*
X52939000Y34357000D01*
X53193000Y34357000D01*
X53193000Y32757750D01*
X53351750Y32599000D01*
X54316000Y32595928D01*
X54440482Y32608188D01*
X54560180Y32644498D01*
X54670494Y32703463D01*
X54767185Y32782815D01*
X54846537Y32879506D01*
X54905502Y32989820D01*
X54941812Y33109518D01*
X54954072Y33234000D01*
X54951000Y34198250D01*
X54792250Y34357000D01*
X53193000Y34357000D01*
X52939000Y34357000D01*
X51339750Y34357000D01*
X51181000Y34198250D01*
X51177928Y33234000D01*
X47032548Y33234000D01*
X47235719Y33538066D01*
X47386257Y33901496D01*
X47463000Y34287313D01*
X47463000Y34680687D01*
X47386257Y35066504D01*
X47235719Y35429934D01*
X47032549Y35734000D01*
X51177928Y35734000D01*
X51181000Y34769750D01*
X51339750Y34611000D01*
X52939000Y34611000D01*
X52939000Y36210250D01*
X53193000Y36210250D01*
X53193000Y34611000D01*
X54792250Y34611000D01*
X54861937Y34680687D01*
X56169000Y34680687D01*
X56169000Y34287313D01*
X56245743Y33901496D01*
X56396281Y33538066D01*
X56614829Y33210986D01*
X56892986Y32932829D01*
X57220066Y32714281D01*
X57583496Y32563743D01*
X57969313Y32487000D01*
X58362687Y32487000D01*
X58748504Y32563743D01*
X59111934Y32714281D01*
X59439014Y32932829D01*
X59717171Y33210986D01*
X59732548Y33234000D01*
X63877928Y33234000D01*
X63890188Y33109518D01*
X63926498Y32989820D01*
X63985463Y32879506D01*
X64064815Y32782815D01*
X64161506Y32703463D01*
X64271820Y32644498D01*
X64391518Y32608188D01*
X64516000Y32595928D01*
X65480250Y32599000D01*
X65639000Y32757750D01*
X65639000Y34357000D01*
X65893000Y34357000D01*
X65893000Y32757750D01*
X66051750Y32599000D01*
X67016000Y32595928D01*
X67140482Y32608188D01*
X67260180Y32644498D01*
X67370494Y32703463D01*
X67467185Y32782815D01*
X67546537Y32879506D01*
X67605502Y32989820D01*
X67641812Y33109518D01*
X67654072Y33234000D01*
X67651000Y34198250D01*
X67492250Y34357000D01*
X65893000Y34357000D01*
X65639000Y34357000D01*
X64039750Y34357000D01*
X63881000Y34198250D01*
X63877928Y33234000D01*
X59732548Y33234000D01*
X59935719Y33538066D01*
X60086257Y33901496D01*
X60163000Y34287313D01*
X60163000Y34680687D01*
X60086257Y35066504D01*
X59935719Y35429934D01*
X59732549Y35734000D01*
X63877928Y35734000D01*
X63881000Y34769750D01*
X64039750Y34611000D01*
X65639000Y34611000D01*
X65639000Y36210250D01*
X65893000Y36210250D01*
X65893000Y34611000D01*
X67492250Y34611000D01*
X67561937Y34680687D01*
X68869000Y34680687D01*
X68869000Y34287313D01*
X68945743Y33901496D01*
X69096281Y33538066D01*
X69314829Y33210986D01*
X69592986Y32932829D01*
X69920066Y32714281D01*
X70283496Y32563743D01*
X70669313Y32487000D01*
X71062687Y32487000D01*
X71448504Y32563743D01*
X71811934Y32714281D01*
X72139014Y32932829D01*
X72417171Y33210986D01*
X72432548Y33234000D01*
X76577928Y33234000D01*
X76590188Y33109518D01*
X76626498Y32989820D01*
X76685463Y32879506D01*
X76764815Y32782815D01*
X76861506Y32703463D01*
X76971820Y32644498D01*
X77091518Y32608188D01*
X77216000Y32595928D01*
X78180250Y32599000D01*
X78339000Y32757750D01*
X78339000Y34357000D01*
X78593000Y34357000D01*
X78593000Y32757750D01*
X78751750Y32599000D01*
X79716000Y32595928D01*
X79840482Y32608188D01*
X79960180Y32644498D01*
X80070494Y32703463D01*
X80167185Y32782815D01*
X80246537Y32879506D01*
X80305502Y32989820D01*
X80341812Y33109518D01*
X80354072Y33234000D01*
X80351000Y34198250D01*
X80192250Y34357000D01*
X78593000Y34357000D01*
X78339000Y34357000D01*
X76739750Y34357000D01*
X76581000Y34198250D01*
X76577928Y33234000D01*
X72432548Y33234000D01*
X72635719Y33538066D01*
X72786257Y33901496D01*
X72863000Y34287313D01*
X72863000Y34680687D01*
X72786257Y35066504D01*
X72635719Y35429934D01*
X72432549Y35734000D01*
X76577928Y35734000D01*
X76581000Y34769750D01*
X76739750Y34611000D01*
X78339000Y34611000D01*
X78339000Y36210250D01*
X78593000Y36210250D01*
X78593000Y34611000D01*
X80192250Y34611000D01*
X80261937Y34680687D01*
X81569000Y34680687D01*
X81569000Y34287313D01*
X81645743Y33901496D01*
X81796281Y33538066D01*
X82014829Y33210986D01*
X82292986Y32932829D01*
X82620066Y32714281D01*
X82983496Y32563743D01*
X83369313Y32487000D01*
X83762687Y32487000D01*
X84148504Y32563743D01*
X84511934Y32714281D01*
X84839014Y32932829D01*
X85117171Y33210986D01*
X85132548Y33234000D01*
X89277928Y33234000D01*
X89290188Y33109518D01*
X89326498Y32989820D01*
X89385463Y32879506D01*
X89464815Y32782815D01*
X89561506Y32703463D01*
X89671820Y32644498D01*
X89791518Y32608188D01*
X89916000Y32595928D01*
X90880250Y32599000D01*
X91039000Y32757750D01*
X91039000Y34357000D01*
X91293000Y34357000D01*
X91293000Y32757750D01*
X91451750Y32599000D01*
X92416000Y32595928D01*
X92540482Y32608188D01*
X92660180Y32644498D01*
X92770494Y32703463D01*
X92867185Y32782815D01*
X92946537Y32879506D01*
X93005502Y32989820D01*
X93041812Y33109518D01*
X93054072Y33234000D01*
X93051000Y34198250D01*
X92892250Y34357000D01*
X91293000Y34357000D01*
X91039000Y34357000D01*
X89439750Y34357000D01*
X89281000Y34198250D01*
X89277928Y33234000D01*
X85132548Y33234000D01*
X85335719Y33538066D01*
X85486257Y33901496D01*
X85563000Y34287313D01*
X85563000Y34680687D01*
X85486257Y35066504D01*
X85335719Y35429934D01*
X85132549Y35734000D01*
X89277928Y35734000D01*
X89281000Y34769750D01*
X89439750Y34611000D01*
X91039000Y34611000D01*
X91039000Y36210250D01*
X91293000Y36210250D01*
X91293000Y34611000D01*
X92892250Y34611000D01*
X93021937Y34740687D01*
X94797000Y34740687D01*
X94797000Y34347313D01*
X94873743Y33961496D01*
X95024281Y33598066D01*
X95242829Y33270986D01*
X95520986Y32992829D01*
X95848066Y32774281D01*
X96211496Y32623743D01*
X96597313Y32547000D01*
X96990687Y32547000D01*
X97376504Y32623743D01*
X97739934Y32774281D01*
X98067014Y32992829D01*
X98345171Y33270986D01*
X98360548Y33294000D01*
X102505928Y33294000D01*
X102518188Y33169518D01*
X102554498Y33049820D01*
X102613463Y32939506D01*
X102692815Y32842815D01*
X102789506Y32763463D01*
X102899820Y32704498D01*
X103019518Y32668188D01*
X103144000Y32655928D01*
X104108250Y32659000D01*
X104267000Y32817750D01*
X104267000Y34417000D01*
X104521000Y34417000D01*
X104521000Y32817750D01*
X104679750Y32659000D01*
X105644000Y32655928D01*
X105768482Y32668188D01*
X105888180Y32704498D01*
X105998494Y32763463D01*
X106095185Y32842815D01*
X106174537Y32939506D01*
X106233502Y33049820D01*
X106269812Y33169518D01*
X106282072Y33294000D01*
X106279000Y34258250D01*
X106120250Y34417000D01*
X104521000Y34417000D01*
X104267000Y34417000D01*
X102667750Y34417000D01*
X102509000Y34258250D01*
X102505928Y33294000D01*
X98360548Y33294000D01*
X98563719Y33598066D01*
X98714257Y33961496D01*
X98791000Y34347313D01*
X98791000Y34740687D01*
X98714257Y35126504D01*
X98563719Y35489934D01*
X98360549Y35794000D01*
X102505928Y35794000D01*
X102509000Y34829750D01*
X102667750Y34671000D01*
X104267000Y34671000D01*
X104267000Y36270250D01*
X104521000Y36270250D01*
X104521000Y34671000D01*
X106120250Y34671000D01*
X106279000Y34829750D01*
X106282072Y35794000D01*
X106269812Y35918482D01*
X106233502Y36038180D01*
X106174537Y36148494D01*
X106095185Y36245185D01*
X105998494Y36324537D01*
X105888180Y36383502D01*
X105768482Y36419812D01*
X105644000Y36432072D01*
X104679750Y36429000D01*
X104521000Y36270250D01*
X104267000Y36270250D01*
X104108250Y36429000D01*
X103144000Y36432072D01*
X103019518Y36419812D01*
X102899820Y36383502D01*
X102789506Y36324537D01*
X102692815Y36245185D01*
X102613463Y36148494D01*
X102554498Y36038180D01*
X102518188Y35918482D01*
X102505928Y35794000D01*
X98360549Y35794000D01*
X98345171Y35817014D01*
X98067014Y36095171D01*
X97739934Y36313719D01*
X97376504Y36464257D01*
X96990687Y36541000D01*
X96597313Y36541000D01*
X96211496Y36464257D01*
X95848066Y36313719D01*
X95520986Y36095171D01*
X95242829Y35817014D01*
X95024281Y35489934D01*
X94873743Y35126504D01*
X94797000Y34740687D01*
X93021937Y34740687D01*
X93051000Y34769750D01*
X93054072Y35734000D01*
X93041812Y35858482D01*
X93005502Y35978180D01*
X92946537Y36088494D01*
X92867185Y36185185D01*
X92770494Y36264537D01*
X92660180Y36323502D01*
X92540482Y36359812D01*
X92416000Y36372072D01*
X91451750Y36369000D01*
X91293000Y36210250D01*
X91039000Y36210250D01*
X90880250Y36369000D01*
X89916000Y36372072D01*
X89791518Y36359812D01*
X89671820Y36323502D01*
X89561506Y36264537D01*
X89464815Y36185185D01*
X89385463Y36088494D01*
X89326498Y35978180D01*
X89290188Y35858482D01*
X89277928Y35734000D01*
X85132549Y35734000D01*
X85117171Y35757014D01*
X84839014Y36035171D01*
X84511934Y36253719D01*
X84148504Y36404257D01*
X83762687Y36481000D01*
X83369313Y36481000D01*
X82983496Y36404257D01*
X82620066Y36253719D01*
X82292986Y36035171D01*
X82014829Y35757014D01*
X81796281Y35429934D01*
X81645743Y35066504D01*
X81569000Y34680687D01*
X80261937Y34680687D01*
X80351000Y34769750D01*
X80354072Y35734000D01*
X80341812Y35858482D01*
X80305502Y35978180D01*
X80246537Y36088494D01*
X80167185Y36185185D01*
X80070494Y36264537D01*
X79960180Y36323502D01*
X79840482Y36359812D01*
X79716000Y36372072D01*
X78751750Y36369000D01*
X78593000Y36210250D01*
X78339000Y36210250D01*
X78180250Y36369000D01*
X77216000Y36372072D01*
X77091518Y36359812D01*
X76971820Y36323502D01*
X76861506Y36264537D01*
X76764815Y36185185D01*
X76685463Y36088494D01*
X76626498Y35978180D01*
X76590188Y35858482D01*
X76577928Y35734000D01*
X72432549Y35734000D01*
X72417171Y35757014D01*
X72139014Y36035171D01*
X71811934Y36253719D01*
X71448504Y36404257D01*
X71062687Y36481000D01*
X70669313Y36481000D01*
X70283496Y36404257D01*
X69920066Y36253719D01*
X69592986Y36035171D01*
X69314829Y35757014D01*
X69096281Y35429934D01*
X68945743Y35066504D01*
X68869000Y34680687D01*
X67561937Y34680687D01*
X67651000Y34769750D01*
X67654072Y35734000D01*
X67641812Y35858482D01*
X67605502Y35978180D01*
X67546537Y36088494D01*
X67467185Y36185185D01*
X67370494Y36264537D01*
X67260180Y36323502D01*
X67140482Y36359812D01*
X67016000Y36372072D01*
X66051750Y36369000D01*
X65893000Y36210250D01*
X65639000Y36210250D01*
X65480250Y36369000D01*
X64516000Y36372072D01*
X64391518Y36359812D01*
X64271820Y36323502D01*
X64161506Y36264537D01*
X64064815Y36185185D01*
X63985463Y36088494D01*
X63926498Y35978180D01*
X63890188Y35858482D01*
X63877928Y35734000D01*
X59732549Y35734000D01*
X59717171Y35757014D01*
X59439014Y36035171D01*
X59111934Y36253719D01*
X58748504Y36404257D01*
X58362687Y36481000D01*
X57969313Y36481000D01*
X57583496Y36404257D01*
X57220066Y36253719D01*
X56892986Y36035171D01*
X56614829Y35757014D01*
X56396281Y35429934D01*
X56245743Y35066504D01*
X56169000Y34680687D01*
X54861937Y34680687D01*
X54951000Y34769750D01*
X54954072Y35734000D01*
X54941812Y35858482D01*
X54905502Y35978180D01*
X54846537Y36088494D01*
X54767185Y36185185D01*
X54670494Y36264537D01*
X54560180Y36323502D01*
X54440482Y36359812D01*
X54316000Y36372072D01*
X53351750Y36369000D01*
X53193000Y36210250D01*
X52939000Y36210250D01*
X52780250Y36369000D01*
X51816000Y36372072D01*
X51691518Y36359812D01*
X51571820Y36323502D01*
X51461506Y36264537D01*
X51364815Y36185185D01*
X51285463Y36088494D01*
X51226498Y35978180D01*
X51190188Y35858482D01*
X51177928Y35734000D01*
X47032549Y35734000D01*
X47017171Y35757014D01*
X46739014Y36035171D01*
X46411934Y36253719D01*
X46048504Y36404257D01*
X45662687Y36481000D01*
X45269313Y36481000D01*
X44883496Y36404257D01*
X44520066Y36253719D01*
X44192986Y36035171D01*
X43914829Y35757014D01*
X43696281Y35429934D01*
X43545743Y35066504D01*
X43469000Y34680687D01*
X42161937Y34680687D01*
X42251000Y34769750D01*
X42254072Y35734000D01*
X42241812Y35858482D01*
X42205502Y35978180D01*
X42146537Y36088494D01*
X42067185Y36185185D01*
X41970494Y36264537D01*
X41860180Y36323502D01*
X41740482Y36359812D01*
X41616000Y36372072D01*
X40651750Y36369000D01*
X40493000Y36210250D01*
X40239000Y36210250D01*
X40080250Y36369000D01*
X39116000Y36372072D01*
X38991518Y36359812D01*
X38871820Y36323502D01*
X38761506Y36264537D01*
X38664815Y36185185D01*
X38585463Y36088494D01*
X38526498Y35978180D01*
X38490188Y35858482D01*
X38477928Y35734000D01*
X34332549Y35734000D01*
X34317171Y35757014D01*
X34039014Y36035171D01*
X33711934Y36253719D01*
X33348504Y36404257D01*
X32962687Y36481000D01*
X32569313Y36481000D01*
X32183496Y36404257D01*
X31820066Y36253719D01*
X31492986Y36035171D01*
X31214829Y35757014D01*
X30996281Y35429934D01*
X30845743Y35066504D01*
X30769000Y34680687D01*
X29461937Y34680687D01*
X29551000Y34769750D01*
X29554072Y35734000D01*
X29541812Y35858482D01*
X29505502Y35978180D01*
X29446537Y36088494D01*
X29367185Y36185185D01*
X29270494Y36264537D01*
X29160180Y36323502D01*
X29040482Y36359812D01*
X28916000Y36372072D01*
X27951750Y36369000D01*
X27793000Y36210250D01*
X27539000Y36210250D01*
X27380250Y36369000D01*
X26416000Y36372072D01*
X26291518Y36359812D01*
X26171820Y36323502D01*
X26061506Y36264537D01*
X25964815Y36185185D01*
X25885463Y36088494D01*
X25826498Y35978180D01*
X25790188Y35858482D01*
X25777928Y35734000D01*
X21632549Y35734000D01*
X21617171Y35757014D01*
X21339014Y36035171D01*
X21011934Y36253719D01*
X20648504Y36404257D01*
X20262687Y36481000D01*
X19869313Y36481000D01*
X19483496Y36404257D01*
X19120066Y36253719D01*
X18792986Y36035171D01*
X18514829Y35757014D01*
X18296281Y35429934D01*
X18145743Y35066504D01*
X18069000Y34680687D01*
X16741937Y34680687D01*
X16871000Y34809750D01*
X16874072Y35774000D01*
X16861812Y35898482D01*
X16825502Y36018180D01*
X16766537Y36128494D01*
X16687185Y36225185D01*
X16590494Y36304537D01*
X16480180Y36363502D01*
X16360482Y36399812D01*
X16236000Y36412072D01*
X15271750Y36409000D01*
X15113000Y36250250D01*
X14859000Y36250250D01*
X14700250Y36409000D01*
X13736000Y36412072D01*
X13611518Y36399812D01*
X13491820Y36363502D01*
X13381506Y36304537D01*
X13284815Y36225185D01*
X13205463Y36128494D01*
X13146498Y36018180D01*
X13110188Y35898482D01*
X13097928Y35774000D01*
X8952549Y35774000D01*
X8937171Y35797014D01*
X8659014Y36075171D01*
X8331934Y36293719D01*
X7968504Y36444257D01*
X7582687Y36521000D01*
X7189313Y36521000D01*
X6803496Y36444257D01*
X6440066Y36293719D01*
X6112986Y36075171D01*
X5834829Y35797014D01*
X5616281Y35469934D01*
X5465743Y35106504D01*
X5389000Y34720687D01*
X3479000Y34720687D01*
X3479000Y44417860D01*
X3663989Y44141005D01*
X4009005Y43795989D01*
X4414701Y43524911D01*
X4865486Y43338190D01*
X5344037Y43243000D01*
X5831963Y43243000D01*
X5952276Y43266932D01*
X8128297Y41090910D01*
X8174551Y41034549D01*
X8262501Y40962371D01*
X8399453Y40849976D01*
X8656042Y40712827D01*
X8670732Y40708371D01*
X8934458Y40628370D01*
X9151445Y40606999D01*
X9151448Y40606999D01*
X9224001Y40599853D01*
X9296554Y40606999D01*
X19151446Y40606999D01*
X19223999Y40599853D01*
X19296552Y40606999D01*
X31503450Y40606999D01*
X31576000Y40599853D01*
X31648551Y40606999D01*
X43441448Y40606999D01*
X43514001Y40599853D01*
X43586554Y40606999D01*
X57157448Y40606999D01*
X57230001Y40599853D01*
X57302554Y40606999D01*
X69603448Y40606999D01*
X69676001Y40599853D01*
X69748554Y40606999D01*
X83921446Y40606999D01*
X83993999Y40599853D01*
X84066552Y40606999D01*
X92557446Y40606999D01*
X92629999Y40599853D01*
X92702552Y40606999D01*
X92702555Y40606999D01*
X92919542Y40628370D01*
X93197957Y40712827D01*
X93454546Y40849977D01*
X93679449Y41034549D01*
X93725707Y41090915D01*
X96155724Y43520932D01*
X96276037Y43497000D01*
X96763963Y43497000D01*
X97242514Y43592190D01*
X97693299Y43778911D01*
X98098995Y44049989D01*
X98444011Y44395005D01*
X98715089Y44800701D01*
X98772257Y44938718D01*
X102417000Y44938718D01*
X102417000Y44549282D01*
X102492975Y44167330D01*
X102642005Y43807539D01*
X102858364Y43483736D01*
X103133736Y43208364D01*
X103457539Y42992005D01*
X103817330Y42842975D01*
X104199282Y42767000D01*
X104588718Y42767000D01*
X104970670Y42842975D01*
X105330461Y42992005D01*
X105654264Y43208364D01*
X105929636Y43483736D01*
X106145995Y43807539D01*
X106295025Y44167330D01*
X106371000Y44549282D01*
X106371000Y44938718D01*
X106295025Y45320670D01*
X106145995Y45680461D01*
X105929636Y46004264D01*
X105654264Y46279636D01*
X105330461Y46495995D01*
X104970670Y46645025D01*
X104588718Y46721000D01*
X104199282Y46721000D01*
X103817330Y46645025D01*
X103457539Y46495995D01*
X103133736Y46279636D01*
X102858364Y46004264D01*
X102642005Y45680461D01*
X102492975Y45320670D01*
X102417000Y44938718D01*
X98772257Y44938718D01*
X98901810Y45251486D01*
X98997000Y45730037D01*
X98997000Y46217963D01*
X98901810Y46696514D01*
X98715089Y47147299D01*
X98444011Y47552995D01*
X98098995Y47898011D01*
X97769562Y48118132D01*
X98054264Y48308364D01*
X98329636Y48583736D01*
X98545995Y48907539D01*
X98695025Y49267330D01*
X98771000Y49649282D01*
X98771000Y50038718D01*
X98695025Y50420670D01*
X98545995Y50780461D01*
X98329636Y51104264D01*
X98054264Y51379636D01*
X97730461Y51595995D01*
X97370670Y51745025D01*
X96988718Y51821000D01*
X96599282Y51821000D01*
X96217330Y51745025D01*
X95857539Y51595995D01*
X95533736Y51379636D01*
X95258364Y51104264D01*
X95042005Y50780461D01*
X94892975Y50420670D01*
X94817000Y50038718D01*
X94817000Y49649282D01*
X94892975Y49267330D01*
X95042005Y48907539D01*
X95258364Y48583736D01*
X95533736Y48308364D01*
X95590834Y48270212D01*
X95346701Y48169089D01*
X94941005Y47898011D01*
X94595989Y47552995D01*
X94324911Y47147299D01*
X94138190Y46696514D01*
X94043000Y46217963D01*
X94043000Y45730037D01*
X94066932Y45609724D01*
X93143000Y44685792D01*
X93143000Y44878718D01*
X93067025Y45260670D01*
X92917995Y45620461D01*
X92701636Y45944264D01*
X92426264Y46219636D01*
X92102461Y46435995D01*
X91742670Y46585025D01*
X91360718Y46661000D01*
X90971282Y46661000D01*
X90589330Y46585025D01*
X90229539Y46435995D01*
X89905736Y46219636D01*
X89630364Y45944264D01*
X89414005Y45620461D01*
X89264975Y45260670D01*
X89189000Y44878718D01*
X89189000Y44489282D01*
X89264975Y44107330D01*
X89414005Y43747539D01*
X89538647Y43560999D01*
X85805000Y43560999D01*
X85805000Y43981838D01*
X85906995Y44049989D01*
X86252011Y44395005D01*
X86523089Y44800701D01*
X86709810Y45251486D01*
X86805000Y45730037D01*
X86805000Y46217963D01*
X86709810Y46696514D01*
X86523089Y47147299D01*
X86252011Y47552995D01*
X85906995Y47898011D01*
X85501299Y48169089D01*
X85050514Y48355810D01*
X84953089Y48375189D01*
X85101636Y48523736D01*
X85317995Y48847539D01*
X85467025Y49207330D01*
X85543000Y49589282D01*
X85543000Y49978718D01*
X85467025Y50360670D01*
X85317995Y50720461D01*
X85101636Y51044264D01*
X84826264Y51319636D01*
X84502461Y51535995D01*
X84142670Y51685025D01*
X83760718Y51761000D01*
X83371282Y51761000D01*
X82989330Y51685025D01*
X82629539Y51535995D01*
X82305736Y51319636D01*
X82030364Y51044264D01*
X81814005Y50720461D01*
X81664975Y50360670D01*
X81589000Y49978718D01*
X81589000Y49589282D01*
X81664975Y49207330D01*
X81814005Y48847539D01*
X82030364Y48523736D01*
X82305736Y48248364D01*
X82629539Y48032005D01*
X82827082Y47950180D01*
X82749005Y47898011D01*
X82403989Y47552995D01*
X82132911Y47147299D01*
X81946190Y46696514D01*
X81851000Y46217963D01*
X81851000Y45730037D01*
X81946190Y45251486D01*
X82132911Y44800701D01*
X82403989Y44395005D01*
X82749005Y44049989D01*
X82851000Y43981838D01*
X82851000Y43560999D01*
X80093353Y43560999D01*
X80217995Y43747539D01*
X80367025Y44107330D01*
X80443000Y44489282D01*
X80443000Y44878718D01*
X80367025Y45260670D01*
X80217995Y45620461D01*
X80001636Y45944264D01*
X79726264Y46219636D01*
X79402461Y46435995D01*
X79042670Y46585025D01*
X78660718Y46661000D01*
X78271282Y46661000D01*
X77889330Y46585025D01*
X77529539Y46435995D01*
X77205736Y46219636D01*
X76930364Y45944264D01*
X76714005Y45620461D01*
X76564975Y45260670D01*
X76489000Y44878718D01*
X76489000Y44489282D01*
X76564975Y44107330D01*
X76714005Y43747539D01*
X76838647Y43560999D01*
X71327000Y43560999D01*
X71327000Y43981838D01*
X71428995Y44049989D01*
X71774011Y44395005D01*
X72045089Y44800701D01*
X72231810Y45251486D01*
X72327000Y45730037D01*
X72327000Y46217963D01*
X72231810Y46696514D01*
X72045089Y47147299D01*
X71774011Y47552995D01*
X71443632Y47883374D01*
X71802461Y48032005D01*
X72126264Y48248364D01*
X72401636Y48523736D01*
X72617995Y48847539D01*
X72767025Y49207330D01*
X72843000Y49589282D01*
X72843000Y49978718D01*
X72767025Y50360670D01*
X72617995Y50720461D01*
X72401636Y51044264D01*
X72126264Y51319636D01*
X71802461Y51535995D01*
X71442670Y51685025D01*
X71060718Y51761000D01*
X70671282Y51761000D01*
X70289330Y51685025D01*
X69929539Y51535995D01*
X69605736Y51319636D01*
X69330364Y51044264D01*
X69114005Y50720461D01*
X68964975Y50360670D01*
X68889000Y49978718D01*
X68889000Y49589282D01*
X68964975Y49207330D01*
X69114005Y48847539D01*
X69330364Y48523736D01*
X69436770Y48417330D01*
X69127486Y48355810D01*
X68676701Y48169089D01*
X68271005Y47898011D01*
X67925989Y47552995D01*
X67654911Y47147299D01*
X67468190Y46696514D01*
X67373000Y46217963D01*
X67373000Y45837461D01*
X67301636Y45944264D01*
X67026264Y46219636D01*
X66702461Y46435995D01*
X66342670Y46585025D01*
X65960718Y46661000D01*
X65571282Y46661000D01*
X65189330Y46585025D01*
X64829539Y46435995D01*
X64505736Y46219636D01*
X64230364Y45944264D01*
X64014005Y45620461D01*
X63864975Y45260670D01*
X63789000Y44878718D01*
X63789000Y44489282D01*
X63864975Y44107330D01*
X64014005Y43747539D01*
X64138647Y43560999D01*
X58881000Y43560999D01*
X58881000Y43981838D01*
X58982995Y44049989D01*
X59328011Y44395005D01*
X59599089Y44800701D01*
X59785810Y45251486D01*
X59881000Y45730037D01*
X59881000Y46217963D01*
X59785810Y46696514D01*
X59599089Y47147299D01*
X59328011Y47552995D01*
X58982995Y47898011D01*
X58904918Y47950180D01*
X59102461Y48032005D01*
X59426264Y48248364D01*
X59701636Y48523736D01*
X59917995Y48847539D01*
X60067025Y49207330D01*
X60143000Y49589282D01*
X60143000Y49978718D01*
X60067025Y50360670D01*
X59917995Y50720461D01*
X59701636Y51044264D01*
X59426264Y51319636D01*
X59102461Y51535995D01*
X58742670Y51685025D01*
X58360718Y51761000D01*
X57971282Y51761000D01*
X57589330Y51685025D01*
X57229539Y51535995D01*
X56905736Y51319636D01*
X56630364Y51044264D01*
X56414005Y50720461D01*
X56264975Y50360670D01*
X56189000Y49978718D01*
X56189000Y49589282D01*
X56264975Y49207330D01*
X56414005Y48847539D01*
X56630364Y48523736D01*
X56778911Y48375189D01*
X56681486Y48355810D01*
X56230701Y48169089D01*
X55825005Y47898011D01*
X55479989Y47552995D01*
X55208911Y47147299D01*
X55022190Y46696514D01*
X54927000Y46217963D01*
X54927000Y45730037D01*
X55022190Y45251486D01*
X55208911Y44800701D01*
X55479989Y44395005D01*
X55825005Y44049989D01*
X55927000Y43981838D01*
X55927000Y43560999D01*
X54693353Y43560999D01*
X54817995Y43747539D01*
X54967025Y44107330D01*
X55043000Y44489282D01*
X55043000Y44878718D01*
X54967025Y45260670D01*
X54817995Y45620461D01*
X54601636Y45944264D01*
X54326264Y46219636D01*
X54002461Y46435995D01*
X53642670Y46585025D01*
X53260718Y46661000D01*
X52871282Y46661000D01*
X52489330Y46585025D01*
X52129539Y46435995D01*
X51805736Y46219636D01*
X51530364Y45944264D01*
X51314005Y45620461D01*
X51164975Y45260670D01*
X51089000Y44878718D01*
X51089000Y44489282D01*
X51164975Y44107330D01*
X51314005Y43747539D01*
X51438647Y43560999D01*
X45927000Y43560999D01*
X45927000Y43981838D01*
X46028995Y44049989D01*
X46374011Y44395005D01*
X46645089Y44800701D01*
X46831810Y45251486D01*
X46927000Y45730037D01*
X46927000Y46217963D01*
X46831810Y46696514D01*
X46645089Y47147299D01*
X46374011Y47552995D01*
X46043632Y47883374D01*
X46402461Y48032005D01*
X46726264Y48248364D01*
X47001636Y48523736D01*
X47217995Y48847539D01*
X47367025Y49207330D01*
X47443000Y49589282D01*
X47443000Y49978718D01*
X47367025Y50360670D01*
X47217995Y50720461D01*
X47001636Y51044264D01*
X46726264Y51319636D01*
X46402461Y51535995D01*
X46042670Y51685025D01*
X45660718Y51761000D01*
X45271282Y51761000D01*
X44889330Y51685025D01*
X44529539Y51535995D01*
X44205736Y51319636D01*
X43930364Y51044264D01*
X43714005Y50720461D01*
X43564975Y50360670D01*
X43489000Y49978718D01*
X43489000Y49589282D01*
X43564975Y49207330D01*
X43714005Y48847539D01*
X43930364Y48523736D01*
X44036770Y48417330D01*
X43727486Y48355810D01*
X43276701Y48169089D01*
X42871005Y47898011D01*
X42525989Y47552995D01*
X42254911Y47147299D01*
X42068190Y46696514D01*
X41973000Y46217963D01*
X41973000Y45837461D01*
X41901636Y45944264D01*
X41626264Y46219636D01*
X41302461Y46435995D01*
X40942670Y46585025D01*
X40560718Y46661000D01*
X40171282Y46661000D01*
X39789330Y46585025D01*
X39429539Y46435995D01*
X39105736Y46219636D01*
X38830364Y45944264D01*
X38614005Y45620461D01*
X38464975Y45260670D01*
X38389000Y44878718D01*
X38389000Y44489282D01*
X38464975Y44107330D01*
X38614005Y43747539D01*
X38738647Y43560999D01*
X32973000Y43560999D01*
X32973000Y43981838D01*
X33074995Y44049989D01*
X33420011Y44395005D01*
X33691089Y44800701D01*
X33877810Y45251486D01*
X33973000Y45730037D01*
X33973000Y46217963D01*
X33877810Y46696514D01*
X33691089Y47147299D01*
X33420011Y47552995D01*
X33131947Y47841059D01*
X33342670Y47882975D01*
X33702461Y48032005D01*
X34026264Y48248364D01*
X34301636Y48523736D01*
X34517995Y48847539D01*
X34667025Y49207330D01*
X34743000Y49589282D01*
X34743000Y49978718D01*
X34667025Y50360670D01*
X34517995Y50720461D01*
X34301636Y51044264D01*
X34026264Y51319636D01*
X33702461Y51535995D01*
X33342670Y51685025D01*
X32960718Y51761000D01*
X32571282Y51761000D01*
X32189330Y51685025D01*
X31829539Y51535995D01*
X31505736Y51319636D01*
X31230364Y51044264D01*
X31014005Y50720461D01*
X30864975Y50360670D01*
X30789000Y49978718D01*
X30789000Y49589282D01*
X30864975Y49207330D01*
X31014005Y48847539D01*
X31230364Y48523736D01*
X31303100Y48451000D01*
X31252037Y48451000D01*
X30773486Y48355810D01*
X30322701Y48169089D01*
X29917005Y47898011D01*
X29571989Y47552995D01*
X29300911Y47147299D01*
X29114190Y46696514D01*
X29019000Y46217963D01*
X29019000Y46126900D01*
X28926264Y46219636D01*
X28602461Y46435995D01*
X28242670Y46585025D01*
X27860718Y46661000D01*
X27471282Y46661000D01*
X27089330Y46585025D01*
X26729539Y46435995D01*
X26405736Y46219636D01*
X26130364Y45944264D01*
X25914005Y45620461D01*
X25764975Y45260670D01*
X25689000Y44878718D01*
X25689000Y44489282D01*
X25764975Y44107330D01*
X25914005Y43747539D01*
X26038647Y43560999D01*
X21035000Y43560999D01*
X21035000Y43727838D01*
X21136995Y43795989D01*
X21482011Y44141005D01*
X21753089Y44546701D01*
X21939810Y44997486D01*
X22035000Y45476037D01*
X22035000Y45963963D01*
X21939810Y46442514D01*
X21753089Y46893299D01*
X21482011Y47298995D01*
X21136995Y47644011D01*
X20731299Y47915089D01*
X20725750Y47917388D01*
X21002461Y48032005D01*
X21326264Y48248364D01*
X21601636Y48523736D01*
X21817995Y48847539D01*
X21967025Y49207330D01*
X22043000Y49589282D01*
X22043000Y49978718D01*
X21967025Y50360670D01*
X21817995Y50720461D01*
X21601636Y51044264D01*
X21326264Y51319636D01*
X21002461Y51535995D01*
X20642670Y51685025D01*
X20260718Y51761000D01*
X19871282Y51761000D01*
X19489330Y51685025D01*
X19129539Y51535995D01*
X18805736Y51319636D01*
X18530364Y51044264D01*
X18314005Y50720461D01*
X18164975Y50360670D01*
X18089000Y49978718D01*
X18089000Y49589282D01*
X18164975Y49207330D01*
X18314005Y48847539D01*
X18530364Y48523736D01*
X18805736Y48248364D01*
X18981578Y48130870D01*
X18835486Y48101810D01*
X18384701Y47915089D01*
X17979005Y47644011D01*
X17633989Y47298995D01*
X17362911Y46893299D01*
X17176190Y46442514D01*
X17081000Y45963963D01*
X17081000Y45476037D01*
X17176190Y44997486D01*
X17362911Y44546701D01*
X17633989Y44141005D01*
X17979005Y43795989D01*
X18081000Y43727838D01*
X18081000Y43560999D01*
X16586625Y43560999D01*
X16737995Y43787539D01*
X16887025Y44147330D01*
X16963000Y44529282D01*
X16963000Y44918718D01*
X16887025Y45300670D01*
X16737995Y45660461D01*
X16521636Y45984264D01*
X16246264Y46259636D01*
X15922461Y46475995D01*
X15562670Y46625025D01*
X15180718Y46701000D01*
X14791282Y46701000D01*
X14409330Y46625025D01*
X14049539Y46475995D01*
X13725736Y46259636D01*
X13450364Y45984264D01*
X13234005Y45660461D01*
X13084975Y45300670D01*
X13009000Y44918718D01*
X13009000Y44529282D01*
X13084975Y44147330D01*
X13234005Y43787539D01*
X13385375Y43560999D01*
X9835794Y43560999D01*
X9013826Y44382966D01*
X9206547Y44485978D01*
X9431450Y44670550D01*
X9477708Y44726916D01*
X11915095Y47164301D01*
X11971450Y47210550D01*
X12017701Y47266907D01*
X12156022Y47435452D01*
X12293171Y47692041D01*
X12293172Y47692042D01*
X12377629Y47970457D01*
X12399000Y48187444D01*
X12399000Y48187449D01*
X12406146Y48259999D01*
X12399000Y48332550D01*
X12399000Y54544936D01*
X12561990Y54301005D01*
X12907006Y53955989D01*
X13312702Y53684911D01*
X13481212Y53615112D01*
X13450364Y53584264D01*
X13234005Y53260461D01*
X13084975Y52900670D01*
X13009000Y52518718D01*
X13009000Y52129282D01*
X13084975Y51747330D01*
X13234005Y51387539D01*
X13450364Y51063736D01*
X13725736Y50788364D01*
X14049539Y50572005D01*
X14409330Y50422975D01*
X14791282Y50347000D01*
X15180718Y50347000D01*
X15562670Y50422975D01*
X15922461Y50572005D01*
X16246264Y50788364D01*
X16521636Y51063736D01*
X16737995Y51387539D01*
X16887025Y51747330D01*
X16963000Y52129282D01*
X16963000Y52518718D01*
X16887025Y52900670D01*
X16737995Y53260461D01*
X16521636Y53584264D01*
X16246264Y53859636D01*
X16079843Y53970836D01*
X16410012Y54301005D01*
X16478163Y54403000D01*
X25947838Y54403000D01*
X26015989Y54301005D01*
X26361005Y53955989D01*
X26485404Y53872868D01*
X26405736Y53819636D01*
X26130364Y53544264D01*
X25914005Y53220461D01*
X25764975Y52860670D01*
X25689000Y52478718D01*
X25689000Y52089282D01*
X25764975Y51707330D01*
X25914005Y51347539D01*
X26130364Y51023736D01*
X26405736Y50748364D01*
X26729539Y50532005D01*
X27089330Y50382975D01*
X27471282Y50307000D01*
X27860718Y50307000D01*
X28242670Y50382975D01*
X28602461Y50532005D01*
X28926264Y50748364D01*
X29201636Y51023736D01*
X29417995Y51347539D01*
X29567025Y51707330D01*
X29643000Y52089282D01*
X29643000Y52478718D01*
X29567025Y52860670D01*
X29417995Y53220461D01*
X29201636Y53544264D01*
X29076310Y53669590D01*
X29113299Y53684911D01*
X29518995Y53955989D01*
X29864011Y54301005D01*
X29932162Y54403000D01*
X40542695Y54403000D01*
X40544190Y54395486D01*
X40603414Y54252507D01*
X40560718Y54261000D01*
X40171282Y54261000D01*
X39789330Y54185025D01*
X39429539Y54035995D01*
X39105736Y53819636D01*
X38830364Y53544264D01*
X38614005Y53220461D01*
X38464975Y52860670D01*
X38389000Y52478718D01*
X38389000Y52089282D01*
X38464975Y51707330D01*
X38614005Y51347539D01*
X38830364Y51023736D01*
X39105736Y50748364D01*
X39429539Y50532005D01*
X39789330Y50382975D01*
X40171282Y50307000D01*
X40560718Y50307000D01*
X40942670Y50382975D01*
X41302461Y50532005D01*
X41626264Y50748364D01*
X41901636Y51023736D01*
X42117995Y51347539D01*
X42267025Y51707330D01*
X42343000Y52089282D01*
X42343000Y52478718D01*
X42295423Y52717902D01*
X42682037Y52641000D01*
X43169963Y52641000D01*
X43648514Y52736190D01*
X44099299Y52922911D01*
X44504995Y53193989D01*
X44850011Y53539005D01*
X44918162Y53641000D01*
X51627100Y53641000D01*
X51530364Y53544264D01*
X51314005Y53220461D01*
X51164975Y52860670D01*
X51089000Y52478718D01*
X51089000Y52089282D01*
X51164975Y51707330D01*
X51314005Y51347539D01*
X51530364Y51023736D01*
X51805736Y50748364D01*
X52129539Y50532005D01*
X52489330Y50382975D01*
X52871282Y50307000D01*
X53260718Y50307000D01*
X53642670Y50382975D01*
X54002461Y50532005D01*
X54326264Y50748364D01*
X54601636Y51023736D01*
X54817995Y51347539D01*
X54967025Y51707330D01*
X55043000Y52089282D01*
X55043000Y52266999D01*
X55095605Y52266999D01*
X55574156Y52362189D01*
X56024941Y52548910D01*
X56430637Y52819988D01*
X56775653Y53165004D01*
X56803713Y53206999D01*
X64008429Y53206999D01*
X63864975Y52860670D01*
X63789000Y52478718D01*
X63789000Y52089282D01*
X63864975Y51707330D01*
X64014005Y51347539D01*
X64230364Y51023736D01*
X64505736Y50748364D01*
X64829539Y50532005D01*
X65189330Y50382975D01*
X65571282Y50307000D01*
X65960718Y50307000D01*
X66342670Y50382975D01*
X66702461Y50532005D01*
X67026264Y50748364D01*
X67301636Y51023736D01*
X67517995Y51347539D01*
X67667025Y51707330D01*
X67743000Y52089282D01*
X67743000Y52274438D01*
X68082037Y52206999D01*
X68569963Y52206999D01*
X69048514Y52302189D01*
X69499299Y52488910D01*
X69904995Y52759988D01*
X70250011Y53105004D01*
X70521089Y53510700D01*
X70707810Y53961485D01*
X70795633Y54403000D01*
X78017838Y54403000D01*
X78085989Y54301005D01*
X78150099Y54236895D01*
X77889330Y54185025D01*
X77529539Y54035995D01*
X77205736Y53819636D01*
X76930364Y53544264D01*
X76714005Y53220461D01*
X76564975Y52860670D01*
X76489000Y52478718D01*
X76489000Y52089282D01*
X76564975Y51707330D01*
X76714005Y51347539D01*
X76930364Y51023736D01*
X77205736Y50748364D01*
X77529539Y50532005D01*
X77889330Y50382975D01*
X78271282Y50307000D01*
X78660718Y50307000D01*
X79042670Y50382975D01*
X79402461Y50532005D01*
X79726264Y50748364D01*
X80001636Y51023736D01*
X80217995Y51347539D01*
X80367025Y51707330D01*
X80443000Y52089282D01*
X80443000Y52478718D01*
X80367025Y52860670D01*
X80217995Y53220461D01*
X80096026Y53403000D01*
X80253963Y53403000D01*
X80732514Y53498190D01*
X81183299Y53684911D01*
X81588995Y53955989D01*
X81934011Y54301005D01*
X82002162Y54403000D01*
X90209838Y54403000D01*
X90277989Y54301005D01*
X90451189Y54127805D01*
X90229539Y54035995D01*
X89905736Y53819636D01*
X89630364Y53544264D01*
X89414005Y53220461D01*
X89264975Y52860670D01*
X89189000Y52478718D01*
X89189000Y52089282D01*
X89264975Y51707330D01*
X89414005Y51347539D01*
X89630364Y51023736D01*
X89905736Y50748364D01*
X90229539Y50532005D01*
X90589330Y50382975D01*
X90971282Y50307000D01*
X91360718Y50307000D01*
X91742670Y50382975D01*
X92102461Y50532005D01*
X92426264Y50748364D01*
X92701636Y51023736D01*
X92917995Y51347539D01*
X93067025Y51707330D01*
X93143000Y52089282D01*
X93143000Y52478718D01*
X93067025Y52860670D01*
X92917995Y53220461D01*
X92754958Y53464463D01*
X92924514Y53498190D01*
X93375299Y53684911D01*
X93780995Y53955989D01*
X94126011Y54301005D01*
X94194162Y54403000D01*
X102100574Y54403000D01*
X102173127Y54395854D01*
X102245680Y54403000D01*
X102655838Y54403000D01*
X102723989Y54301005D01*
X103069005Y53955989D01*
X103158506Y53896187D01*
X103133736Y53879636D01*
X102858364Y53604264D01*
X102642005Y53280461D01*
X102492975Y52920670D01*
X102417000Y52538718D01*
X102417000Y52149282D01*
X102492975Y51767330D01*
X102642005Y51407539D01*
X102858364Y51083736D01*
X103133736Y50808364D01*
X103457539Y50592005D01*
X103817330Y50442975D01*
X104199282Y50367000D01*
X104588718Y50367000D01*
X104970670Y50442975D01*
X105330461Y50592005D01*
X105654264Y50808364D01*
X105929636Y51083736D01*
X106145995Y51407539D01*
X106295025Y51767330D01*
X106371000Y52149282D01*
X106371000Y52538718D01*
X106295025Y52920670D01*
X106145995Y53280461D01*
X105929636Y53604264D01*
X105837898Y53696002D01*
X106226995Y53955989D01*
X106572011Y54301005D01*
X106843089Y54706701D01*
X107011000Y55112076D01*
X107011001Y3225000D01*
G36*
X99361001Y57357000D02*
G01*
X94194162Y57357000D01*
X94126011Y57458995D01*
X93780995Y57804011D01*
X93375299Y58075089D01*
X92930112Y58259491D01*
X92946537Y58279506D01*
X93005502Y58389820D01*
X93041812Y58509518D01*
X93054072Y58634000D01*
X93051000Y59598250D01*
X92892250Y59757000D01*
X91293000Y59757000D01*
X91293000Y59737000D01*
X91039000Y59737000D01*
X91039000Y59757000D01*
X89439750Y59757000D01*
X89281000Y59598250D01*
X89277928Y58634000D01*
X89290188Y58509518D01*
X89326498Y58389820D01*
X89385463Y58279506D01*
X89464815Y58182815D01*
X89561506Y58103463D01*
X89671820Y58044498D01*
X89791518Y58008188D01*
X89916000Y57995928D01*
X90880250Y57999000D01*
X91038998Y58157748D01*
X91038998Y58079354D01*
X91028701Y58075089D01*
X90623005Y57804011D01*
X90277989Y57458995D01*
X90209838Y57357000D01*
X82002162Y57357000D01*
X81934011Y57458995D01*
X81588995Y57804011D01*
X81183299Y58075089D01*
X80732514Y58261810D01*
X80284692Y58350888D01*
X80305502Y58389820D01*
X80341812Y58509518D01*
X80354072Y58634000D01*
X80351000Y59598250D01*
X80192250Y59757000D01*
X78593000Y59757000D01*
X78593000Y58157750D01*
X78740165Y58010585D01*
X78431005Y57804011D01*
X78085989Y57458995D01*
X78017838Y57357000D01*
X69594554Y57357000D01*
X69522001Y57364146D01*
X69449448Y57357000D01*
X69449445Y57357000D01*
X69232458Y57335629D01*
X68954043Y57251172D01*
X68726927Y57129777D01*
X68569963Y57160999D01*
X68082037Y57160999D01*
X67603486Y57065809D01*
X67152701Y56879088D01*
X66747005Y56608010D01*
X66401989Y56262994D01*
X66333838Y56160999D01*
X56883895Y56160999D01*
X56775653Y56322994D01*
X56430637Y56668010D01*
X56024941Y56939088D01*
X55574156Y57125809D01*
X55095605Y57220999D01*
X54607679Y57220999D01*
X54129128Y57125809D01*
X53678343Y56939088D01*
X53272647Y56668010D01*
X53199637Y56595000D01*
X44918162Y56595000D01*
X44850011Y56696995D01*
X44504995Y57042011D01*
X44099299Y57313089D01*
X43648514Y57499810D01*
X43169963Y57595000D01*
X42682037Y57595000D01*
X42203486Y57499810D01*
X41858712Y57357000D01*
X29932162Y57357000D01*
X29864011Y57458995D01*
X29518995Y57804011D01*
X29159425Y58044269D01*
X29160180Y58044498D01*
X29270494Y58103463D01*
X29367185Y58182815D01*
X29446537Y58279506D01*
X29505502Y58389820D01*
X29541812Y58509518D01*
X29554072Y58634000D01*
X29551000Y59598250D01*
X29392250Y59757000D01*
X27793000Y59757000D01*
X27793000Y59737000D01*
X27539000Y59737000D01*
X27539000Y59757000D01*
X25939750Y59757000D01*
X25781000Y59598250D01*
X25777928Y58634000D01*
X25790188Y58509518D01*
X25826498Y58389820D01*
X25885463Y58279506D01*
X25964815Y58182815D01*
X26061506Y58103463D01*
X26171820Y58044498D01*
X26291518Y58008188D01*
X26416000Y57995928D01*
X26649341Y57996671D01*
X26361005Y57804011D01*
X26015989Y57458995D01*
X25947838Y57357000D01*
X16478163Y57357000D01*
X16410012Y57458995D01*
X16064996Y57804011D01*
X15775673Y57997331D01*
X16216000Y57995928D01*
X16340482Y58008188D01*
X16460180Y58044498D01*
X16570494Y58103463D01*
X16667185Y58182815D01*
X16746537Y58279506D01*
X16805502Y58389820D01*
X16841812Y58509518D01*
X16854072Y58634000D01*
X16851000Y59598250D01*
X16692250Y59757000D01*
X15093000Y59757000D01*
X15093000Y59737000D01*
X14839000Y59737000D01*
X14839000Y59757000D01*
X13239750Y59757000D01*
X13081000Y59598250D01*
X13077928Y58634000D01*
X13090188Y58509518D01*
X13126498Y58389820D01*
X13185463Y58279506D01*
X13264815Y58182815D01*
X13361506Y58103463D01*
X13370106Y58098866D01*
X13312702Y58075089D01*
X12907006Y57804011D01*
X12561990Y57458995D01*
X12399000Y57215064D01*
X12399000Y61134000D01*
X13077928Y61134000D01*
X13081000Y60169750D01*
X13239750Y60011000D01*
X14839000Y60011000D01*
X14839000Y61610250D01*
X15093000Y61610250D01*
X15093000Y60011000D01*
X16692250Y60011000D01*
X16761937Y60080687D01*
X18069000Y60080687D01*
X18069000Y59687313D01*
X18145743Y59301496D01*
X18296281Y58938066D01*
X18514829Y58610986D01*
X18792986Y58332829D01*
X19120066Y58114281D01*
X19483496Y57963743D01*
X19869313Y57887000D01*
X20262687Y57887000D01*
X20648504Y57963743D01*
X21011934Y58114281D01*
X21339014Y58332829D01*
X21617171Y58610986D01*
X21835719Y58938066D01*
X21986257Y59301496D01*
X22063000Y59687313D01*
X22063000Y60080687D01*
X21986257Y60466504D01*
X21835719Y60829934D01*
X21632549Y61134000D01*
X25777928Y61134000D01*
X25781000Y60169750D01*
X25939750Y60011000D01*
X27539000Y60011000D01*
X27539000Y61610250D01*
X27793000Y61610250D01*
X27793000Y60011000D01*
X29392250Y60011000D01*
X29461937Y60080687D01*
X30769000Y60080687D01*
X30769000Y59687313D01*
X30845743Y59301496D01*
X30996281Y58938066D01*
X31214829Y58610986D01*
X31492986Y58332829D01*
X31820066Y58114281D01*
X32183496Y57963743D01*
X32569313Y57887000D01*
X32962687Y57887000D01*
X33348504Y57963743D01*
X33711934Y58114281D01*
X34039014Y58332829D01*
X34317171Y58610986D01*
X34332548Y58634000D01*
X38477928Y58634000D01*
X38490188Y58509518D01*
X38526498Y58389820D01*
X38585463Y58279506D01*
X38664815Y58182815D01*
X38761506Y58103463D01*
X38871820Y58044498D01*
X38991518Y58008188D01*
X39116000Y57995928D01*
X40080250Y57999000D01*
X40239000Y58157750D01*
X40239000Y59757000D01*
X40493000Y59757000D01*
X40493000Y58157750D01*
X40651750Y57999000D01*
X41616000Y57995928D01*
X41740482Y58008188D01*
X41860180Y58044498D01*
X41970494Y58103463D01*
X42067185Y58182815D01*
X42146537Y58279506D01*
X42205502Y58389820D01*
X42241812Y58509518D01*
X42254072Y58634000D01*
X42251000Y59598250D01*
X42092250Y59757000D01*
X40493000Y59757000D01*
X40239000Y59757000D01*
X38639750Y59757000D01*
X38481000Y59598250D01*
X38477928Y58634000D01*
X34332548Y58634000D01*
X34535719Y58938066D01*
X34686257Y59301496D01*
X34763000Y59687313D01*
X34763000Y60080687D01*
X34686257Y60466504D01*
X34535719Y60829934D01*
X34332549Y61134000D01*
X38477928Y61134000D01*
X38481000Y60169750D01*
X38639750Y60011000D01*
X40239000Y60011000D01*
X40239000Y61610250D01*
X40493000Y61610250D01*
X40493000Y60011000D01*
X42092250Y60011000D01*
X42221937Y60140687D01*
X43489000Y60140687D01*
X43489000Y59747313D01*
X43565743Y59361496D01*
X43716281Y58998066D01*
X43934829Y58670986D01*
X44212986Y58392829D01*
X44540066Y58174281D01*
X44903496Y58023743D01*
X45289313Y57947000D01*
X45682687Y57947000D01*
X46068504Y58023743D01*
X46431934Y58174281D01*
X46759014Y58392829D01*
X47037171Y58670986D01*
X47052548Y58694000D01*
X51197928Y58694000D01*
X51210188Y58569518D01*
X51246498Y58449820D01*
X51305463Y58339506D01*
X51384815Y58242815D01*
X51481506Y58163463D01*
X51591820Y58104498D01*
X51711518Y58068188D01*
X51836000Y58055928D01*
X52800250Y58059000D01*
X52959000Y58217750D01*
X52959000Y59817000D01*
X53213000Y59817000D01*
X53213000Y58217750D01*
X53371750Y58059000D01*
X54336000Y58055928D01*
X54460482Y58068188D01*
X54580180Y58104498D01*
X54690494Y58163463D01*
X54787185Y58242815D01*
X54866537Y58339506D01*
X54925502Y58449820D01*
X54961812Y58569518D01*
X54974072Y58694000D01*
X54971000Y59658250D01*
X54812250Y59817000D01*
X53213000Y59817000D01*
X52959000Y59817000D01*
X51359750Y59817000D01*
X51201000Y59658250D01*
X51197928Y58694000D01*
X47052548Y58694000D01*
X47255719Y58998066D01*
X47406257Y59361496D01*
X47483000Y59747313D01*
X47483000Y60140687D01*
X47406257Y60526504D01*
X47255719Y60889934D01*
X47052549Y61194000D01*
X51197928Y61194000D01*
X51201000Y60229750D01*
X51359750Y60071000D01*
X52959000Y60071000D01*
X52959000Y61670250D01*
X53213000Y61670250D01*
X53213000Y60071000D01*
X54812250Y60071000D01*
X54821937Y60080687D01*
X56169000Y60080687D01*
X56169000Y59687313D01*
X56245743Y59301496D01*
X56396281Y58938066D01*
X56614829Y58610986D01*
X56892986Y58332829D01*
X57220066Y58114281D01*
X57583496Y57963743D01*
X57969313Y57887000D01*
X58362687Y57887000D01*
X58748504Y57963743D01*
X59111934Y58114281D01*
X59439014Y58332829D01*
X59717171Y58610986D01*
X59732548Y58634000D01*
X63877928Y58634000D01*
X63890188Y58509518D01*
X63926498Y58389820D01*
X63985463Y58279506D01*
X64064815Y58182815D01*
X64161506Y58103463D01*
X64271820Y58044498D01*
X64391518Y58008188D01*
X64516000Y57995928D01*
X65480250Y57999000D01*
X65639000Y58157750D01*
X65639000Y59757000D01*
X65893000Y59757000D01*
X65893000Y58157750D01*
X66051750Y57999000D01*
X67016000Y57995928D01*
X67140482Y58008188D01*
X67260180Y58044498D01*
X67370494Y58103463D01*
X67467185Y58182815D01*
X67546537Y58279506D01*
X67605502Y58389820D01*
X67641812Y58509518D01*
X67654072Y58634000D01*
X67651000Y59598250D01*
X67492250Y59757000D01*
X65893000Y59757000D01*
X65639000Y59757000D01*
X64039750Y59757000D01*
X63881000Y59598250D01*
X63877928Y58634000D01*
X59732548Y58634000D01*
X59935719Y58938066D01*
X60086257Y59301496D01*
X60163000Y59687313D01*
X60163000Y60080687D01*
X60086257Y60466504D01*
X59935719Y60829934D01*
X59732549Y61134000D01*
X63877928Y61134000D01*
X63881000Y60169750D01*
X64039750Y60011000D01*
X65639000Y60011000D01*
X65639000Y61610250D01*
X65893000Y61610250D01*
X65893000Y60011000D01*
X67492250Y60011000D01*
X67561937Y60080687D01*
X68869000Y60080687D01*
X68869000Y59687313D01*
X68945743Y59301496D01*
X69096281Y58938066D01*
X69314829Y58610986D01*
X69592986Y58332829D01*
X69920066Y58114281D01*
X70283496Y57963743D01*
X70669313Y57887000D01*
X71062687Y57887000D01*
X71448504Y57963743D01*
X71811934Y58114281D01*
X72139014Y58332829D01*
X72417171Y58610986D01*
X72432548Y58634000D01*
X76577928Y58634000D01*
X76590188Y58509518D01*
X76626498Y58389820D01*
X76685463Y58279506D01*
X76764815Y58182815D01*
X76861506Y58103463D01*
X76971820Y58044498D01*
X77091518Y58008188D01*
X77216000Y57995928D01*
X78180250Y57999000D01*
X78339000Y58157750D01*
X78339000Y59757000D01*
X76739750Y59757000D01*
X76581000Y59598250D01*
X76577928Y58634000D01*
X72432548Y58634000D01*
X72635719Y58938066D01*
X72786257Y59301496D01*
X72863000Y59687313D01*
X72863000Y60080687D01*
X72786257Y60466504D01*
X72635719Y60829934D01*
X72432549Y61134000D01*
X76577928Y61134000D01*
X76581000Y60169750D01*
X76739750Y60011000D01*
X78339000Y60011000D01*
X78339000Y61610250D01*
X78593000Y61610250D01*
X78593000Y60011000D01*
X80192250Y60011000D01*
X80261937Y60080687D01*
X81569000Y60080687D01*
X81569000Y59687313D01*
X81645743Y59301496D01*
X81796281Y58938066D01*
X82014829Y58610986D01*
X82292986Y58332829D01*
X82620066Y58114281D01*
X82983496Y57963743D01*
X83369313Y57887000D01*
X83762687Y57887000D01*
X84148504Y57963743D01*
X84511934Y58114281D01*
X84839014Y58332829D01*
X85117171Y58610986D01*
X85335719Y58938066D01*
X85486257Y59301496D01*
X85563000Y59687313D01*
X85563000Y60080687D01*
X85486257Y60466504D01*
X85335719Y60829934D01*
X85132549Y61134000D01*
X89277928Y61134000D01*
X89281000Y60169750D01*
X89439750Y60011000D01*
X91039000Y60011000D01*
X91039000Y61610250D01*
X91293000Y61610250D01*
X91293000Y60011000D01*
X92892250Y60011000D01*
X93021937Y60140687D01*
X94777000Y60140687D01*
X94777000Y59747313D01*
X94853743Y59361496D01*
X95004281Y58998066D01*
X95222829Y58670986D01*
X95500986Y58392829D01*
X95828066Y58174281D01*
X96191496Y58023743D01*
X96577313Y57947000D01*
X96970687Y57947000D01*
X97356504Y58023743D01*
X97719934Y58174281D01*
X98047014Y58392829D01*
X98325171Y58670986D01*
X98543719Y58998066D01*
X98694257Y59361496D01*
X98771000Y59747313D01*
X98771000Y60140687D01*
X98694257Y60526504D01*
X98543719Y60889934D01*
X98325171Y61217014D01*
X98047014Y61495171D01*
X97719934Y61713719D01*
X97356504Y61864257D01*
X96970687Y61941000D01*
X96577313Y61941000D01*
X96191496Y61864257D01*
X95828066Y61713719D01*
X95500986Y61495171D01*
X95222829Y61217014D01*
X95004281Y60889934D01*
X94853743Y60526504D01*
X94777000Y60140687D01*
X93021937Y60140687D01*
X93051000Y60169750D01*
X93054072Y61134000D01*
X93041812Y61258482D01*
X93005502Y61378180D01*
X92946537Y61488494D01*
X92867185Y61585185D01*
X92770494Y61664537D01*
X92660180Y61723502D01*
X92540482Y61759812D01*
X92416000Y61772072D01*
X91451750Y61769000D01*
X91293000Y61610250D01*
X91039000Y61610250D01*
X90880250Y61769000D01*
X89916000Y61772072D01*
X89791518Y61759812D01*
X89671820Y61723502D01*
X89561506Y61664537D01*
X89464815Y61585185D01*
X89385463Y61488494D01*
X89326498Y61378180D01*
X89290188Y61258482D01*
X89277928Y61134000D01*
X85132549Y61134000D01*
X85117171Y61157014D01*
X84839014Y61435171D01*
X84511934Y61653719D01*
X84148504Y61804257D01*
X83762687Y61881000D01*
X83369313Y61881000D01*
X82983496Y61804257D01*
X82620066Y61653719D01*
X82292986Y61435171D01*
X82014829Y61157014D01*
X81796281Y60829934D01*
X81645743Y60466504D01*
X81569000Y60080687D01*
X80261937Y60080687D01*
X80351000Y60169750D01*
X80354072Y61134000D01*
X80341812Y61258482D01*
X80305502Y61378180D01*
X80246537Y61488494D01*
X80167185Y61585185D01*
X80070494Y61664537D01*
X79960180Y61723502D01*
X79840482Y61759812D01*
X79716000Y61772072D01*
X78751750Y61769000D01*
X78593000Y61610250D01*
X78339000Y61610250D01*
X78180250Y61769000D01*
X77216000Y61772072D01*
X77091518Y61759812D01*
X76971820Y61723502D01*
X76861506Y61664537D01*
X76764815Y61585185D01*
X76685463Y61488494D01*
X76626498Y61378180D01*
X76590188Y61258482D01*
X76577928Y61134000D01*
X72432549Y61134000D01*
X72417171Y61157014D01*
X72139014Y61435171D01*
X71811934Y61653719D01*
X71448504Y61804257D01*
X71062687Y61881000D01*
X70669313Y61881000D01*
X70283496Y61804257D01*
X69920066Y61653719D01*
X69592986Y61435171D01*
X69314829Y61157014D01*
X69096281Y60829934D01*
X68945743Y60466504D01*
X68869000Y60080687D01*
X67561937Y60080687D01*
X67651000Y60169750D01*
X67654072Y61134000D01*
X67641812Y61258482D01*
X67605502Y61378180D01*
X67546537Y61488494D01*
X67467185Y61585185D01*
X67370494Y61664537D01*
X67260180Y61723502D01*
X67140482Y61759812D01*
X67016000Y61772072D01*
X66051750Y61769000D01*
X65893000Y61610250D01*
X65639000Y61610250D01*
X65480250Y61769000D01*
X64516000Y61772072D01*
X64391518Y61759812D01*
X64271820Y61723502D01*
X64161506Y61664537D01*
X64064815Y61585185D01*
X63985463Y61488494D01*
X63926498Y61378180D01*
X63890188Y61258482D01*
X63877928Y61134000D01*
X59732549Y61134000D01*
X59717171Y61157014D01*
X59439014Y61435171D01*
X59111934Y61653719D01*
X58748504Y61804257D01*
X58362687Y61881000D01*
X57969313Y61881000D01*
X57583496Y61804257D01*
X57220066Y61653719D01*
X56892986Y61435171D01*
X56614829Y61157014D01*
X56396281Y60829934D01*
X56245743Y60466504D01*
X56169000Y60080687D01*
X54821937Y60080687D01*
X54971000Y60229750D01*
X54974072Y61194000D01*
X54961812Y61318482D01*
X54925502Y61438180D01*
X54866537Y61548494D01*
X54787185Y61645185D01*
X54690494Y61724537D01*
X54580180Y61783502D01*
X54460482Y61819812D01*
X54336000Y61832072D01*
X53371750Y61829000D01*
X53213000Y61670250D01*
X52959000Y61670250D01*
X52800250Y61829000D01*
X51836000Y61832072D01*
X51711518Y61819812D01*
X51591820Y61783502D01*
X51481506Y61724537D01*
X51384815Y61645185D01*
X51305463Y61548494D01*
X51246498Y61438180D01*
X51210188Y61318482D01*
X51197928Y61194000D01*
X47052549Y61194000D01*
X47037171Y61217014D01*
X46759014Y61495171D01*
X46431934Y61713719D01*
X46068504Y61864257D01*
X45682687Y61941000D01*
X45289313Y61941000D01*
X44903496Y61864257D01*
X44540066Y61713719D01*
X44212986Y61495171D01*
X43934829Y61217014D01*
X43716281Y60889934D01*
X43565743Y60526504D01*
X43489000Y60140687D01*
X42221937Y60140687D01*
X42251000Y60169750D01*
X42254072Y61134000D01*
X42241812Y61258482D01*
X42205502Y61378180D01*
X42146537Y61488494D01*
X42067185Y61585185D01*
X41970494Y61664537D01*
X41860180Y61723502D01*
X41740482Y61759812D01*
X41616000Y61772072D01*
X40651750Y61769000D01*
X40493000Y61610250D01*
X40239000Y61610250D01*
X40080250Y61769000D01*
X39116000Y61772072D01*
X38991518Y61759812D01*
X38871820Y61723502D01*
X38761506Y61664537D01*
X38664815Y61585185D01*
X38585463Y61488494D01*
X38526498Y61378180D01*
X38490188Y61258482D01*
X38477928Y61134000D01*
X34332549Y61134000D01*
X34317171Y61157014D01*
X34039014Y61435171D01*
X33711934Y61653719D01*
X33348504Y61804257D01*
X32962687Y61881000D01*
X32569313Y61881000D01*
X32183496Y61804257D01*
X31820066Y61653719D01*
X31492986Y61435171D01*
X31214829Y61157014D01*
X30996281Y60829934D01*
X30845743Y60466504D01*
X30769000Y60080687D01*
X29461937Y60080687D01*
X29551000Y60169750D01*
X29554072Y61134000D01*
X29541812Y61258482D01*
X29505502Y61378180D01*
X29446537Y61488494D01*
X29367185Y61585185D01*
X29270494Y61664537D01*
X29160180Y61723502D01*
X29040482Y61759812D01*
X28916000Y61772072D01*
X27951750Y61769000D01*
X27793000Y61610250D01*
X27539000Y61610250D01*
X27380250Y61769000D01*
X26416000Y61772072D01*
X26291518Y61759812D01*
X26171820Y61723502D01*
X26061506Y61664537D01*
X25964815Y61585185D01*
X25885463Y61488494D01*
X25826498Y61378180D01*
X25790188Y61258482D01*
X25777928Y61134000D01*
X21632549Y61134000D01*
X21617171Y61157014D01*
X21339014Y61435171D01*
X21011934Y61653719D01*
X20648504Y61804257D01*
X20262687Y61881000D01*
X19869313Y61881000D01*
X19483496Y61804257D01*
X19120066Y61653719D01*
X18792986Y61435171D01*
X18514829Y61157014D01*
X18296281Y60829934D01*
X18145743Y60466504D01*
X18069000Y60080687D01*
X16761937Y60080687D01*
X16851000Y60169750D01*
X16854072Y61134000D01*
X16841812Y61258482D01*
X16805502Y61378180D01*
X16746537Y61488494D01*
X16667185Y61585185D01*
X16570494Y61664537D01*
X16460180Y61723502D01*
X16340482Y61759812D01*
X16216000Y61772072D01*
X15251750Y61769000D01*
X15093000Y61610250D01*
X14839000Y61610250D01*
X14680250Y61769000D01*
X13716000Y61772072D01*
X13591518Y61759812D01*
X13471820Y61723502D01*
X13361506Y61664537D01*
X13264815Y61585185D01*
X13185463Y61488494D01*
X13126498Y61378180D01*
X13090188Y61258482D01*
X13077928Y61134000D01*
X12399000Y61134000D01*
X12399000Y66006999D01*
X19565448Y66006999D01*
X19638001Y65999853D01*
X19710554Y66006999D01*
X32105446Y66006999D01*
X32177999Y65999853D01*
X32250552Y66006999D01*
X44965448Y66006999D01*
X45038001Y65999853D01*
X45110554Y66006999D01*
X58267446Y66006999D01*
X58339999Y65999853D01*
X58412552Y66006999D01*
X70365448Y66006999D01*
X70438001Y65999853D01*
X70510554Y66006999D01*
X84589450Y66006999D01*
X84662000Y65999853D01*
X84734551Y66006999D01*
X94335446Y66006999D01*
X94407999Y65999853D01*
X94480552Y66006999D01*
X94480555Y66006999D01*
X94697542Y66028370D01*
X94975957Y66112827D01*
X95232546Y66249977D01*
X95457449Y66434549D01*
X95503707Y66490915D01*
X97171725Y68158932D01*
X97292037Y68135000D01*
X97779963Y68135000D01*
X98258514Y68230190D01*
X98709299Y68416911D01*
X99114995Y68687989D01*
X99361000Y68933994D01*
X99361001Y57357000D01*
G37*
X99361001Y57357000D02*
X94194162Y57357000D01*
X94126011Y57458995D01*
X93780995Y57804011D01*
X93375299Y58075089D01*
X92930112Y58259491D01*
X92946537Y58279506D01*
X93005502Y58389820D01*
X93041812Y58509518D01*
X93054072Y58634000D01*
X93051000Y59598250D01*
X92892250Y59757000D01*
X91293000Y59757000D01*
X91293000Y59737000D01*
X91039000Y59737000D01*
X91039000Y59757000D01*
X89439750Y59757000D01*
X89281000Y59598250D01*
X89277928Y58634000D01*
X89290188Y58509518D01*
X89326498Y58389820D01*
X89385463Y58279506D01*
X89464815Y58182815D01*
X89561506Y58103463D01*
X89671820Y58044498D01*
X89791518Y58008188D01*
X89916000Y57995928D01*
X90880250Y57999000D01*
X91038998Y58157748D01*
X91038998Y58079354D01*
X91028701Y58075089D01*
X90623005Y57804011D01*
X90277989Y57458995D01*
X90209838Y57357000D01*
X82002162Y57357000D01*
X81934011Y57458995D01*
X81588995Y57804011D01*
X81183299Y58075089D01*
X80732514Y58261810D01*
X80284692Y58350888D01*
X80305502Y58389820D01*
X80341812Y58509518D01*
X80354072Y58634000D01*
X80351000Y59598250D01*
X80192250Y59757000D01*
X78593000Y59757000D01*
X78593000Y58157750D01*
X78740165Y58010585D01*
X78431005Y57804011D01*
X78085989Y57458995D01*
X78017838Y57357000D01*
X69594554Y57357000D01*
X69522001Y57364146D01*
X69449448Y57357000D01*
X69449445Y57357000D01*
X69232458Y57335629D01*
X68954043Y57251172D01*
X68726927Y57129777D01*
X68569963Y57160999D01*
X68082037Y57160999D01*
X67603486Y57065809D01*
X67152701Y56879088D01*
X66747005Y56608010D01*
X66401989Y56262994D01*
X66333838Y56160999D01*
X56883895Y56160999D01*
X56775653Y56322994D01*
X56430637Y56668010D01*
X56024941Y56939088D01*
X55574156Y57125809D01*
X55095605Y57220999D01*
X54607679Y57220999D01*
X54129128Y57125809D01*
X53678343Y56939088D01*
X53272647Y56668010D01*
X53199637Y56595000D01*
X44918162Y56595000D01*
X44850011Y56696995D01*
X44504995Y57042011D01*
X44099299Y57313089D01*
X43648514Y57499810D01*
X43169963Y57595000D01*
X42682037Y57595000D01*
X42203486Y57499810D01*
X41858712Y57357000D01*
X29932162Y57357000D01*
X29864011Y57458995D01*
X29518995Y57804011D01*
X29159425Y58044269D01*
X29160180Y58044498D01*
X29270494Y58103463D01*
X29367185Y58182815D01*
X29446537Y58279506D01*
X29505502Y58389820D01*
X29541812Y58509518D01*
X29554072Y58634000D01*
X29551000Y59598250D01*
X29392250Y59757000D01*
X27793000Y59757000D01*
X27793000Y59737000D01*
X27539000Y59737000D01*
X27539000Y59757000D01*
X25939750Y59757000D01*
X25781000Y59598250D01*
X25777928Y58634000D01*
X25790188Y58509518D01*
X25826498Y58389820D01*
X25885463Y58279506D01*
X25964815Y58182815D01*
X26061506Y58103463D01*
X26171820Y58044498D01*
X26291518Y58008188D01*
X26416000Y57995928D01*
X26649341Y57996671D01*
X26361005Y57804011D01*
X26015989Y57458995D01*
X25947838Y57357000D01*
X16478163Y57357000D01*
X16410012Y57458995D01*
X16064996Y57804011D01*
X15775673Y57997331D01*
X16216000Y57995928D01*
X16340482Y58008188D01*
X16460180Y58044498D01*
X16570494Y58103463D01*
X16667185Y58182815D01*
X16746537Y58279506D01*
X16805502Y58389820D01*
X16841812Y58509518D01*
X16854072Y58634000D01*
X16851000Y59598250D01*
X16692250Y59757000D01*
X15093000Y59757000D01*
X15093000Y59737000D01*
X14839000Y59737000D01*
X14839000Y59757000D01*
X13239750Y59757000D01*
X13081000Y59598250D01*
X13077928Y58634000D01*
X13090188Y58509518D01*
X13126498Y58389820D01*
X13185463Y58279506D01*
X13264815Y58182815D01*
X13361506Y58103463D01*
X13370106Y58098866D01*
X13312702Y58075089D01*
X12907006Y57804011D01*
X12561990Y57458995D01*
X12399000Y57215064D01*
X12399000Y61134000D01*
X13077928Y61134000D01*
X13081000Y60169750D01*
X13239750Y60011000D01*
X14839000Y60011000D01*
X14839000Y61610250D01*
X15093000Y61610250D01*
X15093000Y60011000D01*
X16692250Y60011000D01*
X16761937Y60080687D01*
X18069000Y60080687D01*
X18069000Y59687313D01*
X18145743Y59301496D01*
X18296281Y58938066D01*
X18514829Y58610986D01*
X18792986Y58332829D01*
X19120066Y58114281D01*
X19483496Y57963743D01*
X19869313Y57887000D01*
X20262687Y57887000D01*
X20648504Y57963743D01*
X21011934Y58114281D01*
X21339014Y58332829D01*
X21617171Y58610986D01*
X21835719Y58938066D01*
X21986257Y59301496D01*
X22063000Y59687313D01*
X22063000Y60080687D01*
X21986257Y60466504D01*
X21835719Y60829934D01*
X21632549Y61134000D01*
X25777928Y61134000D01*
X25781000Y60169750D01*
X25939750Y60011000D01*
X27539000Y60011000D01*
X27539000Y61610250D01*
X27793000Y61610250D01*
X27793000Y60011000D01*
X29392250Y60011000D01*
X29461937Y60080687D01*
X30769000Y60080687D01*
X30769000Y59687313D01*
X30845743Y59301496D01*
X30996281Y58938066D01*
X31214829Y58610986D01*
X31492986Y58332829D01*
X31820066Y58114281D01*
X32183496Y57963743D01*
X32569313Y57887000D01*
X32962687Y57887000D01*
X33348504Y57963743D01*
X33711934Y58114281D01*
X34039014Y58332829D01*
X34317171Y58610986D01*
X34332548Y58634000D01*
X38477928Y58634000D01*
X38490188Y58509518D01*
X38526498Y58389820D01*
X38585463Y58279506D01*
X38664815Y58182815D01*
X38761506Y58103463D01*
X38871820Y58044498D01*
X38991518Y58008188D01*
X39116000Y57995928D01*
X40080250Y57999000D01*
X40239000Y58157750D01*
X40239000Y59757000D01*
X40493000Y59757000D01*
X40493000Y58157750D01*
X40651750Y57999000D01*
X41616000Y57995928D01*
X41740482Y58008188D01*
X41860180Y58044498D01*
X41970494Y58103463D01*
X42067185Y58182815D01*
X42146537Y58279506D01*
X42205502Y58389820D01*
X42241812Y58509518D01*
X42254072Y58634000D01*
X42251000Y59598250D01*
X42092250Y59757000D01*
X40493000Y59757000D01*
X40239000Y59757000D01*
X38639750Y59757000D01*
X38481000Y59598250D01*
X38477928Y58634000D01*
X34332548Y58634000D01*
X34535719Y58938066D01*
X34686257Y59301496D01*
X34763000Y59687313D01*
X34763000Y60080687D01*
X34686257Y60466504D01*
X34535719Y60829934D01*
X34332549Y61134000D01*
X38477928Y61134000D01*
X38481000Y60169750D01*
X38639750Y60011000D01*
X40239000Y60011000D01*
X40239000Y61610250D01*
X40493000Y61610250D01*
X40493000Y60011000D01*
X42092250Y60011000D01*
X42221937Y60140687D01*
X43489000Y60140687D01*
X43489000Y59747313D01*
X43565743Y59361496D01*
X43716281Y58998066D01*
X43934829Y58670986D01*
X44212986Y58392829D01*
X44540066Y58174281D01*
X44903496Y58023743D01*
X45289313Y57947000D01*
X45682687Y57947000D01*
X46068504Y58023743D01*
X46431934Y58174281D01*
X46759014Y58392829D01*
X47037171Y58670986D01*
X47052548Y58694000D01*
X51197928Y58694000D01*
X51210188Y58569518D01*
X51246498Y58449820D01*
X51305463Y58339506D01*
X51384815Y58242815D01*
X51481506Y58163463D01*
X51591820Y58104498D01*
X51711518Y58068188D01*
X51836000Y58055928D01*
X52800250Y58059000D01*
X52959000Y58217750D01*
X52959000Y59817000D01*
X53213000Y59817000D01*
X53213000Y58217750D01*
X53371750Y58059000D01*
X54336000Y58055928D01*
X54460482Y58068188D01*
X54580180Y58104498D01*
X54690494Y58163463D01*
X54787185Y58242815D01*
X54866537Y58339506D01*
X54925502Y58449820D01*
X54961812Y58569518D01*
X54974072Y58694000D01*
X54971000Y59658250D01*
X54812250Y59817000D01*
X53213000Y59817000D01*
X52959000Y59817000D01*
X51359750Y59817000D01*
X51201000Y59658250D01*
X51197928Y58694000D01*
X47052548Y58694000D01*
X47255719Y58998066D01*
X47406257Y59361496D01*
X47483000Y59747313D01*
X47483000Y60140687D01*
X47406257Y60526504D01*
X47255719Y60889934D01*
X47052549Y61194000D01*
X51197928Y61194000D01*
X51201000Y60229750D01*
X51359750Y60071000D01*
X52959000Y60071000D01*
X52959000Y61670250D01*
X53213000Y61670250D01*
X53213000Y60071000D01*
X54812250Y60071000D01*
X54821937Y60080687D01*
X56169000Y60080687D01*
X56169000Y59687313D01*
X56245743Y59301496D01*
X56396281Y58938066D01*
X56614829Y58610986D01*
X56892986Y58332829D01*
X57220066Y58114281D01*
X57583496Y57963743D01*
X57969313Y57887000D01*
X58362687Y57887000D01*
X58748504Y57963743D01*
X59111934Y58114281D01*
X59439014Y58332829D01*
X59717171Y58610986D01*
X59732548Y58634000D01*
X63877928Y58634000D01*
X63890188Y58509518D01*
X63926498Y58389820D01*
X63985463Y58279506D01*
X64064815Y58182815D01*
X64161506Y58103463D01*
X64271820Y58044498D01*
X64391518Y58008188D01*
X64516000Y57995928D01*
X65480250Y57999000D01*
X65639000Y58157750D01*
X65639000Y59757000D01*
X65893000Y59757000D01*
X65893000Y58157750D01*
X66051750Y57999000D01*
X67016000Y57995928D01*
X67140482Y58008188D01*
X67260180Y58044498D01*
X67370494Y58103463D01*
X67467185Y58182815D01*
X67546537Y58279506D01*
X67605502Y58389820D01*
X67641812Y58509518D01*
X67654072Y58634000D01*
X67651000Y59598250D01*
X67492250Y59757000D01*
X65893000Y59757000D01*
X65639000Y59757000D01*
X64039750Y59757000D01*
X63881000Y59598250D01*
X63877928Y58634000D01*
X59732548Y58634000D01*
X59935719Y58938066D01*
X60086257Y59301496D01*
X60163000Y59687313D01*
X60163000Y60080687D01*
X60086257Y60466504D01*
X59935719Y60829934D01*
X59732549Y61134000D01*
X63877928Y61134000D01*
X63881000Y60169750D01*
X64039750Y60011000D01*
X65639000Y60011000D01*
X65639000Y61610250D01*
X65893000Y61610250D01*
X65893000Y60011000D01*
X67492250Y60011000D01*
X67561937Y60080687D01*
X68869000Y60080687D01*
X68869000Y59687313D01*
X68945743Y59301496D01*
X69096281Y58938066D01*
X69314829Y58610986D01*
X69592986Y58332829D01*
X69920066Y58114281D01*
X70283496Y57963743D01*
X70669313Y57887000D01*
X71062687Y57887000D01*
X71448504Y57963743D01*
X71811934Y58114281D01*
X72139014Y58332829D01*
X72417171Y58610986D01*
X72432548Y58634000D01*
X76577928Y58634000D01*
X76590188Y58509518D01*
X76626498Y58389820D01*
X76685463Y58279506D01*
X76764815Y58182815D01*
X76861506Y58103463D01*
X76971820Y58044498D01*
X77091518Y58008188D01*
X77216000Y57995928D01*
X78180250Y57999000D01*
X78339000Y58157750D01*
X78339000Y59757000D01*
X76739750Y59757000D01*
X76581000Y59598250D01*
X76577928Y58634000D01*
X72432548Y58634000D01*
X72635719Y58938066D01*
X72786257Y59301496D01*
X72863000Y59687313D01*
X72863000Y60080687D01*
X72786257Y60466504D01*
X72635719Y60829934D01*
X72432549Y61134000D01*
X76577928Y61134000D01*
X76581000Y60169750D01*
X76739750Y60011000D01*
X78339000Y60011000D01*
X78339000Y61610250D01*
X78593000Y61610250D01*
X78593000Y60011000D01*
X80192250Y60011000D01*
X80261937Y60080687D01*
X81569000Y60080687D01*
X81569000Y59687313D01*
X81645743Y59301496D01*
X81796281Y58938066D01*
X82014829Y58610986D01*
X82292986Y58332829D01*
X82620066Y58114281D01*
X82983496Y57963743D01*
X83369313Y57887000D01*
X83762687Y57887000D01*
X84148504Y57963743D01*
X84511934Y58114281D01*
X84839014Y58332829D01*
X85117171Y58610986D01*
X85335719Y58938066D01*
X85486257Y59301496D01*
X85563000Y59687313D01*
X85563000Y60080687D01*
X85486257Y60466504D01*
X85335719Y60829934D01*
X85132549Y61134000D01*
X89277928Y61134000D01*
X89281000Y60169750D01*
X89439750Y60011000D01*
X91039000Y60011000D01*
X91039000Y61610250D01*
X91293000Y61610250D01*
X91293000Y60011000D01*
X92892250Y60011000D01*
X93021937Y60140687D01*
X94777000Y60140687D01*
X94777000Y59747313D01*
X94853743Y59361496D01*
X95004281Y58998066D01*
X95222829Y58670986D01*
X95500986Y58392829D01*
X95828066Y58174281D01*
X96191496Y58023743D01*
X96577313Y57947000D01*
X96970687Y57947000D01*
X97356504Y58023743D01*
X97719934Y58174281D01*
X98047014Y58392829D01*
X98325171Y58670986D01*
X98543719Y58998066D01*
X98694257Y59361496D01*
X98771000Y59747313D01*
X98771000Y60140687D01*
X98694257Y60526504D01*
X98543719Y60889934D01*
X98325171Y61217014D01*
X98047014Y61495171D01*
X97719934Y61713719D01*
X97356504Y61864257D01*
X96970687Y61941000D01*
X96577313Y61941000D01*
X96191496Y61864257D01*
X95828066Y61713719D01*
X95500986Y61495171D01*
X95222829Y61217014D01*
X95004281Y60889934D01*
X94853743Y60526504D01*
X94777000Y60140687D01*
X93021937Y60140687D01*
X93051000Y60169750D01*
X93054072Y61134000D01*
X93041812Y61258482D01*
X93005502Y61378180D01*
X92946537Y61488494D01*
X92867185Y61585185D01*
X92770494Y61664537D01*
X92660180Y61723502D01*
X92540482Y61759812D01*
X92416000Y61772072D01*
X91451750Y61769000D01*
X91293000Y61610250D01*
X91039000Y61610250D01*
X90880250Y61769000D01*
X89916000Y61772072D01*
X89791518Y61759812D01*
X89671820Y61723502D01*
X89561506Y61664537D01*
X89464815Y61585185D01*
X89385463Y61488494D01*
X89326498Y61378180D01*
X89290188Y61258482D01*
X89277928Y61134000D01*
X85132549Y61134000D01*
X85117171Y61157014D01*
X84839014Y61435171D01*
X84511934Y61653719D01*
X84148504Y61804257D01*
X83762687Y61881000D01*
X83369313Y61881000D01*
X82983496Y61804257D01*
X82620066Y61653719D01*
X82292986Y61435171D01*
X82014829Y61157014D01*
X81796281Y60829934D01*
X81645743Y60466504D01*
X81569000Y60080687D01*
X80261937Y60080687D01*
X80351000Y60169750D01*
X80354072Y61134000D01*
X80341812Y61258482D01*
X80305502Y61378180D01*
X80246537Y61488494D01*
X80167185Y61585185D01*
X80070494Y61664537D01*
X79960180Y61723502D01*
X79840482Y61759812D01*
X79716000Y61772072D01*
X78751750Y61769000D01*
X78593000Y61610250D01*
X78339000Y61610250D01*
X78180250Y61769000D01*
X77216000Y61772072D01*
X77091518Y61759812D01*
X76971820Y61723502D01*
X76861506Y61664537D01*
X76764815Y61585185D01*
X76685463Y61488494D01*
X76626498Y61378180D01*
X76590188Y61258482D01*
X76577928Y61134000D01*
X72432549Y61134000D01*
X72417171Y61157014D01*
X72139014Y61435171D01*
X71811934Y61653719D01*
X71448504Y61804257D01*
X71062687Y61881000D01*
X70669313Y61881000D01*
X70283496Y61804257D01*
X69920066Y61653719D01*
X69592986Y61435171D01*
X69314829Y61157014D01*
X69096281Y60829934D01*
X68945743Y60466504D01*
X68869000Y60080687D01*
X67561937Y60080687D01*
X67651000Y60169750D01*
X67654072Y61134000D01*
X67641812Y61258482D01*
X67605502Y61378180D01*
X67546537Y61488494D01*
X67467185Y61585185D01*
X67370494Y61664537D01*
X67260180Y61723502D01*
X67140482Y61759812D01*
X67016000Y61772072D01*
X66051750Y61769000D01*
X65893000Y61610250D01*
X65639000Y61610250D01*
X65480250Y61769000D01*
X64516000Y61772072D01*
X64391518Y61759812D01*
X64271820Y61723502D01*
X64161506Y61664537D01*
X64064815Y61585185D01*
X63985463Y61488494D01*
X63926498Y61378180D01*
X63890188Y61258482D01*
X63877928Y61134000D01*
X59732549Y61134000D01*
X59717171Y61157014D01*
X59439014Y61435171D01*
X59111934Y61653719D01*
X58748504Y61804257D01*
X58362687Y61881000D01*
X57969313Y61881000D01*
X57583496Y61804257D01*
X57220066Y61653719D01*
X56892986Y61435171D01*
X56614829Y61157014D01*
X56396281Y60829934D01*
X56245743Y60466504D01*
X56169000Y60080687D01*
X54821937Y60080687D01*
X54971000Y60229750D01*
X54974072Y61194000D01*
X54961812Y61318482D01*
X54925502Y61438180D01*
X54866537Y61548494D01*
X54787185Y61645185D01*
X54690494Y61724537D01*
X54580180Y61783502D01*
X54460482Y61819812D01*
X54336000Y61832072D01*
X53371750Y61829000D01*
X53213000Y61670250D01*
X52959000Y61670250D01*
X52800250Y61829000D01*
X51836000Y61832072D01*
X51711518Y61819812D01*
X51591820Y61783502D01*
X51481506Y61724537D01*
X51384815Y61645185D01*
X51305463Y61548494D01*
X51246498Y61438180D01*
X51210188Y61318482D01*
X51197928Y61194000D01*
X47052549Y61194000D01*
X47037171Y61217014D01*
X46759014Y61495171D01*
X46431934Y61713719D01*
X46068504Y61864257D01*
X45682687Y61941000D01*
X45289313Y61941000D01*
X44903496Y61864257D01*
X44540066Y61713719D01*
X44212986Y61495171D01*
X43934829Y61217014D01*
X43716281Y60889934D01*
X43565743Y60526504D01*
X43489000Y60140687D01*
X42221937Y60140687D01*
X42251000Y60169750D01*
X42254072Y61134000D01*
X42241812Y61258482D01*
X42205502Y61378180D01*
X42146537Y61488494D01*
X42067185Y61585185D01*
X41970494Y61664537D01*
X41860180Y61723502D01*
X41740482Y61759812D01*
X41616000Y61772072D01*
X40651750Y61769000D01*
X40493000Y61610250D01*
X40239000Y61610250D01*
X40080250Y61769000D01*
X39116000Y61772072D01*
X38991518Y61759812D01*
X38871820Y61723502D01*
X38761506Y61664537D01*
X38664815Y61585185D01*
X38585463Y61488494D01*
X38526498Y61378180D01*
X38490188Y61258482D01*
X38477928Y61134000D01*
X34332549Y61134000D01*
X34317171Y61157014D01*
X34039014Y61435171D01*
X33711934Y61653719D01*
X33348504Y61804257D01*
X32962687Y61881000D01*
X32569313Y61881000D01*
X32183496Y61804257D01*
X31820066Y61653719D01*
X31492986Y61435171D01*
X31214829Y61157014D01*
X30996281Y60829934D01*
X30845743Y60466504D01*
X30769000Y60080687D01*
X29461937Y60080687D01*
X29551000Y60169750D01*
X29554072Y61134000D01*
X29541812Y61258482D01*
X29505502Y61378180D01*
X29446537Y61488494D01*
X29367185Y61585185D01*
X29270494Y61664537D01*
X29160180Y61723502D01*
X29040482Y61759812D01*
X28916000Y61772072D01*
X27951750Y61769000D01*
X27793000Y61610250D01*
X27539000Y61610250D01*
X27380250Y61769000D01*
X26416000Y61772072D01*
X26291518Y61759812D01*
X26171820Y61723502D01*
X26061506Y61664537D01*
X25964815Y61585185D01*
X25885463Y61488494D01*
X25826498Y61378180D01*
X25790188Y61258482D01*
X25777928Y61134000D01*
X21632549Y61134000D01*
X21617171Y61157014D01*
X21339014Y61435171D01*
X21011934Y61653719D01*
X20648504Y61804257D01*
X20262687Y61881000D01*
X19869313Y61881000D01*
X19483496Y61804257D01*
X19120066Y61653719D01*
X18792986Y61435171D01*
X18514829Y61157014D01*
X18296281Y60829934D01*
X18145743Y60466504D01*
X18069000Y60080687D01*
X16761937Y60080687D01*
X16851000Y60169750D01*
X16854072Y61134000D01*
X16841812Y61258482D01*
X16805502Y61378180D01*
X16746537Y61488494D01*
X16667185Y61585185D01*
X16570494Y61664537D01*
X16460180Y61723502D01*
X16340482Y61759812D01*
X16216000Y61772072D01*
X15251750Y61769000D01*
X15093000Y61610250D01*
X14839000Y61610250D01*
X14680250Y61769000D01*
X13716000Y61772072D01*
X13591518Y61759812D01*
X13471820Y61723502D01*
X13361506Y61664537D01*
X13264815Y61585185D01*
X13185463Y61488494D01*
X13126498Y61378180D01*
X13090188Y61258482D01*
X13077928Y61134000D01*
X12399000Y61134000D01*
X12399000Y66006999D01*
X19565448Y66006999D01*
X19638001Y65999853D01*
X19710554Y66006999D01*
X32105446Y66006999D01*
X32177999Y65999853D01*
X32250552Y66006999D01*
X44965448Y66006999D01*
X45038001Y65999853D01*
X45110554Y66006999D01*
X58267446Y66006999D01*
X58339999Y65999853D01*
X58412552Y66006999D01*
X70365448Y66006999D01*
X70438001Y65999853D01*
X70510554Y66006999D01*
X84589450Y66006999D01*
X84662000Y65999853D01*
X84734551Y66006999D01*
X94335446Y66006999D01*
X94407999Y65999853D01*
X94480552Y66006999D01*
X94480555Y66006999D01*
X94697542Y66028370D01*
X94975957Y66112827D01*
X95232546Y66249977D01*
X95457449Y66434549D01*
X95503707Y66490915D01*
X97171725Y68158932D01*
X97292037Y68135000D01*
X97779963Y68135000D01*
X98258514Y68230190D01*
X98709299Y68416911D01*
X99114995Y68687989D01*
X99361000Y68933994D01*
X99361001Y57357000D01*
G36*
X107011000Y56647924D02*
G01*
X106843089Y57053299D01*
X106572011Y57458995D01*
X106226995Y57804011D01*
X105821299Y58075089D01*
X105800133Y58083856D01*
X105868180Y58104498D01*
X105978494Y58163463D01*
X106075185Y58242815D01*
X106154537Y58339506D01*
X106213502Y58449820D01*
X106249812Y58569518D01*
X106262072Y58694000D01*
X106259000Y59658250D01*
X106100250Y59817000D01*
X104501000Y59817000D01*
X104501000Y59797000D01*
X104247000Y59797000D01*
X104247000Y59817000D01*
X102647750Y59817000D01*
X102489000Y59658250D01*
X102485928Y58694000D01*
X102498188Y58569518D01*
X102534498Y58449820D01*
X102593463Y58339506D01*
X102672815Y58242815D01*
X102769506Y58163463D01*
X102879820Y58104498D01*
X102999518Y58068188D01*
X103124000Y58055928D01*
X103447567Y58056959D01*
X103069005Y57804011D01*
X102723989Y57458995D01*
X102707541Y57434379D01*
X102315000Y57826919D01*
X102315000Y61194000D01*
X102485928Y61194000D01*
X102489000Y60229750D01*
X102647750Y60071000D01*
X104247000Y60071000D01*
X104247000Y61670250D01*
X104501000Y61670250D01*
X104501000Y60071000D01*
X106100250Y60071000D01*
X106259000Y60229750D01*
X106262072Y61194000D01*
X106249812Y61318482D01*
X106213502Y61438180D01*
X106154537Y61548494D01*
X106075185Y61645185D01*
X105978494Y61724537D01*
X105868180Y61783502D01*
X105748482Y61819812D01*
X105624000Y61832072D01*
X104659750Y61829000D01*
X104501000Y61670250D01*
X104247000Y61670250D01*
X104088250Y61829000D01*
X103124000Y61832072D01*
X102999518Y61819812D01*
X102879820Y61783502D01*
X102769506Y61724537D01*
X102672815Y61645185D01*
X102593463Y61548494D01*
X102534498Y61438180D01*
X102498188Y61318482D01*
X102485928Y61194000D01*
X102315000Y61194000D01*
X102315000Y70338718D01*
X102397000Y70338718D01*
X102397000Y69949282D01*
X102472975Y69567330D01*
X102622005Y69207539D01*
X102838364Y68883736D01*
X103113736Y68608364D01*
X103437539Y68392005D01*
X103797330Y68242975D01*
X104179282Y68167000D01*
X104568718Y68167000D01*
X104950670Y68242975D01*
X105310461Y68392005D01*
X105634264Y68608364D01*
X105909636Y68883736D01*
X106125995Y69207539D01*
X106275025Y69567330D01*
X106351000Y69949282D01*
X106351000Y70338718D01*
X106275025Y70720670D01*
X106125995Y71080461D01*
X105909636Y71404264D01*
X105634264Y71679636D01*
X105310461Y71895995D01*
X104950670Y72045025D01*
X104568718Y72121000D01*
X104179282Y72121000D01*
X103797330Y72045025D01*
X103437539Y71895995D01*
X103113736Y71679636D01*
X102838364Y71404264D01*
X102622005Y71080461D01*
X102472975Y70720670D01*
X102397000Y70338718D01*
X102315000Y70338718D01*
X102315000Y79079081D01*
X102961541Y79725621D01*
X102977989Y79701005D01*
X103284954Y79394040D01*
X103113736Y79279636D01*
X102838364Y79004264D01*
X102622005Y78680461D01*
X102472975Y78320670D01*
X102397000Y77938718D01*
X102397000Y77549282D01*
X102472975Y77167330D01*
X102622005Y76807539D01*
X102838364Y76483736D01*
X103113736Y76208364D01*
X103437539Y75992005D01*
X103797330Y75842975D01*
X104179282Y75767000D01*
X104568718Y75767000D01*
X104950670Y75842975D01*
X105310461Y75992005D01*
X105634264Y76208364D01*
X105909636Y76483736D01*
X106125995Y76807539D01*
X106275025Y77167330D01*
X106351000Y77549282D01*
X106351000Y77938718D01*
X106275025Y78320670D01*
X106125995Y78680461D01*
X105909636Y79004264D01*
X105901131Y79012769D01*
X106075299Y79084911D01*
X106480995Y79355989D01*
X106826011Y79701005D01*
X107011000Y79977860D01*
X107011000Y56647924D01*
G37*
X107011000Y56647924D02*
X106843089Y57053299D01*
X106572011Y57458995D01*
X106226995Y57804011D01*
X105821299Y58075089D01*
X105800133Y58083856D01*
X105868180Y58104498D01*
X105978494Y58163463D01*
X106075185Y58242815D01*
X106154537Y58339506D01*
X106213502Y58449820D01*
X106249812Y58569518D01*
X106262072Y58694000D01*
X106259000Y59658250D01*
X106100250Y59817000D01*
X104501000Y59817000D01*
X104501000Y59797000D01*
X104247000Y59797000D01*
X104247000Y59817000D01*
X102647750Y59817000D01*
X102489000Y59658250D01*
X102485928Y58694000D01*
X102498188Y58569518D01*
X102534498Y58449820D01*
X102593463Y58339506D01*
X102672815Y58242815D01*
X102769506Y58163463D01*
X102879820Y58104498D01*
X102999518Y58068188D01*
X103124000Y58055928D01*
X103447567Y58056959D01*
X103069005Y57804011D01*
X102723989Y57458995D01*
X102707541Y57434379D01*
X102315000Y57826919D01*
X102315000Y61194000D01*
X102485928Y61194000D01*
X102489000Y60229750D01*
X102647750Y60071000D01*
X104247000Y60071000D01*
X104247000Y61670250D01*
X104501000Y61670250D01*
X104501000Y60071000D01*
X106100250Y60071000D01*
X106259000Y60229750D01*
X106262072Y61194000D01*
X106249812Y61318482D01*
X106213502Y61438180D01*
X106154537Y61548494D01*
X106075185Y61645185D01*
X105978494Y61724537D01*
X105868180Y61783502D01*
X105748482Y61819812D01*
X105624000Y61832072D01*
X104659750Y61829000D01*
X104501000Y61670250D01*
X104247000Y61670250D01*
X104088250Y61829000D01*
X103124000Y61832072D01*
X102999518Y61819812D01*
X102879820Y61783502D01*
X102769506Y61724537D01*
X102672815Y61645185D01*
X102593463Y61548494D01*
X102534498Y61438180D01*
X102498188Y61318482D01*
X102485928Y61194000D01*
X102315000Y61194000D01*
X102315000Y70338718D01*
X102397000Y70338718D01*
X102397000Y69949282D01*
X102472975Y69567330D01*
X102622005Y69207539D01*
X102838364Y68883736D01*
X103113736Y68608364D01*
X103437539Y68392005D01*
X103797330Y68242975D01*
X104179282Y68167000D01*
X104568718Y68167000D01*
X104950670Y68242975D01*
X105310461Y68392005D01*
X105634264Y68608364D01*
X105909636Y68883736D01*
X106125995Y69207539D01*
X106275025Y69567330D01*
X106351000Y69949282D01*
X106351000Y70338718D01*
X106275025Y70720670D01*
X106125995Y71080461D01*
X105909636Y71404264D01*
X105634264Y71679636D01*
X105310461Y71895995D01*
X104950670Y72045025D01*
X104568718Y72121000D01*
X104179282Y72121000D01*
X103797330Y72045025D01*
X103437539Y71895995D01*
X103113736Y71679636D01*
X102838364Y71404264D01*
X102622005Y71080461D01*
X102472975Y70720670D01*
X102397000Y70338718D01*
X102315000Y70338718D01*
X102315000Y79079081D01*
X102961541Y79725621D01*
X102977989Y79701005D01*
X103284954Y79394040D01*
X103113736Y79279636D01*
X102838364Y79004264D01*
X102622005Y78680461D01*
X102472975Y78320670D01*
X102397000Y77938718D01*
X102397000Y77549282D01*
X102472975Y77167330D01*
X102622005Y76807539D01*
X102838364Y76483736D01*
X103113736Y76208364D01*
X103437539Y75992005D01*
X103797330Y75842975D01*
X104179282Y75767000D01*
X104568718Y75767000D01*
X104950670Y75842975D01*
X105310461Y75992005D01*
X105634264Y76208364D01*
X105909636Y76483736D01*
X106125995Y76807539D01*
X106275025Y77167330D01*
X106351000Y77549282D01*
X106351000Y77938718D01*
X106275025Y78320670D01*
X106125995Y78680461D01*
X105909636Y79004264D01*
X105901131Y79012769D01*
X106075299Y79084911D01*
X106480995Y79355989D01*
X106826011Y79701005D01*
X107011000Y79977860D01*
X107011000Y56647924D01*
M02*
