M48
; DRILL file {KiCad (5.1.5)-3} date 24.02.2021 13:16:22
; FORMAT={-:-/ absolute / metric / decimal}
; #@! TF.CreationDate,2021-02-24T13:16:22+01:00
; #@! TF.GenerationSoftware,Kicad,Pcbnew,(5.1.5)-3
FMAT,2
METRIC
T1C0.800
T2C0.900
T3C1.100
T4C1.500
%
G90
G05
T1
X70.866Y34.484
X78.466Y34.484
X70.866Y59.884
X78.466Y59.884
X38.1Y21.336
X38.1Y13.716
X40.64Y21.336
X40.64Y13.716
X43.18Y21.336
X43.18Y13.716
X45.72Y21.336
X45.72Y13.716
X48.26Y21.336
X48.26Y13.716
X50.8Y21.336
X50.8Y13.716
X53.34Y21.336
X53.34Y13.716
X55.88Y21.336
X55.88Y13.716
X58.42Y21.336
X58.42Y13.716
X60.96Y21.336
X60.96Y13.716
X63.5Y21.336
X63.5Y13.716
X66.04Y21.336
X66.04Y13.716
X68.58Y21.336
X68.58Y13.716
X71.12Y21.336
X71.12Y13.716
X96.794Y34.544
X104.394Y34.544
X96.774Y59.944
X104.374Y59.944
X7.366Y59.884
X14.966Y59.884
X80.264Y8.128
X82.764Y8.128
X45.466Y34.484
X53.066Y34.484
X83.566Y34.484
X91.166Y34.484
X45.486Y59.944
X53.086Y59.944
X20.066Y59.884
X27.666Y59.884
X32.766Y34.484
X40.366Y34.484
X7.386Y34.524
X14.986Y34.524
X58.166Y34.484
X65.766Y34.484
X20.066Y34.484
X27.666Y34.484
X58.166Y59.884
X65.766Y59.884
X83.566Y59.884
X91.166Y59.884
X32.766Y59.884
X40.366Y59.884
T2
X70.866Y49.784
X78.466Y52.284
X78.466Y44.684
X70.866Y75.184
X78.466Y77.684
X78.466Y70.084
X96.794Y49.844
X104.394Y52.344
X104.394Y44.744
X96.774Y75.244
X104.374Y77.744
X104.374Y70.144
X7.366Y75.184
X14.966Y77.684
X14.966Y70.084
X45.466Y49.784
X53.066Y52.284
X53.066Y44.684
X83.566Y49.784
X91.166Y52.284
X91.166Y44.684
X45.486Y75.244
X53.086Y77.744
X53.086Y70.144
X20.066Y75.184
X27.666Y77.684
X27.666Y70.084
X32.766Y49.784
X40.366Y52.284
X40.366Y44.684
X7.386Y49.824
X14.986Y52.324
X14.986Y44.724
X58.166Y49.784
X65.766Y52.284
X65.766Y44.684
X20.066Y49.784
X27.666Y52.284
X27.666Y44.684
X58.166Y75.184
X65.766Y77.684
X65.766Y70.084
X83.566Y75.184
X91.166Y77.684
X91.166Y70.084
X32.766Y75.184
X40.366Y77.684
X40.366Y70.084
T3
X25.908Y89.408
X30.988Y89.408
X36.068Y89.408
X41.148Y89.408
X46.228Y89.408
X51.308Y89.408
X56.388Y89.408
X61.468Y89.408
X13.716Y89.408
X18.796Y89.408
X68.58Y89.408
X73.66Y89.408
X78.74Y89.408
X83.82Y89.408
X88.9Y89.408
X93.98Y89.408
X99.06Y89.408
X104.14Y89.408
T4
X5.588Y45.72
X7.366Y70.612
X14.486Y55.88
X16.256Y81.28
X17.78Y63.754
X19.304Y70.612
X19.558Y45.72
X25.908Y63.754
X27.94Y55.88
X29.741Y81.257
X31.496Y45.974
X32.258Y70.866
X33.528Y8.636
X34.798Y37.846
X40.894Y81.28
X42.164Y64.262
X42.926Y55.118
X43.434Y38.354
X44.45Y45.974
X45.006Y70.612
X46.736Y18.034
X53.086Y81.28
X54.852Y54.744
X55.371Y27.719
X55.626Y64.262
X55.88Y38.354
X57.404Y45.974
X57.912Y70.612
X65.48Y81.28
X68.326Y54.684
X68.326Y38.1
X68.834Y64.262
X69.596Y25.146
X69.85Y45.974
X70.56Y70.612
X75.438Y12.766
X78.994Y81.28
X80.01Y55.88
X84.328Y64.262
X84.328Y45.974
X84.582Y70.612
X92.202Y81.28
X92.202Y55.88
X96.52Y45.974
X97.028Y64.262
X97.536Y70.612
X100.584Y38.1
X104.648Y55.88
X104.902Y81.28
T0
M30
